G75*
%MOIN*%
%OFA0B0*%
%FSLAX25Y25*%
%IPPOS*%
%LPD*%
%AMOC8*
5,1,8,0,0,1.08239X$1,22.5*
%
%ADD10OC8,0.06300*%
%ADD11C,0.07400*%
%ADD12C,0.01600*%
D10*
X0060000Y0015000D03*
X0070000Y0015000D03*
X0080000Y0015000D03*
X0090000Y0015000D03*
X0100000Y0015000D03*
X0110000Y0015000D03*
X0120000Y0015000D03*
X0130000Y0015000D03*
X0140000Y0015000D03*
X0150000Y0015000D03*
X0150000Y0195000D03*
X0140000Y0195000D03*
X0130000Y0195000D03*
X0120000Y0195000D03*
X0110000Y0195000D03*
X0100000Y0195000D03*
X0090000Y0195000D03*
X0080000Y0195000D03*
X0070000Y0195000D03*
X0060000Y0195000D03*
D11*
X0030500Y0175000D03*
X0029500Y0165000D03*
X0020500Y0165000D03*
X0019500Y0155000D03*
X0020500Y0145000D03*
X0029500Y0145000D03*
X0030500Y0155000D03*
X0019500Y0175000D03*
X0020500Y0185000D03*
X0029500Y0185000D03*
X0131063Y0165131D03*
X0131037Y0156069D03*
X0141037Y0155069D03*
X0151037Y0156069D03*
X0151063Y0165131D03*
X0141063Y0166131D03*
X0170000Y0195500D03*
X0180000Y0194500D03*
X0190000Y0195500D03*
D12*
X0180000Y0194500D02*
X0170700Y0194500D01*
X0169700Y0195500D01*
X0170000Y0195500D01*
X0169700Y0195500D02*
X0164700Y0195500D01*
X0150800Y0181600D01*
X0135200Y0181600D01*
X0131000Y0177400D01*
X0131000Y0165194D01*
X0131063Y0165131D01*
X0131037Y0156069D02*
X0131000Y0156031D01*
X0083169Y0156031D01*
X0044600Y0194600D01*
X0023200Y0194600D01*
X0020400Y0191800D01*
X0020400Y0185100D01*
X0020500Y0185000D01*
X0019500Y0155000D02*
X0019400Y0154900D01*
X0013100Y0154900D01*
X0010700Y0152500D01*
X0010700Y0140300D01*
X0016100Y0134900D01*
X0161600Y0134900D01*
X0164100Y0137400D01*
X0164100Y0160100D01*
X0159069Y0165131D01*
X0151063Y0165131D01*
X0151037Y0156069D02*
X0151037Y0148937D01*
X0147000Y0144900D01*
X0029600Y0144900D01*
X0029500Y0145000D01*
M02*
