%
M48
M72
T01C0.01575
T02C0.01969
T03C0.02362
T04C0.04000
%
T01
X58874Y46465
X59858Y39575
X59858Y29929
X59858Y23236
T02
X117535Y21543
X117535Y16543
X117535Y11543
X123756Y27764
X128756Y27764
X133756Y27764
T03
X8874Y18512
X24622Y18512
X24622Y13591
X44898Y16346
X49425Y12803
X29740Y37803
X54150Y39575
X66945Y57882
X63402Y64575
X77181Y36031
X94898Y50205
X99031Y44299
X106315Y44299
X109268Y48433
X98638Y57488
X103953Y32882
X97063Y23236
X91748Y11425
X130921Y70480
X134465Y140165
T04
X130488Y62016
X120488Y62016
X120488Y51976
X130488Y51976
X130488Y41937
X120488Y41937
X7102Y51425
X7102Y61425
M30
