G04 #@! TF.GenerationSoftware,KiCad,Pcbnew,(5.0.0-rc2-92-g9552e0272)*
G04 #@! TF.CreationDate,2018-06-17T01:32:07-07:00*
G04 #@! TF.ProjectId,sprite,7370726974652E6B696361645F706362,rev?*
G04 #@! TF.SameCoordinates,Original*
G04 #@! TF.FileFunction,Legend,Top*
G04 #@! TF.FilePolarity,Positive*
%FSLAX46Y46*%
G04 Gerber Fmt 4.6, Leading zero omitted, Abs format (unit mm)*
G04 Created by KiCad (PCBNEW (5.0.0-rc2-92-g9552e0272)) date Sun Jun 17 01:32:07 2018*
%MOMM*%
%LPD*%
G01*
G04 APERTURE LIST*
%ADD10C,0.300000*%
%ADD11C,0.150000*%
%ADD12C,0.127000*%
%ADD13C,0.120000*%
%ADD14C,0.076200*%
%ADD15C,0.203200*%
%ADD16C,0.101600*%
%ADD17C,0.075000*%
%ADD18C,0.010000*%
%ADD19C,0.106479*%
%ADD20C,0.100000*%
%ADD21C,0.081280*%
G04 APERTURE END LIST*
D10*
X124255480Y-127259509D02*
X124413809Y-127280536D01*
X124683957Y-127187517D01*
X124795776Y-127073470D01*
X124816804Y-126915141D01*
X124793549Y-126847604D01*
X124679502Y-126735785D01*
X124521173Y-126714757D01*
X124318562Y-126784522D01*
X124160233Y-126763495D01*
X124046186Y-126651675D01*
X124022931Y-126584138D01*
X124043959Y-126425809D01*
X124155778Y-126311763D01*
X124358389Y-126241998D01*
X124516718Y-126263025D01*
X124966222Y-126032704D02*
X125506519Y-125846665D01*
X125006049Y-125490180D02*
X125424637Y-126705847D01*
X125538684Y-126817666D01*
X125697013Y-126838694D01*
X125832087Y-126792184D01*
X126912679Y-126420106D02*
X126656876Y-125677199D01*
X126542829Y-125565379D01*
X126384500Y-125544352D01*
X126114352Y-125637371D01*
X126002533Y-125751418D01*
X126889425Y-126352569D02*
X126777605Y-126466616D01*
X126439920Y-126582890D01*
X126281591Y-126561863D01*
X126167544Y-126450044D01*
X126121035Y-126314969D01*
X126142062Y-126156640D01*
X126253881Y-126042594D01*
X126591566Y-125926319D01*
X126703386Y-125812273D01*
X128172628Y-125910726D02*
X128060809Y-126024773D01*
X127790661Y-126117793D01*
X127632332Y-126096765D01*
X127541540Y-126052483D01*
X127427493Y-125940664D01*
X127287964Y-125535442D01*
X127308991Y-125377113D01*
X127353274Y-125286321D01*
X127465093Y-125172274D01*
X127735241Y-125079255D01*
X127893570Y-125100282D01*
X128757207Y-125633896D02*
X128847999Y-125678178D01*
X128803717Y-125768970D01*
X128712925Y-125724687D01*
X128757207Y-125633896D01*
X128803717Y-125768970D01*
X129479087Y-125536421D02*
X128990735Y-124118143D01*
X129176774Y-124658439D02*
X129288593Y-124544393D01*
X129558741Y-124451373D01*
X129717070Y-124472400D01*
X129807862Y-124516683D01*
X129921909Y-124628502D01*
X130061438Y-125033724D01*
X130040411Y-125192053D01*
X129996128Y-125282845D01*
X129884309Y-125396892D01*
X129614161Y-125489911D01*
X129455832Y-125468884D01*
X131279332Y-124841002D02*
X131167513Y-124955049D01*
X130897365Y-125048069D01*
X130739036Y-125027041D01*
X130624989Y-124915222D01*
X130438950Y-124374926D01*
X130459977Y-124216597D01*
X130571797Y-124102550D01*
X130841945Y-124009531D01*
X131000274Y-124030558D01*
X131114321Y-124142377D01*
X131160830Y-124277451D01*
X130531970Y-124645074D01*
X131977957Y-124675991D02*
X131652389Y-123730472D01*
X131745409Y-124000620D02*
X131766436Y-123842291D01*
X131810718Y-123751500D01*
X131922537Y-123637453D01*
X132057612Y-123590943D01*
X132855939Y-124373678D02*
X132367587Y-122955400D01*
X132804974Y-123786871D02*
X133396235Y-124187639D01*
X133070667Y-123242120D02*
X132716410Y-123968455D01*
X134521110Y-123724769D02*
X134409291Y-123838816D01*
X134139143Y-123931835D01*
X133980814Y-123910808D01*
X133866767Y-123798989D01*
X133680728Y-123258692D01*
X133701755Y-123100363D01*
X133813575Y-122986316D01*
X134083723Y-122893297D01*
X134242052Y-122914324D01*
X134356099Y-123026144D01*
X134402608Y-123161218D01*
X133773748Y-123528840D01*
X135422347Y-123489993D02*
X135264018Y-123468965D01*
X135149971Y-123357146D01*
X134731383Y-122141479D01*
X136479684Y-123050378D02*
X136367865Y-123164424D01*
X136097717Y-123257444D01*
X135939388Y-123236417D01*
X135825341Y-123124597D01*
X135639302Y-122584301D01*
X135660330Y-122425972D01*
X135772149Y-122311925D01*
X136042297Y-122218906D01*
X136200626Y-122239933D01*
X136314673Y-122351752D01*
X136361182Y-122486826D01*
X135732322Y-122854449D01*
X136717667Y-121986357D02*
X137380921Y-122815601D01*
X137393038Y-121753808D02*
X137380921Y-122815601D01*
X137362121Y-123199796D01*
X137317839Y-123290588D01*
X137206020Y-123404635D01*
X138212393Y-122378214D02*
X138303184Y-122422496D01*
X138258902Y-122513288D01*
X138168110Y-122469006D01*
X138212393Y-122378214D01*
X138258902Y-122513288D01*
X139451314Y-122027163D02*
X139339495Y-122141210D01*
X139069347Y-122234230D01*
X138911018Y-122213202D01*
X138796971Y-122101383D01*
X138610932Y-121561087D01*
X138631959Y-121402758D01*
X138743779Y-121288711D01*
X139013927Y-121195692D01*
X139172256Y-121216719D01*
X139286303Y-121328538D01*
X139332812Y-121463612D01*
X138703952Y-121831235D01*
X140757773Y-121652858D02*
X140269421Y-120234580D01*
X140734518Y-121585321D02*
X140622699Y-121699368D01*
X140352551Y-121792387D01*
X140194222Y-121771360D01*
X140103430Y-121727078D01*
X139989383Y-121615258D01*
X139849854Y-121210036D01*
X139870881Y-121051707D01*
X139915163Y-120960915D01*
X140026982Y-120846869D01*
X140297131Y-120753849D01*
X140455460Y-120774876D01*
X141715408Y-120265497D02*
X142040977Y-121211015D01*
X141107575Y-120474791D02*
X141363379Y-121217698D01*
X141477425Y-121329517D01*
X141635754Y-121350545D01*
X141838365Y-121280780D01*
X141950185Y-121166733D01*
X141994467Y-121075941D01*
X144388201Y-121007156D02*
X144297409Y-120962874D01*
X144092570Y-120806772D01*
X143978523Y-120694953D01*
X143841222Y-120515597D01*
X143657410Y-120201167D01*
X143564391Y-119931019D01*
X143515654Y-119570078D01*
X143513426Y-119344212D01*
X143534453Y-119185883D01*
X143599763Y-118936763D01*
X143644045Y-118845971D01*
X144233079Y-119020872D02*
X144277361Y-118930080D01*
X144389180Y-118816033D01*
X144726865Y-118699759D01*
X144885194Y-118720786D01*
X144975986Y-118765068D01*
X145090033Y-118876888D01*
X145136543Y-119011962D01*
X145138770Y-119237828D01*
X144607384Y-120327330D01*
X145485366Y-120025017D01*
X145874995Y-118304426D02*
X146010069Y-118257916D01*
X146168398Y-118278944D01*
X146259190Y-118323226D01*
X146373237Y-118435045D01*
X146533793Y-118681938D01*
X146650068Y-119019624D01*
X146675550Y-119313027D01*
X146654523Y-119471356D01*
X146610241Y-119562147D01*
X146498421Y-119676194D01*
X146363347Y-119722704D01*
X146205018Y-119701677D01*
X146114226Y-119657394D01*
X146000180Y-119545575D01*
X145839623Y-119298682D01*
X145723349Y-118960997D01*
X145697866Y-118667594D01*
X145718894Y-118509265D01*
X145763176Y-118418473D01*
X145874995Y-118304426D01*
X148186847Y-119094822D02*
X147376403Y-119373881D01*
X147781625Y-119234352D02*
X147293273Y-117816074D01*
X147227963Y-118065195D01*
X147139399Y-118246779D01*
X147027580Y-118360825D01*
X148718233Y-118005320D02*
X148559904Y-117984292D01*
X148469113Y-117940010D01*
X148355066Y-117828191D01*
X148331811Y-117760654D01*
X148352838Y-117602325D01*
X148397120Y-117511533D01*
X148508940Y-117397486D01*
X148779088Y-117304467D01*
X148937417Y-117325494D01*
X149028209Y-117369776D01*
X149142255Y-117481595D01*
X149165510Y-117549132D01*
X149144483Y-117707461D01*
X149100201Y-117798253D01*
X148988382Y-117912300D01*
X148718233Y-118005320D01*
X148606414Y-118119366D01*
X148562132Y-118210158D01*
X148541105Y-118368487D01*
X148634124Y-118638635D01*
X148748171Y-118750455D01*
X148838963Y-118794737D01*
X148997292Y-118815764D01*
X149267440Y-118722745D01*
X149379259Y-118608698D01*
X149423541Y-118517906D01*
X149444569Y-118359577D01*
X149351549Y-118089429D01*
X149237502Y-117977610D01*
X149146711Y-117933327D01*
X148988382Y-117912300D01*
X150196386Y-119007237D02*
X150240669Y-118916445D01*
X150305978Y-118667325D01*
X150327005Y-118508996D01*
X150324778Y-118283130D01*
X150276040Y-117922190D01*
X150183021Y-117652041D01*
X149999210Y-117337611D01*
X149861908Y-117158255D01*
X149747861Y-117046436D01*
X149543023Y-116890334D01*
X149452231Y-116846052D01*
D11*
X152967961Y-88392000D02*
G75*
G03X152967961Y-88392000I-567961J0D01*
G01*
G04 #@! TO.C,U6*
X150571905Y-93726000D02*
G75*
G03X150571905Y-93726000I-457905J0D01*
G01*
D12*
X149844000Y-94504000D02*
X149844000Y-96504000D01*
X147844000Y-94504000D02*
X147844000Y-96504000D01*
D13*
G04 #@! TO.C,TP2*
X153354000Y-106680000D02*
G75*
G03X153354000Y-106680000I-700000J0D01*
G01*
D14*
G04 #@! TO.C,D2*
X145042868Y-98176819D02*
X128806869Y-98176819D01*
X150286190Y-100059750D02*
X145042868Y-98176819D01*
X155206868Y-105216818D02*
X150286190Y-100059750D01*
X128806869Y-105216818D02*
X155206868Y-105216818D01*
X128806869Y-98176819D02*
X128806869Y-105216818D01*
G04 #@! TO.C,D1*
X131614232Y-112791255D02*
X147850231Y-112791255D01*
X126370910Y-110908324D02*
X131614232Y-112791255D01*
X121450232Y-105751256D02*
X126370910Y-110908324D01*
X147850231Y-105751256D02*
X121450232Y-105751256D01*
X147850231Y-112791255D02*
X147850231Y-105751256D01*
D15*
G04 #@! TO.C,LED1*
X138783400Y-88925400D02*
X139078000Y-89118400D01*
X138768000Y-88900000D02*
X139078000Y-88666200D01*
X138768000Y-89360000D02*
X138768000Y-88900000D01*
X138768000Y-88440000D02*
X138768000Y-88900000D01*
D16*
G04 #@! TO.C,U2*
X143180000Y-89336000D02*
X146380000Y-89336000D01*
X143180000Y-93036000D02*
X143180000Y-89336000D01*
X146380000Y-93036000D02*
X143180000Y-93036000D01*
X146380000Y-89336000D02*
X146380000Y-93036000D01*
D14*
X146780000Y-89136000D02*
G75*
G03X146780000Y-89136000I-200000J0D01*
G01*
D11*
G04 #@! TO.C,U3*
X135763000Y-85471000D02*
G75*
G03X135763000Y-85471000I-254000J0D01*
G01*
D12*
X136001000Y-86125000D02*
X136001000Y-86525000D01*
X136001000Y-84925000D02*
X136001000Y-86125000D01*
X134001000Y-84925000D02*
X136001000Y-84925000D01*
X134001000Y-86525000D02*
X134001000Y-84925000D01*
X135601000Y-86525000D02*
X134001000Y-86525000D01*
X136001000Y-86525000D02*
X135601000Y-86525000D01*
D11*
G04 #@! TO.C,U1*
X134080241Y-92352074D02*
X129141100Y-97291215D01*
X129141100Y-87412933D02*
X134080241Y-92352074D01*
X124201959Y-92352074D02*
X129141100Y-87412933D01*
X129141100Y-97291215D02*
X124201959Y-92352074D01*
D17*
X129326600Y-96198735D02*
G75*
G03X129326600Y-96198735I-185500J0D01*
G01*
D18*
G04 #@! TO.C,G\002A\002A\002A*
G36*
X144247809Y-95038333D02*
X144241762Y-95044381D01*
X144235714Y-95038333D01*
X144241762Y-95032286D01*
X144247809Y-95038333D01*
X144247809Y-95038333D01*
G37*
X144247809Y-95038333D02*
X144241762Y-95044381D01*
X144235714Y-95038333D01*
X144241762Y-95032286D01*
X144247809Y-95038333D01*
G36*
X139712095Y-94844809D02*
X139706048Y-94850857D01*
X139700000Y-94844809D01*
X139706048Y-94838762D01*
X139712095Y-94844809D01*
X139712095Y-94844809D01*
G37*
X139712095Y-94844809D02*
X139706048Y-94850857D01*
X139700000Y-94844809D01*
X139706048Y-94838762D01*
X139712095Y-94844809D01*
G36*
X142397238Y-96634905D02*
X142391190Y-96640952D01*
X142385143Y-96634905D01*
X142391190Y-96628857D01*
X142397238Y-96634905D01*
X142397238Y-96634905D01*
G37*
X142397238Y-96634905D02*
X142391190Y-96640952D01*
X142385143Y-96634905D01*
X142391190Y-96628857D01*
X142397238Y-96634905D01*
G36*
X142155333Y-94687571D02*
X142149286Y-94693619D01*
X142143238Y-94687571D01*
X142149286Y-94681524D01*
X142155333Y-94687571D01*
X142155333Y-94687571D01*
G37*
X142155333Y-94687571D02*
X142149286Y-94693619D01*
X142143238Y-94687571D01*
X142149286Y-94681524D01*
X142155333Y-94687571D01*
G36*
X145372667Y-96755857D02*
X145366619Y-96761905D01*
X145360571Y-96755857D01*
X145366619Y-96749809D01*
X145372667Y-96755857D01*
X145372667Y-96755857D01*
G37*
X145372667Y-96755857D02*
X145366619Y-96761905D01*
X145360571Y-96755857D01*
X145366619Y-96749809D01*
X145372667Y-96755857D01*
G36*
X145989524Y-96804238D02*
X145983476Y-96810286D01*
X145977428Y-96804238D01*
X145983476Y-96798190D01*
X145989524Y-96804238D01*
X145989524Y-96804238D01*
G37*
X145989524Y-96804238D02*
X145983476Y-96810286D01*
X145977428Y-96804238D01*
X145983476Y-96798190D01*
X145989524Y-96804238D01*
G36*
X147453048Y-96882857D02*
X146827119Y-96881454D01*
X146705778Y-96881078D01*
X146591383Y-96880525D01*
X146486287Y-96879819D01*
X146392844Y-96878985D01*
X146313407Y-96878049D01*
X146250331Y-96877035D01*
X146205969Y-96875970D01*
X146182674Y-96874878D01*
X146180024Y-96874519D01*
X146162087Y-96864556D01*
X146158857Y-96857780D01*
X146148125Y-96850760D01*
X146121314Y-96846857D01*
X146110476Y-96846571D01*
X146080179Y-96843940D01*
X146063328Y-96837366D01*
X146062095Y-96834706D01*
X146051832Y-96823242D01*
X146031857Y-96815252D01*
X146009228Y-96806367D01*
X146001619Y-96798190D01*
X145991360Y-96788613D01*
X145970370Y-96780875D01*
X145948886Y-96769530D01*
X145917851Y-96746193D01*
X145882346Y-96715604D01*
X145847450Y-96682502D01*
X145818243Y-96651628D01*
X145799804Y-96627722D01*
X145796000Y-96618171D01*
X145787597Y-96605314D01*
X145783905Y-96604667D01*
X145774717Y-96594343D01*
X145771809Y-96575292D01*
X145764568Y-96544610D01*
X145753667Y-96527775D01*
X145739325Y-96501717D01*
X145735524Y-96479538D01*
X145730279Y-96454841D01*
X145720747Y-96444519D01*
X145711845Y-96429593D01*
X145705045Y-96392972D01*
X145701208Y-96345271D01*
X145697550Y-96297638D01*
X145692594Y-96270880D01*
X145686647Y-96266562D01*
X145685931Y-96267546D01*
X145682638Y-96261384D01*
X145679818Y-96233522D01*
X145677581Y-96186448D01*
X145676033Y-96122652D01*
X145675284Y-96044620D01*
X145675233Y-96021071D01*
X145675646Y-95944234D01*
X145676908Y-95876245D01*
X145678879Y-95820574D01*
X145681420Y-95780695D01*
X145684393Y-95760079D01*
X145685734Y-95758000D01*
X145691811Y-95746955D01*
X145697493Y-95717990D01*
X145701554Y-95677362D01*
X145701570Y-95677126D01*
X145706449Y-95632216D01*
X145713864Y-95601852D01*
X145721121Y-95591451D01*
X145730300Y-95577453D01*
X145735247Y-95548614D01*
X145735524Y-95539278D01*
X145738649Y-95506018D01*
X145748956Y-95492603D01*
X145753667Y-95491905D01*
X145768258Y-95481390D01*
X145771809Y-95461667D01*
X145775950Y-95438936D01*
X145783905Y-95431428D01*
X145794573Y-95421606D01*
X145796000Y-95412906D01*
X145805785Y-95392724D01*
X145814143Y-95387421D01*
X145829440Y-95370927D01*
X145832286Y-95357563D01*
X145840205Y-95338674D01*
X145850428Y-95334667D01*
X145866464Y-95324985D01*
X145868571Y-95316524D01*
X145878253Y-95300488D01*
X145886714Y-95298381D01*
X145902750Y-95288699D01*
X145904857Y-95280238D01*
X145916952Y-95280238D01*
X145923000Y-95286286D01*
X145929048Y-95280238D01*
X145923000Y-95274190D01*
X145916952Y-95280238D01*
X145904857Y-95280238D01*
X145915371Y-95265646D01*
X145935095Y-95262095D01*
X145959415Y-95255786D01*
X145965333Y-95243952D01*
X145975848Y-95229360D01*
X145995571Y-95225809D01*
X146018307Y-95221996D01*
X146025809Y-95214675D01*
X146036236Y-95204593D01*
X146061390Y-95195728D01*
X146062095Y-95195571D01*
X146087488Y-95186795D01*
X146098374Y-95176685D01*
X146098381Y-95176467D01*
X146109245Y-95170046D01*
X146136953Y-95166023D01*
X146157336Y-95165333D01*
X146206068Y-95161250D01*
X146255365Y-95151066D01*
X146267714Y-95147190D01*
X146283434Y-95142839D01*
X146305158Y-95139218D01*
X146335002Y-95136265D01*
X146375084Y-95133917D01*
X146427523Y-95132112D01*
X146494435Y-95130788D01*
X146577939Y-95129884D01*
X146680153Y-95129336D01*
X146803193Y-95129083D01*
X146886092Y-95129047D01*
X147453048Y-95129047D01*
X147453048Y-96882857D01*
X147453048Y-96882857D01*
G37*
X147453048Y-96882857D02*
X146827119Y-96881454D01*
X146705778Y-96881078D01*
X146591383Y-96880525D01*
X146486287Y-96879819D01*
X146392844Y-96878985D01*
X146313407Y-96878049D01*
X146250331Y-96877035D01*
X146205969Y-96875970D01*
X146182674Y-96874878D01*
X146180024Y-96874519D01*
X146162087Y-96864556D01*
X146158857Y-96857780D01*
X146148125Y-96850760D01*
X146121314Y-96846857D01*
X146110476Y-96846571D01*
X146080179Y-96843940D01*
X146063328Y-96837366D01*
X146062095Y-96834706D01*
X146051832Y-96823242D01*
X146031857Y-96815252D01*
X146009228Y-96806367D01*
X146001619Y-96798190D01*
X145991360Y-96788613D01*
X145970370Y-96780875D01*
X145948886Y-96769530D01*
X145917851Y-96746193D01*
X145882346Y-96715604D01*
X145847450Y-96682502D01*
X145818243Y-96651628D01*
X145799804Y-96627722D01*
X145796000Y-96618171D01*
X145787597Y-96605314D01*
X145783905Y-96604667D01*
X145774717Y-96594343D01*
X145771809Y-96575292D01*
X145764568Y-96544610D01*
X145753667Y-96527775D01*
X145739325Y-96501717D01*
X145735524Y-96479538D01*
X145730279Y-96454841D01*
X145720747Y-96444519D01*
X145711845Y-96429593D01*
X145705045Y-96392972D01*
X145701208Y-96345271D01*
X145697550Y-96297638D01*
X145692594Y-96270880D01*
X145686647Y-96266562D01*
X145685931Y-96267546D01*
X145682638Y-96261384D01*
X145679818Y-96233522D01*
X145677581Y-96186448D01*
X145676033Y-96122652D01*
X145675284Y-96044620D01*
X145675233Y-96021071D01*
X145675646Y-95944234D01*
X145676908Y-95876245D01*
X145678879Y-95820574D01*
X145681420Y-95780695D01*
X145684393Y-95760079D01*
X145685734Y-95758000D01*
X145691811Y-95746955D01*
X145697493Y-95717990D01*
X145701554Y-95677362D01*
X145701570Y-95677126D01*
X145706449Y-95632216D01*
X145713864Y-95601852D01*
X145721121Y-95591451D01*
X145730300Y-95577453D01*
X145735247Y-95548614D01*
X145735524Y-95539278D01*
X145738649Y-95506018D01*
X145748956Y-95492603D01*
X145753667Y-95491905D01*
X145768258Y-95481390D01*
X145771809Y-95461667D01*
X145775950Y-95438936D01*
X145783905Y-95431428D01*
X145794573Y-95421606D01*
X145796000Y-95412906D01*
X145805785Y-95392724D01*
X145814143Y-95387421D01*
X145829440Y-95370927D01*
X145832286Y-95357563D01*
X145840205Y-95338674D01*
X145850428Y-95334667D01*
X145866464Y-95324985D01*
X145868571Y-95316524D01*
X145878253Y-95300488D01*
X145886714Y-95298381D01*
X145902750Y-95288699D01*
X145904857Y-95280238D01*
X145916952Y-95280238D01*
X145923000Y-95286286D01*
X145929048Y-95280238D01*
X145923000Y-95274190D01*
X145916952Y-95280238D01*
X145904857Y-95280238D01*
X145915371Y-95265646D01*
X145935095Y-95262095D01*
X145959415Y-95255786D01*
X145965333Y-95243952D01*
X145975848Y-95229360D01*
X145995571Y-95225809D01*
X146018307Y-95221996D01*
X146025809Y-95214675D01*
X146036236Y-95204593D01*
X146061390Y-95195728D01*
X146062095Y-95195571D01*
X146087488Y-95186795D01*
X146098374Y-95176685D01*
X146098381Y-95176467D01*
X146109245Y-95170046D01*
X146136953Y-95166023D01*
X146157336Y-95165333D01*
X146206068Y-95161250D01*
X146255365Y-95151066D01*
X146267714Y-95147190D01*
X146283434Y-95142839D01*
X146305158Y-95139218D01*
X146335002Y-95136265D01*
X146375084Y-95133917D01*
X146427523Y-95132112D01*
X146494435Y-95130788D01*
X146577939Y-95129884D01*
X146680153Y-95129336D01*
X146803193Y-95129083D01*
X146886092Y-95129047D01*
X147453048Y-95129047D01*
X147453048Y-96882857D01*
G36*
X147453048Y-94669428D02*
X146875500Y-94669614D01*
X146760552Y-94669855D01*
X146653871Y-94670474D01*
X146557712Y-94671431D01*
X146474334Y-94672683D01*
X146405995Y-94674189D01*
X146354952Y-94675908D01*
X146323464Y-94677798D01*
X146313787Y-94679817D01*
X146313928Y-94679928D01*
X146309927Y-94684858D01*
X146284697Y-94689722D01*
X146241198Y-94694087D01*
X146199412Y-94696717D01*
X146139966Y-94700923D01*
X146095496Y-94706476D01*
X146069588Y-94712847D01*
X146064500Y-94716641D01*
X146050749Y-94725154D01*
X146022166Y-94729680D01*
X146013570Y-94729905D01*
X145978369Y-94734437D01*
X145951806Y-94745589D01*
X145948918Y-94748047D01*
X145923055Y-94762204D01*
X145899673Y-94766190D01*
X145876528Y-94769907D01*
X145868571Y-94777325D01*
X145858144Y-94787406D01*
X145832991Y-94796271D01*
X145832286Y-94796428D01*
X145806905Y-94804822D01*
X145796007Y-94814019D01*
X145796000Y-94814221D01*
X145785761Y-94824143D01*
X145765762Y-94831633D01*
X145743109Y-94841346D01*
X145735524Y-94851087D01*
X145725171Y-94860007D01*
X145705286Y-94862952D01*
X145680966Y-94869261D01*
X145675048Y-94881095D01*
X145668211Y-94897186D01*
X145662375Y-94899238D01*
X145646201Y-94907379D01*
X145623817Y-94927207D01*
X145621678Y-94929476D01*
X145598858Y-94950095D01*
X145580985Y-94959636D01*
X145579922Y-94959714D01*
X145568194Y-94969687D01*
X145566005Y-94980881D01*
X145564008Y-94994887D01*
X145555610Y-94986222D01*
X145554095Y-94983905D01*
X145544461Y-94974721D01*
X145542185Y-94979030D01*
X145534777Y-94996864D01*
X145517210Y-95021207D01*
X145517076Y-95021363D01*
X145474292Y-95072545D01*
X145444468Y-95111842D01*
X145423733Y-95144745D01*
X145409223Y-95174405D01*
X145395720Y-95195292D01*
X145385061Y-95201619D01*
X145375744Y-95211968D01*
X145372667Y-95231857D01*
X145366358Y-95256177D01*
X145354524Y-95262095D01*
X145340120Y-95272913D01*
X145336381Y-95298381D01*
X145333323Y-95323865D01*
X145325957Y-95334664D01*
X145325831Y-95334666D01*
X145317530Y-95345350D01*
X145309580Y-95372054D01*
X145307546Y-95383047D01*
X145300068Y-95413295D01*
X145290769Y-95430165D01*
X145287857Y-95431428D01*
X145280317Y-95442146D01*
X145276177Y-95468866D01*
X145275905Y-95478945D01*
X145271470Y-95514422D01*
X145260526Y-95541287D01*
X145257762Y-95544605D01*
X145247744Y-95563100D01*
X145241925Y-95596636D01*
X145239691Y-95649254D01*
X145239619Y-95664003D01*
X145238149Y-95712314D01*
X145234233Y-95751534D01*
X145228614Y-95775120D01*
X145226664Y-95778212D01*
X145219821Y-95796885D01*
X145214249Y-95834678D01*
X145210088Y-95886548D01*
X145207478Y-95947450D01*
X145206559Y-96012341D01*
X145207470Y-96076177D01*
X145210353Y-96133915D01*
X145215346Y-96180510D01*
X145215475Y-96181333D01*
X145223876Y-96243125D01*
X145231338Y-96312467D01*
X145235589Y-96365050D01*
X145241519Y-96422228D01*
X145250649Y-96459468D01*
X145258660Y-96472364D01*
X145270197Y-96494250D01*
X145275723Y-96531051D01*
X145275905Y-96539624D01*
X145278056Y-96571570D01*
X145283482Y-96590418D01*
X145286454Y-96592571D01*
X145294756Y-96603255D01*
X145302705Y-96629959D01*
X145304740Y-96640952D01*
X145312218Y-96671199D01*
X145321516Y-96688070D01*
X145324429Y-96689333D01*
X145333508Y-96699658D01*
X145336381Y-96718707D01*
X145343622Y-96749390D01*
X145354524Y-96766224D01*
X145369737Y-96793209D01*
X145372667Y-96810135D01*
X145376884Y-96827622D01*
X145383891Y-96828967D01*
X145395510Y-96833241D01*
X145403630Y-96848855D01*
X145417727Y-96877974D01*
X145428691Y-96892228D01*
X145442821Y-96914674D01*
X145445238Y-96926054D01*
X145452051Y-96941588D01*
X145457333Y-96943333D01*
X145468064Y-96953130D01*
X145469428Y-96961476D01*
X145479110Y-96977512D01*
X145487571Y-96979619D01*
X145503607Y-96989301D01*
X145505714Y-96997762D01*
X145512702Y-97013850D01*
X145518673Y-97015905D01*
X145539192Y-97025066D01*
X145558679Y-97045175D01*
X145566190Y-97063422D01*
X145575286Y-97075852D01*
X145578863Y-97076381D01*
X145595247Y-97084487D01*
X145617365Y-97104078D01*
X145618173Y-97104938D01*
X145645901Y-97128247D01*
X145672024Y-97142039D01*
X145693104Y-97152338D01*
X145699238Y-97160551D01*
X145709479Y-97170584D01*
X145729476Y-97178110D01*
X145752129Y-97187822D01*
X145759714Y-97197564D01*
X145769572Y-97207954D01*
X145778721Y-97209428D01*
X145802525Y-97217467D01*
X145815871Y-97227571D01*
X145842073Y-97242049D01*
X145863388Y-97245714D01*
X145885709Y-97249486D01*
X145892762Y-97256436D01*
X145903528Y-97264433D01*
X145930779Y-97272358D01*
X145947190Y-97275320D01*
X145979594Y-97282426D01*
X145999078Y-97291034D01*
X146001619Y-97294836D01*
X146012261Y-97302314D01*
X146038457Y-97306082D01*
X146044341Y-97306190D01*
X146085635Y-97311180D01*
X146127933Y-97323296D01*
X146130485Y-97324333D01*
X146143306Y-97328422D01*
X146161882Y-97331866D01*
X146188173Y-97334717D01*
X146224141Y-97337028D01*
X146271748Y-97338851D01*
X146332953Y-97340237D01*
X146409720Y-97341240D01*
X146504009Y-97341910D01*
X146617781Y-97342300D01*
X146752998Y-97342463D01*
X146813477Y-97342476D01*
X147453048Y-97342476D01*
X147453048Y-97451333D01*
X137547048Y-97451333D01*
X137547048Y-97126730D01*
X137581916Y-97126730D01*
X137582422Y-97189021D01*
X137584398Y-97245760D01*
X137587870Y-97292144D01*
X137592860Y-97323369D01*
X137598452Y-97334466D01*
X137614230Y-97336152D01*
X137650802Y-97337734D01*
X137704773Y-97339138D01*
X137772749Y-97340291D01*
X137851332Y-97341120D01*
X137925888Y-97341521D01*
X138024293Y-97341604D01*
X138101170Y-97341090D01*
X138159179Y-97339850D01*
X138200977Y-97337750D01*
X138229224Y-97334659D01*
X138246578Y-97330446D01*
X138255483Y-97325197D01*
X138256857Y-97322652D01*
X138348108Y-97322652D01*
X138357428Y-97330381D01*
X138383798Y-97340300D01*
X138412727Y-97341927D01*
X138435080Y-97335805D01*
X138442095Y-97325341D01*
X138443586Y-97321487D01*
X138540525Y-97321487D01*
X138546339Y-97335928D01*
X138574725Y-97342150D01*
X138587238Y-97342476D01*
X138617531Y-97339602D01*
X138634384Y-97332424D01*
X138635619Y-97329517D01*
X138642624Y-97312947D01*
X138736854Y-97312947D01*
X138739103Y-97331472D01*
X138753042Y-97335311D01*
X138786899Y-97338343D01*
X138836614Y-97340585D01*
X138898125Y-97342056D01*
X138967371Y-97342775D01*
X139040291Y-97342758D01*
X139112824Y-97342025D01*
X139180908Y-97340592D01*
X139240482Y-97338480D01*
X139287485Y-97335705D01*
X139317856Y-97332285D01*
X139327575Y-97328847D01*
X139341207Y-97320090D01*
X139371221Y-97312422D01*
X139395106Y-97309165D01*
X139430404Y-97304114D01*
X139453261Y-97297658D01*
X139458095Y-97293517D01*
X139468508Y-97284519D01*
X139493633Y-97276118D01*
X139494381Y-97275952D01*
X139519774Y-97267176D01*
X139530660Y-97257066D01*
X139530667Y-97256848D01*
X139541034Y-97248515D01*
X139561284Y-97245714D01*
X139587044Y-97239308D01*
X139598864Y-97227571D01*
X139615427Y-97211984D01*
X139627428Y-97209428D01*
X139649398Y-97200542D01*
X139655993Y-97191286D01*
X139672557Y-97175190D01*
X139682191Y-97173143D01*
X139695002Y-97167373D01*
X139693952Y-97161047D01*
X139696694Y-97150693D01*
X139705334Y-97148952D01*
X139721823Y-97139583D01*
X139724190Y-97130809D01*
X139733872Y-97114774D01*
X139742333Y-97112667D01*
X139758369Y-97102985D01*
X139760476Y-97094524D01*
X139770158Y-97078488D01*
X139778619Y-97076381D01*
X139794654Y-97066699D01*
X139796762Y-97058238D01*
X139803293Y-97042142D01*
X139808857Y-97040095D01*
X139817949Y-97029744D01*
X139820952Y-97009857D01*
X139827261Y-96985537D01*
X139839095Y-96979619D01*
X139853674Y-96969084D01*
X139857238Y-96949001D01*
X139863644Y-96923242D01*
X139875381Y-96911421D01*
X139889126Y-96893569D01*
X139893524Y-96858380D01*
X139897178Y-96826594D01*
X139906423Y-96808453D01*
X139908643Y-96807254D01*
X139914143Y-96799171D01*
X139918251Y-96777519D01*
X139921111Y-96739929D01*
X139922869Y-96684037D01*
X139923673Y-96607476D01*
X139923762Y-96562323D01*
X139923368Y-96474918D01*
X139922090Y-96409326D01*
X139919782Y-96363180D01*
X139916296Y-96334116D01*
X139911488Y-96319767D01*
X139908643Y-96317402D01*
X139898616Y-96302829D01*
X139893689Y-96272448D01*
X139893524Y-96264992D01*
X139890398Y-96231732D01*
X139880091Y-96218318D01*
X139875381Y-96217619D01*
X139860977Y-96206801D01*
X139857238Y-96181333D01*
X139851829Y-96152526D01*
X139839095Y-96145047D01*
X139824340Y-96134878D01*
X139820952Y-96119967D01*
X139812804Y-96101961D01*
X139791610Y-96073319D01*
X139762244Y-96039231D01*
X139729581Y-96004890D01*
X139698495Y-95975486D01*
X139673861Y-95956213D01*
X139662801Y-95951524D01*
X139651905Y-95942324D01*
X139651619Y-95939659D01*
X139641356Y-95928194D01*
X139621381Y-95920205D01*
X139598738Y-95910866D01*
X139591143Y-95901831D01*
X139580784Y-95893722D01*
X139560905Y-95891047D01*
X139536585Y-95884739D01*
X139530667Y-95872905D01*
X139519848Y-95858501D01*
X139494381Y-95854762D01*
X139468907Y-95851053D01*
X139458098Y-95842116D01*
X139458095Y-95841953D01*
X139450806Y-95834476D01*
X139446836Y-95836102D01*
X139431301Y-95834586D01*
X139427979Y-95830769D01*
X139411349Y-95820374D01*
X139390940Y-95827455D01*
X139372575Y-95847285D01*
X139362079Y-95875138D01*
X139361333Y-95884856D01*
X139356084Y-95908701D01*
X139347322Y-95917892D01*
X139334938Y-95932184D01*
X139328829Y-95952162D01*
X139321170Y-95976303D01*
X139312602Y-95985793D01*
X139303606Y-95999508D01*
X139300857Y-96019435D01*
X139294245Y-96044789D01*
X139282714Y-96056007D01*
X139269013Y-96073308D01*
X139264571Y-96104008D01*
X139260376Y-96134803D01*
X139247128Y-96145034D01*
X139246428Y-96145047D01*
X139233041Y-96154861D01*
X139228322Y-96178453D01*
X139232187Y-96207051D01*
X139244553Y-96231883D01*
X139247292Y-96234898D01*
X139273443Y-96250546D01*
X139290490Y-96253905D01*
X139318694Y-96261153D01*
X139330477Y-96269024D01*
X139352922Y-96287872D01*
X139371946Y-96301932D01*
X139391469Y-96320912D01*
X139397619Y-96335194D01*
X139407357Y-96348894D01*
X139415762Y-96350667D01*
X139431809Y-96359831D01*
X139433905Y-96367801D01*
X139442936Y-96386488D01*
X139449024Y-96389976D01*
X139455303Y-96403465D01*
X139460034Y-96435514D01*
X139463187Y-96480539D01*
X139464734Y-96532957D01*
X139464647Y-96587185D01*
X139462898Y-96637641D01*
X139459457Y-96678741D01*
X139454298Y-96704902D01*
X139450654Y-96710941D01*
X139436559Y-96728584D01*
X139428672Y-96746786D01*
X139417911Y-96767886D01*
X139408899Y-96774000D01*
X139398684Y-96783713D01*
X139397619Y-96790831D01*
X139387307Y-96806053D01*
X139367381Y-96815252D01*
X139344728Y-96824965D01*
X139337143Y-96834706D01*
X139327285Y-96845097D01*
X139318136Y-96846571D01*
X139294332Y-96854610D01*
X139280986Y-96864714D01*
X139268111Y-96872449D01*
X139245131Y-96877749D01*
X139208280Y-96880992D01*
X139153790Y-96882557D01*
X139100422Y-96882857D01*
X139031701Y-96883727D01*
X138980140Y-96886219D01*
X138948129Y-96890154D01*
X138938000Y-96894952D01*
X138928203Y-96905683D01*
X138919857Y-96907047D01*
X138905453Y-96917866D01*
X138901714Y-96943333D01*
X138898488Y-96968815D01*
X138890715Y-96979616D01*
X138890580Y-96979619D01*
X138880498Y-96990046D01*
X138871633Y-97015199D01*
X138871476Y-97015905D01*
X138863150Y-97041283D01*
X138854117Y-97052183D01*
X138853918Y-97052190D01*
X138846247Y-97062876D01*
X138838614Y-97089622D01*
X138836502Y-97101140D01*
X138829125Y-97129983D01*
X138820011Y-97143097D01*
X138816814Y-97142760D01*
X138808516Y-97147702D01*
X138804963Y-97170778D01*
X138804952Y-97172429D01*
X138799754Y-97201547D01*
X138786809Y-97209428D01*
X138772406Y-97220247D01*
X138768667Y-97245714D01*
X138765536Y-97271197D01*
X138757995Y-97281997D01*
X138757865Y-97282000D01*
X138744639Y-97291915D01*
X138736854Y-97312947D01*
X138642624Y-97312947D01*
X138643399Y-97311115D01*
X138653762Y-97298415D01*
X138668077Y-97272385D01*
X138671905Y-97250034D01*
X138678934Y-97219146D01*
X138690048Y-97201653D01*
X138705219Y-97175906D01*
X138708190Y-97160184D01*
X138713423Y-97141003D01*
X138720286Y-97136857D01*
X138729998Y-97126690D01*
X138732381Y-97111803D01*
X138740680Y-97082485D01*
X138750524Y-97068605D01*
X138763954Y-97043505D01*
X138768667Y-97015041D01*
X138774186Y-96986870D01*
X138786809Y-96979619D01*
X138799425Y-96971630D01*
X138804623Y-96945147D01*
X138804952Y-96931238D01*
X138803015Y-96901000D01*
X138817048Y-96901000D01*
X138823095Y-96907047D01*
X138829143Y-96901000D01*
X138823095Y-96894952D01*
X138817048Y-96901000D01*
X138803015Y-96901000D01*
X138802924Y-96899585D01*
X138794724Y-96885596D01*
X138780762Y-96882857D01*
X138750965Y-96892935D01*
X138724042Y-96917216D01*
X138709029Y-96946769D01*
X138708190Y-96954564D01*
X138699966Y-96982296D01*
X138690048Y-96996034D01*
X138675891Y-97021897D01*
X138671905Y-97045279D01*
X138665744Y-97070244D01*
X138653762Y-97076381D01*
X138639198Y-97086941D01*
X138635619Y-97107483D01*
X138628790Y-97138580D01*
X138617476Y-97156728D01*
X138604156Y-97181713D01*
X138599333Y-97211006D01*
X138595988Y-97234689D01*
X138587452Y-97239794D01*
X138587238Y-97239667D01*
X138577609Y-97243250D01*
X138575143Y-97256232D01*
X138566887Y-97284617D01*
X138557000Y-97298415D01*
X138540525Y-97321487D01*
X138443586Y-97321487D01*
X138449080Y-97307288D01*
X138453841Y-97304174D01*
X138464456Y-97290438D01*
X138470067Y-97270543D01*
X138478577Y-97246116D01*
X138488560Y-97236273D01*
X138499474Y-97222007D01*
X138502571Y-97203237D01*
X138510078Y-97172787D01*
X138520714Y-97156728D01*
X138534871Y-97130865D01*
X138538857Y-97107483D01*
X138545017Y-97082517D01*
X138557000Y-97076381D01*
X138571278Y-97065780D01*
X138575143Y-97039381D01*
X138578418Y-97015202D01*
X138586823Y-97009618D01*
X138587238Y-97009857D01*
X138595804Y-97005131D01*
X138599327Y-96981598D01*
X138599333Y-96980333D01*
X138604531Y-96951215D01*
X138617476Y-96943333D01*
X138632068Y-96932819D01*
X138635619Y-96913095D01*
X138632978Y-96893613D01*
X138620522Y-96884954D01*
X138591451Y-96882868D01*
X138587238Y-96882857D01*
X138556067Y-96884507D01*
X138542213Y-96892292D01*
X138538874Y-96910462D01*
X138538857Y-96913095D01*
X138532548Y-96937415D01*
X138520714Y-96943333D01*
X138506310Y-96954151D01*
X138502571Y-96979619D01*
X138499345Y-97005100D01*
X138491572Y-97015902D01*
X138491437Y-97015905D01*
X138481612Y-97026388D01*
X138472520Y-97051954D01*
X138471775Y-97055214D01*
X138463003Y-97084121D01*
X138453309Y-97100829D01*
X138452730Y-97101249D01*
X138443990Y-97117172D01*
X138439516Y-97140558D01*
X138432570Y-97164416D01*
X138421314Y-97173143D01*
X138409857Y-97183890D01*
X138405809Y-97209428D01*
X138400400Y-97238236D01*
X138387667Y-97245714D01*
X138373263Y-97256532D01*
X138369524Y-97282000D01*
X138365077Y-97308371D01*
X138354405Y-97318471D01*
X138348108Y-97322652D01*
X138256857Y-97322652D01*
X138269164Y-97299862D01*
X138272762Y-97278110D01*
X138279332Y-97252676D01*
X138290905Y-97241340D01*
X138304712Y-97225231D01*
X138309048Y-97203760D01*
X138312700Y-97180842D01*
X138319832Y-97173143D01*
X138330220Y-97162828D01*
X138338933Y-97140002D01*
X138348534Y-97113477D01*
X138358001Y-97100217D01*
X138366308Y-97084625D01*
X138371604Y-97056059D01*
X138371710Y-97054739D01*
X138378091Y-97027461D01*
X138389715Y-97015924D01*
X138390239Y-97015905D01*
X138401775Y-97005146D01*
X138405809Y-96979619D01*
X138411219Y-96950811D01*
X138423952Y-96943333D01*
X138438544Y-96932819D01*
X138442095Y-96913095D01*
X138442095Y-96882857D01*
X138029993Y-96882857D01*
X137915981Y-96883007D01*
X137823852Y-96883521D01*
X137751296Y-96884490D01*
X137696009Y-96886007D01*
X137655682Y-96888166D01*
X137628007Y-96891059D01*
X137610679Y-96894780D01*
X137601390Y-96899420D01*
X137600612Y-96900136D01*
X137594122Y-96918128D01*
X137588984Y-96954587D01*
X137585221Y-97004710D01*
X137582857Y-97063692D01*
X137581916Y-97126730D01*
X137547048Y-97126730D01*
X137547048Y-96544190D01*
X137547188Y-96387533D01*
X137547599Y-96241372D01*
X137548103Y-96139000D01*
X137946190Y-96139000D01*
X137952238Y-96145047D01*
X137958286Y-96139000D01*
X137952238Y-96132952D01*
X137946190Y-96139000D01*
X137548103Y-96139000D01*
X137548260Y-96107272D01*
X137549153Y-95986800D01*
X137550259Y-95881521D01*
X137551561Y-95793002D01*
X137553038Y-95722808D01*
X137554673Y-95672505D01*
X137556447Y-95643659D01*
X137557849Y-95637047D01*
X137572010Y-95648302D01*
X137580896Y-95679358D01*
X137583333Y-95716656D01*
X137586193Y-95744245D01*
X137593203Y-95757733D01*
X137594467Y-95758000D01*
X137604549Y-95768427D01*
X137613414Y-95793580D01*
X137613571Y-95794286D01*
X137622348Y-95819678D01*
X137632457Y-95830564D01*
X137632675Y-95830571D01*
X137641047Y-95840928D01*
X137643809Y-95860809D01*
X137649657Y-95884442D01*
X137660641Y-95891047D01*
X137675863Y-95901359D01*
X137685062Y-95921286D01*
X137694774Y-95943939D01*
X137704516Y-95951524D01*
X137716038Y-95960735D01*
X137716381Y-95963619D01*
X137724991Y-95981606D01*
X137744691Y-96003579D01*
X137766288Y-96020344D01*
X137776857Y-96024095D01*
X137788603Y-96033131D01*
X137788952Y-96035960D01*
X137799215Y-96047424D01*
X137819190Y-96055414D01*
X137841819Y-96064300D01*
X137849428Y-96072476D01*
X137859664Y-96082134D01*
X137879667Y-96089538D01*
X137902320Y-96099251D01*
X137909905Y-96108992D01*
X137920257Y-96117912D01*
X137940143Y-96120857D01*
X137962874Y-96124949D01*
X137970381Y-96132809D01*
X137981072Y-96141991D01*
X138007790Y-96150432D01*
X138018762Y-96152498D01*
X138048991Y-96159346D01*
X138065869Y-96167080D01*
X138067143Y-96169363D01*
X138078226Y-96174759D01*
X138107550Y-96180733D01*
X138149227Y-96186141D01*
X138157929Y-96186998D01*
X138200131Y-96192359D01*
X138229956Y-96198878D01*
X138242090Y-96205318D01*
X138241882Y-96206562D01*
X138251117Y-96210229D01*
X138281966Y-96213289D01*
X138331856Y-96215621D01*
X138398217Y-96217104D01*
X138477667Y-96217619D01*
X138560572Y-96217474D01*
X138622727Y-96216830D01*
X138667571Y-96215377D01*
X138698545Y-96212802D01*
X138719087Y-96208793D01*
X138732639Y-96203038D01*
X138742639Y-96195226D01*
X138744476Y-96193428D01*
X138748637Y-96187381D01*
X138841238Y-96187381D01*
X138844424Y-96207870D01*
X138858736Y-96216227D01*
X138883341Y-96217619D01*
X138913439Y-96214403D01*
X138928211Y-96201347D01*
X138932586Y-96188675D01*
X139034762Y-96188675D01*
X139037624Y-96207359D01*
X139050707Y-96215661D01*
X139080757Y-96217615D01*
X139083143Y-96217619D01*
X139114165Y-96216186D01*
X139127956Y-96208421D01*
X139131447Y-96189125D01*
X139131524Y-96181333D01*
X139136933Y-96152526D01*
X139149667Y-96145047D01*
X139164258Y-96134533D01*
X139167809Y-96114809D01*
X139171424Y-96092071D01*
X139178359Y-96084571D01*
X139186661Y-96073887D01*
X139194610Y-96047184D01*
X139196645Y-96036190D01*
X139204122Y-96005943D01*
X139213421Y-95989073D01*
X139216333Y-95987809D01*
X139225278Y-95977446D01*
X139228286Y-95957192D01*
X139234692Y-95931432D01*
X139246428Y-95919612D01*
X139260763Y-95903361D01*
X139264571Y-95885000D01*
X139271249Y-95860605D01*
X139281775Y-95850748D01*
X139293598Y-95834905D01*
X139292460Y-95819216D01*
X139280944Y-95801044D01*
X139254972Y-95794523D01*
X139245248Y-95794286D01*
X139215638Y-95797803D01*
X139201165Y-95811894D01*
X139196967Y-95824524D01*
X139187628Y-95847166D01*
X139178593Y-95854762D01*
X139170521Y-95865132D01*
X139167809Y-95885379D01*
X139161403Y-95911139D01*
X139149667Y-95922959D01*
X139135987Y-95940094D01*
X139131524Y-95969666D01*
X139126098Y-96001716D01*
X139113381Y-96016374D01*
X139099573Y-96032483D01*
X139095238Y-96053954D01*
X139091144Y-96076865D01*
X139083143Y-96084571D01*
X139074092Y-96094934D01*
X139071048Y-96115189D01*
X139064642Y-96140948D01*
X139052905Y-96152769D01*
X139038807Y-96168956D01*
X139034762Y-96188675D01*
X138932586Y-96188675D01*
X138933033Y-96187381D01*
X138942040Y-96164748D01*
X138950445Y-96157143D01*
X138959604Y-96146728D01*
X138968073Y-96121598D01*
X138968238Y-96120857D01*
X138977015Y-96095464D01*
X138987124Y-96084578D01*
X138987342Y-96084571D01*
X138995676Y-96074203D01*
X138998476Y-96053954D01*
X139004882Y-96028194D01*
X139016619Y-96016374D01*
X139030085Y-96000249D01*
X139034762Y-95975901D01*
X139040958Y-95945591D01*
X139041033Y-95945476D01*
X139046857Y-95945476D01*
X139052905Y-95951524D01*
X139058952Y-95945476D01*
X139052905Y-95939428D01*
X139046857Y-95945476D01*
X139041033Y-95945476D01*
X139052905Y-95927333D01*
X139067566Y-95903713D01*
X139071048Y-95884527D01*
X139075054Y-95861219D01*
X139081544Y-95852746D01*
X139093098Y-95839195D01*
X139100190Y-95822484D01*
X139099883Y-95800735D01*
X139080774Y-95790474D01*
X139041405Y-95791056D01*
X139031738Y-95792308D01*
X139008968Y-95798908D01*
X138999858Y-95815182D01*
X138998476Y-95838706D01*
X138995804Y-95864391D01*
X138989218Y-95874218D01*
X138987648Y-95873688D01*
X138975458Y-95876949D01*
X138965928Y-95897670D01*
X138962190Y-95928322D01*
X138957346Y-95947440D01*
X138951056Y-95951524D01*
X138940974Y-95961951D01*
X138932109Y-95987104D01*
X138931952Y-95987809D01*
X138923176Y-96013202D01*
X138913066Y-96024088D01*
X138912848Y-96024095D01*
X138905029Y-96034610D01*
X138901715Y-96059942D01*
X138901714Y-96060381D01*
X138898277Y-96085859D01*
X138889996Y-96096664D01*
X138889849Y-96096667D01*
X138878385Y-96106929D01*
X138870395Y-96126905D01*
X138861057Y-96149547D01*
X138852022Y-96157143D01*
X138843913Y-96167501D01*
X138841238Y-96187381D01*
X138748637Y-96187381D01*
X138762598Y-96167098D01*
X138768667Y-96145047D01*
X138773673Y-96125392D01*
X138780619Y-96120857D01*
X138789801Y-96110166D01*
X138798241Y-96083448D01*
X138800308Y-96072476D01*
X138807258Y-96042244D01*
X138815247Y-96025367D01*
X138817632Y-96024095D01*
X138826626Y-96013682D01*
X138835024Y-95988557D01*
X138835190Y-95987809D01*
X138843967Y-95962417D01*
X138854076Y-95951530D01*
X138854294Y-95951524D01*
X138862628Y-95941156D01*
X138865428Y-95920906D01*
X138871834Y-95895147D01*
X138883571Y-95883326D01*
X138897852Y-95867090D01*
X138901714Y-95848428D01*
X138907486Y-95824449D01*
X138916833Y-95815092D01*
X138927831Y-95809389D01*
X138924809Y-95804685D01*
X138906176Y-95800862D01*
X138870339Y-95797802D01*
X138815708Y-95795386D01*
X138740690Y-95793496D01*
X138643696Y-95792014D01*
X138599584Y-95791521D01*
X138497486Y-95790185D01*
X138417502Y-95788444D01*
X138357559Y-95786179D01*
X138315583Y-95783274D01*
X138289500Y-95779609D01*
X138277235Y-95775068D01*
X138275777Y-95773119D01*
X138261527Y-95763009D01*
X138233220Y-95758091D01*
X138228557Y-95758000D01*
X138194537Y-95752997D01*
X138169286Y-95740855D01*
X138168224Y-95739857D01*
X138142478Y-95724685D01*
X138126755Y-95721714D01*
X138107581Y-95716113D01*
X138103428Y-95708755D01*
X138094267Y-95688236D01*
X138074158Y-95668750D01*
X138055911Y-95661238D01*
X138046216Y-95650881D01*
X138042952Y-95630620D01*
X138036546Y-95604861D01*
X138024809Y-95593040D01*
X138016049Y-95578623D01*
X138009772Y-95546954D01*
X138005979Y-95503888D01*
X138004669Y-95455283D01*
X138005844Y-95406996D01*
X138009502Y-95364883D01*
X138015644Y-95334801D01*
X138024270Y-95322607D01*
X138024809Y-95322571D01*
X138039606Y-95312533D01*
X138042952Y-95298845D01*
X138051004Y-95278066D01*
X138071937Y-95247931D01*
X138096302Y-95220226D01*
X138132180Y-95186902D01*
X138160944Y-95169878D01*
X138187442Y-95165333D01*
X138224219Y-95159496D01*
X138252528Y-95147448D01*
X138262896Y-95142814D01*
X138279982Y-95139012D01*
X138306014Y-95135959D01*
X138343216Y-95133573D01*
X138393815Y-95131771D01*
X138460036Y-95130469D01*
X138544106Y-95129585D01*
X138648250Y-95129036D01*
X138754055Y-95128772D01*
X139228286Y-95127980D01*
X139228286Y-95110905D01*
X139300857Y-95110905D01*
X139308846Y-95123520D01*
X139335329Y-95128718D01*
X139349238Y-95129047D01*
X139382879Y-95126052D01*
X139396741Y-95116121D01*
X139397619Y-95110905D01*
X139494381Y-95110905D01*
X139502370Y-95123520D01*
X139528853Y-95128718D01*
X139542762Y-95129047D01*
X139686275Y-95129047D01*
X140087048Y-95129047D01*
X140087048Y-94710644D01*
X140134022Y-94710644D01*
X140135340Y-94717809D01*
X140135428Y-94717809D01*
X140140146Y-94729603D01*
X140143788Y-94763817D01*
X140146251Y-94818702D01*
X140147432Y-94892506D01*
X140147524Y-94923428D01*
X140147524Y-95129047D01*
X140906702Y-95129047D01*
X140913995Y-95156262D01*
X140915076Y-95172164D01*
X140916113Y-95210484D01*
X140917092Y-95269451D01*
X140918003Y-95347292D01*
X140918834Y-95442234D01*
X140919571Y-95552506D01*
X140920205Y-95676336D01*
X140920722Y-95811951D01*
X140921110Y-95957580D01*
X140921359Y-96111449D01*
X140921454Y-96262976D01*
X140921619Y-97342476D01*
X141381238Y-97342476D01*
X141381238Y-97313532D01*
X142106952Y-97313532D01*
X142106952Y-97342476D01*
X142354905Y-97342476D01*
X142439508Y-97342262D01*
X142502840Y-97341478D01*
X142547819Y-97339911D01*
X142577360Y-97337346D01*
X142594382Y-97333571D01*
X142601801Y-97328372D01*
X142602857Y-97324333D01*
X142609388Y-97308237D01*
X142614952Y-97306190D01*
X142624003Y-97295828D01*
X142627048Y-97275573D01*
X142633453Y-97249813D01*
X142645190Y-97237993D01*
X142658897Y-97220645D01*
X142663333Y-97189612D01*
X142668628Y-97156288D01*
X142681476Y-97141231D01*
X142696314Y-97124865D01*
X142700004Y-97108349D01*
X142707565Y-97077898D01*
X142718146Y-97058950D01*
X142732489Y-97028478D01*
X142735905Y-97007545D01*
X142739790Y-96985937D01*
X142746454Y-96979619D01*
X142754610Y-96968901D01*
X142762653Y-96941946D01*
X142765185Y-96928452D01*
X142771681Y-96897985D01*
X142778623Y-96889296D01*
X142784689Y-96895190D01*
X142792176Y-96900512D01*
X142795693Y-96884553D01*
X142796196Y-96866874D01*
X142800880Y-96831745D01*
X142812158Y-96805268D01*
X142814524Y-96802510D01*
X142827563Y-96777869D01*
X142832852Y-96745922D01*
X142834993Y-96722019D01*
X142841382Y-96721069D01*
X142843616Y-96724179D01*
X142851799Y-96727685D01*
X142859063Y-96709123D01*
X142862646Y-96690866D01*
X142870083Y-96661835D01*
X142878850Y-96647675D01*
X142882119Y-96647662D01*
X142889868Y-96642378D01*
X142893142Y-96620140D01*
X142893143Y-96619787D01*
X142899339Y-96585322D01*
X142910901Y-96561621D01*
X142925351Y-96532139D01*
X142929044Y-96512222D01*
X142936867Y-96488368D01*
X142947571Y-96479340D01*
X142961294Y-96461841D01*
X142965714Y-96429665D01*
X142968488Y-96401530D01*
X142975317Y-96387358D01*
X142976848Y-96386952D01*
X142986930Y-96376525D01*
X142995795Y-96351372D01*
X142995952Y-96350667D01*
X143004729Y-96325274D01*
X143014838Y-96314388D01*
X143015056Y-96314381D01*
X143022948Y-96303886D01*
X143026190Y-96278959D01*
X143032168Y-96246760D01*
X143044333Y-96225394D01*
X143059514Y-96198444D01*
X143062476Y-96181333D01*
X143070714Y-96151408D01*
X143080619Y-96137272D01*
X143095097Y-96111069D01*
X143098762Y-96089755D01*
X143103013Y-96067441D01*
X143110857Y-96060381D01*
X143119316Y-96049862D01*
X143122950Y-96024480D01*
X143122952Y-96023715D01*
X143128626Y-95994051D01*
X143141095Y-95980088D01*
X143154796Y-95962787D01*
X143159238Y-95932087D01*
X143163433Y-95901292D01*
X143176681Y-95891061D01*
X143177381Y-95891047D01*
X143191785Y-95880229D01*
X143195524Y-95854762D01*
X143198986Y-95829284D01*
X143207328Y-95818479D01*
X143207476Y-95818476D01*
X143216658Y-95807785D01*
X143225098Y-95781067D01*
X143227165Y-95770095D01*
X143234330Y-95739856D01*
X143242851Y-95722982D01*
X143245451Y-95721714D01*
X143254145Y-95711614D01*
X143256000Y-95698513D01*
X143259905Y-95667231D01*
X143269533Y-95646839D01*
X143281458Y-95643878D01*
X143288116Y-95637546D01*
X143291932Y-95613677D01*
X143292286Y-95601476D01*
X143295195Y-95567567D01*
X143304873Y-95553394D01*
X143310428Y-95552381D01*
X143325414Y-95542391D01*
X143328571Y-95529573D01*
X143334046Y-95502760D01*
X143346640Y-95472120D01*
X143359545Y-95441058D01*
X143364783Y-95416309D01*
X143370553Y-95398358D01*
X143376952Y-95395143D01*
X143385445Y-95384632D01*
X143389047Y-95359308D01*
X143389048Y-95358857D01*
X143392757Y-95333383D01*
X143401694Y-95322574D01*
X143401857Y-95322571D01*
X143409080Y-95315161D01*
X143407190Y-95310476D01*
X143408149Y-95299330D01*
X143412524Y-95298381D01*
X143421517Y-95287874D01*
X143425332Y-95262556D01*
X143425333Y-95262095D01*
X143428770Y-95236617D01*
X143437051Y-95225812D01*
X143437198Y-95225809D01*
X143448662Y-95215547D01*
X143456652Y-95195571D01*
X143465991Y-95172929D01*
X143475025Y-95165333D01*
X143484599Y-95155517D01*
X143485809Y-95147190D01*
X143494974Y-95131143D01*
X143502944Y-95129047D01*
X143521244Y-95121135D01*
X143524508Y-95115763D01*
X143538170Y-95106596D01*
X143567487Y-95098940D01*
X143582968Y-95096782D01*
X143620805Y-95095462D01*
X143646832Y-95103747D01*
X143668962Y-95121446D01*
X143691543Y-95139424D01*
X143706696Y-95145241D01*
X143708271Y-95144459D01*
X143715993Y-95146392D01*
X143717131Y-95151222D01*
X143719854Y-95175352D01*
X143720155Y-95177870D01*
X143730667Y-95195087D01*
X143736399Y-95199511D01*
X143747579Y-95217022D01*
X143754022Y-95246559D01*
X143754067Y-95247135D01*
X143760536Y-95275649D01*
X143772124Y-95291439D01*
X143772596Y-95291638D01*
X143783122Y-95306604D01*
X143788125Y-95335212D01*
X143788190Y-95339040D01*
X143793485Y-95372364D01*
X143806333Y-95387421D01*
X143819934Y-95404108D01*
X143824476Y-95431049D01*
X143827790Y-95456692D01*
X143835785Y-95467706D01*
X143836023Y-95467714D01*
X143845621Y-95478288D01*
X143854329Y-95504306D01*
X143855512Y-95510047D01*
X143863431Y-95537955D01*
X143872667Y-95551988D01*
X143874203Y-95552381D01*
X143881873Y-95562862D01*
X143884952Y-95587186D01*
X143890918Y-95617881D01*
X143903095Y-95637047D01*
X143916515Y-95659629D01*
X143921238Y-95686909D01*
X143924836Y-95711740D01*
X143933190Y-95721714D01*
X143942372Y-95732405D01*
X143950813Y-95759123D01*
X143952879Y-95770095D01*
X143959830Y-95800328D01*
X143967818Y-95817204D01*
X143970204Y-95818476D01*
X143979197Y-95828889D01*
X143987595Y-95854014D01*
X143987762Y-95854762D01*
X143996538Y-95880154D01*
X144006648Y-95891041D01*
X144006866Y-95891047D01*
X144014167Y-95901698D01*
X144017881Y-95927952D01*
X144018000Y-95934245D01*
X144022884Y-95968539D01*
X144034779Y-95994100D01*
X144036143Y-95995585D01*
X144049573Y-96020686D01*
X144054286Y-96049149D01*
X144057584Y-96074255D01*
X144065420Y-96084571D01*
X144075502Y-96094998D01*
X144084367Y-96120151D01*
X144084524Y-96120857D01*
X144093300Y-96146250D01*
X144103410Y-96157136D01*
X144103628Y-96157143D01*
X144110962Y-96167785D01*
X144114656Y-96193982D01*
X144114762Y-96199856D01*
X144119958Y-96234155D01*
X144132905Y-96249531D01*
X144146851Y-96265677D01*
X144151048Y-96286301D01*
X144158181Y-96317085D01*
X144169190Y-96334252D01*
X144182621Y-96359352D01*
X144187333Y-96387816D01*
X144190754Y-96412920D01*
X144198880Y-96423238D01*
X144208478Y-96433811D01*
X144217186Y-96459830D01*
X144218369Y-96465571D01*
X144226288Y-96493479D01*
X144235525Y-96507512D01*
X144237060Y-96507905D01*
X144244679Y-96518401D01*
X144247809Y-96543326D01*
X144253787Y-96575525D01*
X144265952Y-96596891D01*
X144280109Y-96622754D01*
X144284095Y-96646136D01*
X144288083Y-96669277D01*
X144296047Y-96677238D01*
X144305229Y-96687929D01*
X144313670Y-96714647D01*
X144315736Y-96725619D01*
X144322901Y-96755857D01*
X144331422Y-96772732D01*
X144334022Y-96774000D01*
X144341431Y-96784517D01*
X144344571Y-96809853D01*
X144344571Y-96810286D01*
X144349980Y-96839093D01*
X144362714Y-96846571D01*
X144377988Y-96851416D01*
X144379425Y-96855643D01*
X144377752Y-96892089D01*
X144383078Y-96923309D01*
X144393658Y-96941475D01*
X144399000Y-96943333D01*
X144411615Y-96951322D01*
X144416813Y-96977805D01*
X144417143Y-96991714D01*
X144419613Y-97022013D01*
X144425783Y-97038863D01*
X144428277Y-97040095D01*
X144438359Y-97050522D01*
X144447224Y-97075675D01*
X144447381Y-97076381D01*
X144456158Y-97101774D01*
X144466267Y-97112660D01*
X144466485Y-97112667D01*
X144474376Y-97123161D01*
X144477619Y-97148088D01*
X144483596Y-97180287D01*
X144495762Y-97201653D01*
X144509918Y-97227516D01*
X144513905Y-97250898D01*
X144518176Y-97274035D01*
X144526714Y-97282000D01*
X144533937Y-97289410D01*
X144532048Y-97294095D01*
X144533006Y-97305241D01*
X144537381Y-97306190D01*
X144548741Y-97315976D01*
X144550190Y-97324333D01*
X144553114Y-97330524D01*
X144563828Y-97335158D01*
X144585251Y-97338449D01*
X144620300Y-97340610D01*
X144671890Y-97341856D01*
X144742940Y-97342399D01*
X144798143Y-97342476D01*
X145046095Y-97342476D01*
X145046095Y-97311858D01*
X145039689Y-97286099D01*
X145027952Y-97274279D01*
X145014204Y-97256329D01*
X145009809Y-97220230D01*
X145006645Y-97187078D01*
X144996228Y-97173793D01*
X144991667Y-97173143D01*
X144978352Y-97164125D01*
X144973579Y-97135187D01*
X144973524Y-97130096D01*
X144970703Y-97102952D01*
X144963394Y-97093699D01*
X144961662Y-97094379D01*
X144952626Y-97088557D01*
X144944286Y-97064787D01*
X144942009Y-97052979D01*
X144934952Y-97024371D01*
X144926538Y-97010713D01*
X144923632Y-97010791D01*
X144916187Y-97005301D01*
X144913048Y-96982945D01*
X144913048Y-96982644D01*
X144906852Y-96948179D01*
X144895289Y-96924478D01*
X144880798Y-96894333D01*
X144877146Y-96873786D01*
X144872338Y-96852534D01*
X144864809Y-96846571D01*
X144855628Y-96835881D01*
X144847187Y-96809162D01*
X144845121Y-96798190D01*
X144838300Y-96767962D01*
X144830635Y-96751084D01*
X144828381Y-96749809D01*
X144821048Y-96739134D01*
X144813640Y-96712448D01*
X144811641Y-96701428D01*
X144804163Y-96671181D01*
X144794865Y-96654311D01*
X144791952Y-96653047D01*
X144783442Y-96642567D01*
X144780000Y-96618056D01*
X144774188Y-96589715D01*
X144761857Y-96576102D01*
X144748135Y-96558603D01*
X144743714Y-96526427D01*
X144740759Y-96498295D01*
X144733483Y-96484120D01*
X144731849Y-96483714D01*
X144720742Y-96473376D01*
X144711844Y-96450452D01*
X144702690Y-96423929D01*
X144693857Y-96410668D01*
X144686278Y-96395220D01*
X144681160Y-96366484D01*
X144680944Y-96363902D01*
X144674640Y-96334766D01*
X144663447Y-96318208D01*
X144662415Y-96317726D01*
X144652077Y-96302435D01*
X144647093Y-96271511D01*
X144646952Y-96264706D01*
X144643788Y-96231554D01*
X144633370Y-96218270D01*
X144628809Y-96217619D01*
X144614406Y-96206801D01*
X144610667Y-96181333D01*
X144607470Y-96155851D01*
X144599768Y-96145050D01*
X144599634Y-96145047D01*
X144590941Y-96134371D01*
X144582581Y-96107680D01*
X144580420Y-96096615D01*
X144573011Y-96068204D01*
X144564208Y-96054825D01*
X144561214Y-96054996D01*
X144553582Y-96049591D01*
X144550200Y-96027173D01*
X144550190Y-96025673D01*
X144544334Y-95993286D01*
X144532048Y-95971394D01*
X144517891Y-95945532D01*
X144513905Y-95922149D01*
X144509917Y-95899008D01*
X144501952Y-95891047D01*
X144492770Y-95880357D01*
X144484330Y-95853638D01*
X144482264Y-95842666D01*
X144475099Y-95812428D01*
X144466578Y-95795554D01*
X144463978Y-95794286D01*
X144456081Y-95783914D01*
X144453478Y-95764047D01*
X145215428Y-95764047D01*
X145221476Y-95770095D01*
X145227524Y-95764047D01*
X145221476Y-95758000D01*
X145215428Y-95764047D01*
X144453478Y-95764047D01*
X144453428Y-95763668D01*
X144447022Y-95737908D01*
X144435286Y-95726088D01*
X144421542Y-95708263D01*
X144417143Y-95673333D01*
X144412170Y-95636735D01*
X144399000Y-95620578D01*
X144385387Y-95603832D01*
X144380857Y-95576571D01*
X144375214Y-95546610D01*
X144362714Y-95532564D01*
X144349176Y-95516161D01*
X144344571Y-95490611D01*
X144341410Y-95465691D01*
X144334022Y-95455619D01*
X144325720Y-95444935D01*
X144317771Y-95418232D01*
X144315736Y-95407238D01*
X144308258Y-95376991D01*
X144298960Y-95360120D01*
X144296047Y-95358857D01*
X144287154Y-95348479D01*
X144284095Y-95327755D01*
X144277267Y-95296658D01*
X144265952Y-95278510D01*
X144252522Y-95253409D01*
X144247809Y-95224945D01*
X144244389Y-95199842D01*
X144236262Y-95189524D01*
X144226665Y-95178950D01*
X144217957Y-95152931D01*
X144216773Y-95147190D01*
X144208854Y-95119282D01*
X144199618Y-95105250D01*
X144198082Y-95104857D01*
X144190564Y-95094333D01*
X144187335Y-95068940D01*
X144187333Y-95068192D01*
X144181659Y-95038527D01*
X144169190Y-95024564D01*
X144155489Y-95007263D01*
X144151048Y-94976563D01*
X144146852Y-94945769D01*
X144133604Y-94935537D01*
X144132905Y-94935524D01*
X144118356Y-94924940D01*
X144114762Y-94903978D01*
X144105943Y-94875064D01*
X144078476Y-94837771D01*
X144054286Y-94812273D01*
X144024303Y-94780977D01*
X144002667Y-94755588D01*
X143993835Y-94741360D01*
X143993809Y-94741009D01*
X143983998Y-94731153D01*
X143975667Y-94729905D01*
X143959563Y-94723884D01*
X143957524Y-94718770D01*
X143947097Y-94708689D01*
X143921944Y-94699824D01*
X143921238Y-94699667D01*
X143895845Y-94690890D01*
X143884959Y-94680781D01*
X143884952Y-94680563D01*
X143874470Y-94672627D01*
X143850049Y-94669428D01*
X144018000Y-94669428D01*
X144018000Y-94698355D01*
X144026284Y-94723857D01*
X144047432Y-94734669D01*
X144073357Y-94750012D01*
X144085040Y-94767817D01*
X144093156Y-94784531D01*
X144102227Y-94779239D01*
X144103804Y-94776860D01*
X144111518Y-94771188D01*
X144114480Y-94787840D01*
X144114577Y-94793405D01*
X144120557Y-94819942D01*
X144132905Y-94826667D01*
X144147911Y-94836651D01*
X144151048Y-94849376D01*
X144159832Y-94876100D01*
X144169190Y-94887143D01*
X144183655Y-94910598D01*
X144187333Y-94930957D01*
X144191289Y-94952975D01*
X144198365Y-94959714D01*
X144207062Y-94970390D01*
X144215419Y-94997077D01*
X144217571Y-95008095D01*
X144225113Y-95038324D01*
X144234050Y-95055202D01*
X144236777Y-95056476D01*
X144244525Y-95066991D01*
X144247809Y-95092324D01*
X144247809Y-95129047D01*
X144810238Y-95129047D01*
X144942820Y-95128972D01*
X145053182Y-95128701D01*
X145143294Y-95128173D01*
X145215126Y-95127324D01*
X145270648Y-95126090D01*
X145311830Y-95124407D01*
X145340643Y-95122213D01*
X145359056Y-95119443D01*
X145369039Y-95116034D01*
X145372563Y-95111922D01*
X145372667Y-95110905D01*
X145382348Y-95094869D01*
X145390809Y-95092762D01*
X145406845Y-95083080D01*
X145408952Y-95074619D01*
X145415051Y-95058517D01*
X145420232Y-95056476D01*
X145432495Y-95046488D01*
X145439246Y-95032110D01*
X145448843Y-95014957D01*
X145455852Y-95013227D01*
X145466524Y-95007280D01*
X145482224Y-94985726D01*
X145487124Y-94977117D01*
X145505307Y-94950426D01*
X145522401Y-94936230D01*
X145525762Y-94935524D01*
X145540589Y-94927922D01*
X145542000Y-94922715D01*
X145549410Y-94915491D01*
X145554095Y-94917381D01*
X145565241Y-94916422D01*
X145566190Y-94912047D01*
X145575976Y-94900687D01*
X145584333Y-94899238D01*
X145600369Y-94889556D01*
X145602476Y-94881095D01*
X145612158Y-94865060D01*
X145620619Y-94862952D01*
X145636654Y-94853270D01*
X145638762Y-94844809D01*
X145648444Y-94828774D01*
X145656905Y-94826667D01*
X145673083Y-94818530D01*
X145675233Y-94811547D01*
X145679414Y-94805251D01*
X145687143Y-94814571D01*
X145696923Y-94824412D01*
X145699053Y-94817595D01*
X145708980Y-94804196D01*
X145717381Y-94802476D01*
X145733416Y-94792794D01*
X145735524Y-94784333D01*
X145746342Y-94769929D01*
X145771809Y-94766190D01*
X145800617Y-94760781D01*
X145808095Y-94748047D01*
X145816084Y-94735432D01*
X145842567Y-94730234D01*
X145856476Y-94729905D01*
X145890117Y-94726909D01*
X145903979Y-94716978D01*
X145904857Y-94711762D01*
X145914595Y-94695896D01*
X145923714Y-94693619D01*
X145936233Y-94687755D01*
X145935095Y-94681524D01*
X145921433Y-94679038D01*
X145883903Y-94676828D01*
X145822826Y-94674898D01*
X145738524Y-94673252D01*
X145631316Y-94671895D01*
X145501525Y-94670830D01*
X145349470Y-94670061D01*
X145175474Y-94669593D01*
X144979856Y-94669429D01*
X144972810Y-94669428D01*
X144018000Y-94669428D01*
X143850049Y-94669428D01*
X143813264Y-94663602D01*
X143780501Y-94651360D01*
X143755891Y-94644347D01*
X143715282Y-94638858D01*
X143663919Y-94634967D01*
X143607047Y-94632745D01*
X143549909Y-94632266D01*
X143497749Y-94633600D01*
X143455811Y-94636822D01*
X143429340Y-94642002D01*
X143422921Y-94646428D01*
X143409298Y-94655505D01*
X143379776Y-94663424D01*
X143361678Y-94666116D01*
X143329796Y-94671550D01*
X143312001Y-94678244D01*
X143310564Y-94681743D01*
X143304006Y-94689684D01*
X143280551Y-94697541D01*
X143274037Y-94698888D01*
X143246165Y-94707008D01*
X143232188Y-94716742D01*
X143231809Y-94718357D01*
X143222004Y-94728605D01*
X143213667Y-94729905D01*
X143197631Y-94739586D01*
X143195524Y-94748047D01*
X143185842Y-94764083D01*
X143177381Y-94766190D01*
X143161345Y-94775872D01*
X143159238Y-94784333D01*
X143149556Y-94800369D01*
X143141095Y-94802476D01*
X143125060Y-94812158D01*
X143122952Y-94820619D01*
X143116421Y-94836715D01*
X143110857Y-94838762D01*
X143101765Y-94849113D01*
X143098762Y-94869000D01*
X143092453Y-94893320D01*
X143080619Y-94899238D01*
X143065984Y-94909680D01*
X143062476Y-94928182D01*
X143055720Y-94953266D01*
X143044333Y-94964088D01*
X143030611Y-94981587D01*
X143026190Y-95013763D01*
X143023416Y-95041898D01*
X143016587Y-95056071D01*
X143015056Y-95056476D01*
X143004974Y-95066903D01*
X142996109Y-95092056D01*
X142995952Y-95092762D01*
X142987176Y-95118154D01*
X142977066Y-95129041D01*
X142976848Y-95129047D01*
X142968957Y-95139542D01*
X142965714Y-95164469D01*
X142959737Y-95196668D01*
X142947571Y-95218034D01*
X142932340Y-95244922D01*
X142929428Y-95261611D01*
X142921798Y-95285236D01*
X142911286Y-95294007D01*
X142897537Y-95312022D01*
X142893143Y-95348770D01*
X142890794Y-95377030D01*
X142884916Y-95390132D01*
X142882374Y-95389915D01*
X142873443Y-95395820D01*
X142865075Y-95418874D01*
X142863683Y-95425487D01*
X142855563Y-95453359D01*
X142845830Y-95467335D01*
X142844214Y-95467714D01*
X142835441Y-95478041D01*
X142832667Y-95497088D01*
X142825425Y-95527771D01*
X142814524Y-95544605D01*
X142800367Y-95570468D01*
X142796381Y-95593850D01*
X142792393Y-95616992D01*
X142784429Y-95624952D01*
X142775247Y-95635643D01*
X142766806Y-95662362D01*
X142764740Y-95673333D01*
X142757575Y-95703572D01*
X142749054Y-95720446D01*
X142746454Y-95721714D01*
X142738557Y-95732085D01*
X142735905Y-95752332D01*
X142730423Y-95777695D01*
X142720310Y-95788934D01*
X142708721Y-95804016D01*
X142702038Y-95832330D01*
X142701912Y-95833911D01*
X142694707Y-95865319D01*
X142681299Y-95886274D01*
X142681221Y-95886333D01*
X142666637Y-95908586D01*
X142663333Y-95926507D01*
X142655357Y-95956602D01*
X142645190Y-95971394D01*
X142630712Y-95997597D01*
X142627048Y-96018911D01*
X142622796Y-96041225D01*
X142614952Y-96048286D01*
X142605901Y-96058648D01*
X142602857Y-96078903D01*
X142596451Y-96104663D01*
X142584714Y-96116483D01*
X142570966Y-96134432D01*
X142566571Y-96170532D01*
X142563407Y-96203683D01*
X142552989Y-96216968D01*
X142548428Y-96217619D01*
X142534025Y-96228437D01*
X142530286Y-96253905D01*
X142526823Y-96279383D01*
X142518481Y-96290188D01*
X142518333Y-96290190D01*
X142509151Y-96300881D01*
X142500711Y-96327600D01*
X142498645Y-96338571D01*
X142491480Y-96368810D01*
X142482959Y-96385684D01*
X142480359Y-96386952D01*
X142472462Y-96397323D01*
X142469809Y-96417570D01*
X142463403Y-96443329D01*
X142451667Y-96455150D01*
X142437965Y-96472451D01*
X142433524Y-96503151D01*
X142430645Y-96530617D01*
X142423593Y-96543950D01*
X142422389Y-96544190D01*
X142412308Y-96554617D01*
X142403443Y-96579770D01*
X142403286Y-96580476D01*
X142394960Y-96605855D01*
X142385927Y-96616754D01*
X142385728Y-96616762D01*
X142378028Y-96627441D01*
X142370415Y-96654133D01*
X142368403Y-96665143D01*
X142360925Y-96695390D01*
X142351627Y-96712260D01*
X142348714Y-96713524D01*
X142339821Y-96723901D01*
X142336762Y-96744626D01*
X142329933Y-96775723D01*
X142318619Y-96793871D01*
X142303850Y-96820382D01*
X142300476Y-96839907D01*
X142293027Y-96868585D01*
X142282333Y-96882857D01*
X142270095Y-96904424D01*
X142264116Y-96937296D01*
X142264005Y-96941790D01*
X142262357Y-96968546D01*
X142257051Y-96973476D01*
X142252095Y-96967524D01*
X142243656Y-96959168D01*
X142240433Y-96971771D01*
X142240185Y-96981779D01*
X142233489Y-97013212D01*
X142221857Y-97032320D01*
X142207266Y-97058642D01*
X142203714Y-97079253D01*
X142196360Y-97112272D01*
X142185956Y-97131521D01*
X142171465Y-97161666D01*
X142167813Y-97182214D01*
X142162952Y-97203465D01*
X142155333Y-97209428D01*
X142146282Y-97219791D01*
X142143238Y-97240046D01*
X142136832Y-97265805D01*
X142125095Y-97277626D01*
X142110997Y-97293814D01*
X142106952Y-97313532D01*
X141381238Y-97313532D01*
X141381238Y-96235762D01*
X141381335Y-96074468D01*
X141381616Y-95920270D01*
X141382068Y-95774857D01*
X141382676Y-95639919D01*
X141383427Y-95517147D01*
X141384307Y-95408229D01*
X141385302Y-95314857D01*
X141386398Y-95238720D01*
X141387581Y-95181507D01*
X141388838Y-95144910D01*
X141390154Y-95130617D01*
X141390309Y-95130480D01*
X141404203Y-95130786D01*
X141439321Y-95130982D01*
X141492700Y-95131067D01*
X141561374Y-95131041D01*
X141642378Y-95130904D01*
X141732747Y-95130656D01*
X141783405Y-95130480D01*
X142167428Y-95129047D01*
X142167428Y-94911333D01*
X142203714Y-94911333D01*
X142203714Y-95129047D01*
X142566571Y-95129047D01*
X142671008Y-95128917D01*
X142753692Y-95128445D01*
X142817058Y-95127510D01*
X142863543Y-95125989D01*
X142895583Y-95123761D01*
X142915614Y-95120704D01*
X142926072Y-95116697D01*
X142929394Y-95111616D01*
X142929428Y-95110905D01*
X142936337Y-95094815D01*
X142942238Y-95092762D01*
X142949461Y-95085352D01*
X142947571Y-95080667D01*
X142948530Y-95069521D01*
X142952905Y-95068571D01*
X142961898Y-95058064D01*
X142965713Y-95032747D01*
X142965714Y-95032286D01*
X142969218Y-95006808D01*
X142977659Y-94996003D01*
X142977809Y-94996000D01*
X142986860Y-94985637D01*
X142989905Y-94965382D01*
X142996680Y-94939466D01*
X143009062Y-94927413D01*
X143021263Y-94919212D01*
X143012085Y-94909835D01*
X143002873Y-94901263D01*
X143011071Y-94899423D01*
X143024470Y-94889496D01*
X143026190Y-94881095D01*
X143032289Y-94864993D01*
X143037471Y-94862952D01*
X143049533Y-94852916D01*
X143057028Y-94836873D01*
X143071838Y-94809904D01*
X143094129Y-94784082D01*
X143114174Y-94761616D01*
X143122937Y-94744095D01*
X143122952Y-94743637D01*
X143132722Y-94731465D01*
X143141095Y-94729905D01*
X143157131Y-94720223D01*
X143159238Y-94711762D01*
X143166146Y-94695672D01*
X143172047Y-94693619D01*
X143179271Y-94686209D01*
X143177381Y-94681524D01*
X143163207Y-94678160D01*
X143125750Y-94675309D01*
X143065915Y-94672992D01*
X142984604Y-94671234D01*
X142882720Y-94670057D01*
X142761167Y-94669483D01*
X142704953Y-94669428D01*
X142572939Y-94669741D01*
X142462086Y-94670667D01*
X142372958Y-94672193D01*
X142306119Y-94674305D01*
X142262133Y-94676987D01*
X142241564Y-94680224D01*
X142240000Y-94681524D01*
X142230203Y-94692254D01*
X142221857Y-94693619D01*
X142215301Y-94696681D01*
X142210502Y-94707933D01*
X142207203Y-94730471D01*
X142205145Y-94767393D01*
X142204070Y-94821796D01*
X142203720Y-94896778D01*
X142203714Y-94911333D01*
X142167428Y-94911333D01*
X142167428Y-94669428D01*
X141169571Y-94669428D01*
X140991056Y-94669440D01*
X140835156Y-94669498D01*
X140700296Y-94669640D01*
X140584900Y-94669904D01*
X140487394Y-94670328D01*
X140406203Y-94670947D01*
X140339751Y-94671800D01*
X140286462Y-94672923D01*
X140244762Y-94674355D01*
X140213076Y-94676132D01*
X140189828Y-94678292D01*
X140173442Y-94680872D01*
X140162345Y-94683908D01*
X140154960Y-94687440D01*
X140149712Y-94691503D01*
X140147524Y-94693619D01*
X140134022Y-94710644D01*
X140087048Y-94710644D01*
X140087048Y-94669428D01*
X139990286Y-94669428D01*
X139942367Y-94670843D01*
X139908693Y-94674705D01*
X139893846Y-94680442D01*
X139893524Y-94681524D01*
X139883727Y-94692254D01*
X139875381Y-94693619D01*
X139860977Y-94704437D01*
X139857238Y-94729905D01*
X139851829Y-94758712D01*
X139839095Y-94766190D01*
X139824691Y-94777009D01*
X139820952Y-94802476D01*
X139817449Y-94827953D01*
X139809008Y-94838759D01*
X139808857Y-94838762D01*
X139799599Y-94849066D01*
X139796762Y-94867519D01*
X139789538Y-94896442D01*
X139778619Y-94911333D01*
X139765199Y-94933915D01*
X139760476Y-94961195D01*
X139754875Y-94988910D01*
X139742333Y-94996000D01*
X139727900Y-95006769D01*
X139724190Y-95031278D01*
X139720993Y-95057797D01*
X139713694Y-95070587D01*
X139702245Y-95084110D01*
X139694736Y-95101833D01*
X139686275Y-95129047D01*
X139542762Y-95129047D01*
X139576403Y-95126052D01*
X139590265Y-95116121D01*
X139591143Y-95110905D01*
X139601052Y-95095473D01*
X139612309Y-95092577D01*
X139626316Y-95090579D01*
X139617650Y-95082182D01*
X139615333Y-95080667D01*
X139605492Y-95070886D01*
X139612309Y-95068756D01*
X139623275Y-95057950D01*
X139627428Y-95032286D01*
X139632838Y-95003478D01*
X139645571Y-94996000D01*
X139660163Y-94985485D01*
X139663714Y-94965762D01*
X139667528Y-94943026D01*
X139674848Y-94935524D01*
X139684930Y-94925097D01*
X139693795Y-94899943D01*
X139693952Y-94899238D01*
X139702278Y-94873859D01*
X139711311Y-94862960D01*
X139711510Y-94862952D01*
X139719209Y-94852273D01*
X139726822Y-94825581D01*
X139728835Y-94814571D01*
X139736313Y-94784324D01*
X139745611Y-94767453D01*
X139748524Y-94766190D01*
X139756008Y-94755460D01*
X139760171Y-94728653D01*
X139760476Y-94717809D01*
X139758447Y-94686157D01*
X139750248Y-94672168D01*
X139736286Y-94669428D01*
X139709033Y-94678388D01*
X139682406Y-94699720D01*
X139665616Y-94725106D01*
X139663714Y-94734963D01*
X139659484Y-94761267D01*
X139655983Y-94772263D01*
X139647580Y-94785155D01*
X139638026Y-94776276D01*
X139631379Y-94775227D01*
X139627976Y-94796823D01*
X139627614Y-94811547D01*
X139624805Y-94846367D01*
X139615754Y-94861497D01*
X139609286Y-94862952D01*
X139594882Y-94873771D01*
X139591143Y-94899238D01*
X139587706Y-94924716D01*
X139579425Y-94935521D01*
X139579278Y-94935524D01*
X139568171Y-94945862D01*
X139559273Y-94968786D01*
X139550119Y-94995309D01*
X139541286Y-95008570D01*
X139533609Y-95024069D01*
X139528588Y-95052582D01*
X139528480Y-95053927D01*
X139522099Y-95081206D01*
X139510475Y-95092742D01*
X139509951Y-95092762D01*
X139496165Y-95102497D01*
X139494381Y-95110905D01*
X139397619Y-95110905D01*
X139407301Y-95094869D01*
X139415762Y-95092762D01*
X139430040Y-95082161D01*
X139433905Y-95055762D01*
X139437180Y-95031583D01*
X139445585Y-95025999D01*
X139446000Y-95026238D01*
X139454619Y-95021571D01*
X139458094Y-94998217D01*
X139458095Y-94997578D01*
X139463235Y-94966028D01*
X139474198Y-94945339D01*
X139489248Y-94921684D01*
X139498619Y-94896094D01*
X139508335Y-94872112D01*
X139518802Y-94862952D01*
X139527133Y-94852441D01*
X139530666Y-94827115D01*
X139530667Y-94826667D01*
X139534170Y-94801189D01*
X139542611Y-94790384D01*
X139542762Y-94790381D01*
X139552538Y-94780234D01*
X139554857Y-94765811D01*
X139562633Y-94742596D01*
X139572765Y-94734369D01*
X139585891Y-94718222D01*
X139588270Y-94698463D01*
X139582038Y-94677625D01*
X139563148Y-94670309D01*
X139549195Y-94669940D01*
X139520125Y-94675950D01*
X139496645Y-94696818D01*
X139485309Y-94713112D01*
X139467949Y-94745730D01*
X139458610Y-94773797D01*
X139458095Y-94779124D01*
X139452868Y-94798319D01*
X139446000Y-94802476D01*
X139436763Y-94812786D01*
X139433905Y-94831420D01*
X139427149Y-94856504D01*
X139415762Y-94867326D01*
X139401806Y-94883475D01*
X139397619Y-94904042D01*
X139390472Y-94934814D01*
X139379476Y-94951939D01*
X139365319Y-94977801D01*
X139361333Y-95001184D01*
X139357374Y-95024325D01*
X139349468Y-95032286D01*
X139338004Y-95042548D01*
X139330014Y-95062524D01*
X139320676Y-95085166D01*
X139311641Y-95092762D01*
X139302068Y-95102578D01*
X139300857Y-95110905D01*
X139228286Y-95110905D01*
X139228286Y-95080133D01*
X139231349Y-95046693D01*
X139241476Y-95033067D01*
X139246428Y-95032286D01*
X139260832Y-95021467D01*
X139264571Y-94996000D01*
X139269980Y-94967192D01*
X139282714Y-94959714D01*
X139297118Y-94948896D01*
X139300857Y-94923428D01*
X139303972Y-94897945D01*
X139311477Y-94887145D01*
X139311606Y-94887143D01*
X139320675Y-94876574D01*
X139329117Y-94850567D01*
X139330297Y-94844809D01*
X139338418Y-94816895D01*
X139348147Y-94802867D01*
X139349786Y-94802476D01*
X139358428Y-94792110D01*
X139361333Y-94771858D01*
X139367654Y-94746135D01*
X139379241Y-94734369D01*
X139392367Y-94718222D01*
X139394746Y-94698463D01*
X139392343Y-94669428D01*
X138837886Y-94669428D01*
X138723531Y-94669648D01*
X138617717Y-94670278D01*
X138522735Y-94671275D01*
X138440874Y-94672595D01*
X138374424Y-94674195D01*
X138325676Y-94676030D01*
X138296919Y-94678058D01*
X138289879Y-94679864D01*
X138281615Y-94685020D01*
X138254108Y-94690249D01*
X138212290Y-94694759D01*
X138185217Y-94696634D01*
X138131861Y-94701058D01*
X138092588Y-94707112D01*
X138071729Y-94714053D01*
X138069616Y-94716437D01*
X138055746Y-94725476D01*
X138027726Y-94729834D01*
X138023422Y-94729905D01*
X137989882Y-94735177D01*
X137974755Y-94748047D01*
X137957367Y-94761759D01*
X137926040Y-94766190D01*
X137900393Y-94768952D01*
X137890657Y-94775761D01*
X137891224Y-94777415D01*
X137887236Y-94789285D01*
X137873795Y-94796373D01*
X137854167Y-94806825D01*
X137849428Y-94814425D01*
X137839007Y-94823925D01*
X137813853Y-94832555D01*
X137813037Y-94832737D01*
X137789891Y-94841305D01*
X137783195Y-94851230D01*
X137783513Y-94851841D01*
X137781576Y-94862263D01*
X137777571Y-94862952D01*
X137759160Y-94871540D01*
X137736915Y-94891221D01*
X137720068Y-94912870D01*
X137716381Y-94923428D01*
X137706584Y-94934159D01*
X137698238Y-94935524D01*
X137682964Y-94940368D01*
X137681527Y-94944595D01*
X137680940Y-94976360D01*
X137669255Y-94994202D01*
X137661952Y-94996000D01*
X137647360Y-95006514D01*
X137643809Y-95026238D01*
X137639996Y-95048974D01*
X137632675Y-95056476D01*
X137622593Y-95066903D01*
X137613728Y-95092056D01*
X137613571Y-95092762D01*
X137604998Y-95118148D01*
X137595373Y-95129040D01*
X137595163Y-95129047D01*
X137587942Y-95139818D01*
X137582273Y-95166846D01*
X137581005Y-95179512D01*
X137575398Y-95211957D01*
X137565846Y-95232340D01*
X137562167Y-95234949D01*
X137557523Y-95231534D01*
X137553871Y-95216464D01*
X137551112Y-95187605D01*
X137549149Y-95142825D01*
X137547883Y-95079988D01*
X137547549Y-95038333D01*
X137619619Y-95038333D01*
X137625667Y-95044381D01*
X137631714Y-95038333D01*
X137625667Y-95032286D01*
X137619619Y-95038333D01*
X137547549Y-95038333D01*
X137547217Y-94996960D01*
X137547048Y-94906293D01*
X137547048Y-94572667D01*
X147453048Y-94572667D01*
X147453048Y-94669428D01*
X147453048Y-94669428D01*
G37*
X147453048Y-94669428D02*
X146875500Y-94669614D01*
X146760552Y-94669855D01*
X146653871Y-94670474D01*
X146557712Y-94671431D01*
X146474334Y-94672683D01*
X146405995Y-94674189D01*
X146354952Y-94675908D01*
X146323464Y-94677798D01*
X146313787Y-94679817D01*
X146313928Y-94679928D01*
X146309927Y-94684858D01*
X146284697Y-94689722D01*
X146241198Y-94694087D01*
X146199412Y-94696717D01*
X146139966Y-94700923D01*
X146095496Y-94706476D01*
X146069588Y-94712847D01*
X146064500Y-94716641D01*
X146050749Y-94725154D01*
X146022166Y-94729680D01*
X146013570Y-94729905D01*
X145978369Y-94734437D01*
X145951806Y-94745589D01*
X145948918Y-94748047D01*
X145923055Y-94762204D01*
X145899673Y-94766190D01*
X145876528Y-94769907D01*
X145868571Y-94777325D01*
X145858144Y-94787406D01*
X145832991Y-94796271D01*
X145832286Y-94796428D01*
X145806905Y-94804822D01*
X145796007Y-94814019D01*
X145796000Y-94814221D01*
X145785761Y-94824143D01*
X145765762Y-94831633D01*
X145743109Y-94841346D01*
X145735524Y-94851087D01*
X145725171Y-94860007D01*
X145705286Y-94862952D01*
X145680966Y-94869261D01*
X145675048Y-94881095D01*
X145668211Y-94897186D01*
X145662375Y-94899238D01*
X145646201Y-94907379D01*
X145623817Y-94927207D01*
X145621678Y-94929476D01*
X145598858Y-94950095D01*
X145580985Y-94959636D01*
X145579922Y-94959714D01*
X145568194Y-94969687D01*
X145566005Y-94980881D01*
X145564008Y-94994887D01*
X145555610Y-94986222D01*
X145554095Y-94983905D01*
X145544461Y-94974721D01*
X145542185Y-94979030D01*
X145534777Y-94996864D01*
X145517210Y-95021207D01*
X145517076Y-95021363D01*
X145474292Y-95072545D01*
X145444468Y-95111842D01*
X145423733Y-95144745D01*
X145409223Y-95174405D01*
X145395720Y-95195292D01*
X145385061Y-95201619D01*
X145375744Y-95211968D01*
X145372667Y-95231857D01*
X145366358Y-95256177D01*
X145354524Y-95262095D01*
X145340120Y-95272913D01*
X145336381Y-95298381D01*
X145333323Y-95323865D01*
X145325957Y-95334664D01*
X145325831Y-95334666D01*
X145317530Y-95345350D01*
X145309580Y-95372054D01*
X145307546Y-95383047D01*
X145300068Y-95413295D01*
X145290769Y-95430165D01*
X145287857Y-95431428D01*
X145280317Y-95442146D01*
X145276177Y-95468866D01*
X145275905Y-95478945D01*
X145271470Y-95514422D01*
X145260526Y-95541287D01*
X145257762Y-95544605D01*
X145247744Y-95563100D01*
X145241925Y-95596636D01*
X145239691Y-95649254D01*
X145239619Y-95664003D01*
X145238149Y-95712314D01*
X145234233Y-95751534D01*
X145228614Y-95775120D01*
X145226664Y-95778212D01*
X145219821Y-95796885D01*
X145214249Y-95834678D01*
X145210088Y-95886548D01*
X145207478Y-95947450D01*
X145206559Y-96012341D01*
X145207470Y-96076177D01*
X145210353Y-96133915D01*
X145215346Y-96180510D01*
X145215475Y-96181333D01*
X145223876Y-96243125D01*
X145231338Y-96312467D01*
X145235589Y-96365050D01*
X145241519Y-96422228D01*
X145250649Y-96459468D01*
X145258660Y-96472364D01*
X145270197Y-96494250D01*
X145275723Y-96531051D01*
X145275905Y-96539624D01*
X145278056Y-96571570D01*
X145283482Y-96590418D01*
X145286454Y-96592571D01*
X145294756Y-96603255D01*
X145302705Y-96629959D01*
X145304740Y-96640952D01*
X145312218Y-96671199D01*
X145321516Y-96688070D01*
X145324429Y-96689333D01*
X145333508Y-96699658D01*
X145336381Y-96718707D01*
X145343622Y-96749390D01*
X145354524Y-96766224D01*
X145369737Y-96793209D01*
X145372667Y-96810135D01*
X145376884Y-96827622D01*
X145383891Y-96828967D01*
X145395510Y-96833241D01*
X145403630Y-96848855D01*
X145417727Y-96877974D01*
X145428691Y-96892228D01*
X145442821Y-96914674D01*
X145445238Y-96926054D01*
X145452051Y-96941588D01*
X145457333Y-96943333D01*
X145468064Y-96953130D01*
X145469428Y-96961476D01*
X145479110Y-96977512D01*
X145487571Y-96979619D01*
X145503607Y-96989301D01*
X145505714Y-96997762D01*
X145512702Y-97013850D01*
X145518673Y-97015905D01*
X145539192Y-97025066D01*
X145558679Y-97045175D01*
X145566190Y-97063422D01*
X145575286Y-97075852D01*
X145578863Y-97076381D01*
X145595247Y-97084487D01*
X145617365Y-97104078D01*
X145618173Y-97104938D01*
X145645901Y-97128247D01*
X145672024Y-97142039D01*
X145693104Y-97152338D01*
X145699238Y-97160551D01*
X145709479Y-97170584D01*
X145729476Y-97178110D01*
X145752129Y-97187822D01*
X145759714Y-97197564D01*
X145769572Y-97207954D01*
X145778721Y-97209428D01*
X145802525Y-97217467D01*
X145815871Y-97227571D01*
X145842073Y-97242049D01*
X145863388Y-97245714D01*
X145885709Y-97249486D01*
X145892762Y-97256436D01*
X145903528Y-97264433D01*
X145930779Y-97272358D01*
X145947190Y-97275320D01*
X145979594Y-97282426D01*
X145999078Y-97291034D01*
X146001619Y-97294836D01*
X146012261Y-97302314D01*
X146038457Y-97306082D01*
X146044341Y-97306190D01*
X146085635Y-97311180D01*
X146127933Y-97323296D01*
X146130485Y-97324333D01*
X146143306Y-97328422D01*
X146161882Y-97331866D01*
X146188173Y-97334717D01*
X146224141Y-97337028D01*
X146271748Y-97338851D01*
X146332953Y-97340237D01*
X146409720Y-97341240D01*
X146504009Y-97341910D01*
X146617781Y-97342300D01*
X146752998Y-97342463D01*
X146813477Y-97342476D01*
X147453048Y-97342476D01*
X147453048Y-97451333D01*
X137547048Y-97451333D01*
X137547048Y-97126730D01*
X137581916Y-97126730D01*
X137582422Y-97189021D01*
X137584398Y-97245760D01*
X137587870Y-97292144D01*
X137592860Y-97323369D01*
X137598452Y-97334466D01*
X137614230Y-97336152D01*
X137650802Y-97337734D01*
X137704773Y-97339138D01*
X137772749Y-97340291D01*
X137851332Y-97341120D01*
X137925888Y-97341521D01*
X138024293Y-97341604D01*
X138101170Y-97341090D01*
X138159179Y-97339850D01*
X138200977Y-97337750D01*
X138229224Y-97334659D01*
X138246578Y-97330446D01*
X138255483Y-97325197D01*
X138256857Y-97322652D01*
X138348108Y-97322652D01*
X138357428Y-97330381D01*
X138383798Y-97340300D01*
X138412727Y-97341927D01*
X138435080Y-97335805D01*
X138442095Y-97325341D01*
X138443586Y-97321487D01*
X138540525Y-97321487D01*
X138546339Y-97335928D01*
X138574725Y-97342150D01*
X138587238Y-97342476D01*
X138617531Y-97339602D01*
X138634384Y-97332424D01*
X138635619Y-97329517D01*
X138642624Y-97312947D01*
X138736854Y-97312947D01*
X138739103Y-97331472D01*
X138753042Y-97335311D01*
X138786899Y-97338343D01*
X138836614Y-97340585D01*
X138898125Y-97342056D01*
X138967371Y-97342775D01*
X139040291Y-97342758D01*
X139112824Y-97342025D01*
X139180908Y-97340592D01*
X139240482Y-97338480D01*
X139287485Y-97335705D01*
X139317856Y-97332285D01*
X139327575Y-97328847D01*
X139341207Y-97320090D01*
X139371221Y-97312422D01*
X139395106Y-97309165D01*
X139430404Y-97304114D01*
X139453261Y-97297658D01*
X139458095Y-97293517D01*
X139468508Y-97284519D01*
X139493633Y-97276118D01*
X139494381Y-97275952D01*
X139519774Y-97267176D01*
X139530660Y-97257066D01*
X139530667Y-97256848D01*
X139541034Y-97248515D01*
X139561284Y-97245714D01*
X139587044Y-97239308D01*
X139598864Y-97227571D01*
X139615427Y-97211984D01*
X139627428Y-97209428D01*
X139649398Y-97200542D01*
X139655993Y-97191286D01*
X139672557Y-97175190D01*
X139682191Y-97173143D01*
X139695002Y-97167373D01*
X139693952Y-97161047D01*
X139696694Y-97150693D01*
X139705334Y-97148952D01*
X139721823Y-97139583D01*
X139724190Y-97130809D01*
X139733872Y-97114774D01*
X139742333Y-97112667D01*
X139758369Y-97102985D01*
X139760476Y-97094524D01*
X139770158Y-97078488D01*
X139778619Y-97076381D01*
X139794654Y-97066699D01*
X139796762Y-97058238D01*
X139803293Y-97042142D01*
X139808857Y-97040095D01*
X139817949Y-97029744D01*
X139820952Y-97009857D01*
X139827261Y-96985537D01*
X139839095Y-96979619D01*
X139853674Y-96969084D01*
X139857238Y-96949001D01*
X139863644Y-96923242D01*
X139875381Y-96911421D01*
X139889126Y-96893569D01*
X139893524Y-96858380D01*
X139897178Y-96826594D01*
X139906423Y-96808453D01*
X139908643Y-96807254D01*
X139914143Y-96799171D01*
X139918251Y-96777519D01*
X139921111Y-96739929D01*
X139922869Y-96684037D01*
X139923673Y-96607476D01*
X139923762Y-96562323D01*
X139923368Y-96474918D01*
X139922090Y-96409326D01*
X139919782Y-96363180D01*
X139916296Y-96334116D01*
X139911488Y-96319767D01*
X139908643Y-96317402D01*
X139898616Y-96302829D01*
X139893689Y-96272448D01*
X139893524Y-96264992D01*
X139890398Y-96231732D01*
X139880091Y-96218318D01*
X139875381Y-96217619D01*
X139860977Y-96206801D01*
X139857238Y-96181333D01*
X139851829Y-96152526D01*
X139839095Y-96145047D01*
X139824340Y-96134878D01*
X139820952Y-96119967D01*
X139812804Y-96101961D01*
X139791610Y-96073319D01*
X139762244Y-96039231D01*
X139729581Y-96004890D01*
X139698495Y-95975486D01*
X139673861Y-95956213D01*
X139662801Y-95951524D01*
X139651905Y-95942324D01*
X139651619Y-95939659D01*
X139641356Y-95928194D01*
X139621381Y-95920205D01*
X139598738Y-95910866D01*
X139591143Y-95901831D01*
X139580784Y-95893722D01*
X139560905Y-95891047D01*
X139536585Y-95884739D01*
X139530667Y-95872905D01*
X139519848Y-95858501D01*
X139494381Y-95854762D01*
X139468907Y-95851053D01*
X139458098Y-95842116D01*
X139458095Y-95841953D01*
X139450806Y-95834476D01*
X139446836Y-95836102D01*
X139431301Y-95834586D01*
X139427979Y-95830769D01*
X139411349Y-95820374D01*
X139390940Y-95827455D01*
X139372575Y-95847285D01*
X139362079Y-95875138D01*
X139361333Y-95884856D01*
X139356084Y-95908701D01*
X139347322Y-95917892D01*
X139334938Y-95932184D01*
X139328829Y-95952162D01*
X139321170Y-95976303D01*
X139312602Y-95985793D01*
X139303606Y-95999508D01*
X139300857Y-96019435D01*
X139294245Y-96044789D01*
X139282714Y-96056007D01*
X139269013Y-96073308D01*
X139264571Y-96104008D01*
X139260376Y-96134803D01*
X139247128Y-96145034D01*
X139246428Y-96145047D01*
X139233041Y-96154861D01*
X139228322Y-96178453D01*
X139232187Y-96207051D01*
X139244553Y-96231883D01*
X139247292Y-96234898D01*
X139273443Y-96250546D01*
X139290490Y-96253905D01*
X139318694Y-96261153D01*
X139330477Y-96269024D01*
X139352922Y-96287872D01*
X139371946Y-96301932D01*
X139391469Y-96320912D01*
X139397619Y-96335194D01*
X139407357Y-96348894D01*
X139415762Y-96350667D01*
X139431809Y-96359831D01*
X139433905Y-96367801D01*
X139442936Y-96386488D01*
X139449024Y-96389976D01*
X139455303Y-96403465D01*
X139460034Y-96435514D01*
X139463187Y-96480539D01*
X139464734Y-96532957D01*
X139464647Y-96587185D01*
X139462898Y-96637641D01*
X139459457Y-96678741D01*
X139454298Y-96704902D01*
X139450654Y-96710941D01*
X139436559Y-96728584D01*
X139428672Y-96746786D01*
X139417911Y-96767886D01*
X139408899Y-96774000D01*
X139398684Y-96783713D01*
X139397619Y-96790831D01*
X139387307Y-96806053D01*
X139367381Y-96815252D01*
X139344728Y-96824965D01*
X139337143Y-96834706D01*
X139327285Y-96845097D01*
X139318136Y-96846571D01*
X139294332Y-96854610D01*
X139280986Y-96864714D01*
X139268111Y-96872449D01*
X139245131Y-96877749D01*
X139208280Y-96880992D01*
X139153790Y-96882557D01*
X139100422Y-96882857D01*
X139031701Y-96883727D01*
X138980140Y-96886219D01*
X138948129Y-96890154D01*
X138938000Y-96894952D01*
X138928203Y-96905683D01*
X138919857Y-96907047D01*
X138905453Y-96917866D01*
X138901714Y-96943333D01*
X138898488Y-96968815D01*
X138890715Y-96979616D01*
X138890580Y-96979619D01*
X138880498Y-96990046D01*
X138871633Y-97015199D01*
X138871476Y-97015905D01*
X138863150Y-97041283D01*
X138854117Y-97052183D01*
X138853918Y-97052190D01*
X138846247Y-97062876D01*
X138838614Y-97089622D01*
X138836502Y-97101140D01*
X138829125Y-97129983D01*
X138820011Y-97143097D01*
X138816814Y-97142760D01*
X138808516Y-97147702D01*
X138804963Y-97170778D01*
X138804952Y-97172429D01*
X138799754Y-97201547D01*
X138786809Y-97209428D01*
X138772406Y-97220247D01*
X138768667Y-97245714D01*
X138765536Y-97271197D01*
X138757995Y-97281997D01*
X138757865Y-97282000D01*
X138744639Y-97291915D01*
X138736854Y-97312947D01*
X138642624Y-97312947D01*
X138643399Y-97311115D01*
X138653762Y-97298415D01*
X138668077Y-97272385D01*
X138671905Y-97250034D01*
X138678934Y-97219146D01*
X138690048Y-97201653D01*
X138705219Y-97175906D01*
X138708190Y-97160184D01*
X138713423Y-97141003D01*
X138720286Y-97136857D01*
X138729998Y-97126690D01*
X138732381Y-97111803D01*
X138740680Y-97082485D01*
X138750524Y-97068605D01*
X138763954Y-97043505D01*
X138768667Y-97015041D01*
X138774186Y-96986870D01*
X138786809Y-96979619D01*
X138799425Y-96971630D01*
X138804623Y-96945147D01*
X138804952Y-96931238D01*
X138803015Y-96901000D01*
X138817048Y-96901000D01*
X138823095Y-96907047D01*
X138829143Y-96901000D01*
X138823095Y-96894952D01*
X138817048Y-96901000D01*
X138803015Y-96901000D01*
X138802924Y-96899585D01*
X138794724Y-96885596D01*
X138780762Y-96882857D01*
X138750965Y-96892935D01*
X138724042Y-96917216D01*
X138709029Y-96946769D01*
X138708190Y-96954564D01*
X138699966Y-96982296D01*
X138690048Y-96996034D01*
X138675891Y-97021897D01*
X138671905Y-97045279D01*
X138665744Y-97070244D01*
X138653762Y-97076381D01*
X138639198Y-97086941D01*
X138635619Y-97107483D01*
X138628790Y-97138580D01*
X138617476Y-97156728D01*
X138604156Y-97181713D01*
X138599333Y-97211006D01*
X138595988Y-97234689D01*
X138587452Y-97239794D01*
X138587238Y-97239667D01*
X138577609Y-97243250D01*
X138575143Y-97256232D01*
X138566887Y-97284617D01*
X138557000Y-97298415D01*
X138540525Y-97321487D01*
X138443586Y-97321487D01*
X138449080Y-97307288D01*
X138453841Y-97304174D01*
X138464456Y-97290438D01*
X138470067Y-97270543D01*
X138478577Y-97246116D01*
X138488560Y-97236273D01*
X138499474Y-97222007D01*
X138502571Y-97203237D01*
X138510078Y-97172787D01*
X138520714Y-97156728D01*
X138534871Y-97130865D01*
X138538857Y-97107483D01*
X138545017Y-97082517D01*
X138557000Y-97076381D01*
X138571278Y-97065780D01*
X138575143Y-97039381D01*
X138578418Y-97015202D01*
X138586823Y-97009618D01*
X138587238Y-97009857D01*
X138595804Y-97005131D01*
X138599327Y-96981598D01*
X138599333Y-96980333D01*
X138604531Y-96951215D01*
X138617476Y-96943333D01*
X138632068Y-96932819D01*
X138635619Y-96913095D01*
X138632978Y-96893613D01*
X138620522Y-96884954D01*
X138591451Y-96882868D01*
X138587238Y-96882857D01*
X138556067Y-96884507D01*
X138542213Y-96892292D01*
X138538874Y-96910462D01*
X138538857Y-96913095D01*
X138532548Y-96937415D01*
X138520714Y-96943333D01*
X138506310Y-96954151D01*
X138502571Y-96979619D01*
X138499345Y-97005100D01*
X138491572Y-97015902D01*
X138491437Y-97015905D01*
X138481612Y-97026388D01*
X138472520Y-97051954D01*
X138471775Y-97055214D01*
X138463003Y-97084121D01*
X138453309Y-97100829D01*
X138452730Y-97101249D01*
X138443990Y-97117172D01*
X138439516Y-97140558D01*
X138432570Y-97164416D01*
X138421314Y-97173143D01*
X138409857Y-97183890D01*
X138405809Y-97209428D01*
X138400400Y-97238236D01*
X138387667Y-97245714D01*
X138373263Y-97256532D01*
X138369524Y-97282000D01*
X138365077Y-97308371D01*
X138354405Y-97318471D01*
X138348108Y-97322652D01*
X138256857Y-97322652D01*
X138269164Y-97299862D01*
X138272762Y-97278110D01*
X138279332Y-97252676D01*
X138290905Y-97241340D01*
X138304712Y-97225231D01*
X138309048Y-97203760D01*
X138312700Y-97180842D01*
X138319832Y-97173143D01*
X138330220Y-97162828D01*
X138338933Y-97140002D01*
X138348534Y-97113477D01*
X138358001Y-97100217D01*
X138366308Y-97084625D01*
X138371604Y-97056059D01*
X138371710Y-97054739D01*
X138378091Y-97027461D01*
X138389715Y-97015924D01*
X138390239Y-97015905D01*
X138401775Y-97005146D01*
X138405809Y-96979619D01*
X138411219Y-96950811D01*
X138423952Y-96943333D01*
X138438544Y-96932819D01*
X138442095Y-96913095D01*
X138442095Y-96882857D01*
X138029993Y-96882857D01*
X137915981Y-96883007D01*
X137823852Y-96883521D01*
X137751296Y-96884490D01*
X137696009Y-96886007D01*
X137655682Y-96888166D01*
X137628007Y-96891059D01*
X137610679Y-96894780D01*
X137601390Y-96899420D01*
X137600612Y-96900136D01*
X137594122Y-96918128D01*
X137588984Y-96954587D01*
X137585221Y-97004710D01*
X137582857Y-97063692D01*
X137581916Y-97126730D01*
X137547048Y-97126730D01*
X137547048Y-96544190D01*
X137547188Y-96387533D01*
X137547599Y-96241372D01*
X137548103Y-96139000D01*
X137946190Y-96139000D01*
X137952238Y-96145047D01*
X137958286Y-96139000D01*
X137952238Y-96132952D01*
X137946190Y-96139000D01*
X137548103Y-96139000D01*
X137548260Y-96107272D01*
X137549153Y-95986800D01*
X137550259Y-95881521D01*
X137551561Y-95793002D01*
X137553038Y-95722808D01*
X137554673Y-95672505D01*
X137556447Y-95643659D01*
X137557849Y-95637047D01*
X137572010Y-95648302D01*
X137580896Y-95679358D01*
X137583333Y-95716656D01*
X137586193Y-95744245D01*
X137593203Y-95757733D01*
X137594467Y-95758000D01*
X137604549Y-95768427D01*
X137613414Y-95793580D01*
X137613571Y-95794286D01*
X137622348Y-95819678D01*
X137632457Y-95830564D01*
X137632675Y-95830571D01*
X137641047Y-95840928D01*
X137643809Y-95860809D01*
X137649657Y-95884442D01*
X137660641Y-95891047D01*
X137675863Y-95901359D01*
X137685062Y-95921286D01*
X137694774Y-95943939D01*
X137704516Y-95951524D01*
X137716038Y-95960735D01*
X137716381Y-95963619D01*
X137724991Y-95981606D01*
X137744691Y-96003579D01*
X137766288Y-96020344D01*
X137776857Y-96024095D01*
X137788603Y-96033131D01*
X137788952Y-96035960D01*
X137799215Y-96047424D01*
X137819190Y-96055414D01*
X137841819Y-96064300D01*
X137849428Y-96072476D01*
X137859664Y-96082134D01*
X137879667Y-96089538D01*
X137902320Y-96099251D01*
X137909905Y-96108992D01*
X137920257Y-96117912D01*
X137940143Y-96120857D01*
X137962874Y-96124949D01*
X137970381Y-96132809D01*
X137981072Y-96141991D01*
X138007790Y-96150432D01*
X138018762Y-96152498D01*
X138048991Y-96159346D01*
X138065869Y-96167080D01*
X138067143Y-96169363D01*
X138078226Y-96174759D01*
X138107550Y-96180733D01*
X138149227Y-96186141D01*
X138157929Y-96186998D01*
X138200131Y-96192359D01*
X138229956Y-96198878D01*
X138242090Y-96205318D01*
X138241882Y-96206562D01*
X138251117Y-96210229D01*
X138281966Y-96213289D01*
X138331856Y-96215621D01*
X138398217Y-96217104D01*
X138477667Y-96217619D01*
X138560572Y-96217474D01*
X138622727Y-96216830D01*
X138667571Y-96215377D01*
X138698545Y-96212802D01*
X138719087Y-96208793D01*
X138732639Y-96203038D01*
X138742639Y-96195226D01*
X138744476Y-96193428D01*
X138748637Y-96187381D01*
X138841238Y-96187381D01*
X138844424Y-96207870D01*
X138858736Y-96216227D01*
X138883341Y-96217619D01*
X138913439Y-96214403D01*
X138928211Y-96201347D01*
X138932586Y-96188675D01*
X139034762Y-96188675D01*
X139037624Y-96207359D01*
X139050707Y-96215661D01*
X139080757Y-96217615D01*
X139083143Y-96217619D01*
X139114165Y-96216186D01*
X139127956Y-96208421D01*
X139131447Y-96189125D01*
X139131524Y-96181333D01*
X139136933Y-96152526D01*
X139149667Y-96145047D01*
X139164258Y-96134533D01*
X139167809Y-96114809D01*
X139171424Y-96092071D01*
X139178359Y-96084571D01*
X139186661Y-96073887D01*
X139194610Y-96047184D01*
X139196645Y-96036190D01*
X139204122Y-96005943D01*
X139213421Y-95989073D01*
X139216333Y-95987809D01*
X139225278Y-95977446D01*
X139228286Y-95957192D01*
X139234692Y-95931432D01*
X139246428Y-95919612D01*
X139260763Y-95903361D01*
X139264571Y-95885000D01*
X139271249Y-95860605D01*
X139281775Y-95850748D01*
X139293598Y-95834905D01*
X139292460Y-95819216D01*
X139280944Y-95801044D01*
X139254972Y-95794523D01*
X139245248Y-95794286D01*
X139215638Y-95797803D01*
X139201165Y-95811894D01*
X139196967Y-95824524D01*
X139187628Y-95847166D01*
X139178593Y-95854762D01*
X139170521Y-95865132D01*
X139167809Y-95885379D01*
X139161403Y-95911139D01*
X139149667Y-95922959D01*
X139135987Y-95940094D01*
X139131524Y-95969666D01*
X139126098Y-96001716D01*
X139113381Y-96016374D01*
X139099573Y-96032483D01*
X139095238Y-96053954D01*
X139091144Y-96076865D01*
X139083143Y-96084571D01*
X139074092Y-96094934D01*
X139071048Y-96115189D01*
X139064642Y-96140948D01*
X139052905Y-96152769D01*
X139038807Y-96168956D01*
X139034762Y-96188675D01*
X138932586Y-96188675D01*
X138933033Y-96187381D01*
X138942040Y-96164748D01*
X138950445Y-96157143D01*
X138959604Y-96146728D01*
X138968073Y-96121598D01*
X138968238Y-96120857D01*
X138977015Y-96095464D01*
X138987124Y-96084578D01*
X138987342Y-96084571D01*
X138995676Y-96074203D01*
X138998476Y-96053954D01*
X139004882Y-96028194D01*
X139016619Y-96016374D01*
X139030085Y-96000249D01*
X139034762Y-95975901D01*
X139040958Y-95945591D01*
X139041033Y-95945476D01*
X139046857Y-95945476D01*
X139052905Y-95951524D01*
X139058952Y-95945476D01*
X139052905Y-95939428D01*
X139046857Y-95945476D01*
X139041033Y-95945476D01*
X139052905Y-95927333D01*
X139067566Y-95903713D01*
X139071048Y-95884527D01*
X139075054Y-95861219D01*
X139081544Y-95852746D01*
X139093098Y-95839195D01*
X139100190Y-95822484D01*
X139099883Y-95800735D01*
X139080774Y-95790474D01*
X139041405Y-95791056D01*
X139031738Y-95792308D01*
X139008968Y-95798908D01*
X138999858Y-95815182D01*
X138998476Y-95838706D01*
X138995804Y-95864391D01*
X138989218Y-95874218D01*
X138987648Y-95873688D01*
X138975458Y-95876949D01*
X138965928Y-95897670D01*
X138962190Y-95928322D01*
X138957346Y-95947440D01*
X138951056Y-95951524D01*
X138940974Y-95961951D01*
X138932109Y-95987104D01*
X138931952Y-95987809D01*
X138923176Y-96013202D01*
X138913066Y-96024088D01*
X138912848Y-96024095D01*
X138905029Y-96034610D01*
X138901715Y-96059942D01*
X138901714Y-96060381D01*
X138898277Y-96085859D01*
X138889996Y-96096664D01*
X138889849Y-96096667D01*
X138878385Y-96106929D01*
X138870395Y-96126905D01*
X138861057Y-96149547D01*
X138852022Y-96157143D01*
X138843913Y-96167501D01*
X138841238Y-96187381D01*
X138748637Y-96187381D01*
X138762598Y-96167098D01*
X138768667Y-96145047D01*
X138773673Y-96125392D01*
X138780619Y-96120857D01*
X138789801Y-96110166D01*
X138798241Y-96083448D01*
X138800308Y-96072476D01*
X138807258Y-96042244D01*
X138815247Y-96025367D01*
X138817632Y-96024095D01*
X138826626Y-96013682D01*
X138835024Y-95988557D01*
X138835190Y-95987809D01*
X138843967Y-95962417D01*
X138854076Y-95951530D01*
X138854294Y-95951524D01*
X138862628Y-95941156D01*
X138865428Y-95920906D01*
X138871834Y-95895147D01*
X138883571Y-95883326D01*
X138897852Y-95867090D01*
X138901714Y-95848428D01*
X138907486Y-95824449D01*
X138916833Y-95815092D01*
X138927831Y-95809389D01*
X138924809Y-95804685D01*
X138906176Y-95800862D01*
X138870339Y-95797802D01*
X138815708Y-95795386D01*
X138740690Y-95793496D01*
X138643696Y-95792014D01*
X138599584Y-95791521D01*
X138497486Y-95790185D01*
X138417502Y-95788444D01*
X138357559Y-95786179D01*
X138315583Y-95783274D01*
X138289500Y-95779609D01*
X138277235Y-95775068D01*
X138275777Y-95773119D01*
X138261527Y-95763009D01*
X138233220Y-95758091D01*
X138228557Y-95758000D01*
X138194537Y-95752997D01*
X138169286Y-95740855D01*
X138168224Y-95739857D01*
X138142478Y-95724685D01*
X138126755Y-95721714D01*
X138107581Y-95716113D01*
X138103428Y-95708755D01*
X138094267Y-95688236D01*
X138074158Y-95668750D01*
X138055911Y-95661238D01*
X138046216Y-95650881D01*
X138042952Y-95630620D01*
X138036546Y-95604861D01*
X138024809Y-95593040D01*
X138016049Y-95578623D01*
X138009772Y-95546954D01*
X138005979Y-95503888D01*
X138004669Y-95455283D01*
X138005844Y-95406996D01*
X138009502Y-95364883D01*
X138015644Y-95334801D01*
X138024270Y-95322607D01*
X138024809Y-95322571D01*
X138039606Y-95312533D01*
X138042952Y-95298845D01*
X138051004Y-95278066D01*
X138071937Y-95247931D01*
X138096302Y-95220226D01*
X138132180Y-95186902D01*
X138160944Y-95169878D01*
X138187442Y-95165333D01*
X138224219Y-95159496D01*
X138252528Y-95147448D01*
X138262896Y-95142814D01*
X138279982Y-95139012D01*
X138306014Y-95135959D01*
X138343216Y-95133573D01*
X138393815Y-95131771D01*
X138460036Y-95130469D01*
X138544106Y-95129585D01*
X138648250Y-95129036D01*
X138754055Y-95128772D01*
X139228286Y-95127980D01*
X139228286Y-95110905D01*
X139300857Y-95110905D01*
X139308846Y-95123520D01*
X139335329Y-95128718D01*
X139349238Y-95129047D01*
X139382879Y-95126052D01*
X139396741Y-95116121D01*
X139397619Y-95110905D01*
X139494381Y-95110905D01*
X139502370Y-95123520D01*
X139528853Y-95128718D01*
X139542762Y-95129047D01*
X139686275Y-95129047D01*
X140087048Y-95129047D01*
X140087048Y-94710644D01*
X140134022Y-94710644D01*
X140135340Y-94717809D01*
X140135428Y-94717809D01*
X140140146Y-94729603D01*
X140143788Y-94763817D01*
X140146251Y-94818702D01*
X140147432Y-94892506D01*
X140147524Y-94923428D01*
X140147524Y-95129047D01*
X140906702Y-95129047D01*
X140913995Y-95156262D01*
X140915076Y-95172164D01*
X140916113Y-95210484D01*
X140917092Y-95269451D01*
X140918003Y-95347292D01*
X140918834Y-95442234D01*
X140919571Y-95552506D01*
X140920205Y-95676336D01*
X140920722Y-95811951D01*
X140921110Y-95957580D01*
X140921359Y-96111449D01*
X140921454Y-96262976D01*
X140921619Y-97342476D01*
X141381238Y-97342476D01*
X141381238Y-97313532D01*
X142106952Y-97313532D01*
X142106952Y-97342476D01*
X142354905Y-97342476D01*
X142439508Y-97342262D01*
X142502840Y-97341478D01*
X142547819Y-97339911D01*
X142577360Y-97337346D01*
X142594382Y-97333571D01*
X142601801Y-97328372D01*
X142602857Y-97324333D01*
X142609388Y-97308237D01*
X142614952Y-97306190D01*
X142624003Y-97295828D01*
X142627048Y-97275573D01*
X142633453Y-97249813D01*
X142645190Y-97237993D01*
X142658897Y-97220645D01*
X142663333Y-97189612D01*
X142668628Y-97156288D01*
X142681476Y-97141231D01*
X142696314Y-97124865D01*
X142700004Y-97108349D01*
X142707565Y-97077898D01*
X142718146Y-97058950D01*
X142732489Y-97028478D01*
X142735905Y-97007545D01*
X142739790Y-96985937D01*
X142746454Y-96979619D01*
X142754610Y-96968901D01*
X142762653Y-96941946D01*
X142765185Y-96928452D01*
X142771681Y-96897985D01*
X142778623Y-96889296D01*
X142784689Y-96895190D01*
X142792176Y-96900512D01*
X142795693Y-96884553D01*
X142796196Y-96866874D01*
X142800880Y-96831745D01*
X142812158Y-96805268D01*
X142814524Y-96802510D01*
X142827563Y-96777869D01*
X142832852Y-96745922D01*
X142834993Y-96722019D01*
X142841382Y-96721069D01*
X142843616Y-96724179D01*
X142851799Y-96727685D01*
X142859063Y-96709123D01*
X142862646Y-96690866D01*
X142870083Y-96661835D01*
X142878850Y-96647675D01*
X142882119Y-96647662D01*
X142889868Y-96642378D01*
X142893142Y-96620140D01*
X142893143Y-96619787D01*
X142899339Y-96585322D01*
X142910901Y-96561621D01*
X142925351Y-96532139D01*
X142929044Y-96512222D01*
X142936867Y-96488368D01*
X142947571Y-96479340D01*
X142961294Y-96461841D01*
X142965714Y-96429665D01*
X142968488Y-96401530D01*
X142975317Y-96387358D01*
X142976848Y-96386952D01*
X142986930Y-96376525D01*
X142995795Y-96351372D01*
X142995952Y-96350667D01*
X143004729Y-96325274D01*
X143014838Y-96314388D01*
X143015056Y-96314381D01*
X143022948Y-96303886D01*
X143026190Y-96278959D01*
X143032168Y-96246760D01*
X143044333Y-96225394D01*
X143059514Y-96198444D01*
X143062476Y-96181333D01*
X143070714Y-96151408D01*
X143080619Y-96137272D01*
X143095097Y-96111069D01*
X143098762Y-96089755D01*
X143103013Y-96067441D01*
X143110857Y-96060381D01*
X143119316Y-96049862D01*
X143122950Y-96024480D01*
X143122952Y-96023715D01*
X143128626Y-95994051D01*
X143141095Y-95980088D01*
X143154796Y-95962787D01*
X143159238Y-95932087D01*
X143163433Y-95901292D01*
X143176681Y-95891061D01*
X143177381Y-95891047D01*
X143191785Y-95880229D01*
X143195524Y-95854762D01*
X143198986Y-95829284D01*
X143207328Y-95818479D01*
X143207476Y-95818476D01*
X143216658Y-95807785D01*
X143225098Y-95781067D01*
X143227165Y-95770095D01*
X143234330Y-95739856D01*
X143242851Y-95722982D01*
X143245451Y-95721714D01*
X143254145Y-95711614D01*
X143256000Y-95698513D01*
X143259905Y-95667231D01*
X143269533Y-95646839D01*
X143281458Y-95643878D01*
X143288116Y-95637546D01*
X143291932Y-95613677D01*
X143292286Y-95601476D01*
X143295195Y-95567567D01*
X143304873Y-95553394D01*
X143310428Y-95552381D01*
X143325414Y-95542391D01*
X143328571Y-95529573D01*
X143334046Y-95502760D01*
X143346640Y-95472120D01*
X143359545Y-95441058D01*
X143364783Y-95416309D01*
X143370553Y-95398358D01*
X143376952Y-95395143D01*
X143385445Y-95384632D01*
X143389047Y-95359308D01*
X143389048Y-95358857D01*
X143392757Y-95333383D01*
X143401694Y-95322574D01*
X143401857Y-95322571D01*
X143409080Y-95315161D01*
X143407190Y-95310476D01*
X143408149Y-95299330D01*
X143412524Y-95298381D01*
X143421517Y-95287874D01*
X143425332Y-95262556D01*
X143425333Y-95262095D01*
X143428770Y-95236617D01*
X143437051Y-95225812D01*
X143437198Y-95225809D01*
X143448662Y-95215547D01*
X143456652Y-95195571D01*
X143465991Y-95172929D01*
X143475025Y-95165333D01*
X143484599Y-95155517D01*
X143485809Y-95147190D01*
X143494974Y-95131143D01*
X143502944Y-95129047D01*
X143521244Y-95121135D01*
X143524508Y-95115763D01*
X143538170Y-95106596D01*
X143567487Y-95098940D01*
X143582968Y-95096782D01*
X143620805Y-95095462D01*
X143646832Y-95103747D01*
X143668962Y-95121446D01*
X143691543Y-95139424D01*
X143706696Y-95145241D01*
X143708271Y-95144459D01*
X143715993Y-95146392D01*
X143717131Y-95151222D01*
X143719854Y-95175352D01*
X143720155Y-95177870D01*
X143730667Y-95195087D01*
X143736399Y-95199511D01*
X143747579Y-95217022D01*
X143754022Y-95246559D01*
X143754067Y-95247135D01*
X143760536Y-95275649D01*
X143772124Y-95291439D01*
X143772596Y-95291638D01*
X143783122Y-95306604D01*
X143788125Y-95335212D01*
X143788190Y-95339040D01*
X143793485Y-95372364D01*
X143806333Y-95387421D01*
X143819934Y-95404108D01*
X143824476Y-95431049D01*
X143827790Y-95456692D01*
X143835785Y-95467706D01*
X143836023Y-95467714D01*
X143845621Y-95478288D01*
X143854329Y-95504306D01*
X143855512Y-95510047D01*
X143863431Y-95537955D01*
X143872667Y-95551988D01*
X143874203Y-95552381D01*
X143881873Y-95562862D01*
X143884952Y-95587186D01*
X143890918Y-95617881D01*
X143903095Y-95637047D01*
X143916515Y-95659629D01*
X143921238Y-95686909D01*
X143924836Y-95711740D01*
X143933190Y-95721714D01*
X143942372Y-95732405D01*
X143950813Y-95759123D01*
X143952879Y-95770095D01*
X143959830Y-95800328D01*
X143967818Y-95817204D01*
X143970204Y-95818476D01*
X143979197Y-95828889D01*
X143987595Y-95854014D01*
X143987762Y-95854762D01*
X143996538Y-95880154D01*
X144006648Y-95891041D01*
X144006866Y-95891047D01*
X144014167Y-95901698D01*
X144017881Y-95927952D01*
X144018000Y-95934245D01*
X144022884Y-95968539D01*
X144034779Y-95994100D01*
X144036143Y-95995585D01*
X144049573Y-96020686D01*
X144054286Y-96049149D01*
X144057584Y-96074255D01*
X144065420Y-96084571D01*
X144075502Y-96094998D01*
X144084367Y-96120151D01*
X144084524Y-96120857D01*
X144093300Y-96146250D01*
X144103410Y-96157136D01*
X144103628Y-96157143D01*
X144110962Y-96167785D01*
X144114656Y-96193982D01*
X144114762Y-96199856D01*
X144119958Y-96234155D01*
X144132905Y-96249531D01*
X144146851Y-96265677D01*
X144151048Y-96286301D01*
X144158181Y-96317085D01*
X144169190Y-96334252D01*
X144182621Y-96359352D01*
X144187333Y-96387816D01*
X144190754Y-96412920D01*
X144198880Y-96423238D01*
X144208478Y-96433811D01*
X144217186Y-96459830D01*
X144218369Y-96465571D01*
X144226288Y-96493479D01*
X144235525Y-96507512D01*
X144237060Y-96507905D01*
X144244679Y-96518401D01*
X144247809Y-96543326D01*
X144253787Y-96575525D01*
X144265952Y-96596891D01*
X144280109Y-96622754D01*
X144284095Y-96646136D01*
X144288083Y-96669277D01*
X144296047Y-96677238D01*
X144305229Y-96687929D01*
X144313670Y-96714647D01*
X144315736Y-96725619D01*
X144322901Y-96755857D01*
X144331422Y-96772732D01*
X144334022Y-96774000D01*
X144341431Y-96784517D01*
X144344571Y-96809853D01*
X144344571Y-96810286D01*
X144349980Y-96839093D01*
X144362714Y-96846571D01*
X144377988Y-96851416D01*
X144379425Y-96855643D01*
X144377752Y-96892089D01*
X144383078Y-96923309D01*
X144393658Y-96941475D01*
X144399000Y-96943333D01*
X144411615Y-96951322D01*
X144416813Y-96977805D01*
X144417143Y-96991714D01*
X144419613Y-97022013D01*
X144425783Y-97038863D01*
X144428277Y-97040095D01*
X144438359Y-97050522D01*
X144447224Y-97075675D01*
X144447381Y-97076381D01*
X144456158Y-97101774D01*
X144466267Y-97112660D01*
X144466485Y-97112667D01*
X144474376Y-97123161D01*
X144477619Y-97148088D01*
X144483596Y-97180287D01*
X144495762Y-97201653D01*
X144509918Y-97227516D01*
X144513905Y-97250898D01*
X144518176Y-97274035D01*
X144526714Y-97282000D01*
X144533937Y-97289410D01*
X144532048Y-97294095D01*
X144533006Y-97305241D01*
X144537381Y-97306190D01*
X144548741Y-97315976D01*
X144550190Y-97324333D01*
X144553114Y-97330524D01*
X144563828Y-97335158D01*
X144585251Y-97338449D01*
X144620300Y-97340610D01*
X144671890Y-97341856D01*
X144742940Y-97342399D01*
X144798143Y-97342476D01*
X145046095Y-97342476D01*
X145046095Y-97311858D01*
X145039689Y-97286099D01*
X145027952Y-97274279D01*
X145014204Y-97256329D01*
X145009809Y-97220230D01*
X145006645Y-97187078D01*
X144996228Y-97173793D01*
X144991667Y-97173143D01*
X144978352Y-97164125D01*
X144973579Y-97135187D01*
X144973524Y-97130096D01*
X144970703Y-97102952D01*
X144963394Y-97093699D01*
X144961662Y-97094379D01*
X144952626Y-97088557D01*
X144944286Y-97064787D01*
X144942009Y-97052979D01*
X144934952Y-97024371D01*
X144926538Y-97010713D01*
X144923632Y-97010791D01*
X144916187Y-97005301D01*
X144913048Y-96982945D01*
X144913048Y-96982644D01*
X144906852Y-96948179D01*
X144895289Y-96924478D01*
X144880798Y-96894333D01*
X144877146Y-96873786D01*
X144872338Y-96852534D01*
X144864809Y-96846571D01*
X144855628Y-96835881D01*
X144847187Y-96809162D01*
X144845121Y-96798190D01*
X144838300Y-96767962D01*
X144830635Y-96751084D01*
X144828381Y-96749809D01*
X144821048Y-96739134D01*
X144813640Y-96712448D01*
X144811641Y-96701428D01*
X144804163Y-96671181D01*
X144794865Y-96654311D01*
X144791952Y-96653047D01*
X144783442Y-96642567D01*
X144780000Y-96618056D01*
X144774188Y-96589715D01*
X144761857Y-96576102D01*
X144748135Y-96558603D01*
X144743714Y-96526427D01*
X144740759Y-96498295D01*
X144733483Y-96484120D01*
X144731849Y-96483714D01*
X144720742Y-96473376D01*
X144711844Y-96450452D01*
X144702690Y-96423929D01*
X144693857Y-96410668D01*
X144686278Y-96395220D01*
X144681160Y-96366484D01*
X144680944Y-96363902D01*
X144674640Y-96334766D01*
X144663447Y-96318208D01*
X144662415Y-96317726D01*
X144652077Y-96302435D01*
X144647093Y-96271511D01*
X144646952Y-96264706D01*
X144643788Y-96231554D01*
X144633370Y-96218270D01*
X144628809Y-96217619D01*
X144614406Y-96206801D01*
X144610667Y-96181333D01*
X144607470Y-96155851D01*
X144599768Y-96145050D01*
X144599634Y-96145047D01*
X144590941Y-96134371D01*
X144582581Y-96107680D01*
X144580420Y-96096615D01*
X144573011Y-96068204D01*
X144564208Y-96054825D01*
X144561214Y-96054996D01*
X144553582Y-96049591D01*
X144550200Y-96027173D01*
X144550190Y-96025673D01*
X144544334Y-95993286D01*
X144532048Y-95971394D01*
X144517891Y-95945532D01*
X144513905Y-95922149D01*
X144509917Y-95899008D01*
X144501952Y-95891047D01*
X144492770Y-95880357D01*
X144484330Y-95853638D01*
X144482264Y-95842666D01*
X144475099Y-95812428D01*
X144466578Y-95795554D01*
X144463978Y-95794286D01*
X144456081Y-95783914D01*
X144453478Y-95764047D01*
X145215428Y-95764047D01*
X145221476Y-95770095D01*
X145227524Y-95764047D01*
X145221476Y-95758000D01*
X145215428Y-95764047D01*
X144453478Y-95764047D01*
X144453428Y-95763668D01*
X144447022Y-95737908D01*
X144435286Y-95726088D01*
X144421542Y-95708263D01*
X144417143Y-95673333D01*
X144412170Y-95636735D01*
X144399000Y-95620578D01*
X144385387Y-95603832D01*
X144380857Y-95576571D01*
X144375214Y-95546610D01*
X144362714Y-95532564D01*
X144349176Y-95516161D01*
X144344571Y-95490611D01*
X144341410Y-95465691D01*
X144334022Y-95455619D01*
X144325720Y-95444935D01*
X144317771Y-95418232D01*
X144315736Y-95407238D01*
X144308258Y-95376991D01*
X144298960Y-95360120D01*
X144296047Y-95358857D01*
X144287154Y-95348479D01*
X144284095Y-95327755D01*
X144277267Y-95296658D01*
X144265952Y-95278510D01*
X144252522Y-95253409D01*
X144247809Y-95224945D01*
X144244389Y-95199842D01*
X144236262Y-95189524D01*
X144226665Y-95178950D01*
X144217957Y-95152931D01*
X144216773Y-95147190D01*
X144208854Y-95119282D01*
X144199618Y-95105250D01*
X144198082Y-95104857D01*
X144190564Y-95094333D01*
X144187335Y-95068940D01*
X144187333Y-95068192D01*
X144181659Y-95038527D01*
X144169190Y-95024564D01*
X144155489Y-95007263D01*
X144151048Y-94976563D01*
X144146852Y-94945769D01*
X144133604Y-94935537D01*
X144132905Y-94935524D01*
X144118356Y-94924940D01*
X144114762Y-94903978D01*
X144105943Y-94875064D01*
X144078476Y-94837771D01*
X144054286Y-94812273D01*
X144024303Y-94780977D01*
X144002667Y-94755588D01*
X143993835Y-94741360D01*
X143993809Y-94741009D01*
X143983998Y-94731153D01*
X143975667Y-94729905D01*
X143959563Y-94723884D01*
X143957524Y-94718770D01*
X143947097Y-94708689D01*
X143921944Y-94699824D01*
X143921238Y-94699667D01*
X143895845Y-94690890D01*
X143884959Y-94680781D01*
X143884952Y-94680563D01*
X143874470Y-94672627D01*
X143850049Y-94669428D01*
X144018000Y-94669428D01*
X144018000Y-94698355D01*
X144026284Y-94723857D01*
X144047432Y-94734669D01*
X144073357Y-94750012D01*
X144085040Y-94767817D01*
X144093156Y-94784531D01*
X144102227Y-94779239D01*
X144103804Y-94776860D01*
X144111518Y-94771188D01*
X144114480Y-94787840D01*
X144114577Y-94793405D01*
X144120557Y-94819942D01*
X144132905Y-94826667D01*
X144147911Y-94836651D01*
X144151048Y-94849376D01*
X144159832Y-94876100D01*
X144169190Y-94887143D01*
X144183655Y-94910598D01*
X144187333Y-94930957D01*
X144191289Y-94952975D01*
X144198365Y-94959714D01*
X144207062Y-94970390D01*
X144215419Y-94997077D01*
X144217571Y-95008095D01*
X144225113Y-95038324D01*
X144234050Y-95055202D01*
X144236777Y-95056476D01*
X144244525Y-95066991D01*
X144247809Y-95092324D01*
X144247809Y-95129047D01*
X144810238Y-95129047D01*
X144942820Y-95128972D01*
X145053182Y-95128701D01*
X145143294Y-95128173D01*
X145215126Y-95127324D01*
X145270648Y-95126090D01*
X145311830Y-95124407D01*
X145340643Y-95122213D01*
X145359056Y-95119443D01*
X145369039Y-95116034D01*
X145372563Y-95111922D01*
X145372667Y-95110905D01*
X145382348Y-95094869D01*
X145390809Y-95092762D01*
X145406845Y-95083080D01*
X145408952Y-95074619D01*
X145415051Y-95058517D01*
X145420232Y-95056476D01*
X145432495Y-95046488D01*
X145439246Y-95032110D01*
X145448843Y-95014957D01*
X145455852Y-95013227D01*
X145466524Y-95007280D01*
X145482224Y-94985726D01*
X145487124Y-94977117D01*
X145505307Y-94950426D01*
X145522401Y-94936230D01*
X145525762Y-94935524D01*
X145540589Y-94927922D01*
X145542000Y-94922715D01*
X145549410Y-94915491D01*
X145554095Y-94917381D01*
X145565241Y-94916422D01*
X145566190Y-94912047D01*
X145575976Y-94900687D01*
X145584333Y-94899238D01*
X145600369Y-94889556D01*
X145602476Y-94881095D01*
X145612158Y-94865060D01*
X145620619Y-94862952D01*
X145636654Y-94853270D01*
X145638762Y-94844809D01*
X145648444Y-94828774D01*
X145656905Y-94826667D01*
X145673083Y-94818530D01*
X145675233Y-94811547D01*
X145679414Y-94805251D01*
X145687143Y-94814571D01*
X145696923Y-94824412D01*
X145699053Y-94817595D01*
X145708980Y-94804196D01*
X145717381Y-94802476D01*
X145733416Y-94792794D01*
X145735524Y-94784333D01*
X145746342Y-94769929D01*
X145771809Y-94766190D01*
X145800617Y-94760781D01*
X145808095Y-94748047D01*
X145816084Y-94735432D01*
X145842567Y-94730234D01*
X145856476Y-94729905D01*
X145890117Y-94726909D01*
X145903979Y-94716978D01*
X145904857Y-94711762D01*
X145914595Y-94695896D01*
X145923714Y-94693619D01*
X145936233Y-94687755D01*
X145935095Y-94681524D01*
X145921433Y-94679038D01*
X145883903Y-94676828D01*
X145822826Y-94674898D01*
X145738524Y-94673252D01*
X145631316Y-94671895D01*
X145501525Y-94670830D01*
X145349470Y-94670061D01*
X145175474Y-94669593D01*
X144979856Y-94669429D01*
X144972810Y-94669428D01*
X144018000Y-94669428D01*
X143850049Y-94669428D01*
X143813264Y-94663602D01*
X143780501Y-94651360D01*
X143755891Y-94644347D01*
X143715282Y-94638858D01*
X143663919Y-94634967D01*
X143607047Y-94632745D01*
X143549909Y-94632266D01*
X143497749Y-94633600D01*
X143455811Y-94636822D01*
X143429340Y-94642002D01*
X143422921Y-94646428D01*
X143409298Y-94655505D01*
X143379776Y-94663424D01*
X143361678Y-94666116D01*
X143329796Y-94671550D01*
X143312001Y-94678244D01*
X143310564Y-94681743D01*
X143304006Y-94689684D01*
X143280551Y-94697541D01*
X143274037Y-94698888D01*
X143246165Y-94707008D01*
X143232188Y-94716742D01*
X143231809Y-94718357D01*
X143222004Y-94728605D01*
X143213667Y-94729905D01*
X143197631Y-94739586D01*
X143195524Y-94748047D01*
X143185842Y-94764083D01*
X143177381Y-94766190D01*
X143161345Y-94775872D01*
X143159238Y-94784333D01*
X143149556Y-94800369D01*
X143141095Y-94802476D01*
X143125060Y-94812158D01*
X143122952Y-94820619D01*
X143116421Y-94836715D01*
X143110857Y-94838762D01*
X143101765Y-94849113D01*
X143098762Y-94869000D01*
X143092453Y-94893320D01*
X143080619Y-94899238D01*
X143065984Y-94909680D01*
X143062476Y-94928182D01*
X143055720Y-94953266D01*
X143044333Y-94964088D01*
X143030611Y-94981587D01*
X143026190Y-95013763D01*
X143023416Y-95041898D01*
X143016587Y-95056071D01*
X143015056Y-95056476D01*
X143004974Y-95066903D01*
X142996109Y-95092056D01*
X142995952Y-95092762D01*
X142987176Y-95118154D01*
X142977066Y-95129041D01*
X142976848Y-95129047D01*
X142968957Y-95139542D01*
X142965714Y-95164469D01*
X142959737Y-95196668D01*
X142947571Y-95218034D01*
X142932340Y-95244922D01*
X142929428Y-95261611D01*
X142921798Y-95285236D01*
X142911286Y-95294007D01*
X142897537Y-95312022D01*
X142893143Y-95348770D01*
X142890794Y-95377030D01*
X142884916Y-95390132D01*
X142882374Y-95389915D01*
X142873443Y-95395820D01*
X142865075Y-95418874D01*
X142863683Y-95425487D01*
X142855563Y-95453359D01*
X142845830Y-95467335D01*
X142844214Y-95467714D01*
X142835441Y-95478041D01*
X142832667Y-95497088D01*
X142825425Y-95527771D01*
X142814524Y-95544605D01*
X142800367Y-95570468D01*
X142796381Y-95593850D01*
X142792393Y-95616992D01*
X142784429Y-95624952D01*
X142775247Y-95635643D01*
X142766806Y-95662362D01*
X142764740Y-95673333D01*
X142757575Y-95703572D01*
X142749054Y-95720446D01*
X142746454Y-95721714D01*
X142738557Y-95732085D01*
X142735905Y-95752332D01*
X142730423Y-95777695D01*
X142720310Y-95788934D01*
X142708721Y-95804016D01*
X142702038Y-95832330D01*
X142701912Y-95833911D01*
X142694707Y-95865319D01*
X142681299Y-95886274D01*
X142681221Y-95886333D01*
X142666637Y-95908586D01*
X142663333Y-95926507D01*
X142655357Y-95956602D01*
X142645190Y-95971394D01*
X142630712Y-95997597D01*
X142627048Y-96018911D01*
X142622796Y-96041225D01*
X142614952Y-96048286D01*
X142605901Y-96058648D01*
X142602857Y-96078903D01*
X142596451Y-96104663D01*
X142584714Y-96116483D01*
X142570966Y-96134432D01*
X142566571Y-96170532D01*
X142563407Y-96203683D01*
X142552989Y-96216968D01*
X142548428Y-96217619D01*
X142534025Y-96228437D01*
X142530286Y-96253905D01*
X142526823Y-96279383D01*
X142518481Y-96290188D01*
X142518333Y-96290190D01*
X142509151Y-96300881D01*
X142500711Y-96327600D01*
X142498645Y-96338571D01*
X142491480Y-96368810D01*
X142482959Y-96385684D01*
X142480359Y-96386952D01*
X142472462Y-96397323D01*
X142469809Y-96417570D01*
X142463403Y-96443329D01*
X142451667Y-96455150D01*
X142437965Y-96472451D01*
X142433524Y-96503151D01*
X142430645Y-96530617D01*
X142423593Y-96543950D01*
X142422389Y-96544190D01*
X142412308Y-96554617D01*
X142403443Y-96579770D01*
X142403286Y-96580476D01*
X142394960Y-96605855D01*
X142385927Y-96616754D01*
X142385728Y-96616762D01*
X142378028Y-96627441D01*
X142370415Y-96654133D01*
X142368403Y-96665143D01*
X142360925Y-96695390D01*
X142351627Y-96712260D01*
X142348714Y-96713524D01*
X142339821Y-96723901D01*
X142336762Y-96744626D01*
X142329933Y-96775723D01*
X142318619Y-96793871D01*
X142303850Y-96820382D01*
X142300476Y-96839907D01*
X142293027Y-96868585D01*
X142282333Y-96882857D01*
X142270095Y-96904424D01*
X142264116Y-96937296D01*
X142264005Y-96941790D01*
X142262357Y-96968546D01*
X142257051Y-96973476D01*
X142252095Y-96967524D01*
X142243656Y-96959168D01*
X142240433Y-96971771D01*
X142240185Y-96981779D01*
X142233489Y-97013212D01*
X142221857Y-97032320D01*
X142207266Y-97058642D01*
X142203714Y-97079253D01*
X142196360Y-97112272D01*
X142185956Y-97131521D01*
X142171465Y-97161666D01*
X142167813Y-97182214D01*
X142162952Y-97203465D01*
X142155333Y-97209428D01*
X142146282Y-97219791D01*
X142143238Y-97240046D01*
X142136832Y-97265805D01*
X142125095Y-97277626D01*
X142110997Y-97293814D01*
X142106952Y-97313532D01*
X141381238Y-97313532D01*
X141381238Y-96235762D01*
X141381335Y-96074468D01*
X141381616Y-95920270D01*
X141382068Y-95774857D01*
X141382676Y-95639919D01*
X141383427Y-95517147D01*
X141384307Y-95408229D01*
X141385302Y-95314857D01*
X141386398Y-95238720D01*
X141387581Y-95181507D01*
X141388838Y-95144910D01*
X141390154Y-95130617D01*
X141390309Y-95130480D01*
X141404203Y-95130786D01*
X141439321Y-95130982D01*
X141492700Y-95131067D01*
X141561374Y-95131041D01*
X141642378Y-95130904D01*
X141732747Y-95130656D01*
X141783405Y-95130480D01*
X142167428Y-95129047D01*
X142167428Y-94911333D01*
X142203714Y-94911333D01*
X142203714Y-95129047D01*
X142566571Y-95129047D01*
X142671008Y-95128917D01*
X142753692Y-95128445D01*
X142817058Y-95127510D01*
X142863543Y-95125989D01*
X142895583Y-95123761D01*
X142915614Y-95120704D01*
X142926072Y-95116697D01*
X142929394Y-95111616D01*
X142929428Y-95110905D01*
X142936337Y-95094815D01*
X142942238Y-95092762D01*
X142949461Y-95085352D01*
X142947571Y-95080667D01*
X142948530Y-95069521D01*
X142952905Y-95068571D01*
X142961898Y-95058064D01*
X142965713Y-95032747D01*
X142965714Y-95032286D01*
X142969218Y-95006808D01*
X142977659Y-94996003D01*
X142977809Y-94996000D01*
X142986860Y-94985637D01*
X142989905Y-94965382D01*
X142996680Y-94939466D01*
X143009062Y-94927413D01*
X143021263Y-94919212D01*
X143012085Y-94909835D01*
X143002873Y-94901263D01*
X143011071Y-94899423D01*
X143024470Y-94889496D01*
X143026190Y-94881095D01*
X143032289Y-94864993D01*
X143037471Y-94862952D01*
X143049533Y-94852916D01*
X143057028Y-94836873D01*
X143071838Y-94809904D01*
X143094129Y-94784082D01*
X143114174Y-94761616D01*
X143122937Y-94744095D01*
X143122952Y-94743637D01*
X143132722Y-94731465D01*
X143141095Y-94729905D01*
X143157131Y-94720223D01*
X143159238Y-94711762D01*
X143166146Y-94695672D01*
X143172047Y-94693619D01*
X143179271Y-94686209D01*
X143177381Y-94681524D01*
X143163207Y-94678160D01*
X143125750Y-94675309D01*
X143065915Y-94672992D01*
X142984604Y-94671234D01*
X142882720Y-94670057D01*
X142761167Y-94669483D01*
X142704953Y-94669428D01*
X142572939Y-94669741D01*
X142462086Y-94670667D01*
X142372958Y-94672193D01*
X142306119Y-94674305D01*
X142262133Y-94676987D01*
X142241564Y-94680224D01*
X142240000Y-94681524D01*
X142230203Y-94692254D01*
X142221857Y-94693619D01*
X142215301Y-94696681D01*
X142210502Y-94707933D01*
X142207203Y-94730471D01*
X142205145Y-94767393D01*
X142204070Y-94821796D01*
X142203720Y-94896778D01*
X142203714Y-94911333D01*
X142167428Y-94911333D01*
X142167428Y-94669428D01*
X141169571Y-94669428D01*
X140991056Y-94669440D01*
X140835156Y-94669498D01*
X140700296Y-94669640D01*
X140584900Y-94669904D01*
X140487394Y-94670328D01*
X140406203Y-94670947D01*
X140339751Y-94671800D01*
X140286462Y-94672923D01*
X140244762Y-94674355D01*
X140213076Y-94676132D01*
X140189828Y-94678292D01*
X140173442Y-94680872D01*
X140162345Y-94683908D01*
X140154960Y-94687440D01*
X140149712Y-94691503D01*
X140147524Y-94693619D01*
X140134022Y-94710644D01*
X140087048Y-94710644D01*
X140087048Y-94669428D01*
X139990286Y-94669428D01*
X139942367Y-94670843D01*
X139908693Y-94674705D01*
X139893846Y-94680442D01*
X139893524Y-94681524D01*
X139883727Y-94692254D01*
X139875381Y-94693619D01*
X139860977Y-94704437D01*
X139857238Y-94729905D01*
X139851829Y-94758712D01*
X139839095Y-94766190D01*
X139824691Y-94777009D01*
X139820952Y-94802476D01*
X139817449Y-94827953D01*
X139809008Y-94838759D01*
X139808857Y-94838762D01*
X139799599Y-94849066D01*
X139796762Y-94867519D01*
X139789538Y-94896442D01*
X139778619Y-94911333D01*
X139765199Y-94933915D01*
X139760476Y-94961195D01*
X139754875Y-94988910D01*
X139742333Y-94996000D01*
X139727900Y-95006769D01*
X139724190Y-95031278D01*
X139720993Y-95057797D01*
X139713694Y-95070587D01*
X139702245Y-95084110D01*
X139694736Y-95101833D01*
X139686275Y-95129047D01*
X139542762Y-95129047D01*
X139576403Y-95126052D01*
X139590265Y-95116121D01*
X139591143Y-95110905D01*
X139601052Y-95095473D01*
X139612309Y-95092577D01*
X139626316Y-95090579D01*
X139617650Y-95082182D01*
X139615333Y-95080667D01*
X139605492Y-95070886D01*
X139612309Y-95068756D01*
X139623275Y-95057950D01*
X139627428Y-95032286D01*
X139632838Y-95003478D01*
X139645571Y-94996000D01*
X139660163Y-94985485D01*
X139663714Y-94965762D01*
X139667528Y-94943026D01*
X139674848Y-94935524D01*
X139684930Y-94925097D01*
X139693795Y-94899943D01*
X139693952Y-94899238D01*
X139702278Y-94873859D01*
X139711311Y-94862960D01*
X139711510Y-94862952D01*
X139719209Y-94852273D01*
X139726822Y-94825581D01*
X139728835Y-94814571D01*
X139736313Y-94784324D01*
X139745611Y-94767453D01*
X139748524Y-94766190D01*
X139756008Y-94755460D01*
X139760171Y-94728653D01*
X139760476Y-94717809D01*
X139758447Y-94686157D01*
X139750248Y-94672168D01*
X139736286Y-94669428D01*
X139709033Y-94678388D01*
X139682406Y-94699720D01*
X139665616Y-94725106D01*
X139663714Y-94734963D01*
X139659484Y-94761267D01*
X139655983Y-94772263D01*
X139647580Y-94785155D01*
X139638026Y-94776276D01*
X139631379Y-94775227D01*
X139627976Y-94796823D01*
X139627614Y-94811547D01*
X139624805Y-94846367D01*
X139615754Y-94861497D01*
X139609286Y-94862952D01*
X139594882Y-94873771D01*
X139591143Y-94899238D01*
X139587706Y-94924716D01*
X139579425Y-94935521D01*
X139579278Y-94935524D01*
X139568171Y-94945862D01*
X139559273Y-94968786D01*
X139550119Y-94995309D01*
X139541286Y-95008570D01*
X139533609Y-95024069D01*
X139528588Y-95052582D01*
X139528480Y-95053927D01*
X139522099Y-95081206D01*
X139510475Y-95092742D01*
X139509951Y-95092762D01*
X139496165Y-95102497D01*
X139494381Y-95110905D01*
X139397619Y-95110905D01*
X139407301Y-95094869D01*
X139415762Y-95092762D01*
X139430040Y-95082161D01*
X139433905Y-95055762D01*
X139437180Y-95031583D01*
X139445585Y-95025999D01*
X139446000Y-95026238D01*
X139454619Y-95021571D01*
X139458094Y-94998217D01*
X139458095Y-94997578D01*
X139463235Y-94966028D01*
X139474198Y-94945339D01*
X139489248Y-94921684D01*
X139498619Y-94896094D01*
X139508335Y-94872112D01*
X139518802Y-94862952D01*
X139527133Y-94852441D01*
X139530666Y-94827115D01*
X139530667Y-94826667D01*
X139534170Y-94801189D01*
X139542611Y-94790384D01*
X139542762Y-94790381D01*
X139552538Y-94780234D01*
X139554857Y-94765811D01*
X139562633Y-94742596D01*
X139572765Y-94734369D01*
X139585891Y-94718222D01*
X139588270Y-94698463D01*
X139582038Y-94677625D01*
X139563148Y-94670309D01*
X139549195Y-94669940D01*
X139520125Y-94675950D01*
X139496645Y-94696818D01*
X139485309Y-94713112D01*
X139467949Y-94745730D01*
X139458610Y-94773797D01*
X139458095Y-94779124D01*
X139452868Y-94798319D01*
X139446000Y-94802476D01*
X139436763Y-94812786D01*
X139433905Y-94831420D01*
X139427149Y-94856504D01*
X139415762Y-94867326D01*
X139401806Y-94883475D01*
X139397619Y-94904042D01*
X139390472Y-94934814D01*
X139379476Y-94951939D01*
X139365319Y-94977801D01*
X139361333Y-95001184D01*
X139357374Y-95024325D01*
X139349468Y-95032286D01*
X139338004Y-95042548D01*
X139330014Y-95062524D01*
X139320676Y-95085166D01*
X139311641Y-95092762D01*
X139302068Y-95102578D01*
X139300857Y-95110905D01*
X139228286Y-95110905D01*
X139228286Y-95080133D01*
X139231349Y-95046693D01*
X139241476Y-95033067D01*
X139246428Y-95032286D01*
X139260832Y-95021467D01*
X139264571Y-94996000D01*
X139269980Y-94967192D01*
X139282714Y-94959714D01*
X139297118Y-94948896D01*
X139300857Y-94923428D01*
X139303972Y-94897945D01*
X139311477Y-94887145D01*
X139311606Y-94887143D01*
X139320675Y-94876574D01*
X139329117Y-94850567D01*
X139330297Y-94844809D01*
X139338418Y-94816895D01*
X139348147Y-94802867D01*
X139349786Y-94802476D01*
X139358428Y-94792110D01*
X139361333Y-94771858D01*
X139367654Y-94746135D01*
X139379241Y-94734369D01*
X139392367Y-94718222D01*
X139394746Y-94698463D01*
X139392343Y-94669428D01*
X138837886Y-94669428D01*
X138723531Y-94669648D01*
X138617717Y-94670278D01*
X138522735Y-94671275D01*
X138440874Y-94672595D01*
X138374424Y-94674195D01*
X138325676Y-94676030D01*
X138296919Y-94678058D01*
X138289879Y-94679864D01*
X138281615Y-94685020D01*
X138254108Y-94690249D01*
X138212290Y-94694759D01*
X138185217Y-94696634D01*
X138131861Y-94701058D01*
X138092588Y-94707112D01*
X138071729Y-94714053D01*
X138069616Y-94716437D01*
X138055746Y-94725476D01*
X138027726Y-94729834D01*
X138023422Y-94729905D01*
X137989882Y-94735177D01*
X137974755Y-94748047D01*
X137957367Y-94761759D01*
X137926040Y-94766190D01*
X137900393Y-94768952D01*
X137890657Y-94775761D01*
X137891224Y-94777415D01*
X137887236Y-94789285D01*
X137873795Y-94796373D01*
X137854167Y-94806825D01*
X137849428Y-94814425D01*
X137839007Y-94823925D01*
X137813853Y-94832555D01*
X137813037Y-94832737D01*
X137789891Y-94841305D01*
X137783195Y-94851230D01*
X137783513Y-94851841D01*
X137781576Y-94862263D01*
X137777571Y-94862952D01*
X137759160Y-94871540D01*
X137736915Y-94891221D01*
X137720068Y-94912870D01*
X137716381Y-94923428D01*
X137706584Y-94934159D01*
X137698238Y-94935524D01*
X137682964Y-94940368D01*
X137681527Y-94944595D01*
X137680940Y-94976360D01*
X137669255Y-94994202D01*
X137661952Y-94996000D01*
X137647360Y-95006514D01*
X137643809Y-95026238D01*
X137639996Y-95048974D01*
X137632675Y-95056476D01*
X137622593Y-95066903D01*
X137613728Y-95092056D01*
X137613571Y-95092762D01*
X137604998Y-95118148D01*
X137595373Y-95129040D01*
X137595163Y-95129047D01*
X137587942Y-95139818D01*
X137582273Y-95166846D01*
X137581005Y-95179512D01*
X137575398Y-95211957D01*
X137565846Y-95232340D01*
X137562167Y-95234949D01*
X137557523Y-95231534D01*
X137553871Y-95216464D01*
X137551112Y-95187605D01*
X137549149Y-95142825D01*
X137547883Y-95079988D01*
X137547549Y-95038333D01*
X137619619Y-95038333D01*
X137625667Y-95044381D01*
X137631714Y-95038333D01*
X137625667Y-95032286D01*
X137619619Y-95038333D01*
X137547549Y-95038333D01*
X137547217Y-94996960D01*
X137547048Y-94906293D01*
X137547048Y-94572667D01*
X147453048Y-94572667D01*
X147453048Y-94669428D01*
G04 #@! TO.C,U6*
D19*
X148535348Y-99197731D02*
X149558942Y-99197731D01*
X149679365Y-99137520D01*
X149739577Y-99077308D01*
X149799788Y-98956885D01*
X149799788Y-98716040D01*
X149739577Y-98595617D01*
X149679365Y-98535405D01*
X149558942Y-98475194D01*
X148535348Y-98475194D01*
X148535348Y-97331177D02*
X148535348Y-97572022D01*
X148595560Y-97692445D01*
X148655771Y-97752657D01*
X148836405Y-97873080D01*
X149077251Y-97933291D01*
X149558942Y-97933291D01*
X149679365Y-97873080D01*
X149739577Y-97812868D01*
X149799788Y-97692445D01*
X149799788Y-97451600D01*
X149739577Y-97331177D01*
X149679365Y-97270965D01*
X149558942Y-97210754D01*
X149257885Y-97210754D01*
X149137462Y-97270965D01*
X149077251Y-97331177D01*
X149017040Y-97451600D01*
X149017040Y-97692445D01*
X149077251Y-97812868D01*
X149137462Y-97873080D01*
X149257885Y-97933291D01*
G04 #@! TO.C,R10*
D16*
X135154730Y-94430547D02*
X134752563Y-93856023D01*
X134465301Y-94430547D02*
X134465301Y-93224047D01*
X134924920Y-93224047D01*
X135039825Y-93281500D01*
X135097278Y-93338952D01*
X135154730Y-93453857D01*
X135154730Y-93626214D01*
X135097278Y-93741119D01*
X135039825Y-93798571D01*
X134924920Y-93856023D01*
X134465301Y-93856023D01*
X136303778Y-94430547D02*
X135614349Y-94430547D01*
X135959063Y-94430547D02*
X135959063Y-93224047D01*
X135844159Y-93396404D01*
X135729254Y-93511309D01*
X135614349Y-93568761D01*
X137050659Y-93224047D02*
X137165563Y-93224047D01*
X137280468Y-93281500D01*
X137337920Y-93338952D01*
X137395373Y-93453857D01*
X137452825Y-93683666D01*
X137452825Y-93970928D01*
X137395373Y-94200738D01*
X137337920Y-94315642D01*
X137280468Y-94373095D01*
X137165563Y-94430547D01*
X137050659Y-94430547D01*
X136935754Y-94373095D01*
X136878301Y-94315642D01*
X136820849Y-94200738D01*
X136763397Y-93970928D01*
X136763397Y-93683666D01*
X136820849Y-93453857D01*
X136878301Y-93338952D01*
X136935754Y-93281500D01*
X137050659Y-93224047D01*
G04 #@! TO.C,R4*
X122454730Y-94430547D02*
X122052563Y-93856023D01*
X121765301Y-94430547D02*
X121765301Y-93224047D01*
X122224920Y-93224047D01*
X122339825Y-93281500D01*
X122397278Y-93338952D01*
X122454730Y-93453857D01*
X122454730Y-93626214D01*
X122397278Y-93741119D01*
X122339825Y-93798571D01*
X122224920Y-93856023D01*
X121765301Y-93856023D01*
X123488873Y-93626214D02*
X123488873Y-94430547D01*
X123201611Y-93166595D02*
X122914349Y-94028380D01*
X123661230Y-94028380D01*
G04 #@! TO.C,L2*
D20*
X132789857Y-88010857D02*
X132218428Y-88010857D01*
X132218428Y-86810857D01*
X133132714Y-86925142D02*
X133189857Y-86868000D01*
X133304142Y-86810857D01*
X133589857Y-86810857D01*
X133704142Y-86868000D01*
X133761285Y-86925142D01*
X133818428Y-87039428D01*
X133818428Y-87153714D01*
X133761285Y-87325142D01*
X133075571Y-88010857D01*
X133818428Y-88010857D01*
G04 #@! TO.C,C12*
D16*
X151592642Y-99033269D02*
X151650095Y-99090721D01*
X151707547Y-99263079D01*
X151707547Y-99377983D01*
X151650095Y-99550340D01*
X151535190Y-99665245D01*
X151420285Y-99722698D01*
X151190476Y-99780150D01*
X151018119Y-99780150D01*
X150788309Y-99722698D01*
X150673404Y-99665245D01*
X150558500Y-99550340D01*
X150501047Y-99377983D01*
X150501047Y-99263079D01*
X150558500Y-99090721D01*
X150615952Y-99033269D01*
X151707547Y-97884221D02*
X151707547Y-98573650D01*
X151707547Y-98228936D02*
X150501047Y-98228936D01*
X150673404Y-98343840D01*
X150788309Y-98458745D01*
X150845761Y-98573650D01*
X150615952Y-97424602D02*
X150558500Y-97367150D01*
X150501047Y-97252245D01*
X150501047Y-96964983D01*
X150558500Y-96850079D01*
X150615952Y-96792626D01*
X150730857Y-96735174D01*
X150845761Y-96735174D01*
X151018119Y-96792626D01*
X151707547Y-97482055D01*
X151707547Y-96735174D01*
G04 #@! TO.C,R2*
X141250730Y-91128547D02*
X140848563Y-90554023D01*
X140561301Y-91128547D02*
X140561301Y-89922047D01*
X141020920Y-89922047D01*
X141135825Y-89979500D01*
X141193278Y-90036952D01*
X141250730Y-90151857D01*
X141250730Y-90324214D01*
X141193278Y-90439119D01*
X141135825Y-90496571D01*
X141020920Y-90554023D01*
X140561301Y-90554023D01*
X141710349Y-90036952D02*
X141767801Y-89979500D01*
X141882706Y-89922047D01*
X142169968Y-89922047D01*
X142284873Y-89979500D01*
X142342325Y-90036952D01*
X142399778Y-90151857D01*
X142399778Y-90266761D01*
X142342325Y-90439119D01*
X141652897Y-91128547D01*
X142399778Y-91128547D01*
G04 #@! TO.C,R13*
X124486730Y-105098547D02*
X124084563Y-104524023D01*
X123797301Y-105098547D02*
X123797301Y-103892047D01*
X124256920Y-103892047D01*
X124371825Y-103949500D01*
X124429278Y-104006952D01*
X124486730Y-104121857D01*
X124486730Y-104294214D01*
X124429278Y-104409119D01*
X124371825Y-104466571D01*
X124256920Y-104524023D01*
X123797301Y-104524023D01*
X125635778Y-105098547D02*
X124946349Y-105098547D01*
X125291063Y-105098547D02*
X125291063Y-103892047D01*
X125176159Y-104064404D01*
X125061254Y-104179309D01*
X124946349Y-104236761D01*
X126037944Y-103892047D02*
X126784825Y-103892047D01*
X126382659Y-104351666D01*
X126555016Y-104351666D01*
X126669920Y-104409119D01*
X126727373Y-104466571D01*
X126784825Y-104581476D01*
X126784825Y-104868738D01*
X126727373Y-104983642D01*
X126669920Y-105041095D01*
X126555016Y-105098547D01*
X126210301Y-105098547D01*
X126095397Y-105041095D01*
X126037944Y-104983642D01*
G04 #@! TO.C,R7*
X125418547Y-97509269D02*
X124844023Y-97911436D01*
X125418547Y-98198698D02*
X124212047Y-98198698D01*
X124212047Y-97739079D01*
X124269500Y-97624174D01*
X124326952Y-97566721D01*
X124441857Y-97509269D01*
X124614214Y-97509269D01*
X124729119Y-97566721D01*
X124786571Y-97624174D01*
X124844023Y-97739079D01*
X124844023Y-98198698D01*
X124212047Y-97107102D02*
X124212047Y-96302769D01*
X125418547Y-96819840D01*
G04 #@! TO.C,R1*
X122454730Y-99002547D02*
X122052563Y-98428023D01*
X121765301Y-99002547D02*
X121765301Y-97796047D01*
X122224920Y-97796047D01*
X122339825Y-97853500D01*
X122397278Y-97910952D01*
X122454730Y-98025857D01*
X122454730Y-98198214D01*
X122397278Y-98313119D01*
X122339825Y-98370571D01*
X122224920Y-98428023D01*
X121765301Y-98428023D01*
X123603778Y-99002547D02*
X122914349Y-99002547D01*
X123259063Y-99002547D02*
X123259063Y-97796047D01*
X123144159Y-97968404D01*
X123029254Y-98083309D01*
X122914349Y-98140761D01*
G04 #@! TO.C,R3*
D20*
X147002380Y-88583857D02*
X146526190Y-88917190D01*
X147002380Y-89155285D02*
X146002380Y-89155285D01*
X146002380Y-88774333D01*
X146050000Y-88679095D01*
X146097619Y-88631476D01*
X146192857Y-88583857D01*
X146335714Y-88583857D01*
X146430952Y-88631476D01*
X146478571Y-88679095D01*
X146526190Y-88774333D01*
X146526190Y-89155285D01*
X146002380Y-88250523D02*
X146002380Y-87631476D01*
X146383333Y-87964809D01*
X146383333Y-87821952D01*
X146430952Y-87726714D01*
X146478571Y-87679095D01*
X146573809Y-87631476D01*
X146811904Y-87631476D01*
X146907142Y-87679095D01*
X146954761Y-87726714D01*
X147002380Y-87821952D01*
X147002380Y-88107666D01*
X146954761Y-88202904D01*
X146907142Y-88250523D01*
G04 #@! TO.C,R5*
X145224380Y-88583857D02*
X144748190Y-88917190D01*
X145224380Y-89155285D02*
X144224380Y-89155285D01*
X144224380Y-88774333D01*
X144272000Y-88679095D01*
X144319619Y-88631476D01*
X144414857Y-88583857D01*
X144557714Y-88583857D01*
X144652952Y-88631476D01*
X144700571Y-88679095D01*
X144748190Y-88774333D01*
X144748190Y-89155285D01*
X144224380Y-87679095D02*
X144224380Y-88155285D01*
X144700571Y-88202904D01*
X144652952Y-88155285D01*
X144605333Y-88060047D01*
X144605333Y-87821952D01*
X144652952Y-87726714D01*
X144700571Y-87679095D01*
X144795809Y-87631476D01*
X145033904Y-87631476D01*
X145129142Y-87679095D01*
X145176761Y-87726714D01*
X145224380Y-87821952D01*
X145224380Y-88060047D01*
X145176761Y-88155285D01*
X145129142Y-88202904D01*
G04 #@! TO.C,R6*
X143446380Y-88583857D02*
X142970190Y-88917190D01*
X143446380Y-89155285D02*
X142446380Y-89155285D01*
X142446380Y-88774333D01*
X142494000Y-88679095D01*
X142541619Y-88631476D01*
X142636857Y-88583857D01*
X142779714Y-88583857D01*
X142874952Y-88631476D01*
X142922571Y-88679095D01*
X142970190Y-88774333D01*
X142970190Y-89155285D01*
X142446380Y-87726714D02*
X142446380Y-87917190D01*
X142494000Y-88012428D01*
X142541619Y-88060047D01*
X142684476Y-88155285D01*
X142874952Y-88202904D01*
X143255904Y-88202904D01*
X143351142Y-88155285D01*
X143398761Y-88107666D01*
X143446380Y-88012428D01*
X143446380Y-87821952D01*
X143398761Y-87726714D01*
X143351142Y-87679095D01*
X143255904Y-87631476D01*
X143017809Y-87631476D01*
X142922571Y-87679095D01*
X142874952Y-87726714D01*
X142827333Y-87821952D01*
X142827333Y-88012428D01*
X142874952Y-88107666D01*
X142922571Y-88155285D01*
X143017809Y-88202904D01*
G04 #@! TO.C,R8*
D16*
X128974547Y-99541269D02*
X128400023Y-99943436D01*
X128974547Y-100230698D02*
X127768047Y-100230698D01*
X127768047Y-99771079D01*
X127825500Y-99656174D01*
X127882952Y-99598721D01*
X127997857Y-99541269D01*
X128170214Y-99541269D01*
X128285119Y-99598721D01*
X128342571Y-99656174D01*
X128400023Y-99771079D01*
X128400023Y-100230698D01*
X128285119Y-98851840D02*
X128227666Y-98966745D01*
X128170214Y-99024198D01*
X128055309Y-99081650D01*
X127997857Y-99081650D01*
X127882952Y-99024198D01*
X127825500Y-98966745D01*
X127768047Y-98851840D01*
X127768047Y-98622031D01*
X127825500Y-98507126D01*
X127882952Y-98449674D01*
X127997857Y-98392221D01*
X128055309Y-98392221D01*
X128170214Y-98449674D01*
X128227666Y-98507126D01*
X128285119Y-98622031D01*
X128285119Y-98851840D01*
X128342571Y-98966745D01*
X128400023Y-99024198D01*
X128514928Y-99081650D01*
X128744738Y-99081650D01*
X128859642Y-99024198D01*
X128917095Y-98966745D01*
X128974547Y-98851840D01*
X128974547Y-98622031D01*
X128917095Y-98507126D01*
X128859642Y-98449674D01*
X128744738Y-98392221D01*
X128514928Y-98392221D01*
X128400023Y-98449674D01*
X128342571Y-98507126D01*
X128285119Y-98622031D01*
G04 #@! TO.C,R9*
X140234730Y-92906547D02*
X139832563Y-92332023D01*
X139545301Y-92906547D02*
X139545301Y-91700047D01*
X140004920Y-91700047D01*
X140119825Y-91757500D01*
X140177278Y-91814952D01*
X140234730Y-91929857D01*
X140234730Y-92102214D01*
X140177278Y-92217119D01*
X140119825Y-92274571D01*
X140004920Y-92332023D01*
X139545301Y-92332023D01*
X140809254Y-92906547D02*
X141039063Y-92906547D01*
X141153968Y-92849095D01*
X141211420Y-92791642D01*
X141326325Y-92619285D01*
X141383778Y-92389476D01*
X141383778Y-91929857D01*
X141326325Y-91814952D01*
X141268873Y-91757500D01*
X141153968Y-91700047D01*
X140924159Y-91700047D01*
X140809254Y-91757500D01*
X140751801Y-91814952D01*
X140694349Y-91929857D01*
X140694349Y-92217119D01*
X140751801Y-92332023D01*
X140809254Y-92389476D01*
X140924159Y-92446928D01*
X141153968Y-92446928D01*
X141268873Y-92389476D01*
X141326325Y-92332023D01*
X141383778Y-92217119D01*
G04 #@! TO.C,R14*
X124486730Y-103574547D02*
X124084563Y-103000023D01*
X123797301Y-103574547D02*
X123797301Y-102368047D01*
X124256920Y-102368047D01*
X124371825Y-102425500D01*
X124429278Y-102482952D01*
X124486730Y-102597857D01*
X124486730Y-102770214D01*
X124429278Y-102885119D01*
X124371825Y-102942571D01*
X124256920Y-103000023D01*
X123797301Y-103000023D01*
X125635778Y-103574547D02*
X124946349Y-103574547D01*
X125291063Y-103574547D02*
X125291063Y-102368047D01*
X125176159Y-102540404D01*
X125061254Y-102655309D01*
X124946349Y-102712761D01*
X126669920Y-102770214D02*
X126669920Y-103574547D01*
X126382659Y-102310595D02*
X126095397Y-103172380D01*
X126842278Y-103172380D01*
G04 #@! TO.C,C4*
D20*
X147940523Y-92313142D02*
X147892904Y-92360761D01*
X147750047Y-92408380D01*
X147654809Y-92408380D01*
X147511952Y-92360761D01*
X147416714Y-92265523D01*
X147369095Y-92170285D01*
X147321476Y-91979809D01*
X147321476Y-91836952D01*
X147369095Y-91646476D01*
X147416714Y-91551238D01*
X147511952Y-91456000D01*
X147654809Y-91408380D01*
X147750047Y-91408380D01*
X147892904Y-91456000D01*
X147940523Y-91503619D01*
X148797666Y-91741714D02*
X148797666Y-92408380D01*
X148559571Y-91360761D02*
X148321476Y-92075047D01*
X148940523Y-92075047D01*
G04 #@! TO.C,C3*
X147940523Y-89011142D02*
X147892904Y-89058761D01*
X147750047Y-89106380D01*
X147654809Y-89106380D01*
X147511952Y-89058761D01*
X147416714Y-88963523D01*
X147369095Y-88868285D01*
X147321476Y-88677809D01*
X147321476Y-88534952D01*
X147369095Y-88344476D01*
X147416714Y-88249238D01*
X147511952Y-88154000D01*
X147654809Y-88106380D01*
X147750047Y-88106380D01*
X147892904Y-88154000D01*
X147940523Y-88201619D01*
X148273857Y-88106380D02*
X148892904Y-88106380D01*
X148559571Y-88487333D01*
X148702428Y-88487333D01*
X148797666Y-88534952D01*
X148845285Y-88582571D01*
X148892904Y-88677809D01*
X148892904Y-88915904D01*
X148845285Y-89011142D01*
X148797666Y-89058761D01*
X148702428Y-89106380D01*
X148416714Y-89106380D01*
X148321476Y-89058761D01*
X148273857Y-89011142D01*
G04 #@! TO.C,C7*
D16*
X124031102Y-90442142D02*
X123973650Y-90499595D01*
X123801293Y-90557047D01*
X123686388Y-90557047D01*
X123514031Y-90499595D01*
X123399126Y-90384690D01*
X123341674Y-90269785D01*
X123284221Y-90039976D01*
X123284221Y-89867619D01*
X123341674Y-89637809D01*
X123399126Y-89522904D01*
X123514031Y-89408000D01*
X123686388Y-89350547D01*
X123801293Y-89350547D01*
X123973650Y-89408000D01*
X124031102Y-89465452D01*
X124433269Y-89350547D02*
X125237602Y-89350547D01*
X124720531Y-90557047D01*
G04 #@! TO.C,C17*
X124406055Y-102126142D02*
X124348602Y-102183595D01*
X124176245Y-102241047D01*
X124061340Y-102241047D01*
X123888983Y-102183595D01*
X123774079Y-102068690D01*
X123716626Y-101953785D01*
X123659174Y-101723976D01*
X123659174Y-101551619D01*
X123716626Y-101321809D01*
X123774079Y-101206904D01*
X123888983Y-101092000D01*
X124061340Y-101034547D01*
X124176245Y-101034547D01*
X124348602Y-101092000D01*
X124406055Y-101149452D01*
X125555102Y-102241047D02*
X124865674Y-102241047D01*
X125210388Y-102241047D02*
X125210388Y-101034547D01*
X125095483Y-101206904D01*
X124980579Y-101321809D01*
X124865674Y-101379261D01*
X125957269Y-101034547D02*
X126761602Y-101034547D01*
X126244531Y-102241047D01*
G04 #@! TO.C,C6*
X132868730Y-89489642D02*
X132811278Y-89547095D01*
X132638920Y-89604547D01*
X132524016Y-89604547D01*
X132351659Y-89547095D01*
X132236754Y-89432190D01*
X132179301Y-89317285D01*
X132121849Y-89087476D01*
X132121849Y-88915119D01*
X132179301Y-88685309D01*
X132236754Y-88570404D01*
X132351659Y-88455500D01*
X132524016Y-88398047D01*
X132638920Y-88398047D01*
X132811278Y-88455500D01*
X132868730Y-88512952D01*
X133902873Y-88398047D02*
X133673063Y-88398047D01*
X133558159Y-88455500D01*
X133500706Y-88512952D01*
X133385801Y-88685309D01*
X133328349Y-88915119D01*
X133328349Y-89374738D01*
X133385801Y-89489642D01*
X133443254Y-89547095D01*
X133558159Y-89604547D01*
X133787968Y-89604547D01*
X133902873Y-89547095D01*
X133960325Y-89489642D01*
X134017778Y-89374738D01*
X134017778Y-89087476D01*
X133960325Y-88972571D01*
X133902873Y-88915119D01*
X133787968Y-88857666D01*
X133558159Y-88857666D01*
X133443254Y-88915119D01*
X133385801Y-88972571D01*
X133328349Y-89087476D01*
G04 #@! TO.C,C2*
X124994730Y-95839642D02*
X124937278Y-95897095D01*
X124764920Y-95954547D01*
X124650016Y-95954547D01*
X124477659Y-95897095D01*
X124362754Y-95782190D01*
X124305301Y-95667285D01*
X124247849Y-95437476D01*
X124247849Y-95265119D01*
X124305301Y-95035309D01*
X124362754Y-94920404D01*
X124477659Y-94805500D01*
X124650016Y-94748047D01*
X124764920Y-94748047D01*
X124937278Y-94805500D01*
X124994730Y-94862952D01*
X125454349Y-94862952D02*
X125511801Y-94805500D01*
X125626706Y-94748047D01*
X125913968Y-94748047D01*
X126028873Y-94805500D01*
X126086325Y-94862952D01*
X126143778Y-94977857D01*
X126143778Y-95092761D01*
X126086325Y-95265119D01*
X125396897Y-95954547D01*
X126143778Y-95954547D01*
G04 #@! TO.C,C1*
X133630730Y-96855642D02*
X133573278Y-96913095D01*
X133400920Y-96970547D01*
X133286016Y-96970547D01*
X133113659Y-96913095D01*
X132998754Y-96798190D01*
X132941301Y-96683285D01*
X132883849Y-96453476D01*
X132883849Y-96281119D01*
X132941301Y-96051309D01*
X132998754Y-95936404D01*
X133113659Y-95821500D01*
X133286016Y-95764047D01*
X133400920Y-95764047D01*
X133573278Y-95821500D01*
X133630730Y-95878952D01*
X134779778Y-96970547D02*
X134090349Y-96970547D01*
X134435063Y-96970547D02*
X134435063Y-95764047D01*
X134320159Y-95936404D01*
X134205254Y-96051309D01*
X134090349Y-96108761D01*
G04 #@! TO.C,C11*
X127589642Y-86841269D02*
X127647095Y-86898721D01*
X127704547Y-87071079D01*
X127704547Y-87185983D01*
X127647095Y-87358340D01*
X127532190Y-87473245D01*
X127417285Y-87530698D01*
X127187476Y-87588150D01*
X127015119Y-87588150D01*
X126785309Y-87530698D01*
X126670404Y-87473245D01*
X126555500Y-87358340D01*
X126498047Y-87185983D01*
X126498047Y-87071079D01*
X126555500Y-86898721D01*
X126612952Y-86841269D01*
X127704547Y-85692221D02*
X127704547Y-86381650D01*
X127704547Y-86036936D02*
X126498047Y-86036936D01*
X126670404Y-86151840D01*
X126785309Y-86266745D01*
X126842761Y-86381650D01*
X127704547Y-84543174D02*
X127704547Y-85232602D01*
X127704547Y-84887888D02*
X126498047Y-84887888D01*
X126670404Y-85002793D01*
X126785309Y-85117698D01*
X126842761Y-85232602D01*
G04 #@! TO.C,C5*
D20*
X147940523Y-90535142D02*
X147892904Y-90582761D01*
X147750047Y-90630380D01*
X147654809Y-90630380D01*
X147511952Y-90582761D01*
X147416714Y-90487523D01*
X147369095Y-90392285D01*
X147321476Y-90201809D01*
X147321476Y-90058952D01*
X147369095Y-89868476D01*
X147416714Y-89773238D01*
X147511952Y-89678000D01*
X147654809Y-89630380D01*
X147750047Y-89630380D01*
X147892904Y-89678000D01*
X147940523Y-89725619D01*
X148845285Y-89630380D02*
X148369095Y-89630380D01*
X148321476Y-90106571D01*
X148369095Y-90058952D01*
X148464333Y-90011333D01*
X148702428Y-90011333D01*
X148797666Y-90058952D01*
X148845285Y-90106571D01*
X148892904Y-90201809D01*
X148892904Y-90439904D01*
X148845285Y-90535142D01*
X148797666Y-90582761D01*
X148702428Y-90630380D01*
X148464333Y-90630380D01*
X148369095Y-90582761D01*
X148321476Y-90535142D01*
G04 #@! TO.C,LED1*
X137828142Y-88080857D02*
X137256714Y-88080857D01*
X137256714Y-86880857D01*
X138228142Y-87452285D02*
X138628142Y-87452285D01*
X138799571Y-88080857D02*
X138228142Y-88080857D01*
X138228142Y-86880857D01*
X138799571Y-86880857D01*
X139313857Y-88080857D02*
X139313857Y-86880857D01*
X139599571Y-86880857D01*
X139771000Y-86938000D01*
X139885285Y-87052285D01*
X139942428Y-87166571D01*
X139999571Y-87395142D01*
X139999571Y-87566571D01*
X139942428Y-87795142D01*
X139885285Y-87909428D01*
X139771000Y-88023714D01*
X139599571Y-88080857D01*
X139313857Y-88080857D01*
X141142428Y-88080857D02*
X140456714Y-88080857D01*
X140799571Y-88080857D02*
X140799571Y-86880857D01*
X140685285Y-87052285D01*
X140571000Y-87166571D01*
X140456714Y-87223714D01*
G04 #@! TO.C,U1*
D21*
X130548858Y-97129142D02*
X131101357Y-97681642D01*
X131198857Y-97714142D01*
X131263857Y-97714142D01*
X131361357Y-97681642D01*
X131491357Y-97551642D01*
X131523857Y-97454142D01*
X131523857Y-97389142D01*
X131491357Y-97291642D01*
X130938857Y-96739143D01*
X132303856Y-96739143D02*
X131913857Y-97129142D01*
X132108857Y-96934142D02*
X131426357Y-96251643D01*
X131458857Y-96414143D01*
X131458857Y-96544143D01*
X131426357Y-96641643D01*
G04 #@! TD*
M02*
