G04 #@! TF.GenerationSoftware,KiCad,Pcbnew,(5.0.0-rc2-92-g9552e0272)*
G04 #@! TF.CreationDate,2018-06-17T01:32:07-07:00*
G04 #@! TF.ProjectId,sprite,7370726974652E6B696361645F706362,rev?*
G04 #@! TF.SameCoordinates,Original*
G04 #@! TF.FileFunction,Copper,L3,Inr,Signal*
G04 #@! TF.FilePolarity,Positive*
%FSLAX46Y46*%
G04 Gerber Fmt 4.6, Leading zero omitted, Abs format (unit mm)*
G04 Created by KiCad (PCBNEW (5.0.0-rc2-92-g9552e0272)) date Sun Jun 17 01:32:07 2018*
%MOMM*%
%LPD*%
G01*
G04 APERTURE LIST*
G04 #@! TA.AperFunction,ViaPad*
%ADD10C,0.812800*%
G04 #@! TD*
G04 #@! TA.AperFunction,ViaPad*
%ADD11C,1.270000*%
G04 #@! TD*
G04 #@! TA.AperFunction,Conductor*
%ADD12C,0.076200*%
G04 #@! TD*
G04 #@! TA.AperFunction,ViaPad*
%ADD13C,0.558800*%
G04 #@! TD*
G04 #@! TA.AperFunction,Conductor*
%ADD14C,0.304800*%
G04 #@! TD*
G04 #@! TA.AperFunction,Conductor*
%ADD15C,0.203200*%
G04 #@! TD*
G04 #@! TA.AperFunction,Conductor*
%ADD16C,0.152400*%
G04 #@! TD*
G04 APERTURE END LIST*
D10*
G04 #@! TO.N,GND*
G04 #@! TO.C,B1*
X152541100Y-92152074D03*
G04 #@! TO.N,/VBAT*
X154541100Y-92152074D03*
G04 #@! TD*
D11*
G04 #@! TO.N,/RF_N*
G04 #@! TO.C,A1*
X121890394Y-88672607D03*
X124391806Y-88231541D03*
X123141100Y-88452074D03*
D12*
G36*
X123656186Y-87716454D02*
X123876720Y-88967160D01*
X122626014Y-89187694D01*
X122405480Y-87936988D01*
X123656186Y-87716454D01*
X123656186Y-87716454D01*
G37*
G04 #@! TD*
D11*
G04 #@! TO.N,/RF_P*
G04 #@! TO.C,A2*
X125620567Y-87002780D03*
X126061633Y-84501368D03*
X125841100Y-85752074D03*
D12*
G36*
X125326014Y-85016454D02*
X126576720Y-85236988D01*
X126356186Y-86487694D01*
X125105480Y-86267160D01*
X125326014Y-85016454D01*
X125326014Y-85016454D01*
G37*
G04 #@! TD*
D13*
G04 #@! TO.N,VCC*
X131572000Y-111760000D03*
X131445000Y-88005112D03*
X121607700Y-103632000D03*
X129013769Y-106302674D03*
G04 #@! TO.N,GND*
X154178000Y-100838000D03*
X149352000Y-95504000D03*
X131064000Y-107696000D03*
X153162000Y-97282000D03*
X124714000Y-104394000D03*
X124206000Y-112014000D03*
X143827500Y-84328000D03*
X133096000Y-103886000D03*
X149606000Y-106426000D03*
X129540000Y-84836000D03*
X121539000Y-99441000D03*
X136652000Y-87401410D03*
X138938000Y-87401410D03*
X132842000Y-113601500D03*
X134747000Y-87566500D03*
X129540000Y-111252000D03*
X123825928Y-99884051D03*
X127571500Y-92329000D03*
X128524000Y-93980000D03*
X146812000Y-93700714D03*
X140462000Y-86360000D03*
X138049000Y-94996000D03*
X121539000Y-93599000D03*
X127254000Y-103886000D03*
X148286928Y-84393524D03*
X141478000Y-114046000D03*
X145542000Y-114046000D03*
G04 #@! TO.N,VCCINT*
X141478000Y-88646000D03*
X145034000Y-110617000D03*
X130683000Y-101727000D03*
X134873998Y-101854000D03*
X124079000Y-100584000D03*
X124932508Y-107105166D03*
X122555000Y-91701184D03*
G04 #@! TO.N,VCCIO*
X127762000Y-113538000D03*
X122936000Y-103632000D03*
X126873000Y-106299000D03*
X150622000Y-93726000D03*
X121793000Y-89789000D03*
G04 #@! TO.N,Net-(R6-Pad2)*
X142690833Y-93135433D03*
X142240000Y-87757000D03*
G04 #@! TO.N,/SDA*
X144526000Y-92004126D03*
X138353828Y-93693411D03*
X144383431Y-93345103D03*
G04 #@! TO.N,/SCL*
X145286309Y-92004192D03*
X145041633Y-93700714D03*
X139159901Y-93947901D03*
G04 #@! TO.N,/REG_D1*
X132867380Y-89027000D03*
X133084799Y-94995991D03*
G04 #@! TO.N,/REG_D0*
X135636000Y-93047365D03*
G04 #@! TO.N,/DSW*
X129821642Y-87471712D03*
X133784765Y-94869125D03*
G04 #@! TO.N,Net-(R10-Pad2)*
X134556500Y-94996000D03*
G04 #@! TO.N,Net-(R9-Pad1)*
X136398000Y-93047363D03*
G04 #@! TO.N,/PGOOD*
X135128000Y-92509886D03*
G04 #@! TO.N,/VBAT*
X134366000Y-91976486D03*
G04 #@! TO.N,/REGGOOD*
X124546167Y-94742000D03*
G04 #@! TO.N,Net-(R7-Pad1)*
X125177223Y-97586290D03*
G04 #@! TO.N,/EN_3*
X128778000Y-107645210D03*
G04 #@! TO.N,/EN_2*
X149462473Y-97400117D03*
X126677189Y-96583116D03*
G04 #@! TO.N,/EN_1*
X132080000Y-110490000D03*
G04 #@! TO.N,/TST*
X121793000Y-94361000D03*
X154559000Y-93345000D03*
G04 #@! TO.N,/UART_RX*
X154541100Y-98462074D03*
X134309429Y-97304922D03*
G04 #@! TO.N,/UART_TX*
X154541100Y-95922074D03*
X131610391Y-96071192D03*
G04 #@! TO.N,/PWM2*
X133604000Y-109474000D03*
X134121896Y-99558104D03*
G04 #@! TO.N,/PWM1*
X131625015Y-109943364D03*
X147341087Y-96494590D03*
X129536178Y-108969822D03*
X133349992Y-99060000D03*
G04 #@! TO.N,Net-(L4-Pad2)*
X148499742Y-93360490D03*
G04 #@! TO.N,Net-(R12-Pad1)*
X149124298Y-93700714D03*
G04 #@! TO.N,Net-(R22-Pad2)*
X135382000Y-109474000D03*
X149098000Y-109982000D03*
G04 #@! TO.N,Net-(R22-Pad1)*
X150622000Y-106426000D03*
X135382000Y-107950000D03*
X140462000Y-102082600D03*
G04 #@! TO.N,/~RST*
X154025600Y-90842074D03*
X121920000Y-96266000D03*
G04 #@! TO.N,Net-(U1-Pad47)*
X127254000Y-97281954D03*
G04 #@! TD*
D14*
G04 #@! TO.N,VCC*
X128734370Y-106023275D02*
X129013769Y-106302674D01*
X123512700Y-105537000D02*
X128248095Y-105537000D01*
X121607700Y-103632000D02*
X123512700Y-105537000D01*
X128248095Y-105537000D02*
X128734370Y-106023275D01*
G04 #@! TO.N,VCCINT*
X130683000Y-104013000D02*
X130683000Y-101727000D01*
X129413000Y-104013000D02*
X130683000Y-104013000D01*
X126263399Y-100863399D02*
X129413000Y-104013000D01*
X124358399Y-100863399D02*
X126263399Y-100863399D01*
X124079000Y-100584000D02*
X124358399Y-100863399D01*
X125327639Y-107105166D02*
X125545930Y-106886875D01*
X129294186Y-106886875D02*
X130683000Y-105498061D01*
X130683000Y-105498061D02*
X130683000Y-104013000D01*
X125545930Y-106886875D02*
X129294186Y-106886875D01*
X124932508Y-107105166D02*
X125327639Y-107105166D01*
G04 #@! TO.N,VCCIO*
X122936000Y-103632000D02*
X122415299Y-103111299D01*
X129870076Y-94284924D02*
X128900420Y-95254580D01*
X138785486Y-94589612D02*
X138480798Y-94284924D01*
X150622000Y-93726000D02*
X149758388Y-94589612D01*
X128900420Y-95254580D02*
X125584538Y-95254580D01*
X149758388Y-94589612D02*
X138785486Y-94589612D01*
X138480798Y-94284924D02*
X129870076Y-94284924D01*
X125584538Y-96006080D02*
X124308618Y-97282000D01*
X124308618Y-97282000D02*
X122415299Y-97282000D01*
X125584538Y-95254580D02*
X125584538Y-96006080D01*
X122415299Y-103111299D02*
X122415299Y-97282000D01*
X122504201Y-97193098D02*
X122504201Y-92500631D01*
X122504201Y-92500631D02*
X121793000Y-91789430D01*
X122415299Y-97282000D02*
X122504201Y-97193098D01*
X121793000Y-91789430D02*
X121793000Y-90184131D01*
X121793000Y-90184131D02*
X121793000Y-89789000D01*
D15*
G04 #@! TO.N,/SDA*
X139670268Y-93668834D02*
X139415446Y-93414012D01*
X138633227Y-93414012D02*
X138353828Y-93693411D01*
X144383431Y-93345103D02*
X144059700Y-93668834D01*
X144059700Y-93668834D02*
X139670268Y-93668834D01*
X139415446Y-93414012D02*
X138633227Y-93414012D01*
G04 #@! TO.N,/SCL*
X145041633Y-93700714D02*
X144717902Y-94024445D01*
X139236445Y-94024445D02*
X139159901Y-93947901D01*
X144717902Y-94024445D02*
X139236445Y-94024445D01*
G04 #@! TO.N,/VBAT*
X154541100Y-92152074D02*
X153856174Y-92837000D01*
X143156536Y-92811702D02*
X142321320Y-91976486D01*
X142321320Y-91976486D02*
X134761131Y-91976486D01*
X153856174Y-92837000D02*
X148765686Y-92837000D01*
X134761131Y-91976486D02*
X134366000Y-91976486D01*
X148765686Y-92837000D02*
X148740388Y-92811702D01*
X148740388Y-92811702D02*
X143156536Y-92811702D01*
G04 #@! TO.N,/EN_2*
X148308322Y-96672389D02*
X147597121Y-95961188D01*
X133309353Y-96705098D02*
X127194302Y-96705098D01*
X147597121Y-95961188D02*
X147085053Y-95961188D01*
X147083198Y-95963043D02*
X134051408Y-95963043D01*
X134051408Y-95963043D02*
X133309353Y-96705098D01*
X127194302Y-96705098D02*
X127072320Y-96583116D01*
X149462473Y-97400117D02*
X148734745Y-96672389D01*
X147085053Y-95961188D02*
X147083198Y-95963043D01*
X148734745Y-96672389D02*
X148308322Y-96672389D01*
X127072320Y-96583116D02*
X126677189Y-96583116D01*
G04 #@! TO.N,/UART_RX*
X149770074Y-98462074D02*
X148612922Y-97304922D01*
X134704560Y-97304922D02*
X134309429Y-97304922D01*
X154541100Y-98462074D02*
X149770074Y-98462074D01*
X148612922Y-97304922D02*
X134704560Y-97304922D01*
G04 #@! TO.N,/UART_TX*
X131889790Y-95791793D02*
X131610391Y-96071192D01*
X148455620Y-96316778D02*
X147693620Y-95554778D01*
X152943196Y-96316778D02*
X148455620Y-96316778D01*
X154541100Y-95922074D02*
X153337900Y-95922074D01*
X153337900Y-95922074D02*
X152943196Y-96316778D01*
X147693620Y-95554778D02*
X132126805Y-95554778D01*
X132126805Y-95554778D02*
X131889790Y-95791793D01*
G04 #@! TO.N,/PWM2*
X134213611Y-99669611D02*
X134112000Y-99568000D01*
X134112000Y-99568000D02*
X134121896Y-99558104D01*
X133604000Y-109474000D02*
X134213611Y-108864389D01*
X134213611Y-108864389D02*
X134213611Y-99669611D01*
G04 #@! TO.N,/PWM1*
X133349992Y-98664869D02*
X133349992Y-99060000D01*
X133858000Y-100217133D02*
X133349992Y-99709125D01*
X147341087Y-96494590D02*
X134358314Y-96494590D01*
X131625015Y-109943364D02*
X133858000Y-107710379D01*
X133349992Y-99455131D02*
X133349992Y-99060000D01*
X133349992Y-99709125D02*
X133349992Y-99455131D01*
X134358314Y-96494590D02*
X133349992Y-97502912D01*
X133858000Y-107710379D02*
X133858000Y-100217133D01*
X133349992Y-97502912D02*
X133349992Y-98664869D01*
G04 #@! TO.N,Net-(R22-Pad2)*
X147421599Y-111150401D02*
X148590000Y-109982000D01*
X139852401Y-111150401D02*
X147421599Y-111150401D01*
X135890000Y-110744000D02*
X139446000Y-110744000D01*
X139446000Y-110744000D02*
X139852401Y-111150401D01*
X148590000Y-109982000D02*
X149098000Y-109982000D01*
X135382000Y-110236000D02*
X135890000Y-110744000D01*
X135382000Y-109474000D02*
X135382000Y-110236000D01*
G04 #@! TO.N,Net-(R22-Pad1)*
X138176000Y-99923600D02*
X146202400Y-99923600D01*
X138176000Y-107492800D02*
X138176000Y-99923600D01*
X138887200Y-100634800D02*
X145491200Y-100634800D01*
X145846800Y-100279200D02*
X145846800Y-107492800D01*
X138531600Y-107137200D02*
X138531600Y-100279200D01*
X145491200Y-100634800D02*
X145491200Y-107137200D01*
X138887200Y-106781600D02*
X138887200Y-100634800D01*
X146558000Y-99568000D02*
X146558000Y-108204000D01*
X147624800Y-98501200D02*
X147624800Y-109270800D01*
X147980400Y-98145600D02*
X147980400Y-109270800D01*
X149225000Y-107823000D02*
X150622000Y-106426000D01*
X138531600Y-100279200D02*
X145846800Y-100279200D01*
X145135600Y-106781600D02*
X138887200Y-106781600D01*
X145135600Y-100990400D02*
X145135600Y-106781600D01*
X144424400Y-106070400D02*
X139598400Y-106070400D01*
X139242800Y-106426000D02*
X139242800Y-100990400D01*
X140462000Y-102082600D02*
X140843000Y-101701600D01*
X145846800Y-107492800D02*
X138176000Y-107492800D01*
X145491200Y-107137200D02*
X138531600Y-107137200D01*
X136398000Y-109270800D02*
X136398000Y-98145600D01*
X148742400Y-109270800D02*
X149225000Y-108788200D01*
X144780000Y-106426000D02*
X139242800Y-106426000D01*
X144780000Y-101346000D02*
X144780000Y-106426000D01*
X139242800Y-100990400D02*
X145135600Y-100990400D01*
X146202400Y-99923600D02*
X146202400Y-107848400D01*
X137820400Y-99568000D02*
X146558000Y-99568000D01*
X147269200Y-108915200D02*
X136753600Y-108915200D01*
X146558000Y-108204000D02*
X137464800Y-108204000D01*
X137464800Y-108204000D02*
X137464800Y-99212400D01*
X147980400Y-109270800D02*
X148742400Y-109270800D01*
X137464800Y-99212400D02*
X146913600Y-99212400D01*
X146913600Y-99212400D02*
X146913600Y-108559600D01*
X137109200Y-98856800D02*
X147269200Y-98856800D01*
X140843000Y-101701600D02*
X144424400Y-101701600D01*
X139598400Y-106070400D02*
X139598400Y-101346000D01*
X147269200Y-98856800D02*
X147269200Y-108915200D01*
X144424400Y-101701600D02*
X144424400Y-106070400D01*
X146913600Y-108559600D02*
X137109200Y-108559600D01*
X136753600Y-108915200D02*
X136753600Y-98501200D01*
X139598400Y-101346000D02*
X144780000Y-101346000D01*
X149225000Y-108788200D02*
X149225000Y-107823000D01*
X147624800Y-109270800D02*
X136398000Y-109270800D01*
X137820400Y-107848400D02*
X137820400Y-99568000D01*
X137109200Y-108559600D02*
X137109200Y-98856800D01*
X136753600Y-98501200D02*
X147624800Y-98501200D01*
X146202400Y-107848400D02*
X137820400Y-107848400D01*
X136398000Y-98145600D02*
X147980400Y-98145600D01*
G04 #@! TD*
D16*
G04 #@! TO.N,GND*
G36*
X132475199Y-94874734D02*
X132475199Y-95117248D01*
X132477572Y-95122978D01*
X132169327Y-95122978D01*
X132126805Y-95114520D01*
X132084283Y-95122978D01*
X132084279Y-95122978D01*
X131958325Y-95148032D01*
X131815495Y-95243468D01*
X131791405Y-95279521D01*
X131614534Y-95456392D01*
X131614531Y-95456394D01*
X131609333Y-95461592D01*
X131489134Y-95461592D01*
X131265080Y-95554398D01*
X131093597Y-95725881D01*
X131000791Y-95949935D01*
X131000791Y-96192449D01*
X131034280Y-96273298D01*
X127384627Y-96273298D01*
X127383630Y-96271806D01*
X127240800Y-96176370D01*
X127114846Y-96151316D01*
X127114842Y-96151316D01*
X127105670Y-96149492D01*
X127022500Y-96066322D01*
X126798446Y-95973516D01*
X126555932Y-95973516D01*
X126331878Y-96066322D01*
X126160395Y-96237805D01*
X126067589Y-96461859D01*
X126067589Y-96704373D01*
X126160395Y-96928427D01*
X126331878Y-97099910D01*
X126555932Y-97192716D01*
X126644400Y-97192716D01*
X126644400Y-97403211D01*
X126737206Y-97627265D01*
X126908689Y-97798748D01*
X127132743Y-97891554D01*
X127375257Y-97891554D01*
X127599311Y-97798748D01*
X127770794Y-97627265D01*
X127863600Y-97403211D01*
X127863600Y-97160697D01*
X127853742Y-97136898D01*
X133105349Y-97136898D01*
X133074734Y-97167513D01*
X133038682Y-97191602D01*
X132943246Y-97334433D01*
X132918192Y-97460387D01*
X132918192Y-97460390D01*
X132909734Y-97502912D01*
X132918192Y-97545434D01*
X132918193Y-98622339D01*
X132918192Y-98622344D01*
X132918192Y-98629695D01*
X132833198Y-98714689D01*
X132740392Y-98938743D01*
X132740392Y-99181257D01*
X132833198Y-99405311D01*
X132918192Y-99490305D01*
X132918192Y-99666603D01*
X132909734Y-99709125D01*
X132918192Y-99751647D01*
X132918192Y-99751650D01*
X132943246Y-99877604D01*
X133038682Y-100020435D01*
X133074734Y-100044524D01*
X133426201Y-100395992D01*
X133426200Y-107531521D01*
X131623958Y-109333764D01*
X131503758Y-109333764D01*
X131279704Y-109426570D01*
X131108221Y-109598053D01*
X131015415Y-109822107D01*
X131015415Y-110064621D01*
X131108221Y-110288675D01*
X131279704Y-110460158D01*
X131470400Y-110539147D01*
X131470400Y-110611257D01*
X131563206Y-110835311D01*
X131734689Y-111006794D01*
X131958743Y-111099600D01*
X132201257Y-111099600D01*
X132425311Y-111006794D01*
X132596794Y-110835311D01*
X132689600Y-110611257D01*
X132689600Y-110368743D01*
X132596794Y-110144689D01*
X132425311Y-109973206D01*
X132270115Y-109908922D01*
X133781811Y-108397226D01*
X133781811Y-108685531D01*
X133602943Y-108864400D01*
X133482743Y-108864400D01*
X133258689Y-108957206D01*
X133087206Y-109128689D01*
X132994400Y-109352743D01*
X132994400Y-109595257D01*
X133087206Y-109819311D01*
X133258689Y-109990794D01*
X133482743Y-110083600D01*
X133725257Y-110083600D01*
X133949311Y-109990794D01*
X134120794Y-109819311D01*
X134213600Y-109595257D01*
X134213600Y-109475057D01*
X134488872Y-109199786D01*
X134524921Y-109175699D01*
X134556333Y-109128689D01*
X134620357Y-109032869D01*
X134633589Y-108966346D01*
X134645411Y-108906915D01*
X134645411Y-108906912D01*
X134653869Y-108864390D01*
X134645411Y-108821868D01*
X134645411Y-102419143D01*
X134752741Y-102463600D01*
X134995255Y-102463600D01*
X135219309Y-102370794D01*
X135390792Y-102199311D01*
X135483598Y-101975257D01*
X135483598Y-101732743D01*
X135390792Y-101508689D01*
X135219309Y-101337206D01*
X134995255Y-101244400D01*
X134752741Y-101244400D01*
X134645411Y-101288857D01*
X134645411Y-99887189D01*
X134731496Y-99679361D01*
X134731496Y-99436847D01*
X134638690Y-99212793D01*
X134467207Y-99041310D01*
X134243153Y-98948504D01*
X134000639Y-98948504D01*
X133959592Y-98965506D01*
X133959592Y-98938743D01*
X133866786Y-98714689D01*
X133781792Y-98629695D01*
X133781792Y-97681769D01*
X133802982Y-97660580D01*
X133964118Y-97821716D01*
X134188172Y-97914522D01*
X134430686Y-97914522D01*
X134654740Y-97821716D01*
X134739734Y-97736722D01*
X136067800Y-97736722D01*
X136067800Y-97862561D01*
X135991254Y-97977120D01*
X135957741Y-98145600D01*
X135966201Y-98188131D01*
X135966200Y-107767422D01*
X135898794Y-107604689D01*
X135727311Y-107433206D01*
X135503257Y-107340400D01*
X135260743Y-107340400D01*
X135036689Y-107433206D01*
X134865206Y-107604689D01*
X134772400Y-107828743D01*
X134772400Y-108071257D01*
X134865206Y-108295311D01*
X135036689Y-108466794D01*
X135260743Y-108559600D01*
X135503257Y-108559600D01*
X135727311Y-108466794D01*
X135898794Y-108295311D01*
X135966200Y-108132578D01*
X135966200Y-109228274D01*
X135957741Y-109270800D01*
X135957818Y-109271185D01*
X135898794Y-109128689D01*
X135727311Y-108957206D01*
X135503257Y-108864400D01*
X135260743Y-108864400D01*
X135036689Y-108957206D01*
X134865206Y-109128689D01*
X134772400Y-109352743D01*
X134772400Y-109595257D01*
X134865206Y-109819311D01*
X134950201Y-109904306D01*
X134950201Y-110193474D01*
X134941742Y-110236000D01*
X134975254Y-110404479D01*
X135046601Y-110511258D01*
X135046603Y-110511260D01*
X135070691Y-110547310D01*
X135106741Y-110571398D01*
X135554600Y-111019257D01*
X135578690Y-111055310D01*
X135721520Y-111150746D01*
X135847474Y-111175800D01*
X135847478Y-111175800D01*
X135889999Y-111184258D01*
X135932520Y-111175800D01*
X139267143Y-111175800D01*
X139517003Y-111425661D01*
X139541091Y-111461711D01*
X139577141Y-111485799D01*
X139577142Y-111485800D01*
X139648016Y-111533156D01*
X139683921Y-111557147D01*
X139809875Y-111582201D01*
X139809879Y-111582201D01*
X139852401Y-111590659D01*
X139894923Y-111582201D01*
X147379077Y-111582201D01*
X147421599Y-111590659D01*
X147464121Y-111582201D01*
X147464125Y-111582201D01*
X147590079Y-111557147D01*
X147732909Y-111461711D01*
X147756999Y-111425658D01*
X148061355Y-111121302D01*
X148085648Y-111459797D01*
X147993827Y-112089582D01*
X147768910Y-112684959D01*
X147421393Y-113218148D01*
X146967484Y-113664278D01*
X146428369Y-114002529D01*
X145813761Y-114222649D01*
X145698852Y-114246874D01*
X121246300Y-114246874D01*
X121246300Y-113416743D01*
X127152400Y-113416743D01*
X127152400Y-113659257D01*
X127245206Y-113883311D01*
X127416689Y-114054794D01*
X127640743Y-114147600D01*
X127883257Y-114147600D01*
X128107311Y-114054794D01*
X128278794Y-113883311D01*
X128371600Y-113659257D01*
X128371600Y-113416743D01*
X128278794Y-113192689D01*
X128107311Y-113021206D01*
X127883257Y-112928400D01*
X127640743Y-112928400D01*
X127416689Y-113021206D01*
X127245206Y-113192689D01*
X127152400Y-113416743D01*
X121246300Y-113416743D01*
X121246300Y-111638743D01*
X130962400Y-111638743D01*
X130962400Y-111881257D01*
X131055206Y-112105311D01*
X131226689Y-112276794D01*
X131450743Y-112369600D01*
X131693257Y-112369600D01*
X131917311Y-112276794D01*
X132088794Y-112105311D01*
X132181600Y-111881257D01*
X132181600Y-111638743D01*
X132088794Y-111414689D01*
X131917311Y-111243206D01*
X131693257Y-111150400D01*
X131450743Y-111150400D01*
X131226689Y-111243206D01*
X131055206Y-111414689D01*
X130962400Y-111638743D01*
X121246300Y-111638743D01*
X121246300Y-108848565D01*
X128926578Y-108848565D01*
X128926578Y-109091079D01*
X129019384Y-109315133D01*
X129190867Y-109486616D01*
X129414921Y-109579422D01*
X129657435Y-109579422D01*
X129881489Y-109486616D01*
X130052972Y-109315133D01*
X130145778Y-109091079D01*
X130145778Y-108848565D01*
X130052972Y-108624511D01*
X129881489Y-108453028D01*
X129657435Y-108360222D01*
X129414921Y-108360222D01*
X129190867Y-108453028D01*
X129019384Y-108624511D01*
X128926578Y-108848565D01*
X121246300Y-108848565D01*
X121246300Y-104132705D01*
X121262389Y-104148794D01*
X121486443Y-104241600D01*
X121534802Y-104241600D01*
X123137840Y-105844639D01*
X123164765Y-105884935D01*
X123266123Y-105952660D01*
X123324398Y-105991599D01*
X123512700Y-106029054D01*
X123560229Y-106019600D01*
X126328905Y-106019600D01*
X126263400Y-106177743D01*
X126263400Y-106404275D01*
X125593457Y-106404275D01*
X125545929Y-106394821D01*
X125498401Y-106404275D01*
X125357629Y-106432276D01*
X125197995Y-106538940D01*
X125189429Y-106551760D01*
X125053765Y-106495566D01*
X124811251Y-106495566D01*
X124587197Y-106588372D01*
X124415714Y-106759855D01*
X124322908Y-106983909D01*
X124322908Y-107226423D01*
X124415714Y-107450477D01*
X124587197Y-107621960D01*
X124811251Y-107714766D01*
X125053765Y-107714766D01*
X125277819Y-107621960D01*
X125306720Y-107593059D01*
X125327639Y-107597220D01*
X125375167Y-107587766D01*
X125375168Y-107587766D01*
X125515940Y-107559765D01*
X125675574Y-107453101D01*
X125702501Y-107412802D01*
X125745828Y-107369475D01*
X128232387Y-107369475D01*
X128168400Y-107523953D01*
X128168400Y-107766467D01*
X128261206Y-107990521D01*
X128432689Y-108162004D01*
X128656743Y-108254810D01*
X128899257Y-108254810D01*
X129123311Y-108162004D01*
X129294794Y-107990521D01*
X129387600Y-107766467D01*
X129387600Y-107523953D01*
X129324991Y-107372801D01*
X129341714Y-107369475D01*
X129341715Y-107369475D01*
X129482487Y-107341474D01*
X129642121Y-107234810D01*
X129669048Y-107194512D01*
X130990642Y-105872918D01*
X131030935Y-105845996D01*
X131137599Y-105686362D01*
X131165600Y-105545590D01*
X131165600Y-105545589D01*
X131175054Y-105498061D01*
X131165600Y-105450532D01*
X131165600Y-104060528D01*
X131175054Y-104013000D01*
X131165600Y-103965471D01*
X131165600Y-102106505D01*
X131199794Y-102072311D01*
X131292600Y-101848257D01*
X131292600Y-101605743D01*
X131199794Y-101381689D01*
X131028311Y-101210206D01*
X130804257Y-101117400D01*
X130561743Y-101117400D01*
X130337689Y-101210206D01*
X130166206Y-101381689D01*
X130073400Y-101605743D01*
X130073400Y-101848257D01*
X130166206Y-102072311D01*
X130200401Y-102106506D01*
X130200400Y-103530400D01*
X129612899Y-103530400D01*
X126638261Y-100555763D01*
X126611334Y-100515464D01*
X126451700Y-100408800D01*
X126310928Y-100380799D01*
X126310927Y-100380799D01*
X126263399Y-100371345D01*
X126215871Y-100380799D01*
X124654658Y-100380799D01*
X124595794Y-100238689D01*
X124424311Y-100067206D01*
X124200257Y-99974400D01*
X123957743Y-99974400D01*
X123733689Y-100067206D01*
X123562206Y-100238689D01*
X123469400Y-100462743D01*
X123469400Y-100705257D01*
X123562206Y-100929311D01*
X123733689Y-101100794D01*
X123957743Y-101193600D01*
X123998615Y-101193600D01*
X124010464Y-101211334D01*
X124134672Y-101294327D01*
X124170097Y-101317998D01*
X124358399Y-101355453D01*
X124405928Y-101345999D01*
X126063501Y-101345999D01*
X129038140Y-104320639D01*
X129065065Y-104360935D01*
X129224699Y-104467599D01*
X129365471Y-104495600D01*
X129412999Y-104505054D01*
X129460527Y-104495600D01*
X130200401Y-104495600D01*
X130200400Y-105298161D01*
X129533678Y-105964884D01*
X129530563Y-105957363D01*
X129359080Y-105785880D01*
X129135026Y-105693074D01*
X129086669Y-105693074D01*
X128622956Y-105229363D01*
X128596030Y-105189065D01*
X128436396Y-105082401D01*
X128295624Y-105054400D01*
X128295623Y-105054400D01*
X128248095Y-105044946D01*
X128200567Y-105054400D01*
X123712599Y-105054400D01*
X122899798Y-104241600D01*
X123057257Y-104241600D01*
X123281311Y-104148794D01*
X123452794Y-103977311D01*
X123545600Y-103753257D01*
X123545600Y-103510743D01*
X123452794Y-103286689D01*
X123281311Y-103115206D01*
X123057257Y-103022400D01*
X123008898Y-103022400D01*
X122897899Y-102911401D01*
X122897899Y-97764600D01*
X124261090Y-97764600D01*
X124308618Y-97774054D01*
X124356146Y-97764600D01*
X124356147Y-97764600D01*
X124496919Y-97736599D01*
X124567623Y-97689356D01*
X124567623Y-97707547D01*
X124660429Y-97931601D01*
X124831912Y-98103084D01*
X125055966Y-98195890D01*
X125298480Y-98195890D01*
X125522534Y-98103084D01*
X125694017Y-97931601D01*
X125786823Y-97707547D01*
X125786823Y-97465033D01*
X125694017Y-97240979D01*
X125522534Y-97069496D01*
X125298480Y-96976690D01*
X125296427Y-96976690D01*
X125892177Y-96380940D01*
X125932473Y-96354015D01*
X126039137Y-96194381D01*
X126067138Y-96053609D01*
X126076592Y-96006081D01*
X126067138Y-95958553D01*
X126067138Y-95737180D01*
X128852892Y-95737180D01*
X128900420Y-95746634D01*
X128947948Y-95737180D01*
X128947949Y-95737180D01*
X129088721Y-95709179D01*
X129248355Y-95602515D01*
X129275282Y-95562217D01*
X130069976Y-94767524D01*
X132519607Y-94767524D01*
X132475199Y-94874734D01*
X132475199Y-94874734D01*
G37*
X132475199Y-94874734D02*
X132475199Y-95117248D01*
X132477572Y-95122978D01*
X132169327Y-95122978D01*
X132126805Y-95114520D01*
X132084283Y-95122978D01*
X132084279Y-95122978D01*
X131958325Y-95148032D01*
X131815495Y-95243468D01*
X131791405Y-95279521D01*
X131614534Y-95456392D01*
X131614531Y-95456394D01*
X131609333Y-95461592D01*
X131489134Y-95461592D01*
X131265080Y-95554398D01*
X131093597Y-95725881D01*
X131000791Y-95949935D01*
X131000791Y-96192449D01*
X131034280Y-96273298D01*
X127384627Y-96273298D01*
X127383630Y-96271806D01*
X127240800Y-96176370D01*
X127114846Y-96151316D01*
X127114842Y-96151316D01*
X127105670Y-96149492D01*
X127022500Y-96066322D01*
X126798446Y-95973516D01*
X126555932Y-95973516D01*
X126331878Y-96066322D01*
X126160395Y-96237805D01*
X126067589Y-96461859D01*
X126067589Y-96704373D01*
X126160395Y-96928427D01*
X126331878Y-97099910D01*
X126555932Y-97192716D01*
X126644400Y-97192716D01*
X126644400Y-97403211D01*
X126737206Y-97627265D01*
X126908689Y-97798748D01*
X127132743Y-97891554D01*
X127375257Y-97891554D01*
X127599311Y-97798748D01*
X127770794Y-97627265D01*
X127863600Y-97403211D01*
X127863600Y-97160697D01*
X127853742Y-97136898D01*
X133105349Y-97136898D01*
X133074734Y-97167513D01*
X133038682Y-97191602D01*
X132943246Y-97334433D01*
X132918192Y-97460387D01*
X132918192Y-97460390D01*
X132909734Y-97502912D01*
X132918192Y-97545434D01*
X132918193Y-98622339D01*
X132918192Y-98622344D01*
X132918192Y-98629695D01*
X132833198Y-98714689D01*
X132740392Y-98938743D01*
X132740392Y-99181257D01*
X132833198Y-99405311D01*
X132918192Y-99490305D01*
X132918192Y-99666603D01*
X132909734Y-99709125D01*
X132918192Y-99751647D01*
X132918192Y-99751650D01*
X132943246Y-99877604D01*
X133038682Y-100020435D01*
X133074734Y-100044524D01*
X133426201Y-100395992D01*
X133426200Y-107531521D01*
X131623958Y-109333764D01*
X131503758Y-109333764D01*
X131279704Y-109426570D01*
X131108221Y-109598053D01*
X131015415Y-109822107D01*
X131015415Y-110064621D01*
X131108221Y-110288675D01*
X131279704Y-110460158D01*
X131470400Y-110539147D01*
X131470400Y-110611257D01*
X131563206Y-110835311D01*
X131734689Y-111006794D01*
X131958743Y-111099600D01*
X132201257Y-111099600D01*
X132425311Y-111006794D01*
X132596794Y-110835311D01*
X132689600Y-110611257D01*
X132689600Y-110368743D01*
X132596794Y-110144689D01*
X132425311Y-109973206D01*
X132270115Y-109908922D01*
X133781811Y-108397226D01*
X133781811Y-108685531D01*
X133602943Y-108864400D01*
X133482743Y-108864400D01*
X133258689Y-108957206D01*
X133087206Y-109128689D01*
X132994400Y-109352743D01*
X132994400Y-109595257D01*
X133087206Y-109819311D01*
X133258689Y-109990794D01*
X133482743Y-110083600D01*
X133725257Y-110083600D01*
X133949311Y-109990794D01*
X134120794Y-109819311D01*
X134213600Y-109595257D01*
X134213600Y-109475057D01*
X134488872Y-109199786D01*
X134524921Y-109175699D01*
X134556333Y-109128689D01*
X134620357Y-109032869D01*
X134633589Y-108966346D01*
X134645411Y-108906915D01*
X134645411Y-108906912D01*
X134653869Y-108864390D01*
X134645411Y-108821868D01*
X134645411Y-102419143D01*
X134752741Y-102463600D01*
X134995255Y-102463600D01*
X135219309Y-102370794D01*
X135390792Y-102199311D01*
X135483598Y-101975257D01*
X135483598Y-101732743D01*
X135390792Y-101508689D01*
X135219309Y-101337206D01*
X134995255Y-101244400D01*
X134752741Y-101244400D01*
X134645411Y-101288857D01*
X134645411Y-99887189D01*
X134731496Y-99679361D01*
X134731496Y-99436847D01*
X134638690Y-99212793D01*
X134467207Y-99041310D01*
X134243153Y-98948504D01*
X134000639Y-98948504D01*
X133959592Y-98965506D01*
X133959592Y-98938743D01*
X133866786Y-98714689D01*
X133781792Y-98629695D01*
X133781792Y-97681769D01*
X133802982Y-97660580D01*
X133964118Y-97821716D01*
X134188172Y-97914522D01*
X134430686Y-97914522D01*
X134654740Y-97821716D01*
X134739734Y-97736722D01*
X136067800Y-97736722D01*
X136067800Y-97862561D01*
X135991254Y-97977120D01*
X135957741Y-98145600D01*
X135966201Y-98188131D01*
X135966200Y-107767422D01*
X135898794Y-107604689D01*
X135727311Y-107433206D01*
X135503257Y-107340400D01*
X135260743Y-107340400D01*
X135036689Y-107433206D01*
X134865206Y-107604689D01*
X134772400Y-107828743D01*
X134772400Y-108071257D01*
X134865206Y-108295311D01*
X135036689Y-108466794D01*
X135260743Y-108559600D01*
X135503257Y-108559600D01*
X135727311Y-108466794D01*
X135898794Y-108295311D01*
X135966200Y-108132578D01*
X135966200Y-109228274D01*
X135957741Y-109270800D01*
X135957818Y-109271185D01*
X135898794Y-109128689D01*
X135727311Y-108957206D01*
X135503257Y-108864400D01*
X135260743Y-108864400D01*
X135036689Y-108957206D01*
X134865206Y-109128689D01*
X134772400Y-109352743D01*
X134772400Y-109595257D01*
X134865206Y-109819311D01*
X134950201Y-109904306D01*
X134950201Y-110193474D01*
X134941742Y-110236000D01*
X134975254Y-110404479D01*
X135046601Y-110511258D01*
X135046603Y-110511260D01*
X135070691Y-110547310D01*
X135106741Y-110571398D01*
X135554600Y-111019257D01*
X135578690Y-111055310D01*
X135721520Y-111150746D01*
X135847474Y-111175800D01*
X135847478Y-111175800D01*
X135889999Y-111184258D01*
X135932520Y-111175800D01*
X139267143Y-111175800D01*
X139517003Y-111425661D01*
X139541091Y-111461711D01*
X139577141Y-111485799D01*
X139577142Y-111485800D01*
X139648016Y-111533156D01*
X139683921Y-111557147D01*
X139809875Y-111582201D01*
X139809879Y-111582201D01*
X139852401Y-111590659D01*
X139894923Y-111582201D01*
X147379077Y-111582201D01*
X147421599Y-111590659D01*
X147464121Y-111582201D01*
X147464125Y-111582201D01*
X147590079Y-111557147D01*
X147732909Y-111461711D01*
X147756999Y-111425658D01*
X148061355Y-111121302D01*
X148085648Y-111459797D01*
X147993827Y-112089582D01*
X147768910Y-112684959D01*
X147421393Y-113218148D01*
X146967484Y-113664278D01*
X146428369Y-114002529D01*
X145813761Y-114222649D01*
X145698852Y-114246874D01*
X121246300Y-114246874D01*
X121246300Y-113416743D01*
X127152400Y-113416743D01*
X127152400Y-113659257D01*
X127245206Y-113883311D01*
X127416689Y-114054794D01*
X127640743Y-114147600D01*
X127883257Y-114147600D01*
X128107311Y-114054794D01*
X128278794Y-113883311D01*
X128371600Y-113659257D01*
X128371600Y-113416743D01*
X128278794Y-113192689D01*
X128107311Y-113021206D01*
X127883257Y-112928400D01*
X127640743Y-112928400D01*
X127416689Y-113021206D01*
X127245206Y-113192689D01*
X127152400Y-113416743D01*
X121246300Y-113416743D01*
X121246300Y-111638743D01*
X130962400Y-111638743D01*
X130962400Y-111881257D01*
X131055206Y-112105311D01*
X131226689Y-112276794D01*
X131450743Y-112369600D01*
X131693257Y-112369600D01*
X131917311Y-112276794D01*
X132088794Y-112105311D01*
X132181600Y-111881257D01*
X132181600Y-111638743D01*
X132088794Y-111414689D01*
X131917311Y-111243206D01*
X131693257Y-111150400D01*
X131450743Y-111150400D01*
X131226689Y-111243206D01*
X131055206Y-111414689D01*
X130962400Y-111638743D01*
X121246300Y-111638743D01*
X121246300Y-108848565D01*
X128926578Y-108848565D01*
X128926578Y-109091079D01*
X129019384Y-109315133D01*
X129190867Y-109486616D01*
X129414921Y-109579422D01*
X129657435Y-109579422D01*
X129881489Y-109486616D01*
X130052972Y-109315133D01*
X130145778Y-109091079D01*
X130145778Y-108848565D01*
X130052972Y-108624511D01*
X129881489Y-108453028D01*
X129657435Y-108360222D01*
X129414921Y-108360222D01*
X129190867Y-108453028D01*
X129019384Y-108624511D01*
X128926578Y-108848565D01*
X121246300Y-108848565D01*
X121246300Y-104132705D01*
X121262389Y-104148794D01*
X121486443Y-104241600D01*
X121534802Y-104241600D01*
X123137840Y-105844639D01*
X123164765Y-105884935D01*
X123266123Y-105952660D01*
X123324398Y-105991599D01*
X123512700Y-106029054D01*
X123560229Y-106019600D01*
X126328905Y-106019600D01*
X126263400Y-106177743D01*
X126263400Y-106404275D01*
X125593457Y-106404275D01*
X125545929Y-106394821D01*
X125498401Y-106404275D01*
X125357629Y-106432276D01*
X125197995Y-106538940D01*
X125189429Y-106551760D01*
X125053765Y-106495566D01*
X124811251Y-106495566D01*
X124587197Y-106588372D01*
X124415714Y-106759855D01*
X124322908Y-106983909D01*
X124322908Y-107226423D01*
X124415714Y-107450477D01*
X124587197Y-107621960D01*
X124811251Y-107714766D01*
X125053765Y-107714766D01*
X125277819Y-107621960D01*
X125306720Y-107593059D01*
X125327639Y-107597220D01*
X125375167Y-107587766D01*
X125375168Y-107587766D01*
X125515940Y-107559765D01*
X125675574Y-107453101D01*
X125702501Y-107412802D01*
X125745828Y-107369475D01*
X128232387Y-107369475D01*
X128168400Y-107523953D01*
X128168400Y-107766467D01*
X128261206Y-107990521D01*
X128432689Y-108162004D01*
X128656743Y-108254810D01*
X128899257Y-108254810D01*
X129123311Y-108162004D01*
X129294794Y-107990521D01*
X129387600Y-107766467D01*
X129387600Y-107523953D01*
X129324991Y-107372801D01*
X129341714Y-107369475D01*
X129341715Y-107369475D01*
X129482487Y-107341474D01*
X129642121Y-107234810D01*
X129669048Y-107194512D01*
X130990642Y-105872918D01*
X131030935Y-105845996D01*
X131137599Y-105686362D01*
X131165600Y-105545590D01*
X131165600Y-105545589D01*
X131175054Y-105498061D01*
X131165600Y-105450532D01*
X131165600Y-104060528D01*
X131175054Y-104013000D01*
X131165600Y-103965471D01*
X131165600Y-102106505D01*
X131199794Y-102072311D01*
X131292600Y-101848257D01*
X131292600Y-101605743D01*
X131199794Y-101381689D01*
X131028311Y-101210206D01*
X130804257Y-101117400D01*
X130561743Y-101117400D01*
X130337689Y-101210206D01*
X130166206Y-101381689D01*
X130073400Y-101605743D01*
X130073400Y-101848257D01*
X130166206Y-102072311D01*
X130200401Y-102106506D01*
X130200400Y-103530400D01*
X129612899Y-103530400D01*
X126638261Y-100555763D01*
X126611334Y-100515464D01*
X126451700Y-100408800D01*
X126310928Y-100380799D01*
X126310927Y-100380799D01*
X126263399Y-100371345D01*
X126215871Y-100380799D01*
X124654658Y-100380799D01*
X124595794Y-100238689D01*
X124424311Y-100067206D01*
X124200257Y-99974400D01*
X123957743Y-99974400D01*
X123733689Y-100067206D01*
X123562206Y-100238689D01*
X123469400Y-100462743D01*
X123469400Y-100705257D01*
X123562206Y-100929311D01*
X123733689Y-101100794D01*
X123957743Y-101193600D01*
X123998615Y-101193600D01*
X124010464Y-101211334D01*
X124134672Y-101294327D01*
X124170097Y-101317998D01*
X124358399Y-101355453D01*
X124405928Y-101345999D01*
X126063501Y-101345999D01*
X129038140Y-104320639D01*
X129065065Y-104360935D01*
X129224699Y-104467599D01*
X129365471Y-104495600D01*
X129412999Y-104505054D01*
X129460527Y-104495600D01*
X130200401Y-104495600D01*
X130200400Y-105298161D01*
X129533678Y-105964884D01*
X129530563Y-105957363D01*
X129359080Y-105785880D01*
X129135026Y-105693074D01*
X129086669Y-105693074D01*
X128622956Y-105229363D01*
X128596030Y-105189065D01*
X128436396Y-105082401D01*
X128295624Y-105054400D01*
X128295623Y-105054400D01*
X128248095Y-105044946D01*
X128200567Y-105054400D01*
X123712599Y-105054400D01*
X122899798Y-104241600D01*
X123057257Y-104241600D01*
X123281311Y-104148794D01*
X123452794Y-103977311D01*
X123545600Y-103753257D01*
X123545600Y-103510743D01*
X123452794Y-103286689D01*
X123281311Y-103115206D01*
X123057257Y-103022400D01*
X123008898Y-103022400D01*
X122897899Y-102911401D01*
X122897899Y-97764600D01*
X124261090Y-97764600D01*
X124308618Y-97774054D01*
X124356146Y-97764600D01*
X124356147Y-97764600D01*
X124496919Y-97736599D01*
X124567623Y-97689356D01*
X124567623Y-97707547D01*
X124660429Y-97931601D01*
X124831912Y-98103084D01*
X125055966Y-98195890D01*
X125298480Y-98195890D01*
X125522534Y-98103084D01*
X125694017Y-97931601D01*
X125786823Y-97707547D01*
X125786823Y-97465033D01*
X125694017Y-97240979D01*
X125522534Y-97069496D01*
X125298480Y-96976690D01*
X125296427Y-96976690D01*
X125892177Y-96380940D01*
X125932473Y-96354015D01*
X126039137Y-96194381D01*
X126067138Y-96053609D01*
X126076592Y-96006081D01*
X126067138Y-95958553D01*
X126067138Y-95737180D01*
X128852892Y-95737180D01*
X128900420Y-95746634D01*
X128947948Y-95737180D01*
X128947949Y-95737180D01*
X129088721Y-95709179D01*
X129248355Y-95602515D01*
X129275282Y-95562217D01*
X130069976Y-94767524D01*
X132519607Y-94767524D01*
X132475199Y-94874734D01*
G36*
X155435900Y-107746874D02*
X151801193Y-107746874D01*
X151682999Y-107770384D01*
X151548967Y-107859941D01*
X151459410Y-107993973D01*
X151427962Y-108152074D01*
X151459410Y-108310175D01*
X151544159Y-108437011D01*
X149707600Y-109967477D01*
X149707600Y-109860743D01*
X149614794Y-109636689D01*
X149443311Y-109465206D01*
X149242026Y-109381831D01*
X149500258Y-109123599D01*
X149536310Y-109099510D01*
X149631746Y-108956680D01*
X149656800Y-108830726D01*
X149656800Y-108830722D01*
X149665258Y-108788201D01*
X149656800Y-108745680D01*
X149656800Y-108001857D01*
X150623057Y-107035600D01*
X150743257Y-107035600D01*
X150967311Y-106942794D01*
X151138794Y-106771311D01*
X151231600Y-106547257D01*
X151231600Y-106304743D01*
X151138794Y-106080689D01*
X150967311Y-105909206D01*
X150743257Y-105816400D01*
X150500743Y-105816400D01*
X150276689Y-105909206D01*
X150105206Y-106080689D01*
X150012400Y-106304743D01*
X150012400Y-106424943D01*
X148949741Y-107487602D01*
X148913691Y-107511690D01*
X148889603Y-107547740D01*
X148889601Y-107547742D01*
X148818254Y-107654521D01*
X148784742Y-107823000D01*
X148793201Y-107865527D01*
X148793200Y-108609343D01*
X148666200Y-108736343D01*
X148666200Y-97968857D01*
X149434676Y-98737334D01*
X149458764Y-98773384D01*
X149494814Y-98797472D01*
X149494815Y-98797473D01*
X149548508Y-98833349D01*
X149601594Y-98868820D01*
X149727548Y-98893874D01*
X149727551Y-98893874D01*
X149770073Y-98902332D01*
X149812595Y-98893874D01*
X154110795Y-98893874D01*
X154195789Y-98978868D01*
X154419843Y-99071674D01*
X154662357Y-99071674D01*
X154886411Y-98978868D01*
X155057894Y-98807385D01*
X155150700Y-98583331D01*
X155150700Y-98340817D01*
X155057894Y-98116763D01*
X154886411Y-97945280D01*
X154662357Y-97852474D01*
X154419843Y-97852474D01*
X154195789Y-97945280D01*
X154110795Y-98030274D01*
X149948932Y-98030274D01*
X149821676Y-97903019D01*
X149979267Y-97745428D01*
X150072073Y-97521374D01*
X150072073Y-97278860D01*
X149979267Y-97054806D01*
X149807784Y-96883323D01*
X149583730Y-96790517D01*
X149463531Y-96790517D01*
X149421592Y-96748578D01*
X152900674Y-96748578D01*
X152943196Y-96757036D01*
X152985718Y-96748578D01*
X152985722Y-96748578D01*
X153111676Y-96723524D01*
X153254506Y-96628088D01*
X153278595Y-96592036D01*
X153516758Y-96353874D01*
X154110795Y-96353874D01*
X154195789Y-96438868D01*
X154419843Y-96531674D01*
X154662357Y-96531674D01*
X154886411Y-96438868D01*
X155057894Y-96267385D01*
X155150700Y-96043331D01*
X155150700Y-95800817D01*
X155057894Y-95576763D01*
X154886411Y-95405280D01*
X154662357Y-95312474D01*
X154419843Y-95312474D01*
X154195789Y-95405280D01*
X154110795Y-95490274D01*
X153380426Y-95490274D01*
X153337900Y-95481815D01*
X153169420Y-95515328D01*
X153062641Y-95586675D01*
X153062640Y-95586676D01*
X153026590Y-95610764D01*
X153002502Y-95646814D01*
X152764339Y-95884978D01*
X148634478Y-95884978D01*
X148029019Y-95279520D01*
X148004930Y-95243468D01*
X147862100Y-95148032D01*
X147736146Y-95122978D01*
X147736142Y-95122978D01*
X147693620Y-95114520D01*
X147651098Y-95122978D01*
X135163730Y-95122978D01*
X135166100Y-95117257D01*
X135166100Y-94874743D01*
X135121689Y-94767524D01*
X138280900Y-94767524D01*
X138410624Y-94897248D01*
X138437551Y-94937547D01*
X138561759Y-95020540D01*
X138597184Y-95044211D01*
X138785486Y-95081666D01*
X138833015Y-95072212D01*
X149710860Y-95072212D01*
X149758388Y-95081666D01*
X149805916Y-95072212D01*
X149805917Y-95072212D01*
X149946689Y-95044211D01*
X150106323Y-94937547D01*
X150133250Y-94897248D01*
X150694899Y-94335600D01*
X150743257Y-94335600D01*
X150967311Y-94242794D01*
X151138794Y-94071311D01*
X151231600Y-93847257D01*
X151231600Y-93604743D01*
X151138794Y-93380689D01*
X151026905Y-93268800D01*
X153813652Y-93268800D01*
X153856174Y-93277258D01*
X153898696Y-93268800D01*
X153898700Y-93268800D01*
X153949400Y-93258715D01*
X153949400Y-93466257D01*
X154042206Y-93690311D01*
X154213689Y-93861794D01*
X154437743Y-93954600D01*
X154680257Y-93954600D01*
X154904311Y-93861794D01*
X155075794Y-93690311D01*
X155168600Y-93466257D01*
X155168600Y-93223743D01*
X155075794Y-92999689D01*
X154904311Y-92828206D01*
X154868956Y-92813561D01*
X154958350Y-92776533D01*
X155165559Y-92569324D01*
X155277700Y-92298593D01*
X155277700Y-92005555D01*
X155165559Y-91734824D01*
X154958350Y-91527615D01*
X154687619Y-91415474D01*
X154394581Y-91415474D01*
X154123850Y-91527615D01*
X153916641Y-91734824D01*
X153804500Y-92005555D01*
X153804500Y-92278017D01*
X153677317Y-92405200D01*
X153292361Y-92405200D01*
X153343865Y-92161949D01*
X153286537Y-91853992D01*
X153278979Y-91835746D01*
X153151102Y-91793519D01*
X152792547Y-92152074D01*
X152806690Y-92166217D01*
X152567706Y-92405200D01*
X152542779Y-92405200D01*
X152541100Y-92403521D01*
X152539421Y-92405200D01*
X152514494Y-92405200D01*
X152275511Y-92166217D01*
X152289653Y-92152074D01*
X151931098Y-91793519D01*
X151803221Y-91835746D01*
X151738335Y-92142199D01*
X151787294Y-92405200D01*
X148909233Y-92405200D01*
X148908868Y-92404956D01*
X148782914Y-92379902D01*
X148782910Y-92379902D01*
X148740388Y-92371444D01*
X148697866Y-92379902D01*
X145772704Y-92379902D01*
X145803103Y-92349503D01*
X145895909Y-92125449D01*
X145895909Y-91882935D01*
X145803103Y-91658881D01*
X145686294Y-91542072D01*
X152182545Y-91542072D01*
X152541100Y-91900627D01*
X152899655Y-91542072D01*
X152857428Y-91414195D01*
X152550975Y-91349309D01*
X152243018Y-91406637D01*
X152224772Y-91414195D01*
X152182545Y-91542072D01*
X145686294Y-91542072D01*
X145631620Y-91487398D01*
X145407566Y-91394592D01*
X145165052Y-91394592D01*
X144940998Y-91487398D01*
X144906188Y-91522209D01*
X144871311Y-91487332D01*
X144647257Y-91394526D01*
X144404743Y-91394526D01*
X144180689Y-91487332D01*
X144009206Y-91658815D01*
X143916400Y-91882869D01*
X143916400Y-92125383D01*
X144009206Y-92349437D01*
X144039671Y-92379902D01*
X143335394Y-92379902D01*
X142656719Y-91701228D01*
X142632630Y-91665176D01*
X142489800Y-91569740D01*
X142363846Y-91544686D01*
X142363842Y-91544686D01*
X142321320Y-91536228D01*
X142278798Y-91544686D01*
X134796305Y-91544686D01*
X134711311Y-91459692D01*
X134487257Y-91366886D01*
X134244743Y-91366886D01*
X134020689Y-91459692D01*
X133849206Y-91631175D01*
X133756400Y-91855229D01*
X133756400Y-92097743D01*
X133849206Y-92321797D01*
X134020689Y-92493280D01*
X134244743Y-92586086D01*
X134487257Y-92586086D01*
X134518400Y-92573186D01*
X134518400Y-92631143D01*
X134611206Y-92855197D01*
X134782689Y-93026680D01*
X135006743Y-93119486D01*
X135026400Y-93119486D01*
X135026400Y-93168622D01*
X135119206Y-93392676D01*
X135290689Y-93564159D01*
X135514743Y-93656965D01*
X135757257Y-93656965D01*
X135981311Y-93564159D01*
X136017001Y-93528469D01*
X136052689Y-93564157D01*
X136276743Y-93656963D01*
X136519257Y-93656963D01*
X136743311Y-93564157D01*
X136914794Y-93392674D01*
X137007600Y-93168620D01*
X137007600Y-92926106D01*
X136914794Y-92702052D01*
X136743311Y-92530569D01*
X136519257Y-92437763D01*
X136276743Y-92437763D01*
X136052689Y-92530569D01*
X136016999Y-92566259D01*
X135981311Y-92530571D01*
X135757257Y-92437765D01*
X135737600Y-92437765D01*
X135737600Y-92408286D01*
X142142463Y-92408286D01*
X142350679Y-92616503D01*
X142345522Y-92618639D01*
X142174039Y-92790122D01*
X142081233Y-93014176D01*
X142081233Y-93237034D01*
X139849125Y-93237034D01*
X139750846Y-93138755D01*
X139726756Y-93102702D01*
X139583926Y-93007266D01*
X139457972Y-92982212D01*
X139457968Y-92982212D01*
X139415446Y-92973754D01*
X139372924Y-92982212D01*
X138675749Y-92982212D01*
X138633227Y-92973754D01*
X138590705Y-92982212D01*
X138590701Y-92982212D01*
X138473731Y-93005479D01*
X138464747Y-93007266D01*
X138357968Y-93078613D01*
X138357967Y-93078614D01*
X138350189Y-93083811D01*
X138232571Y-93083811D01*
X138008517Y-93176617D01*
X137837034Y-93348100D01*
X137744228Y-93572154D01*
X137744228Y-93802324D01*
X129917605Y-93802324D01*
X129870076Y-93792870D01*
X129681775Y-93830325D01*
X129643401Y-93855966D01*
X129522141Y-93936989D01*
X129495218Y-93977282D01*
X128700522Y-94771980D01*
X125632067Y-94771980D01*
X125584538Y-94762526D01*
X125537009Y-94771980D01*
X125396237Y-94799981D01*
X125236603Y-94906645D01*
X125129939Y-95066279D01*
X125092484Y-95254580D01*
X125101938Y-95302110D01*
X125101939Y-95806180D01*
X124108720Y-96799400D01*
X122986801Y-96799400D01*
X122986801Y-94620743D01*
X123936567Y-94620743D01*
X123936567Y-94863257D01*
X124029373Y-95087311D01*
X124200856Y-95258794D01*
X124424910Y-95351600D01*
X124667424Y-95351600D01*
X124891478Y-95258794D01*
X125062961Y-95087311D01*
X125155767Y-94863257D01*
X125155767Y-94620743D01*
X125062961Y-94396689D01*
X124891478Y-94225206D01*
X124667424Y-94132400D01*
X124424910Y-94132400D01*
X124200856Y-94225206D01*
X124029373Y-94396689D01*
X123936567Y-94620743D01*
X122986801Y-94620743D01*
X122986801Y-92548158D01*
X122996255Y-92500630D01*
X122981675Y-92427333D01*
X122958800Y-92312330D01*
X122896743Y-92219456D01*
X122900311Y-92217978D01*
X123071794Y-92046495D01*
X123164600Y-91822441D01*
X123164600Y-91579927D01*
X123071794Y-91355873D01*
X122900311Y-91184390D01*
X122676257Y-91091584D01*
X122433743Y-91091584D01*
X122275600Y-91157089D01*
X122275600Y-90720817D01*
X153416000Y-90720817D01*
X153416000Y-90963331D01*
X153508806Y-91187385D01*
X153680289Y-91358868D01*
X153904343Y-91451674D01*
X154146857Y-91451674D01*
X154370911Y-91358868D01*
X154542394Y-91187385D01*
X154635200Y-90963331D01*
X154635200Y-90720817D01*
X154542394Y-90496763D01*
X154370911Y-90325280D01*
X154146857Y-90232474D01*
X153904343Y-90232474D01*
X153680289Y-90325280D01*
X153508806Y-90496763D01*
X153416000Y-90720817D01*
X122275600Y-90720817D01*
X122275600Y-90168505D01*
X122309794Y-90134311D01*
X122402600Y-89910257D01*
X122402600Y-89667743D01*
X122345122Y-89528978D01*
X122437136Y-89490864D01*
X122454863Y-89473137D01*
X122553146Y-89516383D01*
X122684476Y-89519248D01*
X123935182Y-89298714D01*
X124057612Y-89251104D01*
X124140197Y-89172046D01*
X124199816Y-89196741D01*
X124583796Y-89196741D01*
X124938548Y-89049798D01*
X125082603Y-88905743D01*
X132257780Y-88905743D01*
X132257780Y-89148257D01*
X132350586Y-89372311D01*
X132522069Y-89543794D01*
X132746123Y-89636600D01*
X132988637Y-89636600D01*
X133212691Y-89543794D01*
X133384174Y-89372311D01*
X133476980Y-89148257D01*
X133476980Y-88905743D01*
X133384174Y-88681689D01*
X133227228Y-88524743D01*
X140868400Y-88524743D01*
X140868400Y-88767257D01*
X140961206Y-88991311D01*
X141132689Y-89162794D01*
X141356743Y-89255600D01*
X141599257Y-89255600D01*
X141823311Y-89162794D01*
X141994794Y-88991311D01*
X142087600Y-88767257D01*
X142087600Y-88524743D01*
X142002079Y-88318276D01*
X142118743Y-88366600D01*
X142361257Y-88366600D01*
X142585311Y-88273794D01*
X142756794Y-88102311D01*
X142849600Y-87878257D01*
X142849600Y-87635743D01*
X142756794Y-87411689D01*
X142585311Y-87240206D01*
X142361257Y-87147400D01*
X142118743Y-87147400D01*
X141894689Y-87240206D01*
X141723206Y-87411689D01*
X141630400Y-87635743D01*
X141630400Y-87878257D01*
X141715921Y-88084724D01*
X141599257Y-88036400D01*
X141356743Y-88036400D01*
X141132689Y-88129206D01*
X140961206Y-88300689D01*
X140868400Y-88524743D01*
X133227228Y-88524743D01*
X133212691Y-88510206D01*
X132988637Y-88417400D01*
X132746123Y-88417400D01*
X132522069Y-88510206D01*
X132350586Y-88681689D01*
X132257780Y-88905743D01*
X125082603Y-88905743D01*
X125210063Y-88778283D01*
X125357006Y-88423531D01*
X125357006Y-88039551D01*
X125306398Y-87917372D01*
X125428577Y-87967980D01*
X125812557Y-87967980D01*
X126167309Y-87821037D01*
X126438824Y-87549522D01*
X126521280Y-87350455D01*
X129212042Y-87350455D01*
X129212042Y-87592969D01*
X129304848Y-87817023D01*
X129476331Y-87988506D01*
X129700385Y-88081312D01*
X129942899Y-88081312D01*
X130166953Y-87988506D01*
X130271604Y-87883855D01*
X130835400Y-87883855D01*
X130835400Y-88126369D01*
X130928206Y-88350423D01*
X131099689Y-88521906D01*
X131323743Y-88614712D01*
X131566257Y-88614712D01*
X131790311Y-88521906D01*
X131961794Y-88350423D01*
X132054600Y-88126369D01*
X132054600Y-87883855D01*
X131961794Y-87659801D01*
X131790311Y-87488318D01*
X131566257Y-87395512D01*
X131323743Y-87395512D01*
X131099689Y-87488318D01*
X130928206Y-87659801D01*
X130835400Y-87883855D01*
X130271604Y-87883855D01*
X130338436Y-87817023D01*
X130431242Y-87592969D01*
X130431242Y-87350455D01*
X130338436Y-87126401D01*
X130166953Y-86954918D01*
X129942899Y-86862112D01*
X129700385Y-86862112D01*
X129476331Y-86954918D01*
X129304848Y-87126401D01*
X129212042Y-87350455D01*
X126521280Y-87350455D01*
X126585767Y-87194770D01*
X126585767Y-86810790D01*
X126561072Y-86751171D01*
X126640130Y-86668586D01*
X126687740Y-86546156D01*
X126782646Y-86007916D01*
X151210900Y-86007916D01*
X151210900Y-86696232D01*
X151474307Y-87332154D01*
X151961020Y-87818867D01*
X152596942Y-88082274D01*
X153285258Y-88082274D01*
X153921180Y-87818867D01*
X154407893Y-87332154D01*
X154671300Y-86696232D01*
X154671300Y-86007916D01*
X154407893Y-85371994D01*
X153921180Y-84885281D01*
X153285258Y-84621874D01*
X152596942Y-84621874D01*
X151961020Y-84885281D01*
X151474307Y-85371994D01*
X151210900Y-86007916D01*
X126782646Y-86007916D01*
X126908274Y-85295450D01*
X126905409Y-85164120D01*
X126862163Y-85065837D01*
X126879890Y-85048110D01*
X127026833Y-84693358D01*
X127026833Y-84309378D01*
X126879890Y-83954626D01*
X126782538Y-83857274D01*
X155435901Y-83857274D01*
X155435900Y-107746874D01*
X155435900Y-107746874D01*
G37*
X155435900Y-107746874D02*
X151801193Y-107746874D01*
X151682999Y-107770384D01*
X151548967Y-107859941D01*
X151459410Y-107993973D01*
X151427962Y-108152074D01*
X151459410Y-108310175D01*
X151544159Y-108437011D01*
X149707600Y-109967477D01*
X149707600Y-109860743D01*
X149614794Y-109636689D01*
X149443311Y-109465206D01*
X149242026Y-109381831D01*
X149500258Y-109123599D01*
X149536310Y-109099510D01*
X149631746Y-108956680D01*
X149656800Y-108830726D01*
X149656800Y-108830722D01*
X149665258Y-108788201D01*
X149656800Y-108745680D01*
X149656800Y-108001857D01*
X150623057Y-107035600D01*
X150743257Y-107035600D01*
X150967311Y-106942794D01*
X151138794Y-106771311D01*
X151231600Y-106547257D01*
X151231600Y-106304743D01*
X151138794Y-106080689D01*
X150967311Y-105909206D01*
X150743257Y-105816400D01*
X150500743Y-105816400D01*
X150276689Y-105909206D01*
X150105206Y-106080689D01*
X150012400Y-106304743D01*
X150012400Y-106424943D01*
X148949741Y-107487602D01*
X148913691Y-107511690D01*
X148889603Y-107547740D01*
X148889601Y-107547742D01*
X148818254Y-107654521D01*
X148784742Y-107823000D01*
X148793201Y-107865527D01*
X148793200Y-108609343D01*
X148666200Y-108736343D01*
X148666200Y-97968857D01*
X149434676Y-98737334D01*
X149458764Y-98773384D01*
X149494814Y-98797472D01*
X149494815Y-98797473D01*
X149548508Y-98833349D01*
X149601594Y-98868820D01*
X149727548Y-98893874D01*
X149727551Y-98893874D01*
X149770073Y-98902332D01*
X149812595Y-98893874D01*
X154110795Y-98893874D01*
X154195789Y-98978868D01*
X154419843Y-99071674D01*
X154662357Y-99071674D01*
X154886411Y-98978868D01*
X155057894Y-98807385D01*
X155150700Y-98583331D01*
X155150700Y-98340817D01*
X155057894Y-98116763D01*
X154886411Y-97945280D01*
X154662357Y-97852474D01*
X154419843Y-97852474D01*
X154195789Y-97945280D01*
X154110795Y-98030274D01*
X149948932Y-98030274D01*
X149821676Y-97903019D01*
X149979267Y-97745428D01*
X150072073Y-97521374D01*
X150072073Y-97278860D01*
X149979267Y-97054806D01*
X149807784Y-96883323D01*
X149583730Y-96790517D01*
X149463531Y-96790517D01*
X149421592Y-96748578D01*
X152900674Y-96748578D01*
X152943196Y-96757036D01*
X152985718Y-96748578D01*
X152985722Y-96748578D01*
X153111676Y-96723524D01*
X153254506Y-96628088D01*
X153278595Y-96592036D01*
X153516758Y-96353874D01*
X154110795Y-96353874D01*
X154195789Y-96438868D01*
X154419843Y-96531674D01*
X154662357Y-96531674D01*
X154886411Y-96438868D01*
X155057894Y-96267385D01*
X155150700Y-96043331D01*
X155150700Y-95800817D01*
X155057894Y-95576763D01*
X154886411Y-95405280D01*
X154662357Y-95312474D01*
X154419843Y-95312474D01*
X154195789Y-95405280D01*
X154110795Y-95490274D01*
X153380426Y-95490274D01*
X153337900Y-95481815D01*
X153169420Y-95515328D01*
X153062641Y-95586675D01*
X153062640Y-95586676D01*
X153026590Y-95610764D01*
X153002502Y-95646814D01*
X152764339Y-95884978D01*
X148634478Y-95884978D01*
X148029019Y-95279520D01*
X148004930Y-95243468D01*
X147862100Y-95148032D01*
X147736146Y-95122978D01*
X147736142Y-95122978D01*
X147693620Y-95114520D01*
X147651098Y-95122978D01*
X135163730Y-95122978D01*
X135166100Y-95117257D01*
X135166100Y-94874743D01*
X135121689Y-94767524D01*
X138280900Y-94767524D01*
X138410624Y-94897248D01*
X138437551Y-94937547D01*
X138561759Y-95020540D01*
X138597184Y-95044211D01*
X138785486Y-95081666D01*
X138833015Y-95072212D01*
X149710860Y-95072212D01*
X149758388Y-95081666D01*
X149805916Y-95072212D01*
X149805917Y-95072212D01*
X149946689Y-95044211D01*
X150106323Y-94937547D01*
X150133250Y-94897248D01*
X150694899Y-94335600D01*
X150743257Y-94335600D01*
X150967311Y-94242794D01*
X151138794Y-94071311D01*
X151231600Y-93847257D01*
X151231600Y-93604743D01*
X151138794Y-93380689D01*
X151026905Y-93268800D01*
X153813652Y-93268800D01*
X153856174Y-93277258D01*
X153898696Y-93268800D01*
X153898700Y-93268800D01*
X153949400Y-93258715D01*
X153949400Y-93466257D01*
X154042206Y-93690311D01*
X154213689Y-93861794D01*
X154437743Y-93954600D01*
X154680257Y-93954600D01*
X154904311Y-93861794D01*
X155075794Y-93690311D01*
X155168600Y-93466257D01*
X155168600Y-93223743D01*
X155075794Y-92999689D01*
X154904311Y-92828206D01*
X154868956Y-92813561D01*
X154958350Y-92776533D01*
X155165559Y-92569324D01*
X155277700Y-92298593D01*
X155277700Y-92005555D01*
X155165559Y-91734824D01*
X154958350Y-91527615D01*
X154687619Y-91415474D01*
X154394581Y-91415474D01*
X154123850Y-91527615D01*
X153916641Y-91734824D01*
X153804500Y-92005555D01*
X153804500Y-92278017D01*
X153677317Y-92405200D01*
X153292361Y-92405200D01*
X153343865Y-92161949D01*
X153286537Y-91853992D01*
X153278979Y-91835746D01*
X153151102Y-91793519D01*
X152792547Y-92152074D01*
X152806690Y-92166217D01*
X152567706Y-92405200D01*
X152542779Y-92405200D01*
X152541100Y-92403521D01*
X152539421Y-92405200D01*
X152514494Y-92405200D01*
X152275511Y-92166217D01*
X152289653Y-92152074D01*
X151931098Y-91793519D01*
X151803221Y-91835746D01*
X151738335Y-92142199D01*
X151787294Y-92405200D01*
X148909233Y-92405200D01*
X148908868Y-92404956D01*
X148782914Y-92379902D01*
X148782910Y-92379902D01*
X148740388Y-92371444D01*
X148697866Y-92379902D01*
X145772704Y-92379902D01*
X145803103Y-92349503D01*
X145895909Y-92125449D01*
X145895909Y-91882935D01*
X145803103Y-91658881D01*
X145686294Y-91542072D01*
X152182545Y-91542072D01*
X152541100Y-91900627D01*
X152899655Y-91542072D01*
X152857428Y-91414195D01*
X152550975Y-91349309D01*
X152243018Y-91406637D01*
X152224772Y-91414195D01*
X152182545Y-91542072D01*
X145686294Y-91542072D01*
X145631620Y-91487398D01*
X145407566Y-91394592D01*
X145165052Y-91394592D01*
X144940998Y-91487398D01*
X144906188Y-91522209D01*
X144871311Y-91487332D01*
X144647257Y-91394526D01*
X144404743Y-91394526D01*
X144180689Y-91487332D01*
X144009206Y-91658815D01*
X143916400Y-91882869D01*
X143916400Y-92125383D01*
X144009206Y-92349437D01*
X144039671Y-92379902D01*
X143335394Y-92379902D01*
X142656719Y-91701228D01*
X142632630Y-91665176D01*
X142489800Y-91569740D01*
X142363846Y-91544686D01*
X142363842Y-91544686D01*
X142321320Y-91536228D01*
X142278798Y-91544686D01*
X134796305Y-91544686D01*
X134711311Y-91459692D01*
X134487257Y-91366886D01*
X134244743Y-91366886D01*
X134020689Y-91459692D01*
X133849206Y-91631175D01*
X133756400Y-91855229D01*
X133756400Y-92097743D01*
X133849206Y-92321797D01*
X134020689Y-92493280D01*
X134244743Y-92586086D01*
X134487257Y-92586086D01*
X134518400Y-92573186D01*
X134518400Y-92631143D01*
X134611206Y-92855197D01*
X134782689Y-93026680D01*
X135006743Y-93119486D01*
X135026400Y-93119486D01*
X135026400Y-93168622D01*
X135119206Y-93392676D01*
X135290689Y-93564159D01*
X135514743Y-93656965D01*
X135757257Y-93656965D01*
X135981311Y-93564159D01*
X136017001Y-93528469D01*
X136052689Y-93564157D01*
X136276743Y-93656963D01*
X136519257Y-93656963D01*
X136743311Y-93564157D01*
X136914794Y-93392674D01*
X137007600Y-93168620D01*
X137007600Y-92926106D01*
X136914794Y-92702052D01*
X136743311Y-92530569D01*
X136519257Y-92437763D01*
X136276743Y-92437763D01*
X136052689Y-92530569D01*
X136016999Y-92566259D01*
X135981311Y-92530571D01*
X135757257Y-92437765D01*
X135737600Y-92437765D01*
X135737600Y-92408286D01*
X142142463Y-92408286D01*
X142350679Y-92616503D01*
X142345522Y-92618639D01*
X142174039Y-92790122D01*
X142081233Y-93014176D01*
X142081233Y-93237034D01*
X139849125Y-93237034D01*
X139750846Y-93138755D01*
X139726756Y-93102702D01*
X139583926Y-93007266D01*
X139457972Y-92982212D01*
X139457968Y-92982212D01*
X139415446Y-92973754D01*
X139372924Y-92982212D01*
X138675749Y-92982212D01*
X138633227Y-92973754D01*
X138590705Y-92982212D01*
X138590701Y-92982212D01*
X138473731Y-93005479D01*
X138464747Y-93007266D01*
X138357968Y-93078613D01*
X138357967Y-93078614D01*
X138350189Y-93083811D01*
X138232571Y-93083811D01*
X138008517Y-93176617D01*
X137837034Y-93348100D01*
X137744228Y-93572154D01*
X137744228Y-93802324D01*
X129917605Y-93802324D01*
X129870076Y-93792870D01*
X129681775Y-93830325D01*
X129643401Y-93855966D01*
X129522141Y-93936989D01*
X129495218Y-93977282D01*
X128700522Y-94771980D01*
X125632067Y-94771980D01*
X125584538Y-94762526D01*
X125537009Y-94771980D01*
X125396237Y-94799981D01*
X125236603Y-94906645D01*
X125129939Y-95066279D01*
X125092484Y-95254580D01*
X125101938Y-95302110D01*
X125101939Y-95806180D01*
X124108720Y-96799400D01*
X122986801Y-96799400D01*
X122986801Y-94620743D01*
X123936567Y-94620743D01*
X123936567Y-94863257D01*
X124029373Y-95087311D01*
X124200856Y-95258794D01*
X124424910Y-95351600D01*
X124667424Y-95351600D01*
X124891478Y-95258794D01*
X125062961Y-95087311D01*
X125155767Y-94863257D01*
X125155767Y-94620743D01*
X125062961Y-94396689D01*
X124891478Y-94225206D01*
X124667424Y-94132400D01*
X124424910Y-94132400D01*
X124200856Y-94225206D01*
X124029373Y-94396689D01*
X123936567Y-94620743D01*
X122986801Y-94620743D01*
X122986801Y-92548158D01*
X122996255Y-92500630D01*
X122981675Y-92427333D01*
X122958800Y-92312330D01*
X122896743Y-92219456D01*
X122900311Y-92217978D01*
X123071794Y-92046495D01*
X123164600Y-91822441D01*
X123164600Y-91579927D01*
X123071794Y-91355873D01*
X122900311Y-91184390D01*
X122676257Y-91091584D01*
X122433743Y-91091584D01*
X122275600Y-91157089D01*
X122275600Y-90720817D01*
X153416000Y-90720817D01*
X153416000Y-90963331D01*
X153508806Y-91187385D01*
X153680289Y-91358868D01*
X153904343Y-91451674D01*
X154146857Y-91451674D01*
X154370911Y-91358868D01*
X154542394Y-91187385D01*
X154635200Y-90963331D01*
X154635200Y-90720817D01*
X154542394Y-90496763D01*
X154370911Y-90325280D01*
X154146857Y-90232474D01*
X153904343Y-90232474D01*
X153680289Y-90325280D01*
X153508806Y-90496763D01*
X153416000Y-90720817D01*
X122275600Y-90720817D01*
X122275600Y-90168505D01*
X122309794Y-90134311D01*
X122402600Y-89910257D01*
X122402600Y-89667743D01*
X122345122Y-89528978D01*
X122437136Y-89490864D01*
X122454863Y-89473137D01*
X122553146Y-89516383D01*
X122684476Y-89519248D01*
X123935182Y-89298714D01*
X124057612Y-89251104D01*
X124140197Y-89172046D01*
X124199816Y-89196741D01*
X124583796Y-89196741D01*
X124938548Y-89049798D01*
X125082603Y-88905743D01*
X132257780Y-88905743D01*
X132257780Y-89148257D01*
X132350586Y-89372311D01*
X132522069Y-89543794D01*
X132746123Y-89636600D01*
X132988637Y-89636600D01*
X133212691Y-89543794D01*
X133384174Y-89372311D01*
X133476980Y-89148257D01*
X133476980Y-88905743D01*
X133384174Y-88681689D01*
X133227228Y-88524743D01*
X140868400Y-88524743D01*
X140868400Y-88767257D01*
X140961206Y-88991311D01*
X141132689Y-89162794D01*
X141356743Y-89255600D01*
X141599257Y-89255600D01*
X141823311Y-89162794D01*
X141994794Y-88991311D01*
X142087600Y-88767257D01*
X142087600Y-88524743D01*
X142002079Y-88318276D01*
X142118743Y-88366600D01*
X142361257Y-88366600D01*
X142585311Y-88273794D01*
X142756794Y-88102311D01*
X142849600Y-87878257D01*
X142849600Y-87635743D01*
X142756794Y-87411689D01*
X142585311Y-87240206D01*
X142361257Y-87147400D01*
X142118743Y-87147400D01*
X141894689Y-87240206D01*
X141723206Y-87411689D01*
X141630400Y-87635743D01*
X141630400Y-87878257D01*
X141715921Y-88084724D01*
X141599257Y-88036400D01*
X141356743Y-88036400D01*
X141132689Y-88129206D01*
X140961206Y-88300689D01*
X140868400Y-88524743D01*
X133227228Y-88524743D01*
X133212691Y-88510206D01*
X132988637Y-88417400D01*
X132746123Y-88417400D01*
X132522069Y-88510206D01*
X132350586Y-88681689D01*
X132257780Y-88905743D01*
X125082603Y-88905743D01*
X125210063Y-88778283D01*
X125357006Y-88423531D01*
X125357006Y-88039551D01*
X125306398Y-87917372D01*
X125428577Y-87967980D01*
X125812557Y-87967980D01*
X126167309Y-87821037D01*
X126438824Y-87549522D01*
X126521280Y-87350455D01*
X129212042Y-87350455D01*
X129212042Y-87592969D01*
X129304848Y-87817023D01*
X129476331Y-87988506D01*
X129700385Y-88081312D01*
X129942899Y-88081312D01*
X130166953Y-87988506D01*
X130271604Y-87883855D01*
X130835400Y-87883855D01*
X130835400Y-88126369D01*
X130928206Y-88350423D01*
X131099689Y-88521906D01*
X131323743Y-88614712D01*
X131566257Y-88614712D01*
X131790311Y-88521906D01*
X131961794Y-88350423D01*
X132054600Y-88126369D01*
X132054600Y-87883855D01*
X131961794Y-87659801D01*
X131790311Y-87488318D01*
X131566257Y-87395512D01*
X131323743Y-87395512D01*
X131099689Y-87488318D01*
X130928206Y-87659801D01*
X130835400Y-87883855D01*
X130271604Y-87883855D01*
X130338436Y-87817023D01*
X130431242Y-87592969D01*
X130431242Y-87350455D01*
X130338436Y-87126401D01*
X130166953Y-86954918D01*
X129942899Y-86862112D01*
X129700385Y-86862112D01*
X129476331Y-86954918D01*
X129304848Y-87126401D01*
X129212042Y-87350455D01*
X126521280Y-87350455D01*
X126585767Y-87194770D01*
X126585767Y-86810790D01*
X126561072Y-86751171D01*
X126640130Y-86668586D01*
X126687740Y-86546156D01*
X126782646Y-86007916D01*
X151210900Y-86007916D01*
X151210900Y-86696232D01*
X151474307Y-87332154D01*
X151961020Y-87818867D01*
X152596942Y-88082274D01*
X153285258Y-88082274D01*
X153921180Y-87818867D01*
X154407893Y-87332154D01*
X154671300Y-86696232D01*
X154671300Y-86007916D01*
X154407893Y-85371994D01*
X153921180Y-84885281D01*
X153285258Y-84621874D01*
X152596942Y-84621874D01*
X151961020Y-84885281D01*
X151474307Y-85371994D01*
X151210900Y-86007916D01*
X126782646Y-86007916D01*
X126908274Y-85295450D01*
X126905409Y-85164120D01*
X126862163Y-85065837D01*
X126879890Y-85048110D01*
X127026833Y-84693358D01*
X127026833Y-84309378D01*
X126879890Y-83954626D01*
X126782538Y-83857274D01*
X155435901Y-83857274D01*
X155435900Y-107746874D01*
G36*
X121276206Y-94706311D02*
X121447689Y-94877794D01*
X121671743Y-94970600D01*
X121914257Y-94970600D01*
X122021601Y-94926137D01*
X122021601Y-95656400D01*
X121798743Y-95656400D01*
X121574689Y-95749206D01*
X121403206Y-95920689D01*
X121310400Y-96144743D01*
X121310400Y-96387257D01*
X121403206Y-96611311D01*
X121574689Y-96782794D01*
X121798743Y-96875600D01*
X122021601Y-96875600D01*
X122021601Y-97002554D01*
X121960700Y-97093699D01*
X121923245Y-97282000D01*
X121932700Y-97329534D01*
X121932699Y-103063771D01*
X121924793Y-103103518D01*
X121728957Y-103022400D01*
X121486443Y-103022400D01*
X121262389Y-103115206D01*
X121246300Y-103131295D01*
X121246300Y-94634111D01*
X121276206Y-94706311D01*
X121276206Y-94706311D01*
G37*
X121276206Y-94706311D02*
X121447689Y-94877794D01*
X121671743Y-94970600D01*
X121914257Y-94970600D01*
X122021601Y-94926137D01*
X122021601Y-95656400D01*
X121798743Y-95656400D01*
X121574689Y-95749206D01*
X121403206Y-95920689D01*
X121310400Y-96144743D01*
X121310400Y-96387257D01*
X121403206Y-96611311D01*
X121574689Y-96782794D01*
X121798743Y-96875600D01*
X122021601Y-96875600D01*
X122021601Y-97002554D01*
X121960700Y-97093699D01*
X121923245Y-97282000D01*
X121932700Y-97329534D01*
X121932699Y-103063771D01*
X121924793Y-103103518D01*
X121728957Y-103022400D01*
X121486443Y-103022400D01*
X121262389Y-103115206D01*
X121246300Y-103131295D01*
X121246300Y-94634111D01*
X121276206Y-94706311D01*
G36*
X147890142Y-93481747D02*
X147982948Y-93705801D01*
X148154431Y-93877284D01*
X148378485Y-93970090D01*
X148576051Y-93970090D01*
X148607504Y-94046025D01*
X148668491Y-94107012D01*
X145497440Y-94107012D01*
X145558427Y-94046025D01*
X145651233Y-93821971D01*
X145651233Y-93579457D01*
X145558427Y-93355403D01*
X145446526Y-93243502D01*
X147890142Y-93243502D01*
X147890142Y-93481747D01*
X147890142Y-93481747D01*
G37*
X147890142Y-93481747D02*
X147982948Y-93705801D01*
X148154431Y-93877284D01*
X148378485Y-93970090D01*
X148576051Y-93970090D01*
X148607504Y-94046025D01*
X148668491Y-94107012D01*
X145497440Y-94107012D01*
X145558427Y-94046025D01*
X145651233Y-93821971D01*
X145651233Y-93579457D01*
X145558427Y-93355403D01*
X145446526Y-93243502D01*
X147890142Y-93243502D01*
X147890142Y-93481747D01*
G36*
X121276206Y-90134311D02*
X121310400Y-90168505D01*
X121310400Y-90231659D01*
X121310401Y-90231664D01*
X121310400Y-91741902D01*
X121300946Y-91789430D01*
X121310400Y-91836958D01*
X121338401Y-91977730D01*
X121445065Y-92137365D01*
X121485364Y-92164292D01*
X122021602Y-92700531D01*
X122021602Y-93795864D01*
X121914257Y-93751400D01*
X121671743Y-93751400D01*
X121447689Y-93844206D01*
X121276206Y-94015689D01*
X121246300Y-94087889D01*
X121246300Y-90062111D01*
X121276206Y-90134311D01*
X121276206Y-90134311D01*
G37*
X121276206Y-90134311D02*
X121310400Y-90168505D01*
X121310400Y-90231659D01*
X121310401Y-90231664D01*
X121310400Y-91741902D01*
X121300946Y-91789430D01*
X121310400Y-91836958D01*
X121338401Y-91977730D01*
X121445065Y-92137365D01*
X121485364Y-92164292D01*
X122021602Y-92700531D01*
X122021602Y-93795864D01*
X121914257Y-93751400D01*
X121671743Y-93751400D01*
X121447689Y-93844206D01*
X121276206Y-94015689D01*
X121246300Y-94087889D01*
X121246300Y-90062111D01*
X121276206Y-90134311D01*
G04 #@! TD*
M02*
