G04 #@! TF.GenerationSoftware,KiCad,Pcbnew,(5.0.0-rc2-92-g9552e0272)*
G04 #@! TF.CreationDate,2018-06-17T01:32:07-07:00*
G04 #@! TF.ProjectId,sprite,7370726974652E6B696361645F706362,rev?*
G04 #@! TF.SameCoordinates,Original*
G04 #@! TF.FileFunction,Soldermask,Bot*
G04 #@! TF.FilePolarity,Negative*
%FSLAX46Y46*%
G04 Gerber Fmt 4.6, Leading zero omitted, Abs format (unit mm)*
G04 Created by KiCad (PCBNEW (5.0.0-rc2-92-g9552e0272)) date Sun Jun 17 01:32:07 2018*
%MOMM*%
%LPD*%
G01*
G04 APERTURE LIST*
%ADD10C,0.508000*%
%ADD11C,0.076200*%
%ADD12C,0.473200*%
%ADD13R,1.013200X1.903200*%
%ADD14R,1.103200X0.903200*%
%ADD15C,0.463200*%
%ADD16R,3.003200X3.003200*%
%ADD17R,0.903200X1.103200*%
%ADD18R,2.203200X1.203200*%
%ADD19R,1.203200X2.203200*%
%ADD20C,1.016000*%
%ADD21C,1.524000*%
%ADD22R,6.654800X3.454400*%
%ADD23R,1.473200X0.838200*%
%ADD24C,1.473200*%
%ADD25C,3.200000*%
G04 APERTURE END LIST*
D10*
G04 #@! TO.C,L1*
X122453400Y-91922600D03*
D11*
G36*
X122586198Y-94076237D02*
X122571566Y-94074796D01*
X122533108Y-94067146D01*
X122519039Y-94062878D01*
X122482820Y-94047875D01*
X122469853Y-94040944D01*
X122439244Y-94020775D01*
X122429256Y-94012790D01*
X122416394Y-94001575D01*
X121908394Y-93518975D01*
X121894851Y-93504782D01*
X121885235Y-93493660D01*
X121862618Y-93461622D01*
X121855357Y-93448837D01*
X121839429Y-93413007D01*
X121834802Y-93399051D01*
X121825870Y-93358262D01*
X121824030Y-93341750D01*
X121822800Y-93319600D01*
X121822800Y-90601800D01*
X121823763Y-90582198D01*
X121825204Y-90567566D01*
X121832854Y-90529108D01*
X121837122Y-90515039D01*
X121852125Y-90478820D01*
X121859056Y-90465853D01*
X121880838Y-90433253D01*
X121890165Y-90421888D01*
X121903346Y-90407346D01*
X122436746Y-89873946D01*
X122451288Y-89860765D01*
X122462653Y-89851438D01*
X122495253Y-89829656D01*
X122508220Y-89822725D01*
X122544439Y-89807722D01*
X122558508Y-89803454D01*
X122596966Y-89795804D01*
X122611598Y-89794363D01*
X122631200Y-89793400D01*
X123393200Y-89793400D01*
X123412802Y-89794363D01*
X123427434Y-89795804D01*
X123465892Y-89803454D01*
X123479961Y-89807722D01*
X123516180Y-89822725D01*
X123529147Y-89829656D01*
X123561747Y-89851438D01*
X123573112Y-89860765D01*
X123600835Y-89888488D01*
X123610162Y-89899853D01*
X123631944Y-89932453D01*
X123638875Y-89945420D01*
X123653878Y-89981639D01*
X123658146Y-89995708D01*
X123665796Y-90034166D01*
X123667237Y-90048798D01*
X123668200Y-90068400D01*
X123668200Y-90754200D01*
X123667237Y-90773802D01*
X123665796Y-90788434D01*
X123658146Y-90826892D01*
X123653878Y-90840961D01*
X123638875Y-90877180D01*
X123631944Y-90890147D01*
X123611563Y-90921020D01*
X123603401Y-90931194D01*
X123591926Y-90944287D01*
X123109400Y-91448746D01*
X123109400Y-92447254D01*
X123591926Y-92951713D01*
X123604779Y-92966543D01*
X123613852Y-92978113D01*
X123634905Y-93011189D01*
X123641546Y-93024306D01*
X123655744Y-93060859D01*
X123659698Y-93075020D01*
X123666309Y-93111418D01*
X123667443Y-93124412D01*
X123668200Y-93141800D01*
X123668200Y-93802200D01*
X123667237Y-93821802D01*
X123665796Y-93836434D01*
X123658146Y-93874892D01*
X123653878Y-93888961D01*
X123638875Y-93925180D01*
X123631944Y-93938147D01*
X123610162Y-93970747D01*
X123600835Y-93982112D01*
X123573112Y-94009835D01*
X123561747Y-94019162D01*
X123529147Y-94040944D01*
X123516180Y-94047875D01*
X123479961Y-94062878D01*
X123465892Y-94067146D01*
X123427434Y-94074796D01*
X123412802Y-94076237D01*
X123393200Y-94077200D01*
X122605800Y-94077200D01*
X122586198Y-94076237D01*
X122586198Y-94076237D01*
G37*
D10*
X126009400Y-91973400D03*
D11*
G36*
X125876602Y-89819763D02*
X125891234Y-89821204D01*
X125929692Y-89828854D01*
X125943761Y-89833122D01*
X125979980Y-89848125D01*
X125992947Y-89855056D01*
X126023556Y-89875225D01*
X126033544Y-89883210D01*
X126046406Y-89894425D01*
X126554406Y-90377025D01*
X126567949Y-90391218D01*
X126577565Y-90402340D01*
X126600182Y-90434378D01*
X126607443Y-90447163D01*
X126623371Y-90482993D01*
X126627998Y-90496949D01*
X126636930Y-90537738D01*
X126638770Y-90554250D01*
X126640000Y-90576400D01*
X126640000Y-93294200D01*
X126639037Y-93313802D01*
X126637596Y-93328434D01*
X126629946Y-93366892D01*
X126625678Y-93380961D01*
X126610675Y-93417180D01*
X126603744Y-93430147D01*
X126581962Y-93462747D01*
X126572635Y-93474112D01*
X126559454Y-93488654D01*
X126026054Y-94022054D01*
X126011512Y-94035235D01*
X126000147Y-94044562D01*
X125967547Y-94066344D01*
X125954580Y-94073275D01*
X125918361Y-94088278D01*
X125904292Y-94092546D01*
X125865834Y-94100196D01*
X125851202Y-94101637D01*
X125831600Y-94102600D01*
X125069600Y-94102600D01*
X125049998Y-94101637D01*
X125035366Y-94100196D01*
X124996908Y-94092546D01*
X124982839Y-94088278D01*
X124946620Y-94073275D01*
X124933653Y-94066344D01*
X124901053Y-94044562D01*
X124889688Y-94035235D01*
X124861965Y-94007512D01*
X124852638Y-93996147D01*
X124830856Y-93963547D01*
X124823925Y-93950580D01*
X124808922Y-93914361D01*
X124804654Y-93900292D01*
X124797004Y-93861834D01*
X124795563Y-93847202D01*
X124794600Y-93827600D01*
X124794600Y-93141800D01*
X124795563Y-93122198D01*
X124797004Y-93107566D01*
X124804654Y-93069108D01*
X124808922Y-93055039D01*
X124823925Y-93018820D01*
X124830856Y-93005853D01*
X124851237Y-92974980D01*
X124859399Y-92964806D01*
X124870874Y-92951713D01*
X125353400Y-92447254D01*
X125353400Y-91448746D01*
X124870874Y-90944287D01*
X124858021Y-90929457D01*
X124848948Y-90917887D01*
X124827895Y-90884811D01*
X124821254Y-90871694D01*
X124807056Y-90835141D01*
X124803102Y-90820980D01*
X124796491Y-90784582D01*
X124795357Y-90771588D01*
X124794600Y-90754200D01*
X124794600Y-90093800D01*
X124795563Y-90074198D01*
X124797004Y-90059566D01*
X124804654Y-90021108D01*
X124808922Y-90007039D01*
X124823925Y-89970820D01*
X124830856Y-89957853D01*
X124852638Y-89925253D01*
X124861965Y-89913888D01*
X124889688Y-89886165D01*
X124901053Y-89876838D01*
X124933653Y-89855056D01*
X124946620Y-89848125D01*
X124982839Y-89833122D01*
X124996908Y-89828854D01*
X125035366Y-89821204D01*
X125049998Y-89819763D01*
X125069600Y-89818800D01*
X125857000Y-89818800D01*
X125876602Y-89819763D01*
X125876602Y-89819763D01*
G37*
G04 #@! TD*
G04 #@! TO.C,U4*
G36*
X128983248Y-111765685D02*
X128988990Y-111766537D01*
X128994620Y-111767947D01*
X129000086Y-111769903D01*
X129005333Y-111772384D01*
X129010312Y-111775369D01*
X129014974Y-111778826D01*
X129019275Y-111782725D01*
X129023174Y-111787026D01*
X129026631Y-111791688D01*
X129029616Y-111796667D01*
X129032097Y-111801914D01*
X129034053Y-111807380D01*
X129035463Y-111813010D01*
X129036315Y-111818752D01*
X129036600Y-111824550D01*
X129036600Y-112179450D01*
X129036315Y-112185248D01*
X129035463Y-112190990D01*
X129034053Y-112196620D01*
X129032097Y-112202086D01*
X129029616Y-112207333D01*
X129026631Y-112212312D01*
X129023174Y-112216974D01*
X129019275Y-112221275D01*
X129014974Y-112225174D01*
X129010312Y-112228631D01*
X129005333Y-112231616D01*
X129000086Y-112234097D01*
X128994620Y-112236053D01*
X128988990Y-112237463D01*
X128983248Y-112238315D01*
X128977450Y-112238600D01*
X128132550Y-112238600D01*
X128126752Y-112238315D01*
X128121010Y-112237463D01*
X128115380Y-112236053D01*
X128109914Y-112234097D01*
X128104667Y-112231616D01*
X128099688Y-112228631D01*
X128095026Y-112225174D01*
X128090725Y-112221275D01*
X128086826Y-112216974D01*
X128083369Y-112212312D01*
X128080384Y-112207333D01*
X128077903Y-112202086D01*
X128075947Y-112196620D01*
X128074537Y-112190990D01*
X128073685Y-112185248D01*
X128073400Y-112179450D01*
X128073400Y-111824550D01*
X128073685Y-111818752D01*
X128074537Y-111813010D01*
X128075947Y-111807380D01*
X128077903Y-111801914D01*
X128080384Y-111796667D01*
X128083369Y-111791688D01*
X128086826Y-111787026D01*
X128090725Y-111782725D01*
X128095026Y-111778826D01*
X128099688Y-111775369D01*
X128104667Y-111772384D01*
X128109914Y-111769903D01*
X128115380Y-111767947D01*
X128121010Y-111766537D01*
X128126752Y-111765685D01*
X128132550Y-111765400D01*
X128977450Y-111765400D01*
X128983248Y-111765685D01*
X128983248Y-111765685D01*
G37*
D12*
X128555000Y-112002000D03*
D11*
G36*
X128983248Y-111265685D02*
X128988990Y-111266537D01*
X128994620Y-111267947D01*
X129000086Y-111269903D01*
X129005333Y-111272384D01*
X129010312Y-111275369D01*
X129014974Y-111278826D01*
X129019275Y-111282725D01*
X129023174Y-111287026D01*
X129026631Y-111291688D01*
X129029616Y-111296667D01*
X129032097Y-111301914D01*
X129034053Y-111307380D01*
X129035463Y-111313010D01*
X129036315Y-111318752D01*
X129036600Y-111324550D01*
X129036600Y-111679450D01*
X129036315Y-111685248D01*
X129035463Y-111690990D01*
X129034053Y-111696620D01*
X129032097Y-111702086D01*
X129029616Y-111707333D01*
X129026631Y-111712312D01*
X129023174Y-111716974D01*
X129019275Y-111721275D01*
X129014974Y-111725174D01*
X129010312Y-111728631D01*
X129005333Y-111731616D01*
X129000086Y-111734097D01*
X128994620Y-111736053D01*
X128988990Y-111737463D01*
X128983248Y-111738315D01*
X128977450Y-111738600D01*
X128132550Y-111738600D01*
X128126752Y-111738315D01*
X128121010Y-111737463D01*
X128115380Y-111736053D01*
X128109914Y-111734097D01*
X128104667Y-111731616D01*
X128099688Y-111728631D01*
X128095026Y-111725174D01*
X128090725Y-111721275D01*
X128086826Y-111716974D01*
X128083369Y-111712312D01*
X128080384Y-111707333D01*
X128077903Y-111702086D01*
X128075947Y-111696620D01*
X128074537Y-111690990D01*
X128073685Y-111685248D01*
X128073400Y-111679450D01*
X128073400Y-111324550D01*
X128073685Y-111318752D01*
X128074537Y-111313010D01*
X128075947Y-111307380D01*
X128077903Y-111301914D01*
X128080384Y-111296667D01*
X128083369Y-111291688D01*
X128086826Y-111287026D01*
X128090725Y-111282725D01*
X128095026Y-111278826D01*
X128099688Y-111275369D01*
X128104667Y-111272384D01*
X128109914Y-111269903D01*
X128115380Y-111267947D01*
X128121010Y-111266537D01*
X128126752Y-111265685D01*
X128132550Y-111265400D01*
X128977450Y-111265400D01*
X128983248Y-111265685D01*
X128983248Y-111265685D01*
G37*
D12*
X128555000Y-111502000D03*
D11*
G36*
X128983248Y-110765685D02*
X128988990Y-110766537D01*
X128994620Y-110767947D01*
X129000086Y-110769903D01*
X129005333Y-110772384D01*
X129010312Y-110775369D01*
X129014974Y-110778826D01*
X129019275Y-110782725D01*
X129023174Y-110787026D01*
X129026631Y-110791688D01*
X129029616Y-110796667D01*
X129032097Y-110801914D01*
X129034053Y-110807380D01*
X129035463Y-110813010D01*
X129036315Y-110818752D01*
X129036600Y-110824550D01*
X129036600Y-111179450D01*
X129036315Y-111185248D01*
X129035463Y-111190990D01*
X129034053Y-111196620D01*
X129032097Y-111202086D01*
X129029616Y-111207333D01*
X129026631Y-111212312D01*
X129023174Y-111216974D01*
X129019275Y-111221275D01*
X129014974Y-111225174D01*
X129010312Y-111228631D01*
X129005333Y-111231616D01*
X129000086Y-111234097D01*
X128994620Y-111236053D01*
X128988990Y-111237463D01*
X128983248Y-111238315D01*
X128977450Y-111238600D01*
X128132550Y-111238600D01*
X128126752Y-111238315D01*
X128121010Y-111237463D01*
X128115380Y-111236053D01*
X128109914Y-111234097D01*
X128104667Y-111231616D01*
X128099688Y-111228631D01*
X128095026Y-111225174D01*
X128090725Y-111221275D01*
X128086826Y-111216974D01*
X128083369Y-111212312D01*
X128080384Y-111207333D01*
X128077903Y-111202086D01*
X128075947Y-111196620D01*
X128074537Y-111190990D01*
X128073685Y-111185248D01*
X128073400Y-111179450D01*
X128073400Y-110824550D01*
X128073685Y-110818752D01*
X128074537Y-110813010D01*
X128075947Y-110807380D01*
X128077903Y-110801914D01*
X128080384Y-110796667D01*
X128083369Y-110791688D01*
X128086826Y-110787026D01*
X128090725Y-110782725D01*
X128095026Y-110778826D01*
X128099688Y-110775369D01*
X128104667Y-110772384D01*
X128109914Y-110769903D01*
X128115380Y-110767947D01*
X128121010Y-110766537D01*
X128126752Y-110765685D01*
X128132550Y-110765400D01*
X128977450Y-110765400D01*
X128983248Y-110765685D01*
X128983248Y-110765685D01*
G37*
D12*
X128555000Y-111002000D03*
D11*
G36*
X128983248Y-110265685D02*
X128988990Y-110266537D01*
X128994620Y-110267947D01*
X129000086Y-110269903D01*
X129005333Y-110272384D01*
X129010312Y-110275369D01*
X129014974Y-110278826D01*
X129019275Y-110282725D01*
X129023174Y-110287026D01*
X129026631Y-110291688D01*
X129029616Y-110296667D01*
X129032097Y-110301914D01*
X129034053Y-110307380D01*
X129035463Y-110313010D01*
X129036315Y-110318752D01*
X129036600Y-110324550D01*
X129036600Y-110679450D01*
X129036315Y-110685248D01*
X129035463Y-110690990D01*
X129034053Y-110696620D01*
X129032097Y-110702086D01*
X129029616Y-110707333D01*
X129026631Y-110712312D01*
X129023174Y-110716974D01*
X129019275Y-110721275D01*
X129014974Y-110725174D01*
X129010312Y-110728631D01*
X129005333Y-110731616D01*
X129000086Y-110734097D01*
X128994620Y-110736053D01*
X128988990Y-110737463D01*
X128983248Y-110738315D01*
X128977450Y-110738600D01*
X128132550Y-110738600D01*
X128126752Y-110738315D01*
X128121010Y-110737463D01*
X128115380Y-110736053D01*
X128109914Y-110734097D01*
X128104667Y-110731616D01*
X128099688Y-110728631D01*
X128095026Y-110725174D01*
X128090725Y-110721275D01*
X128086826Y-110716974D01*
X128083369Y-110712312D01*
X128080384Y-110707333D01*
X128077903Y-110702086D01*
X128075947Y-110696620D01*
X128074537Y-110690990D01*
X128073685Y-110685248D01*
X128073400Y-110679450D01*
X128073400Y-110324550D01*
X128073685Y-110318752D01*
X128074537Y-110313010D01*
X128075947Y-110307380D01*
X128077903Y-110301914D01*
X128080384Y-110296667D01*
X128083369Y-110291688D01*
X128086826Y-110287026D01*
X128090725Y-110282725D01*
X128095026Y-110278826D01*
X128099688Y-110275369D01*
X128104667Y-110272384D01*
X128109914Y-110269903D01*
X128115380Y-110267947D01*
X128121010Y-110266537D01*
X128126752Y-110265685D01*
X128132550Y-110265400D01*
X128977450Y-110265400D01*
X128983248Y-110265685D01*
X128983248Y-110265685D01*
G37*
D12*
X128555000Y-110502000D03*
D11*
G36*
X130953248Y-110265685D02*
X130958990Y-110266537D01*
X130964620Y-110267947D01*
X130970086Y-110269903D01*
X130975333Y-110272384D01*
X130980312Y-110275369D01*
X130984974Y-110278826D01*
X130989275Y-110282725D01*
X130993174Y-110287026D01*
X130996631Y-110291688D01*
X130999616Y-110296667D01*
X131002097Y-110301914D01*
X131004053Y-110307380D01*
X131005463Y-110313010D01*
X131006315Y-110318752D01*
X131006600Y-110324550D01*
X131006600Y-110679450D01*
X131006315Y-110685248D01*
X131005463Y-110690990D01*
X131004053Y-110696620D01*
X131002097Y-110702086D01*
X130999616Y-110707333D01*
X130996631Y-110712312D01*
X130993174Y-110716974D01*
X130989275Y-110721275D01*
X130984974Y-110725174D01*
X130980312Y-110728631D01*
X130975333Y-110731616D01*
X130970086Y-110734097D01*
X130964620Y-110736053D01*
X130958990Y-110737463D01*
X130953248Y-110738315D01*
X130947450Y-110738600D01*
X130102550Y-110738600D01*
X130096752Y-110738315D01*
X130091010Y-110737463D01*
X130085380Y-110736053D01*
X130079914Y-110734097D01*
X130074667Y-110731616D01*
X130069688Y-110728631D01*
X130065026Y-110725174D01*
X130060725Y-110721275D01*
X130056826Y-110716974D01*
X130053369Y-110712312D01*
X130050384Y-110707333D01*
X130047903Y-110702086D01*
X130045947Y-110696620D01*
X130044537Y-110690990D01*
X130043685Y-110685248D01*
X130043400Y-110679450D01*
X130043400Y-110324550D01*
X130043685Y-110318752D01*
X130044537Y-110313010D01*
X130045947Y-110307380D01*
X130047903Y-110301914D01*
X130050384Y-110296667D01*
X130053369Y-110291688D01*
X130056826Y-110287026D01*
X130060725Y-110282725D01*
X130065026Y-110278826D01*
X130069688Y-110275369D01*
X130074667Y-110272384D01*
X130079914Y-110269903D01*
X130085380Y-110267947D01*
X130091010Y-110266537D01*
X130096752Y-110265685D01*
X130102550Y-110265400D01*
X130947450Y-110265400D01*
X130953248Y-110265685D01*
X130953248Y-110265685D01*
G37*
D12*
X130525000Y-110502000D03*
D11*
G36*
X130953248Y-110765685D02*
X130958990Y-110766537D01*
X130964620Y-110767947D01*
X130970086Y-110769903D01*
X130975333Y-110772384D01*
X130980312Y-110775369D01*
X130984974Y-110778826D01*
X130989275Y-110782725D01*
X130993174Y-110787026D01*
X130996631Y-110791688D01*
X130999616Y-110796667D01*
X131002097Y-110801914D01*
X131004053Y-110807380D01*
X131005463Y-110813010D01*
X131006315Y-110818752D01*
X131006600Y-110824550D01*
X131006600Y-111179450D01*
X131006315Y-111185248D01*
X131005463Y-111190990D01*
X131004053Y-111196620D01*
X131002097Y-111202086D01*
X130999616Y-111207333D01*
X130996631Y-111212312D01*
X130993174Y-111216974D01*
X130989275Y-111221275D01*
X130984974Y-111225174D01*
X130980312Y-111228631D01*
X130975333Y-111231616D01*
X130970086Y-111234097D01*
X130964620Y-111236053D01*
X130958990Y-111237463D01*
X130953248Y-111238315D01*
X130947450Y-111238600D01*
X130102550Y-111238600D01*
X130096752Y-111238315D01*
X130091010Y-111237463D01*
X130085380Y-111236053D01*
X130079914Y-111234097D01*
X130074667Y-111231616D01*
X130069688Y-111228631D01*
X130065026Y-111225174D01*
X130060725Y-111221275D01*
X130056826Y-111216974D01*
X130053369Y-111212312D01*
X130050384Y-111207333D01*
X130047903Y-111202086D01*
X130045947Y-111196620D01*
X130044537Y-111190990D01*
X130043685Y-111185248D01*
X130043400Y-111179450D01*
X130043400Y-110824550D01*
X130043685Y-110818752D01*
X130044537Y-110813010D01*
X130045947Y-110807380D01*
X130047903Y-110801914D01*
X130050384Y-110796667D01*
X130053369Y-110791688D01*
X130056826Y-110787026D01*
X130060725Y-110782725D01*
X130065026Y-110778826D01*
X130069688Y-110775369D01*
X130074667Y-110772384D01*
X130079914Y-110769903D01*
X130085380Y-110767947D01*
X130091010Y-110766537D01*
X130096752Y-110765685D01*
X130102550Y-110765400D01*
X130947450Y-110765400D01*
X130953248Y-110765685D01*
X130953248Y-110765685D01*
G37*
D12*
X130525000Y-111002000D03*
D11*
G36*
X130953248Y-111265685D02*
X130958990Y-111266537D01*
X130964620Y-111267947D01*
X130970086Y-111269903D01*
X130975333Y-111272384D01*
X130980312Y-111275369D01*
X130984974Y-111278826D01*
X130989275Y-111282725D01*
X130993174Y-111287026D01*
X130996631Y-111291688D01*
X130999616Y-111296667D01*
X131002097Y-111301914D01*
X131004053Y-111307380D01*
X131005463Y-111313010D01*
X131006315Y-111318752D01*
X131006600Y-111324550D01*
X131006600Y-111679450D01*
X131006315Y-111685248D01*
X131005463Y-111690990D01*
X131004053Y-111696620D01*
X131002097Y-111702086D01*
X130999616Y-111707333D01*
X130996631Y-111712312D01*
X130993174Y-111716974D01*
X130989275Y-111721275D01*
X130984974Y-111725174D01*
X130980312Y-111728631D01*
X130975333Y-111731616D01*
X130970086Y-111734097D01*
X130964620Y-111736053D01*
X130958990Y-111737463D01*
X130953248Y-111738315D01*
X130947450Y-111738600D01*
X130102550Y-111738600D01*
X130096752Y-111738315D01*
X130091010Y-111737463D01*
X130085380Y-111736053D01*
X130079914Y-111734097D01*
X130074667Y-111731616D01*
X130069688Y-111728631D01*
X130065026Y-111725174D01*
X130060725Y-111721275D01*
X130056826Y-111716974D01*
X130053369Y-111712312D01*
X130050384Y-111707333D01*
X130047903Y-111702086D01*
X130045947Y-111696620D01*
X130044537Y-111690990D01*
X130043685Y-111685248D01*
X130043400Y-111679450D01*
X130043400Y-111324550D01*
X130043685Y-111318752D01*
X130044537Y-111313010D01*
X130045947Y-111307380D01*
X130047903Y-111301914D01*
X130050384Y-111296667D01*
X130053369Y-111291688D01*
X130056826Y-111287026D01*
X130060725Y-111282725D01*
X130065026Y-111278826D01*
X130069688Y-111275369D01*
X130074667Y-111272384D01*
X130079914Y-111269903D01*
X130085380Y-111267947D01*
X130091010Y-111266537D01*
X130096752Y-111265685D01*
X130102550Y-111265400D01*
X130947450Y-111265400D01*
X130953248Y-111265685D01*
X130953248Y-111265685D01*
G37*
D12*
X130525000Y-111502000D03*
D11*
G36*
X130953248Y-111765685D02*
X130958990Y-111766537D01*
X130964620Y-111767947D01*
X130970086Y-111769903D01*
X130975333Y-111772384D01*
X130980312Y-111775369D01*
X130984974Y-111778826D01*
X130989275Y-111782725D01*
X130993174Y-111787026D01*
X130996631Y-111791688D01*
X130999616Y-111796667D01*
X131002097Y-111801914D01*
X131004053Y-111807380D01*
X131005463Y-111813010D01*
X131006315Y-111818752D01*
X131006600Y-111824550D01*
X131006600Y-112179450D01*
X131006315Y-112185248D01*
X131005463Y-112190990D01*
X131004053Y-112196620D01*
X131002097Y-112202086D01*
X130999616Y-112207333D01*
X130996631Y-112212312D01*
X130993174Y-112216974D01*
X130989275Y-112221275D01*
X130984974Y-112225174D01*
X130980312Y-112228631D01*
X130975333Y-112231616D01*
X130970086Y-112234097D01*
X130964620Y-112236053D01*
X130958990Y-112237463D01*
X130953248Y-112238315D01*
X130947450Y-112238600D01*
X130102550Y-112238600D01*
X130096752Y-112238315D01*
X130091010Y-112237463D01*
X130085380Y-112236053D01*
X130079914Y-112234097D01*
X130074667Y-112231616D01*
X130069688Y-112228631D01*
X130065026Y-112225174D01*
X130060725Y-112221275D01*
X130056826Y-112216974D01*
X130053369Y-112212312D01*
X130050384Y-112207333D01*
X130047903Y-112202086D01*
X130045947Y-112196620D01*
X130044537Y-112190990D01*
X130043685Y-112185248D01*
X130043400Y-112179450D01*
X130043400Y-111824550D01*
X130043685Y-111818752D01*
X130044537Y-111813010D01*
X130045947Y-111807380D01*
X130047903Y-111801914D01*
X130050384Y-111796667D01*
X130053369Y-111791688D01*
X130056826Y-111787026D01*
X130060725Y-111782725D01*
X130065026Y-111778826D01*
X130069688Y-111775369D01*
X130074667Y-111772384D01*
X130079914Y-111769903D01*
X130085380Y-111767947D01*
X130091010Y-111766537D01*
X130096752Y-111765685D01*
X130102550Y-111765400D01*
X130947450Y-111765400D01*
X130953248Y-111765685D01*
X130953248Y-111765685D01*
G37*
D12*
X130525000Y-112002000D03*
D13*
X129540000Y-111252000D03*
G04 #@! TD*
D11*
G04 #@! TO.C,U7*
G36*
X132477248Y-106709685D02*
X132482990Y-106710537D01*
X132488620Y-106711947D01*
X132494086Y-106713903D01*
X132499333Y-106716384D01*
X132504312Y-106719369D01*
X132508974Y-106722826D01*
X132513275Y-106726725D01*
X132517174Y-106731026D01*
X132520631Y-106735688D01*
X132523616Y-106740667D01*
X132526097Y-106745914D01*
X132528053Y-106751380D01*
X132529463Y-106757010D01*
X132530315Y-106762752D01*
X132530600Y-106768550D01*
X132530600Y-107123450D01*
X132530315Y-107129248D01*
X132529463Y-107134990D01*
X132528053Y-107140620D01*
X132526097Y-107146086D01*
X132523616Y-107151333D01*
X132520631Y-107156312D01*
X132517174Y-107160974D01*
X132513275Y-107165275D01*
X132508974Y-107169174D01*
X132504312Y-107172631D01*
X132499333Y-107175616D01*
X132494086Y-107178097D01*
X132488620Y-107180053D01*
X132482990Y-107181463D01*
X132477248Y-107182315D01*
X132471450Y-107182600D01*
X131626550Y-107182600D01*
X131620752Y-107182315D01*
X131615010Y-107181463D01*
X131609380Y-107180053D01*
X131603914Y-107178097D01*
X131598667Y-107175616D01*
X131593688Y-107172631D01*
X131589026Y-107169174D01*
X131584725Y-107165275D01*
X131580826Y-107160974D01*
X131577369Y-107156312D01*
X131574384Y-107151333D01*
X131571903Y-107146086D01*
X131569947Y-107140620D01*
X131568537Y-107134990D01*
X131567685Y-107129248D01*
X131567400Y-107123450D01*
X131567400Y-106768550D01*
X131567685Y-106762752D01*
X131568537Y-106757010D01*
X131569947Y-106751380D01*
X131571903Y-106745914D01*
X131574384Y-106740667D01*
X131577369Y-106735688D01*
X131580826Y-106731026D01*
X131584725Y-106726725D01*
X131589026Y-106722826D01*
X131593688Y-106719369D01*
X131598667Y-106716384D01*
X131603914Y-106713903D01*
X131609380Y-106711947D01*
X131615010Y-106710537D01*
X131620752Y-106709685D01*
X131626550Y-106709400D01*
X132471450Y-106709400D01*
X132477248Y-106709685D01*
X132477248Y-106709685D01*
G37*
D12*
X132049000Y-106946000D03*
D11*
G36*
X132477248Y-107209685D02*
X132482990Y-107210537D01*
X132488620Y-107211947D01*
X132494086Y-107213903D01*
X132499333Y-107216384D01*
X132504312Y-107219369D01*
X132508974Y-107222826D01*
X132513275Y-107226725D01*
X132517174Y-107231026D01*
X132520631Y-107235688D01*
X132523616Y-107240667D01*
X132526097Y-107245914D01*
X132528053Y-107251380D01*
X132529463Y-107257010D01*
X132530315Y-107262752D01*
X132530600Y-107268550D01*
X132530600Y-107623450D01*
X132530315Y-107629248D01*
X132529463Y-107634990D01*
X132528053Y-107640620D01*
X132526097Y-107646086D01*
X132523616Y-107651333D01*
X132520631Y-107656312D01*
X132517174Y-107660974D01*
X132513275Y-107665275D01*
X132508974Y-107669174D01*
X132504312Y-107672631D01*
X132499333Y-107675616D01*
X132494086Y-107678097D01*
X132488620Y-107680053D01*
X132482990Y-107681463D01*
X132477248Y-107682315D01*
X132471450Y-107682600D01*
X131626550Y-107682600D01*
X131620752Y-107682315D01*
X131615010Y-107681463D01*
X131609380Y-107680053D01*
X131603914Y-107678097D01*
X131598667Y-107675616D01*
X131593688Y-107672631D01*
X131589026Y-107669174D01*
X131584725Y-107665275D01*
X131580826Y-107660974D01*
X131577369Y-107656312D01*
X131574384Y-107651333D01*
X131571903Y-107646086D01*
X131569947Y-107640620D01*
X131568537Y-107634990D01*
X131567685Y-107629248D01*
X131567400Y-107623450D01*
X131567400Y-107268550D01*
X131567685Y-107262752D01*
X131568537Y-107257010D01*
X131569947Y-107251380D01*
X131571903Y-107245914D01*
X131574384Y-107240667D01*
X131577369Y-107235688D01*
X131580826Y-107231026D01*
X131584725Y-107226725D01*
X131589026Y-107222826D01*
X131593688Y-107219369D01*
X131598667Y-107216384D01*
X131603914Y-107213903D01*
X131609380Y-107211947D01*
X131615010Y-107210537D01*
X131620752Y-107209685D01*
X131626550Y-107209400D01*
X132471450Y-107209400D01*
X132477248Y-107209685D01*
X132477248Y-107209685D01*
G37*
D12*
X132049000Y-107446000D03*
D11*
G36*
X132477248Y-107709685D02*
X132482990Y-107710537D01*
X132488620Y-107711947D01*
X132494086Y-107713903D01*
X132499333Y-107716384D01*
X132504312Y-107719369D01*
X132508974Y-107722826D01*
X132513275Y-107726725D01*
X132517174Y-107731026D01*
X132520631Y-107735688D01*
X132523616Y-107740667D01*
X132526097Y-107745914D01*
X132528053Y-107751380D01*
X132529463Y-107757010D01*
X132530315Y-107762752D01*
X132530600Y-107768550D01*
X132530600Y-108123450D01*
X132530315Y-108129248D01*
X132529463Y-108134990D01*
X132528053Y-108140620D01*
X132526097Y-108146086D01*
X132523616Y-108151333D01*
X132520631Y-108156312D01*
X132517174Y-108160974D01*
X132513275Y-108165275D01*
X132508974Y-108169174D01*
X132504312Y-108172631D01*
X132499333Y-108175616D01*
X132494086Y-108178097D01*
X132488620Y-108180053D01*
X132482990Y-108181463D01*
X132477248Y-108182315D01*
X132471450Y-108182600D01*
X131626550Y-108182600D01*
X131620752Y-108182315D01*
X131615010Y-108181463D01*
X131609380Y-108180053D01*
X131603914Y-108178097D01*
X131598667Y-108175616D01*
X131593688Y-108172631D01*
X131589026Y-108169174D01*
X131584725Y-108165275D01*
X131580826Y-108160974D01*
X131577369Y-108156312D01*
X131574384Y-108151333D01*
X131571903Y-108146086D01*
X131569947Y-108140620D01*
X131568537Y-108134990D01*
X131567685Y-108129248D01*
X131567400Y-108123450D01*
X131567400Y-107768550D01*
X131567685Y-107762752D01*
X131568537Y-107757010D01*
X131569947Y-107751380D01*
X131571903Y-107745914D01*
X131574384Y-107740667D01*
X131577369Y-107735688D01*
X131580826Y-107731026D01*
X131584725Y-107726725D01*
X131589026Y-107722826D01*
X131593688Y-107719369D01*
X131598667Y-107716384D01*
X131603914Y-107713903D01*
X131609380Y-107711947D01*
X131615010Y-107710537D01*
X131620752Y-107709685D01*
X131626550Y-107709400D01*
X132471450Y-107709400D01*
X132477248Y-107709685D01*
X132477248Y-107709685D01*
G37*
D12*
X132049000Y-107946000D03*
D11*
G36*
X132477248Y-108209685D02*
X132482990Y-108210537D01*
X132488620Y-108211947D01*
X132494086Y-108213903D01*
X132499333Y-108216384D01*
X132504312Y-108219369D01*
X132508974Y-108222826D01*
X132513275Y-108226725D01*
X132517174Y-108231026D01*
X132520631Y-108235688D01*
X132523616Y-108240667D01*
X132526097Y-108245914D01*
X132528053Y-108251380D01*
X132529463Y-108257010D01*
X132530315Y-108262752D01*
X132530600Y-108268550D01*
X132530600Y-108623450D01*
X132530315Y-108629248D01*
X132529463Y-108634990D01*
X132528053Y-108640620D01*
X132526097Y-108646086D01*
X132523616Y-108651333D01*
X132520631Y-108656312D01*
X132517174Y-108660974D01*
X132513275Y-108665275D01*
X132508974Y-108669174D01*
X132504312Y-108672631D01*
X132499333Y-108675616D01*
X132494086Y-108678097D01*
X132488620Y-108680053D01*
X132482990Y-108681463D01*
X132477248Y-108682315D01*
X132471450Y-108682600D01*
X131626550Y-108682600D01*
X131620752Y-108682315D01*
X131615010Y-108681463D01*
X131609380Y-108680053D01*
X131603914Y-108678097D01*
X131598667Y-108675616D01*
X131593688Y-108672631D01*
X131589026Y-108669174D01*
X131584725Y-108665275D01*
X131580826Y-108660974D01*
X131577369Y-108656312D01*
X131574384Y-108651333D01*
X131571903Y-108646086D01*
X131569947Y-108640620D01*
X131568537Y-108634990D01*
X131567685Y-108629248D01*
X131567400Y-108623450D01*
X131567400Y-108268550D01*
X131567685Y-108262752D01*
X131568537Y-108257010D01*
X131569947Y-108251380D01*
X131571903Y-108245914D01*
X131574384Y-108240667D01*
X131577369Y-108235688D01*
X131580826Y-108231026D01*
X131584725Y-108226725D01*
X131589026Y-108222826D01*
X131593688Y-108219369D01*
X131598667Y-108216384D01*
X131603914Y-108213903D01*
X131609380Y-108211947D01*
X131615010Y-108210537D01*
X131620752Y-108209685D01*
X131626550Y-108209400D01*
X132471450Y-108209400D01*
X132477248Y-108209685D01*
X132477248Y-108209685D01*
G37*
D12*
X132049000Y-108446000D03*
D11*
G36*
X130507248Y-108209685D02*
X130512990Y-108210537D01*
X130518620Y-108211947D01*
X130524086Y-108213903D01*
X130529333Y-108216384D01*
X130534312Y-108219369D01*
X130538974Y-108222826D01*
X130543275Y-108226725D01*
X130547174Y-108231026D01*
X130550631Y-108235688D01*
X130553616Y-108240667D01*
X130556097Y-108245914D01*
X130558053Y-108251380D01*
X130559463Y-108257010D01*
X130560315Y-108262752D01*
X130560600Y-108268550D01*
X130560600Y-108623450D01*
X130560315Y-108629248D01*
X130559463Y-108634990D01*
X130558053Y-108640620D01*
X130556097Y-108646086D01*
X130553616Y-108651333D01*
X130550631Y-108656312D01*
X130547174Y-108660974D01*
X130543275Y-108665275D01*
X130538974Y-108669174D01*
X130534312Y-108672631D01*
X130529333Y-108675616D01*
X130524086Y-108678097D01*
X130518620Y-108680053D01*
X130512990Y-108681463D01*
X130507248Y-108682315D01*
X130501450Y-108682600D01*
X129656550Y-108682600D01*
X129650752Y-108682315D01*
X129645010Y-108681463D01*
X129639380Y-108680053D01*
X129633914Y-108678097D01*
X129628667Y-108675616D01*
X129623688Y-108672631D01*
X129619026Y-108669174D01*
X129614725Y-108665275D01*
X129610826Y-108660974D01*
X129607369Y-108656312D01*
X129604384Y-108651333D01*
X129601903Y-108646086D01*
X129599947Y-108640620D01*
X129598537Y-108634990D01*
X129597685Y-108629248D01*
X129597400Y-108623450D01*
X129597400Y-108268550D01*
X129597685Y-108262752D01*
X129598537Y-108257010D01*
X129599947Y-108251380D01*
X129601903Y-108245914D01*
X129604384Y-108240667D01*
X129607369Y-108235688D01*
X129610826Y-108231026D01*
X129614725Y-108226725D01*
X129619026Y-108222826D01*
X129623688Y-108219369D01*
X129628667Y-108216384D01*
X129633914Y-108213903D01*
X129639380Y-108211947D01*
X129645010Y-108210537D01*
X129650752Y-108209685D01*
X129656550Y-108209400D01*
X130501450Y-108209400D01*
X130507248Y-108209685D01*
X130507248Y-108209685D01*
G37*
D12*
X130079000Y-108446000D03*
D11*
G36*
X130507248Y-107709685D02*
X130512990Y-107710537D01*
X130518620Y-107711947D01*
X130524086Y-107713903D01*
X130529333Y-107716384D01*
X130534312Y-107719369D01*
X130538974Y-107722826D01*
X130543275Y-107726725D01*
X130547174Y-107731026D01*
X130550631Y-107735688D01*
X130553616Y-107740667D01*
X130556097Y-107745914D01*
X130558053Y-107751380D01*
X130559463Y-107757010D01*
X130560315Y-107762752D01*
X130560600Y-107768550D01*
X130560600Y-108123450D01*
X130560315Y-108129248D01*
X130559463Y-108134990D01*
X130558053Y-108140620D01*
X130556097Y-108146086D01*
X130553616Y-108151333D01*
X130550631Y-108156312D01*
X130547174Y-108160974D01*
X130543275Y-108165275D01*
X130538974Y-108169174D01*
X130534312Y-108172631D01*
X130529333Y-108175616D01*
X130524086Y-108178097D01*
X130518620Y-108180053D01*
X130512990Y-108181463D01*
X130507248Y-108182315D01*
X130501450Y-108182600D01*
X129656550Y-108182600D01*
X129650752Y-108182315D01*
X129645010Y-108181463D01*
X129639380Y-108180053D01*
X129633914Y-108178097D01*
X129628667Y-108175616D01*
X129623688Y-108172631D01*
X129619026Y-108169174D01*
X129614725Y-108165275D01*
X129610826Y-108160974D01*
X129607369Y-108156312D01*
X129604384Y-108151333D01*
X129601903Y-108146086D01*
X129599947Y-108140620D01*
X129598537Y-108134990D01*
X129597685Y-108129248D01*
X129597400Y-108123450D01*
X129597400Y-107768550D01*
X129597685Y-107762752D01*
X129598537Y-107757010D01*
X129599947Y-107751380D01*
X129601903Y-107745914D01*
X129604384Y-107740667D01*
X129607369Y-107735688D01*
X129610826Y-107731026D01*
X129614725Y-107726725D01*
X129619026Y-107722826D01*
X129623688Y-107719369D01*
X129628667Y-107716384D01*
X129633914Y-107713903D01*
X129639380Y-107711947D01*
X129645010Y-107710537D01*
X129650752Y-107709685D01*
X129656550Y-107709400D01*
X130501450Y-107709400D01*
X130507248Y-107709685D01*
X130507248Y-107709685D01*
G37*
D12*
X130079000Y-107946000D03*
D11*
G36*
X130507248Y-107209685D02*
X130512990Y-107210537D01*
X130518620Y-107211947D01*
X130524086Y-107213903D01*
X130529333Y-107216384D01*
X130534312Y-107219369D01*
X130538974Y-107222826D01*
X130543275Y-107226725D01*
X130547174Y-107231026D01*
X130550631Y-107235688D01*
X130553616Y-107240667D01*
X130556097Y-107245914D01*
X130558053Y-107251380D01*
X130559463Y-107257010D01*
X130560315Y-107262752D01*
X130560600Y-107268550D01*
X130560600Y-107623450D01*
X130560315Y-107629248D01*
X130559463Y-107634990D01*
X130558053Y-107640620D01*
X130556097Y-107646086D01*
X130553616Y-107651333D01*
X130550631Y-107656312D01*
X130547174Y-107660974D01*
X130543275Y-107665275D01*
X130538974Y-107669174D01*
X130534312Y-107672631D01*
X130529333Y-107675616D01*
X130524086Y-107678097D01*
X130518620Y-107680053D01*
X130512990Y-107681463D01*
X130507248Y-107682315D01*
X130501450Y-107682600D01*
X129656550Y-107682600D01*
X129650752Y-107682315D01*
X129645010Y-107681463D01*
X129639380Y-107680053D01*
X129633914Y-107678097D01*
X129628667Y-107675616D01*
X129623688Y-107672631D01*
X129619026Y-107669174D01*
X129614725Y-107665275D01*
X129610826Y-107660974D01*
X129607369Y-107656312D01*
X129604384Y-107651333D01*
X129601903Y-107646086D01*
X129599947Y-107640620D01*
X129598537Y-107634990D01*
X129597685Y-107629248D01*
X129597400Y-107623450D01*
X129597400Y-107268550D01*
X129597685Y-107262752D01*
X129598537Y-107257010D01*
X129599947Y-107251380D01*
X129601903Y-107245914D01*
X129604384Y-107240667D01*
X129607369Y-107235688D01*
X129610826Y-107231026D01*
X129614725Y-107226725D01*
X129619026Y-107222826D01*
X129623688Y-107219369D01*
X129628667Y-107216384D01*
X129633914Y-107213903D01*
X129639380Y-107211947D01*
X129645010Y-107210537D01*
X129650752Y-107209685D01*
X129656550Y-107209400D01*
X130501450Y-107209400D01*
X130507248Y-107209685D01*
X130507248Y-107209685D01*
G37*
D12*
X130079000Y-107446000D03*
D11*
G36*
X130507248Y-106709685D02*
X130512990Y-106710537D01*
X130518620Y-106711947D01*
X130524086Y-106713903D01*
X130529333Y-106716384D01*
X130534312Y-106719369D01*
X130538974Y-106722826D01*
X130543275Y-106726725D01*
X130547174Y-106731026D01*
X130550631Y-106735688D01*
X130553616Y-106740667D01*
X130556097Y-106745914D01*
X130558053Y-106751380D01*
X130559463Y-106757010D01*
X130560315Y-106762752D01*
X130560600Y-106768550D01*
X130560600Y-107123450D01*
X130560315Y-107129248D01*
X130559463Y-107134990D01*
X130558053Y-107140620D01*
X130556097Y-107146086D01*
X130553616Y-107151333D01*
X130550631Y-107156312D01*
X130547174Y-107160974D01*
X130543275Y-107165275D01*
X130538974Y-107169174D01*
X130534312Y-107172631D01*
X130529333Y-107175616D01*
X130524086Y-107178097D01*
X130518620Y-107180053D01*
X130512990Y-107181463D01*
X130507248Y-107182315D01*
X130501450Y-107182600D01*
X129656550Y-107182600D01*
X129650752Y-107182315D01*
X129645010Y-107181463D01*
X129639380Y-107180053D01*
X129633914Y-107178097D01*
X129628667Y-107175616D01*
X129623688Y-107172631D01*
X129619026Y-107169174D01*
X129614725Y-107165275D01*
X129610826Y-107160974D01*
X129607369Y-107156312D01*
X129604384Y-107151333D01*
X129601903Y-107146086D01*
X129599947Y-107140620D01*
X129598537Y-107134990D01*
X129597685Y-107129248D01*
X129597400Y-107123450D01*
X129597400Y-106768550D01*
X129597685Y-106762752D01*
X129598537Y-106757010D01*
X129599947Y-106751380D01*
X129601903Y-106745914D01*
X129604384Y-106740667D01*
X129607369Y-106735688D01*
X129610826Y-106731026D01*
X129614725Y-106726725D01*
X129619026Y-106722826D01*
X129623688Y-106719369D01*
X129628667Y-106716384D01*
X129633914Y-106713903D01*
X129639380Y-106711947D01*
X129645010Y-106710537D01*
X129650752Y-106709685D01*
X129656550Y-106709400D01*
X130501450Y-106709400D01*
X130507248Y-106709685D01*
X130507248Y-106709685D01*
G37*
D12*
X130079000Y-106946000D03*
D13*
X131064000Y-107696000D03*
G04 #@! TD*
D14*
G04 #@! TO.C,R17*
X126492000Y-101204000D03*
X126492000Y-102504000D03*
G04 #@! TD*
G04 #@! TO.C,R20*
X129540000Y-102504000D03*
X129540000Y-101204000D03*
G04 #@! TD*
D11*
G04 #@! TO.C,U5*
G36*
X131988077Y-95270552D02*
X131989651Y-95270786D01*
X131991194Y-95271172D01*
X131992692Y-95271708D01*
X131994130Y-95272388D01*
X131995495Y-95273206D01*
X131996773Y-95274154D01*
X131997952Y-95275222D01*
X131999020Y-95276401D01*
X131999968Y-95277679D01*
X132000786Y-95279044D01*
X132001466Y-95280482D01*
X132002002Y-95281980D01*
X132002388Y-95283523D01*
X132002622Y-95285097D01*
X132002700Y-95286686D01*
X132002700Y-95717462D01*
X132002622Y-95719051D01*
X132002388Y-95720625D01*
X132002002Y-95722168D01*
X132001466Y-95723666D01*
X132000786Y-95725104D01*
X131999968Y-95726469D01*
X131999020Y-95727747D01*
X131997952Y-95728926D01*
X131996773Y-95729994D01*
X131995495Y-95730942D01*
X131994130Y-95731760D01*
X131992692Y-95732440D01*
X131991194Y-95732976D01*
X131989651Y-95733362D01*
X131988077Y-95733596D01*
X131986488Y-95733674D01*
X131055712Y-95733674D01*
X131054123Y-95733596D01*
X131052549Y-95733362D01*
X131051006Y-95732976D01*
X131049508Y-95732440D01*
X131048070Y-95731760D01*
X131046705Y-95730942D01*
X131045427Y-95729994D01*
X131044248Y-95728926D01*
X131043180Y-95727747D01*
X131042232Y-95726469D01*
X131041414Y-95725104D01*
X131040734Y-95723666D01*
X131040198Y-95722168D01*
X131039812Y-95720625D01*
X131039578Y-95719051D01*
X131039500Y-95717462D01*
X131039500Y-95286686D01*
X131039578Y-95285097D01*
X131039812Y-95283523D01*
X131040198Y-95281980D01*
X131040734Y-95280482D01*
X131041414Y-95279044D01*
X131042232Y-95277679D01*
X131043180Y-95276401D01*
X131044248Y-95275222D01*
X131045427Y-95274154D01*
X131046705Y-95273206D01*
X131048070Y-95272388D01*
X131049508Y-95271708D01*
X131051006Y-95271172D01*
X131052549Y-95270786D01*
X131054123Y-95270552D01*
X131055712Y-95270474D01*
X131986488Y-95270474D01*
X131988077Y-95270552D01*
X131988077Y-95270552D01*
G37*
D15*
X131521100Y-95502074D03*
D11*
G36*
X131988077Y-94770552D02*
X131989651Y-94770786D01*
X131991194Y-94771172D01*
X131992692Y-94771708D01*
X131994130Y-94772388D01*
X131995495Y-94773206D01*
X131996773Y-94774154D01*
X131997952Y-94775222D01*
X131999020Y-94776401D01*
X131999968Y-94777679D01*
X132000786Y-94779044D01*
X132001466Y-94780482D01*
X132002002Y-94781980D01*
X132002388Y-94783523D01*
X132002622Y-94785097D01*
X132002700Y-94786686D01*
X132002700Y-95217462D01*
X132002622Y-95219051D01*
X132002388Y-95220625D01*
X132002002Y-95222168D01*
X132001466Y-95223666D01*
X132000786Y-95225104D01*
X131999968Y-95226469D01*
X131999020Y-95227747D01*
X131997952Y-95228926D01*
X131996773Y-95229994D01*
X131995495Y-95230942D01*
X131994130Y-95231760D01*
X131992692Y-95232440D01*
X131991194Y-95232976D01*
X131989651Y-95233362D01*
X131988077Y-95233596D01*
X131986488Y-95233674D01*
X131055712Y-95233674D01*
X131054123Y-95233596D01*
X131052549Y-95233362D01*
X131051006Y-95232976D01*
X131049508Y-95232440D01*
X131048070Y-95231760D01*
X131046705Y-95230942D01*
X131045427Y-95229994D01*
X131044248Y-95228926D01*
X131043180Y-95227747D01*
X131042232Y-95226469D01*
X131041414Y-95225104D01*
X131040734Y-95223666D01*
X131040198Y-95222168D01*
X131039812Y-95220625D01*
X131039578Y-95219051D01*
X131039500Y-95217462D01*
X131039500Y-94786686D01*
X131039578Y-94785097D01*
X131039812Y-94783523D01*
X131040198Y-94781980D01*
X131040734Y-94780482D01*
X131041414Y-94779044D01*
X131042232Y-94777679D01*
X131043180Y-94776401D01*
X131044248Y-94775222D01*
X131045427Y-94774154D01*
X131046705Y-94773206D01*
X131048070Y-94772388D01*
X131049508Y-94771708D01*
X131051006Y-94771172D01*
X131052549Y-94770786D01*
X131054123Y-94770552D01*
X131055712Y-94770474D01*
X131986488Y-94770474D01*
X131988077Y-94770552D01*
X131988077Y-94770552D01*
G37*
D15*
X131521100Y-95002074D03*
D11*
G36*
X131988077Y-94270552D02*
X131989651Y-94270786D01*
X131991194Y-94271172D01*
X131992692Y-94271708D01*
X131994130Y-94272388D01*
X131995495Y-94273206D01*
X131996773Y-94274154D01*
X131997952Y-94275222D01*
X131999020Y-94276401D01*
X131999968Y-94277679D01*
X132000786Y-94279044D01*
X132001466Y-94280482D01*
X132002002Y-94281980D01*
X132002388Y-94283523D01*
X132002622Y-94285097D01*
X132002700Y-94286686D01*
X132002700Y-94717462D01*
X132002622Y-94719051D01*
X132002388Y-94720625D01*
X132002002Y-94722168D01*
X132001466Y-94723666D01*
X132000786Y-94725104D01*
X131999968Y-94726469D01*
X131999020Y-94727747D01*
X131997952Y-94728926D01*
X131996773Y-94729994D01*
X131995495Y-94730942D01*
X131994130Y-94731760D01*
X131992692Y-94732440D01*
X131991194Y-94732976D01*
X131989651Y-94733362D01*
X131988077Y-94733596D01*
X131986488Y-94733674D01*
X131055712Y-94733674D01*
X131054123Y-94733596D01*
X131052549Y-94733362D01*
X131051006Y-94732976D01*
X131049508Y-94732440D01*
X131048070Y-94731760D01*
X131046705Y-94730942D01*
X131045427Y-94729994D01*
X131044248Y-94728926D01*
X131043180Y-94727747D01*
X131042232Y-94726469D01*
X131041414Y-94725104D01*
X131040734Y-94723666D01*
X131040198Y-94722168D01*
X131039812Y-94720625D01*
X131039578Y-94719051D01*
X131039500Y-94717462D01*
X131039500Y-94286686D01*
X131039578Y-94285097D01*
X131039812Y-94283523D01*
X131040198Y-94281980D01*
X131040734Y-94280482D01*
X131041414Y-94279044D01*
X131042232Y-94277679D01*
X131043180Y-94276401D01*
X131044248Y-94275222D01*
X131045427Y-94274154D01*
X131046705Y-94273206D01*
X131048070Y-94272388D01*
X131049508Y-94271708D01*
X131051006Y-94271172D01*
X131052549Y-94270786D01*
X131054123Y-94270552D01*
X131055712Y-94270474D01*
X131986488Y-94270474D01*
X131988077Y-94270552D01*
X131988077Y-94270552D01*
G37*
D15*
X131521100Y-94502074D03*
D11*
G36*
X131988077Y-93770552D02*
X131989651Y-93770786D01*
X131991194Y-93771172D01*
X131992692Y-93771708D01*
X131994130Y-93772388D01*
X131995495Y-93773206D01*
X131996773Y-93774154D01*
X131997952Y-93775222D01*
X131999020Y-93776401D01*
X131999968Y-93777679D01*
X132000786Y-93779044D01*
X132001466Y-93780482D01*
X132002002Y-93781980D01*
X132002388Y-93783523D01*
X132002622Y-93785097D01*
X132002700Y-93786686D01*
X132002700Y-94217462D01*
X132002622Y-94219051D01*
X132002388Y-94220625D01*
X132002002Y-94222168D01*
X132001466Y-94223666D01*
X132000786Y-94225104D01*
X131999968Y-94226469D01*
X131999020Y-94227747D01*
X131997952Y-94228926D01*
X131996773Y-94229994D01*
X131995495Y-94230942D01*
X131994130Y-94231760D01*
X131992692Y-94232440D01*
X131991194Y-94232976D01*
X131989651Y-94233362D01*
X131988077Y-94233596D01*
X131986488Y-94233674D01*
X131055712Y-94233674D01*
X131054123Y-94233596D01*
X131052549Y-94233362D01*
X131051006Y-94232976D01*
X131049508Y-94232440D01*
X131048070Y-94231760D01*
X131046705Y-94230942D01*
X131045427Y-94229994D01*
X131044248Y-94228926D01*
X131043180Y-94227747D01*
X131042232Y-94226469D01*
X131041414Y-94225104D01*
X131040734Y-94223666D01*
X131040198Y-94222168D01*
X131039812Y-94220625D01*
X131039578Y-94219051D01*
X131039500Y-94217462D01*
X131039500Y-93786686D01*
X131039578Y-93785097D01*
X131039812Y-93783523D01*
X131040198Y-93781980D01*
X131040734Y-93780482D01*
X131041414Y-93779044D01*
X131042232Y-93777679D01*
X131043180Y-93776401D01*
X131044248Y-93775222D01*
X131045427Y-93774154D01*
X131046705Y-93773206D01*
X131048070Y-93772388D01*
X131049508Y-93771708D01*
X131051006Y-93771172D01*
X131052549Y-93770786D01*
X131054123Y-93770552D01*
X131055712Y-93770474D01*
X131986488Y-93770474D01*
X131988077Y-93770552D01*
X131988077Y-93770552D01*
G37*
D15*
X131521100Y-94002074D03*
D11*
G36*
X131988077Y-93270552D02*
X131989651Y-93270786D01*
X131991194Y-93271172D01*
X131992692Y-93271708D01*
X131994130Y-93272388D01*
X131995495Y-93273206D01*
X131996773Y-93274154D01*
X131997952Y-93275222D01*
X131999020Y-93276401D01*
X131999968Y-93277679D01*
X132000786Y-93279044D01*
X132001466Y-93280482D01*
X132002002Y-93281980D01*
X132002388Y-93283523D01*
X132002622Y-93285097D01*
X132002700Y-93286686D01*
X132002700Y-93717462D01*
X132002622Y-93719051D01*
X132002388Y-93720625D01*
X132002002Y-93722168D01*
X132001466Y-93723666D01*
X132000786Y-93725104D01*
X131999968Y-93726469D01*
X131999020Y-93727747D01*
X131997952Y-93728926D01*
X131996773Y-93729994D01*
X131995495Y-93730942D01*
X131994130Y-93731760D01*
X131992692Y-93732440D01*
X131991194Y-93732976D01*
X131989651Y-93733362D01*
X131988077Y-93733596D01*
X131986488Y-93733674D01*
X131055712Y-93733674D01*
X131054123Y-93733596D01*
X131052549Y-93733362D01*
X131051006Y-93732976D01*
X131049508Y-93732440D01*
X131048070Y-93731760D01*
X131046705Y-93730942D01*
X131045427Y-93729994D01*
X131044248Y-93728926D01*
X131043180Y-93727747D01*
X131042232Y-93726469D01*
X131041414Y-93725104D01*
X131040734Y-93723666D01*
X131040198Y-93722168D01*
X131039812Y-93720625D01*
X131039578Y-93719051D01*
X131039500Y-93717462D01*
X131039500Y-93286686D01*
X131039578Y-93285097D01*
X131039812Y-93283523D01*
X131040198Y-93281980D01*
X131040734Y-93280482D01*
X131041414Y-93279044D01*
X131042232Y-93277679D01*
X131043180Y-93276401D01*
X131044248Y-93275222D01*
X131045427Y-93274154D01*
X131046705Y-93273206D01*
X131048070Y-93272388D01*
X131049508Y-93271708D01*
X131051006Y-93271172D01*
X131052549Y-93270786D01*
X131054123Y-93270552D01*
X131055712Y-93270474D01*
X131986488Y-93270474D01*
X131988077Y-93270552D01*
X131988077Y-93270552D01*
G37*
D15*
X131521100Y-93502074D03*
D11*
G36*
X131988077Y-92770552D02*
X131989651Y-92770786D01*
X131991194Y-92771172D01*
X131992692Y-92771708D01*
X131994130Y-92772388D01*
X131995495Y-92773206D01*
X131996773Y-92774154D01*
X131997952Y-92775222D01*
X131999020Y-92776401D01*
X131999968Y-92777679D01*
X132000786Y-92779044D01*
X132001466Y-92780482D01*
X132002002Y-92781980D01*
X132002388Y-92783523D01*
X132002622Y-92785097D01*
X132002700Y-92786686D01*
X132002700Y-93217462D01*
X132002622Y-93219051D01*
X132002388Y-93220625D01*
X132002002Y-93222168D01*
X132001466Y-93223666D01*
X132000786Y-93225104D01*
X131999968Y-93226469D01*
X131999020Y-93227747D01*
X131997952Y-93228926D01*
X131996773Y-93229994D01*
X131995495Y-93230942D01*
X131994130Y-93231760D01*
X131992692Y-93232440D01*
X131991194Y-93232976D01*
X131989651Y-93233362D01*
X131988077Y-93233596D01*
X131986488Y-93233674D01*
X131055712Y-93233674D01*
X131054123Y-93233596D01*
X131052549Y-93233362D01*
X131051006Y-93232976D01*
X131049508Y-93232440D01*
X131048070Y-93231760D01*
X131046705Y-93230942D01*
X131045427Y-93229994D01*
X131044248Y-93228926D01*
X131043180Y-93227747D01*
X131042232Y-93226469D01*
X131041414Y-93225104D01*
X131040734Y-93223666D01*
X131040198Y-93222168D01*
X131039812Y-93220625D01*
X131039578Y-93219051D01*
X131039500Y-93217462D01*
X131039500Y-92786686D01*
X131039578Y-92785097D01*
X131039812Y-92783523D01*
X131040198Y-92781980D01*
X131040734Y-92780482D01*
X131041414Y-92779044D01*
X131042232Y-92777679D01*
X131043180Y-92776401D01*
X131044248Y-92775222D01*
X131045427Y-92774154D01*
X131046705Y-92773206D01*
X131048070Y-92772388D01*
X131049508Y-92771708D01*
X131051006Y-92771172D01*
X131052549Y-92770786D01*
X131054123Y-92770552D01*
X131055712Y-92770474D01*
X131986488Y-92770474D01*
X131988077Y-92770552D01*
X131988077Y-92770552D01*
G37*
D15*
X131521100Y-93002074D03*
D11*
G36*
X131008077Y-91790552D02*
X131009651Y-91790786D01*
X131011194Y-91791172D01*
X131012692Y-91791708D01*
X131014130Y-91792388D01*
X131015495Y-91793206D01*
X131016773Y-91794154D01*
X131017952Y-91795222D01*
X131019020Y-91796401D01*
X131019968Y-91797679D01*
X131020786Y-91799044D01*
X131021466Y-91800482D01*
X131022002Y-91801980D01*
X131022388Y-91803523D01*
X131022622Y-91805097D01*
X131022700Y-91806686D01*
X131022700Y-92737462D01*
X131022622Y-92739051D01*
X131022388Y-92740625D01*
X131022002Y-92742168D01*
X131021466Y-92743666D01*
X131020786Y-92745104D01*
X131019968Y-92746469D01*
X131019020Y-92747747D01*
X131017952Y-92748926D01*
X131016773Y-92749994D01*
X131015495Y-92750942D01*
X131014130Y-92751760D01*
X131012692Y-92752440D01*
X131011194Y-92752976D01*
X131009651Y-92753362D01*
X131008077Y-92753596D01*
X131006488Y-92753674D01*
X130575712Y-92753674D01*
X130574123Y-92753596D01*
X130572549Y-92753362D01*
X130571006Y-92752976D01*
X130569508Y-92752440D01*
X130568070Y-92751760D01*
X130566705Y-92750942D01*
X130565427Y-92749994D01*
X130564248Y-92748926D01*
X130563180Y-92747747D01*
X130562232Y-92746469D01*
X130561414Y-92745104D01*
X130560734Y-92743666D01*
X130560198Y-92742168D01*
X130559812Y-92740625D01*
X130559578Y-92739051D01*
X130559500Y-92737462D01*
X130559500Y-91806686D01*
X130559578Y-91805097D01*
X130559812Y-91803523D01*
X130560198Y-91801980D01*
X130560734Y-91800482D01*
X130561414Y-91799044D01*
X130562232Y-91797679D01*
X130563180Y-91796401D01*
X130564248Y-91795222D01*
X130565427Y-91794154D01*
X130566705Y-91793206D01*
X130568070Y-91792388D01*
X130569508Y-91791708D01*
X130571006Y-91791172D01*
X130572549Y-91790786D01*
X130574123Y-91790552D01*
X130575712Y-91790474D01*
X131006488Y-91790474D01*
X131008077Y-91790552D01*
X131008077Y-91790552D01*
G37*
D15*
X130791100Y-92272074D03*
D11*
G36*
X130508077Y-91790552D02*
X130509651Y-91790786D01*
X130511194Y-91791172D01*
X130512692Y-91791708D01*
X130514130Y-91792388D01*
X130515495Y-91793206D01*
X130516773Y-91794154D01*
X130517952Y-91795222D01*
X130519020Y-91796401D01*
X130519968Y-91797679D01*
X130520786Y-91799044D01*
X130521466Y-91800482D01*
X130522002Y-91801980D01*
X130522388Y-91803523D01*
X130522622Y-91805097D01*
X130522700Y-91806686D01*
X130522700Y-92737462D01*
X130522622Y-92739051D01*
X130522388Y-92740625D01*
X130522002Y-92742168D01*
X130521466Y-92743666D01*
X130520786Y-92745104D01*
X130519968Y-92746469D01*
X130519020Y-92747747D01*
X130517952Y-92748926D01*
X130516773Y-92749994D01*
X130515495Y-92750942D01*
X130514130Y-92751760D01*
X130512692Y-92752440D01*
X130511194Y-92752976D01*
X130509651Y-92753362D01*
X130508077Y-92753596D01*
X130506488Y-92753674D01*
X130075712Y-92753674D01*
X130074123Y-92753596D01*
X130072549Y-92753362D01*
X130071006Y-92752976D01*
X130069508Y-92752440D01*
X130068070Y-92751760D01*
X130066705Y-92750942D01*
X130065427Y-92749994D01*
X130064248Y-92748926D01*
X130063180Y-92747747D01*
X130062232Y-92746469D01*
X130061414Y-92745104D01*
X130060734Y-92743666D01*
X130060198Y-92742168D01*
X130059812Y-92740625D01*
X130059578Y-92739051D01*
X130059500Y-92737462D01*
X130059500Y-91806686D01*
X130059578Y-91805097D01*
X130059812Y-91803523D01*
X130060198Y-91801980D01*
X130060734Y-91800482D01*
X130061414Y-91799044D01*
X130062232Y-91797679D01*
X130063180Y-91796401D01*
X130064248Y-91795222D01*
X130065427Y-91794154D01*
X130066705Y-91793206D01*
X130068070Y-91792388D01*
X130069508Y-91791708D01*
X130071006Y-91791172D01*
X130072549Y-91790786D01*
X130074123Y-91790552D01*
X130075712Y-91790474D01*
X130506488Y-91790474D01*
X130508077Y-91790552D01*
X130508077Y-91790552D01*
G37*
D15*
X130291100Y-92272074D03*
D11*
G36*
X130008077Y-91790552D02*
X130009651Y-91790786D01*
X130011194Y-91791172D01*
X130012692Y-91791708D01*
X130014130Y-91792388D01*
X130015495Y-91793206D01*
X130016773Y-91794154D01*
X130017952Y-91795222D01*
X130019020Y-91796401D01*
X130019968Y-91797679D01*
X130020786Y-91799044D01*
X130021466Y-91800482D01*
X130022002Y-91801980D01*
X130022388Y-91803523D01*
X130022622Y-91805097D01*
X130022700Y-91806686D01*
X130022700Y-92737462D01*
X130022622Y-92739051D01*
X130022388Y-92740625D01*
X130022002Y-92742168D01*
X130021466Y-92743666D01*
X130020786Y-92745104D01*
X130019968Y-92746469D01*
X130019020Y-92747747D01*
X130017952Y-92748926D01*
X130016773Y-92749994D01*
X130015495Y-92750942D01*
X130014130Y-92751760D01*
X130012692Y-92752440D01*
X130011194Y-92752976D01*
X130009651Y-92753362D01*
X130008077Y-92753596D01*
X130006488Y-92753674D01*
X129575712Y-92753674D01*
X129574123Y-92753596D01*
X129572549Y-92753362D01*
X129571006Y-92752976D01*
X129569508Y-92752440D01*
X129568070Y-92751760D01*
X129566705Y-92750942D01*
X129565427Y-92749994D01*
X129564248Y-92748926D01*
X129563180Y-92747747D01*
X129562232Y-92746469D01*
X129561414Y-92745104D01*
X129560734Y-92743666D01*
X129560198Y-92742168D01*
X129559812Y-92740625D01*
X129559578Y-92739051D01*
X129559500Y-92737462D01*
X129559500Y-91806686D01*
X129559578Y-91805097D01*
X129559812Y-91803523D01*
X129560198Y-91801980D01*
X129560734Y-91800482D01*
X129561414Y-91799044D01*
X129562232Y-91797679D01*
X129563180Y-91796401D01*
X129564248Y-91795222D01*
X129565427Y-91794154D01*
X129566705Y-91793206D01*
X129568070Y-91792388D01*
X129569508Y-91791708D01*
X129571006Y-91791172D01*
X129572549Y-91790786D01*
X129574123Y-91790552D01*
X129575712Y-91790474D01*
X130006488Y-91790474D01*
X130008077Y-91790552D01*
X130008077Y-91790552D01*
G37*
D15*
X129791100Y-92272074D03*
D11*
G36*
X129508077Y-91790552D02*
X129509651Y-91790786D01*
X129511194Y-91791172D01*
X129512692Y-91791708D01*
X129514130Y-91792388D01*
X129515495Y-91793206D01*
X129516773Y-91794154D01*
X129517952Y-91795222D01*
X129519020Y-91796401D01*
X129519968Y-91797679D01*
X129520786Y-91799044D01*
X129521466Y-91800482D01*
X129522002Y-91801980D01*
X129522388Y-91803523D01*
X129522622Y-91805097D01*
X129522700Y-91806686D01*
X129522700Y-92737462D01*
X129522622Y-92739051D01*
X129522388Y-92740625D01*
X129522002Y-92742168D01*
X129521466Y-92743666D01*
X129520786Y-92745104D01*
X129519968Y-92746469D01*
X129519020Y-92747747D01*
X129517952Y-92748926D01*
X129516773Y-92749994D01*
X129515495Y-92750942D01*
X129514130Y-92751760D01*
X129512692Y-92752440D01*
X129511194Y-92752976D01*
X129509651Y-92753362D01*
X129508077Y-92753596D01*
X129506488Y-92753674D01*
X129075712Y-92753674D01*
X129074123Y-92753596D01*
X129072549Y-92753362D01*
X129071006Y-92752976D01*
X129069508Y-92752440D01*
X129068070Y-92751760D01*
X129066705Y-92750942D01*
X129065427Y-92749994D01*
X129064248Y-92748926D01*
X129063180Y-92747747D01*
X129062232Y-92746469D01*
X129061414Y-92745104D01*
X129060734Y-92743666D01*
X129060198Y-92742168D01*
X129059812Y-92740625D01*
X129059578Y-92739051D01*
X129059500Y-92737462D01*
X129059500Y-91806686D01*
X129059578Y-91805097D01*
X129059812Y-91803523D01*
X129060198Y-91801980D01*
X129060734Y-91800482D01*
X129061414Y-91799044D01*
X129062232Y-91797679D01*
X129063180Y-91796401D01*
X129064248Y-91795222D01*
X129065427Y-91794154D01*
X129066705Y-91793206D01*
X129068070Y-91792388D01*
X129069508Y-91791708D01*
X129071006Y-91791172D01*
X129072549Y-91790786D01*
X129074123Y-91790552D01*
X129075712Y-91790474D01*
X129506488Y-91790474D01*
X129508077Y-91790552D01*
X129508077Y-91790552D01*
G37*
D15*
X129291100Y-92272074D03*
D11*
G36*
X129008077Y-91790552D02*
X129009651Y-91790786D01*
X129011194Y-91791172D01*
X129012692Y-91791708D01*
X129014130Y-91792388D01*
X129015495Y-91793206D01*
X129016773Y-91794154D01*
X129017952Y-91795222D01*
X129019020Y-91796401D01*
X129019968Y-91797679D01*
X129020786Y-91799044D01*
X129021466Y-91800482D01*
X129022002Y-91801980D01*
X129022388Y-91803523D01*
X129022622Y-91805097D01*
X129022700Y-91806686D01*
X129022700Y-92737462D01*
X129022622Y-92739051D01*
X129022388Y-92740625D01*
X129022002Y-92742168D01*
X129021466Y-92743666D01*
X129020786Y-92745104D01*
X129019968Y-92746469D01*
X129019020Y-92747747D01*
X129017952Y-92748926D01*
X129016773Y-92749994D01*
X129015495Y-92750942D01*
X129014130Y-92751760D01*
X129012692Y-92752440D01*
X129011194Y-92752976D01*
X129009651Y-92753362D01*
X129008077Y-92753596D01*
X129006488Y-92753674D01*
X128575712Y-92753674D01*
X128574123Y-92753596D01*
X128572549Y-92753362D01*
X128571006Y-92752976D01*
X128569508Y-92752440D01*
X128568070Y-92751760D01*
X128566705Y-92750942D01*
X128565427Y-92749994D01*
X128564248Y-92748926D01*
X128563180Y-92747747D01*
X128562232Y-92746469D01*
X128561414Y-92745104D01*
X128560734Y-92743666D01*
X128560198Y-92742168D01*
X128559812Y-92740625D01*
X128559578Y-92739051D01*
X128559500Y-92737462D01*
X128559500Y-91806686D01*
X128559578Y-91805097D01*
X128559812Y-91803523D01*
X128560198Y-91801980D01*
X128560734Y-91800482D01*
X128561414Y-91799044D01*
X128562232Y-91797679D01*
X128563180Y-91796401D01*
X128564248Y-91795222D01*
X128565427Y-91794154D01*
X128566705Y-91793206D01*
X128568070Y-91792388D01*
X128569508Y-91791708D01*
X128571006Y-91791172D01*
X128572549Y-91790786D01*
X128574123Y-91790552D01*
X128575712Y-91790474D01*
X129006488Y-91790474D01*
X129008077Y-91790552D01*
X129008077Y-91790552D01*
G37*
D15*
X128791100Y-92272074D03*
D11*
G36*
X128508077Y-91790552D02*
X128509651Y-91790786D01*
X128511194Y-91791172D01*
X128512692Y-91791708D01*
X128514130Y-91792388D01*
X128515495Y-91793206D01*
X128516773Y-91794154D01*
X128517952Y-91795222D01*
X128519020Y-91796401D01*
X128519968Y-91797679D01*
X128520786Y-91799044D01*
X128521466Y-91800482D01*
X128522002Y-91801980D01*
X128522388Y-91803523D01*
X128522622Y-91805097D01*
X128522700Y-91806686D01*
X128522700Y-92737462D01*
X128522622Y-92739051D01*
X128522388Y-92740625D01*
X128522002Y-92742168D01*
X128521466Y-92743666D01*
X128520786Y-92745104D01*
X128519968Y-92746469D01*
X128519020Y-92747747D01*
X128517952Y-92748926D01*
X128516773Y-92749994D01*
X128515495Y-92750942D01*
X128514130Y-92751760D01*
X128512692Y-92752440D01*
X128511194Y-92752976D01*
X128509651Y-92753362D01*
X128508077Y-92753596D01*
X128506488Y-92753674D01*
X128075712Y-92753674D01*
X128074123Y-92753596D01*
X128072549Y-92753362D01*
X128071006Y-92752976D01*
X128069508Y-92752440D01*
X128068070Y-92751760D01*
X128066705Y-92750942D01*
X128065427Y-92749994D01*
X128064248Y-92748926D01*
X128063180Y-92747747D01*
X128062232Y-92746469D01*
X128061414Y-92745104D01*
X128060734Y-92743666D01*
X128060198Y-92742168D01*
X128059812Y-92740625D01*
X128059578Y-92739051D01*
X128059500Y-92737462D01*
X128059500Y-91806686D01*
X128059578Y-91805097D01*
X128059812Y-91803523D01*
X128060198Y-91801980D01*
X128060734Y-91800482D01*
X128061414Y-91799044D01*
X128062232Y-91797679D01*
X128063180Y-91796401D01*
X128064248Y-91795222D01*
X128065427Y-91794154D01*
X128066705Y-91793206D01*
X128068070Y-91792388D01*
X128069508Y-91791708D01*
X128071006Y-91791172D01*
X128072549Y-91790786D01*
X128074123Y-91790552D01*
X128075712Y-91790474D01*
X128506488Y-91790474D01*
X128508077Y-91790552D01*
X128508077Y-91790552D01*
G37*
D15*
X128291100Y-92272074D03*
D11*
G36*
X128028077Y-92770552D02*
X128029651Y-92770786D01*
X128031194Y-92771172D01*
X128032692Y-92771708D01*
X128034130Y-92772388D01*
X128035495Y-92773206D01*
X128036773Y-92774154D01*
X128037952Y-92775222D01*
X128039020Y-92776401D01*
X128039968Y-92777679D01*
X128040786Y-92779044D01*
X128041466Y-92780482D01*
X128042002Y-92781980D01*
X128042388Y-92783523D01*
X128042622Y-92785097D01*
X128042700Y-92786686D01*
X128042700Y-93217462D01*
X128042622Y-93219051D01*
X128042388Y-93220625D01*
X128042002Y-93222168D01*
X128041466Y-93223666D01*
X128040786Y-93225104D01*
X128039968Y-93226469D01*
X128039020Y-93227747D01*
X128037952Y-93228926D01*
X128036773Y-93229994D01*
X128035495Y-93230942D01*
X128034130Y-93231760D01*
X128032692Y-93232440D01*
X128031194Y-93232976D01*
X128029651Y-93233362D01*
X128028077Y-93233596D01*
X128026488Y-93233674D01*
X127095712Y-93233674D01*
X127094123Y-93233596D01*
X127092549Y-93233362D01*
X127091006Y-93232976D01*
X127089508Y-93232440D01*
X127088070Y-93231760D01*
X127086705Y-93230942D01*
X127085427Y-93229994D01*
X127084248Y-93228926D01*
X127083180Y-93227747D01*
X127082232Y-93226469D01*
X127081414Y-93225104D01*
X127080734Y-93223666D01*
X127080198Y-93222168D01*
X127079812Y-93220625D01*
X127079578Y-93219051D01*
X127079500Y-93217462D01*
X127079500Y-92786686D01*
X127079578Y-92785097D01*
X127079812Y-92783523D01*
X127080198Y-92781980D01*
X127080734Y-92780482D01*
X127081414Y-92779044D01*
X127082232Y-92777679D01*
X127083180Y-92776401D01*
X127084248Y-92775222D01*
X127085427Y-92774154D01*
X127086705Y-92773206D01*
X127088070Y-92772388D01*
X127089508Y-92771708D01*
X127091006Y-92771172D01*
X127092549Y-92770786D01*
X127094123Y-92770552D01*
X127095712Y-92770474D01*
X128026488Y-92770474D01*
X128028077Y-92770552D01*
X128028077Y-92770552D01*
G37*
D15*
X127561100Y-93002074D03*
D11*
G36*
X128028077Y-93270552D02*
X128029651Y-93270786D01*
X128031194Y-93271172D01*
X128032692Y-93271708D01*
X128034130Y-93272388D01*
X128035495Y-93273206D01*
X128036773Y-93274154D01*
X128037952Y-93275222D01*
X128039020Y-93276401D01*
X128039968Y-93277679D01*
X128040786Y-93279044D01*
X128041466Y-93280482D01*
X128042002Y-93281980D01*
X128042388Y-93283523D01*
X128042622Y-93285097D01*
X128042700Y-93286686D01*
X128042700Y-93717462D01*
X128042622Y-93719051D01*
X128042388Y-93720625D01*
X128042002Y-93722168D01*
X128041466Y-93723666D01*
X128040786Y-93725104D01*
X128039968Y-93726469D01*
X128039020Y-93727747D01*
X128037952Y-93728926D01*
X128036773Y-93729994D01*
X128035495Y-93730942D01*
X128034130Y-93731760D01*
X128032692Y-93732440D01*
X128031194Y-93732976D01*
X128029651Y-93733362D01*
X128028077Y-93733596D01*
X128026488Y-93733674D01*
X127095712Y-93733674D01*
X127094123Y-93733596D01*
X127092549Y-93733362D01*
X127091006Y-93732976D01*
X127089508Y-93732440D01*
X127088070Y-93731760D01*
X127086705Y-93730942D01*
X127085427Y-93729994D01*
X127084248Y-93728926D01*
X127083180Y-93727747D01*
X127082232Y-93726469D01*
X127081414Y-93725104D01*
X127080734Y-93723666D01*
X127080198Y-93722168D01*
X127079812Y-93720625D01*
X127079578Y-93719051D01*
X127079500Y-93717462D01*
X127079500Y-93286686D01*
X127079578Y-93285097D01*
X127079812Y-93283523D01*
X127080198Y-93281980D01*
X127080734Y-93280482D01*
X127081414Y-93279044D01*
X127082232Y-93277679D01*
X127083180Y-93276401D01*
X127084248Y-93275222D01*
X127085427Y-93274154D01*
X127086705Y-93273206D01*
X127088070Y-93272388D01*
X127089508Y-93271708D01*
X127091006Y-93271172D01*
X127092549Y-93270786D01*
X127094123Y-93270552D01*
X127095712Y-93270474D01*
X128026488Y-93270474D01*
X128028077Y-93270552D01*
X128028077Y-93270552D01*
G37*
D15*
X127561100Y-93502074D03*
D11*
G36*
X128028077Y-93770552D02*
X128029651Y-93770786D01*
X128031194Y-93771172D01*
X128032692Y-93771708D01*
X128034130Y-93772388D01*
X128035495Y-93773206D01*
X128036773Y-93774154D01*
X128037952Y-93775222D01*
X128039020Y-93776401D01*
X128039968Y-93777679D01*
X128040786Y-93779044D01*
X128041466Y-93780482D01*
X128042002Y-93781980D01*
X128042388Y-93783523D01*
X128042622Y-93785097D01*
X128042700Y-93786686D01*
X128042700Y-94217462D01*
X128042622Y-94219051D01*
X128042388Y-94220625D01*
X128042002Y-94222168D01*
X128041466Y-94223666D01*
X128040786Y-94225104D01*
X128039968Y-94226469D01*
X128039020Y-94227747D01*
X128037952Y-94228926D01*
X128036773Y-94229994D01*
X128035495Y-94230942D01*
X128034130Y-94231760D01*
X128032692Y-94232440D01*
X128031194Y-94232976D01*
X128029651Y-94233362D01*
X128028077Y-94233596D01*
X128026488Y-94233674D01*
X127095712Y-94233674D01*
X127094123Y-94233596D01*
X127092549Y-94233362D01*
X127091006Y-94232976D01*
X127089508Y-94232440D01*
X127088070Y-94231760D01*
X127086705Y-94230942D01*
X127085427Y-94229994D01*
X127084248Y-94228926D01*
X127083180Y-94227747D01*
X127082232Y-94226469D01*
X127081414Y-94225104D01*
X127080734Y-94223666D01*
X127080198Y-94222168D01*
X127079812Y-94220625D01*
X127079578Y-94219051D01*
X127079500Y-94217462D01*
X127079500Y-93786686D01*
X127079578Y-93785097D01*
X127079812Y-93783523D01*
X127080198Y-93781980D01*
X127080734Y-93780482D01*
X127081414Y-93779044D01*
X127082232Y-93777679D01*
X127083180Y-93776401D01*
X127084248Y-93775222D01*
X127085427Y-93774154D01*
X127086705Y-93773206D01*
X127088070Y-93772388D01*
X127089508Y-93771708D01*
X127091006Y-93771172D01*
X127092549Y-93770786D01*
X127094123Y-93770552D01*
X127095712Y-93770474D01*
X128026488Y-93770474D01*
X128028077Y-93770552D01*
X128028077Y-93770552D01*
G37*
D15*
X127561100Y-94002074D03*
D11*
G36*
X128028077Y-94270552D02*
X128029651Y-94270786D01*
X128031194Y-94271172D01*
X128032692Y-94271708D01*
X128034130Y-94272388D01*
X128035495Y-94273206D01*
X128036773Y-94274154D01*
X128037952Y-94275222D01*
X128039020Y-94276401D01*
X128039968Y-94277679D01*
X128040786Y-94279044D01*
X128041466Y-94280482D01*
X128042002Y-94281980D01*
X128042388Y-94283523D01*
X128042622Y-94285097D01*
X128042700Y-94286686D01*
X128042700Y-94717462D01*
X128042622Y-94719051D01*
X128042388Y-94720625D01*
X128042002Y-94722168D01*
X128041466Y-94723666D01*
X128040786Y-94725104D01*
X128039968Y-94726469D01*
X128039020Y-94727747D01*
X128037952Y-94728926D01*
X128036773Y-94729994D01*
X128035495Y-94730942D01*
X128034130Y-94731760D01*
X128032692Y-94732440D01*
X128031194Y-94732976D01*
X128029651Y-94733362D01*
X128028077Y-94733596D01*
X128026488Y-94733674D01*
X127095712Y-94733674D01*
X127094123Y-94733596D01*
X127092549Y-94733362D01*
X127091006Y-94732976D01*
X127089508Y-94732440D01*
X127088070Y-94731760D01*
X127086705Y-94730942D01*
X127085427Y-94729994D01*
X127084248Y-94728926D01*
X127083180Y-94727747D01*
X127082232Y-94726469D01*
X127081414Y-94725104D01*
X127080734Y-94723666D01*
X127080198Y-94722168D01*
X127079812Y-94720625D01*
X127079578Y-94719051D01*
X127079500Y-94717462D01*
X127079500Y-94286686D01*
X127079578Y-94285097D01*
X127079812Y-94283523D01*
X127080198Y-94281980D01*
X127080734Y-94280482D01*
X127081414Y-94279044D01*
X127082232Y-94277679D01*
X127083180Y-94276401D01*
X127084248Y-94275222D01*
X127085427Y-94274154D01*
X127086705Y-94273206D01*
X127088070Y-94272388D01*
X127089508Y-94271708D01*
X127091006Y-94271172D01*
X127092549Y-94270786D01*
X127094123Y-94270552D01*
X127095712Y-94270474D01*
X128026488Y-94270474D01*
X128028077Y-94270552D01*
X128028077Y-94270552D01*
G37*
D15*
X127561100Y-94502074D03*
D11*
G36*
X128028077Y-94770552D02*
X128029651Y-94770786D01*
X128031194Y-94771172D01*
X128032692Y-94771708D01*
X128034130Y-94772388D01*
X128035495Y-94773206D01*
X128036773Y-94774154D01*
X128037952Y-94775222D01*
X128039020Y-94776401D01*
X128039968Y-94777679D01*
X128040786Y-94779044D01*
X128041466Y-94780482D01*
X128042002Y-94781980D01*
X128042388Y-94783523D01*
X128042622Y-94785097D01*
X128042700Y-94786686D01*
X128042700Y-95217462D01*
X128042622Y-95219051D01*
X128042388Y-95220625D01*
X128042002Y-95222168D01*
X128041466Y-95223666D01*
X128040786Y-95225104D01*
X128039968Y-95226469D01*
X128039020Y-95227747D01*
X128037952Y-95228926D01*
X128036773Y-95229994D01*
X128035495Y-95230942D01*
X128034130Y-95231760D01*
X128032692Y-95232440D01*
X128031194Y-95232976D01*
X128029651Y-95233362D01*
X128028077Y-95233596D01*
X128026488Y-95233674D01*
X127095712Y-95233674D01*
X127094123Y-95233596D01*
X127092549Y-95233362D01*
X127091006Y-95232976D01*
X127089508Y-95232440D01*
X127088070Y-95231760D01*
X127086705Y-95230942D01*
X127085427Y-95229994D01*
X127084248Y-95228926D01*
X127083180Y-95227747D01*
X127082232Y-95226469D01*
X127081414Y-95225104D01*
X127080734Y-95223666D01*
X127080198Y-95222168D01*
X127079812Y-95220625D01*
X127079578Y-95219051D01*
X127079500Y-95217462D01*
X127079500Y-94786686D01*
X127079578Y-94785097D01*
X127079812Y-94783523D01*
X127080198Y-94781980D01*
X127080734Y-94780482D01*
X127081414Y-94779044D01*
X127082232Y-94777679D01*
X127083180Y-94776401D01*
X127084248Y-94775222D01*
X127085427Y-94774154D01*
X127086705Y-94773206D01*
X127088070Y-94772388D01*
X127089508Y-94771708D01*
X127091006Y-94771172D01*
X127092549Y-94770786D01*
X127094123Y-94770552D01*
X127095712Y-94770474D01*
X128026488Y-94770474D01*
X128028077Y-94770552D01*
X128028077Y-94770552D01*
G37*
D15*
X127561100Y-95002074D03*
D11*
G36*
X128028077Y-95270552D02*
X128029651Y-95270786D01*
X128031194Y-95271172D01*
X128032692Y-95271708D01*
X128034130Y-95272388D01*
X128035495Y-95273206D01*
X128036773Y-95274154D01*
X128037952Y-95275222D01*
X128039020Y-95276401D01*
X128039968Y-95277679D01*
X128040786Y-95279044D01*
X128041466Y-95280482D01*
X128042002Y-95281980D01*
X128042388Y-95283523D01*
X128042622Y-95285097D01*
X128042700Y-95286686D01*
X128042700Y-95717462D01*
X128042622Y-95719051D01*
X128042388Y-95720625D01*
X128042002Y-95722168D01*
X128041466Y-95723666D01*
X128040786Y-95725104D01*
X128039968Y-95726469D01*
X128039020Y-95727747D01*
X128037952Y-95728926D01*
X128036773Y-95729994D01*
X128035495Y-95730942D01*
X128034130Y-95731760D01*
X128032692Y-95732440D01*
X128031194Y-95732976D01*
X128029651Y-95733362D01*
X128028077Y-95733596D01*
X128026488Y-95733674D01*
X127095712Y-95733674D01*
X127094123Y-95733596D01*
X127092549Y-95733362D01*
X127091006Y-95732976D01*
X127089508Y-95732440D01*
X127088070Y-95731760D01*
X127086705Y-95730942D01*
X127085427Y-95729994D01*
X127084248Y-95728926D01*
X127083180Y-95727747D01*
X127082232Y-95726469D01*
X127081414Y-95725104D01*
X127080734Y-95723666D01*
X127080198Y-95722168D01*
X127079812Y-95720625D01*
X127079578Y-95719051D01*
X127079500Y-95717462D01*
X127079500Y-95286686D01*
X127079578Y-95285097D01*
X127079812Y-95283523D01*
X127080198Y-95281980D01*
X127080734Y-95280482D01*
X127081414Y-95279044D01*
X127082232Y-95277679D01*
X127083180Y-95276401D01*
X127084248Y-95275222D01*
X127085427Y-95274154D01*
X127086705Y-95273206D01*
X127088070Y-95272388D01*
X127089508Y-95271708D01*
X127091006Y-95271172D01*
X127092549Y-95270786D01*
X127094123Y-95270552D01*
X127095712Y-95270474D01*
X128026488Y-95270474D01*
X128028077Y-95270552D01*
X128028077Y-95270552D01*
G37*
D15*
X127561100Y-95502074D03*
D11*
G36*
X128508077Y-95750552D02*
X128509651Y-95750786D01*
X128511194Y-95751172D01*
X128512692Y-95751708D01*
X128514130Y-95752388D01*
X128515495Y-95753206D01*
X128516773Y-95754154D01*
X128517952Y-95755222D01*
X128519020Y-95756401D01*
X128519968Y-95757679D01*
X128520786Y-95759044D01*
X128521466Y-95760482D01*
X128522002Y-95761980D01*
X128522388Y-95763523D01*
X128522622Y-95765097D01*
X128522700Y-95766686D01*
X128522700Y-96697462D01*
X128522622Y-96699051D01*
X128522388Y-96700625D01*
X128522002Y-96702168D01*
X128521466Y-96703666D01*
X128520786Y-96705104D01*
X128519968Y-96706469D01*
X128519020Y-96707747D01*
X128517952Y-96708926D01*
X128516773Y-96709994D01*
X128515495Y-96710942D01*
X128514130Y-96711760D01*
X128512692Y-96712440D01*
X128511194Y-96712976D01*
X128509651Y-96713362D01*
X128508077Y-96713596D01*
X128506488Y-96713674D01*
X128075712Y-96713674D01*
X128074123Y-96713596D01*
X128072549Y-96713362D01*
X128071006Y-96712976D01*
X128069508Y-96712440D01*
X128068070Y-96711760D01*
X128066705Y-96710942D01*
X128065427Y-96709994D01*
X128064248Y-96708926D01*
X128063180Y-96707747D01*
X128062232Y-96706469D01*
X128061414Y-96705104D01*
X128060734Y-96703666D01*
X128060198Y-96702168D01*
X128059812Y-96700625D01*
X128059578Y-96699051D01*
X128059500Y-96697462D01*
X128059500Y-95766686D01*
X128059578Y-95765097D01*
X128059812Y-95763523D01*
X128060198Y-95761980D01*
X128060734Y-95760482D01*
X128061414Y-95759044D01*
X128062232Y-95757679D01*
X128063180Y-95756401D01*
X128064248Y-95755222D01*
X128065427Y-95754154D01*
X128066705Y-95753206D01*
X128068070Y-95752388D01*
X128069508Y-95751708D01*
X128071006Y-95751172D01*
X128072549Y-95750786D01*
X128074123Y-95750552D01*
X128075712Y-95750474D01*
X128506488Y-95750474D01*
X128508077Y-95750552D01*
X128508077Y-95750552D01*
G37*
D15*
X128291100Y-96232074D03*
D11*
G36*
X129008077Y-95750552D02*
X129009651Y-95750786D01*
X129011194Y-95751172D01*
X129012692Y-95751708D01*
X129014130Y-95752388D01*
X129015495Y-95753206D01*
X129016773Y-95754154D01*
X129017952Y-95755222D01*
X129019020Y-95756401D01*
X129019968Y-95757679D01*
X129020786Y-95759044D01*
X129021466Y-95760482D01*
X129022002Y-95761980D01*
X129022388Y-95763523D01*
X129022622Y-95765097D01*
X129022700Y-95766686D01*
X129022700Y-96697462D01*
X129022622Y-96699051D01*
X129022388Y-96700625D01*
X129022002Y-96702168D01*
X129021466Y-96703666D01*
X129020786Y-96705104D01*
X129019968Y-96706469D01*
X129019020Y-96707747D01*
X129017952Y-96708926D01*
X129016773Y-96709994D01*
X129015495Y-96710942D01*
X129014130Y-96711760D01*
X129012692Y-96712440D01*
X129011194Y-96712976D01*
X129009651Y-96713362D01*
X129008077Y-96713596D01*
X129006488Y-96713674D01*
X128575712Y-96713674D01*
X128574123Y-96713596D01*
X128572549Y-96713362D01*
X128571006Y-96712976D01*
X128569508Y-96712440D01*
X128568070Y-96711760D01*
X128566705Y-96710942D01*
X128565427Y-96709994D01*
X128564248Y-96708926D01*
X128563180Y-96707747D01*
X128562232Y-96706469D01*
X128561414Y-96705104D01*
X128560734Y-96703666D01*
X128560198Y-96702168D01*
X128559812Y-96700625D01*
X128559578Y-96699051D01*
X128559500Y-96697462D01*
X128559500Y-95766686D01*
X128559578Y-95765097D01*
X128559812Y-95763523D01*
X128560198Y-95761980D01*
X128560734Y-95760482D01*
X128561414Y-95759044D01*
X128562232Y-95757679D01*
X128563180Y-95756401D01*
X128564248Y-95755222D01*
X128565427Y-95754154D01*
X128566705Y-95753206D01*
X128568070Y-95752388D01*
X128569508Y-95751708D01*
X128571006Y-95751172D01*
X128572549Y-95750786D01*
X128574123Y-95750552D01*
X128575712Y-95750474D01*
X129006488Y-95750474D01*
X129008077Y-95750552D01*
X129008077Y-95750552D01*
G37*
D15*
X128791100Y-96232074D03*
D11*
G36*
X129508077Y-95750552D02*
X129509651Y-95750786D01*
X129511194Y-95751172D01*
X129512692Y-95751708D01*
X129514130Y-95752388D01*
X129515495Y-95753206D01*
X129516773Y-95754154D01*
X129517952Y-95755222D01*
X129519020Y-95756401D01*
X129519968Y-95757679D01*
X129520786Y-95759044D01*
X129521466Y-95760482D01*
X129522002Y-95761980D01*
X129522388Y-95763523D01*
X129522622Y-95765097D01*
X129522700Y-95766686D01*
X129522700Y-96697462D01*
X129522622Y-96699051D01*
X129522388Y-96700625D01*
X129522002Y-96702168D01*
X129521466Y-96703666D01*
X129520786Y-96705104D01*
X129519968Y-96706469D01*
X129519020Y-96707747D01*
X129517952Y-96708926D01*
X129516773Y-96709994D01*
X129515495Y-96710942D01*
X129514130Y-96711760D01*
X129512692Y-96712440D01*
X129511194Y-96712976D01*
X129509651Y-96713362D01*
X129508077Y-96713596D01*
X129506488Y-96713674D01*
X129075712Y-96713674D01*
X129074123Y-96713596D01*
X129072549Y-96713362D01*
X129071006Y-96712976D01*
X129069508Y-96712440D01*
X129068070Y-96711760D01*
X129066705Y-96710942D01*
X129065427Y-96709994D01*
X129064248Y-96708926D01*
X129063180Y-96707747D01*
X129062232Y-96706469D01*
X129061414Y-96705104D01*
X129060734Y-96703666D01*
X129060198Y-96702168D01*
X129059812Y-96700625D01*
X129059578Y-96699051D01*
X129059500Y-96697462D01*
X129059500Y-95766686D01*
X129059578Y-95765097D01*
X129059812Y-95763523D01*
X129060198Y-95761980D01*
X129060734Y-95760482D01*
X129061414Y-95759044D01*
X129062232Y-95757679D01*
X129063180Y-95756401D01*
X129064248Y-95755222D01*
X129065427Y-95754154D01*
X129066705Y-95753206D01*
X129068070Y-95752388D01*
X129069508Y-95751708D01*
X129071006Y-95751172D01*
X129072549Y-95750786D01*
X129074123Y-95750552D01*
X129075712Y-95750474D01*
X129506488Y-95750474D01*
X129508077Y-95750552D01*
X129508077Y-95750552D01*
G37*
D15*
X129291100Y-96232074D03*
D11*
G36*
X130008077Y-95750552D02*
X130009651Y-95750786D01*
X130011194Y-95751172D01*
X130012692Y-95751708D01*
X130014130Y-95752388D01*
X130015495Y-95753206D01*
X130016773Y-95754154D01*
X130017952Y-95755222D01*
X130019020Y-95756401D01*
X130019968Y-95757679D01*
X130020786Y-95759044D01*
X130021466Y-95760482D01*
X130022002Y-95761980D01*
X130022388Y-95763523D01*
X130022622Y-95765097D01*
X130022700Y-95766686D01*
X130022700Y-96697462D01*
X130022622Y-96699051D01*
X130022388Y-96700625D01*
X130022002Y-96702168D01*
X130021466Y-96703666D01*
X130020786Y-96705104D01*
X130019968Y-96706469D01*
X130019020Y-96707747D01*
X130017952Y-96708926D01*
X130016773Y-96709994D01*
X130015495Y-96710942D01*
X130014130Y-96711760D01*
X130012692Y-96712440D01*
X130011194Y-96712976D01*
X130009651Y-96713362D01*
X130008077Y-96713596D01*
X130006488Y-96713674D01*
X129575712Y-96713674D01*
X129574123Y-96713596D01*
X129572549Y-96713362D01*
X129571006Y-96712976D01*
X129569508Y-96712440D01*
X129568070Y-96711760D01*
X129566705Y-96710942D01*
X129565427Y-96709994D01*
X129564248Y-96708926D01*
X129563180Y-96707747D01*
X129562232Y-96706469D01*
X129561414Y-96705104D01*
X129560734Y-96703666D01*
X129560198Y-96702168D01*
X129559812Y-96700625D01*
X129559578Y-96699051D01*
X129559500Y-96697462D01*
X129559500Y-95766686D01*
X129559578Y-95765097D01*
X129559812Y-95763523D01*
X129560198Y-95761980D01*
X129560734Y-95760482D01*
X129561414Y-95759044D01*
X129562232Y-95757679D01*
X129563180Y-95756401D01*
X129564248Y-95755222D01*
X129565427Y-95754154D01*
X129566705Y-95753206D01*
X129568070Y-95752388D01*
X129569508Y-95751708D01*
X129571006Y-95751172D01*
X129572549Y-95750786D01*
X129574123Y-95750552D01*
X129575712Y-95750474D01*
X130006488Y-95750474D01*
X130008077Y-95750552D01*
X130008077Y-95750552D01*
G37*
D15*
X129791100Y-96232074D03*
D11*
G36*
X130508077Y-95750552D02*
X130509651Y-95750786D01*
X130511194Y-95751172D01*
X130512692Y-95751708D01*
X130514130Y-95752388D01*
X130515495Y-95753206D01*
X130516773Y-95754154D01*
X130517952Y-95755222D01*
X130519020Y-95756401D01*
X130519968Y-95757679D01*
X130520786Y-95759044D01*
X130521466Y-95760482D01*
X130522002Y-95761980D01*
X130522388Y-95763523D01*
X130522622Y-95765097D01*
X130522700Y-95766686D01*
X130522700Y-96697462D01*
X130522622Y-96699051D01*
X130522388Y-96700625D01*
X130522002Y-96702168D01*
X130521466Y-96703666D01*
X130520786Y-96705104D01*
X130519968Y-96706469D01*
X130519020Y-96707747D01*
X130517952Y-96708926D01*
X130516773Y-96709994D01*
X130515495Y-96710942D01*
X130514130Y-96711760D01*
X130512692Y-96712440D01*
X130511194Y-96712976D01*
X130509651Y-96713362D01*
X130508077Y-96713596D01*
X130506488Y-96713674D01*
X130075712Y-96713674D01*
X130074123Y-96713596D01*
X130072549Y-96713362D01*
X130071006Y-96712976D01*
X130069508Y-96712440D01*
X130068070Y-96711760D01*
X130066705Y-96710942D01*
X130065427Y-96709994D01*
X130064248Y-96708926D01*
X130063180Y-96707747D01*
X130062232Y-96706469D01*
X130061414Y-96705104D01*
X130060734Y-96703666D01*
X130060198Y-96702168D01*
X130059812Y-96700625D01*
X130059578Y-96699051D01*
X130059500Y-96697462D01*
X130059500Y-95766686D01*
X130059578Y-95765097D01*
X130059812Y-95763523D01*
X130060198Y-95761980D01*
X130060734Y-95760482D01*
X130061414Y-95759044D01*
X130062232Y-95757679D01*
X130063180Y-95756401D01*
X130064248Y-95755222D01*
X130065427Y-95754154D01*
X130066705Y-95753206D01*
X130068070Y-95752388D01*
X130069508Y-95751708D01*
X130071006Y-95751172D01*
X130072549Y-95750786D01*
X130074123Y-95750552D01*
X130075712Y-95750474D01*
X130506488Y-95750474D01*
X130508077Y-95750552D01*
X130508077Y-95750552D01*
G37*
D15*
X130291100Y-96232074D03*
D16*
X129541100Y-94252074D03*
D11*
G36*
X131008077Y-95750552D02*
X131009651Y-95750786D01*
X131011194Y-95751172D01*
X131012692Y-95751708D01*
X131014130Y-95752388D01*
X131015495Y-95753206D01*
X131016773Y-95754154D01*
X131017952Y-95755222D01*
X131019020Y-95756401D01*
X131019968Y-95757679D01*
X131020786Y-95759044D01*
X131021466Y-95760482D01*
X131022002Y-95761980D01*
X131022388Y-95763523D01*
X131022622Y-95765097D01*
X131022700Y-95766686D01*
X131022700Y-96697462D01*
X131022622Y-96699051D01*
X131022388Y-96700625D01*
X131022002Y-96702168D01*
X131021466Y-96703666D01*
X131020786Y-96705104D01*
X131019968Y-96706469D01*
X131019020Y-96707747D01*
X131017952Y-96708926D01*
X131016773Y-96709994D01*
X131015495Y-96710942D01*
X131014130Y-96711760D01*
X131012692Y-96712440D01*
X131011194Y-96712976D01*
X131009651Y-96713362D01*
X131008077Y-96713596D01*
X131006488Y-96713674D01*
X130575712Y-96713674D01*
X130574123Y-96713596D01*
X130572549Y-96713362D01*
X130571006Y-96712976D01*
X130569508Y-96712440D01*
X130568070Y-96711760D01*
X130566705Y-96710942D01*
X130565427Y-96709994D01*
X130564248Y-96708926D01*
X130563180Y-96707747D01*
X130562232Y-96706469D01*
X130561414Y-96705104D01*
X130560734Y-96703666D01*
X130560198Y-96702168D01*
X130559812Y-96700625D01*
X130559578Y-96699051D01*
X130559500Y-96697462D01*
X130559500Y-95766686D01*
X130559578Y-95765097D01*
X130559812Y-95763523D01*
X130560198Y-95761980D01*
X130560734Y-95760482D01*
X130561414Y-95759044D01*
X130562232Y-95757679D01*
X130563180Y-95756401D01*
X130564248Y-95755222D01*
X130565427Y-95754154D01*
X130566705Y-95753206D01*
X130568070Y-95752388D01*
X130569508Y-95751708D01*
X130571006Y-95751172D01*
X130572549Y-95750786D01*
X130574123Y-95750552D01*
X130575712Y-95750474D01*
X131006488Y-95750474D01*
X131008077Y-95750552D01*
X131008077Y-95750552D01*
G37*
D15*
X130791100Y-96232074D03*
G04 #@! TD*
D17*
G04 #@! TO.C,C16*
X132222000Y-105664000D03*
X130922000Y-105664000D03*
G04 #@! TD*
D14*
G04 #@! TO.C,R19*
X131826000Y-101204000D03*
X131826000Y-102504000D03*
G04 #@! TD*
D18*
G04 #@! TO.C,L4*
X132241100Y-85598000D03*
X150241100Y-85598000D03*
G04 #@! TD*
D19*
G04 #@! TO.C,L3*
X123157100Y-113452074D03*
X123157100Y-95452074D03*
G04 #@! TD*
D20*
G04 #@! TO.C,B1*
X152541100Y-92152074D03*
X154541100Y-92152074D03*
G04 #@! TD*
D21*
G04 #@! TO.C,D4*
X142113000Y-89979500D03*
D11*
G36*
X140314963Y-86848398D02*
X140316404Y-86833766D01*
X140324054Y-86795308D01*
X140328322Y-86781239D01*
X140343325Y-86745020D01*
X140350256Y-86732053D01*
X140372038Y-86699453D01*
X140381365Y-86688088D01*
X140409088Y-86660365D01*
X140420453Y-86651038D01*
X140453053Y-86629256D01*
X140466020Y-86622325D01*
X140502239Y-86607322D01*
X140516308Y-86603054D01*
X140554766Y-86595404D01*
X140569398Y-86593963D01*
X140608602Y-86593963D01*
X140623234Y-86595404D01*
X140661692Y-86603054D01*
X140675761Y-86607322D01*
X140711980Y-86622325D01*
X140724947Y-86629256D01*
X140756383Y-86650090D01*
X140766951Y-86658631D01*
X140780531Y-86670665D01*
X145098531Y-90861665D01*
X145111934Y-90876017D01*
X145121429Y-90887242D01*
X145143687Y-90919502D01*
X145150811Y-90932364D01*
X145166357Y-90968366D01*
X145170834Y-90982370D01*
X145179053Y-91020692D01*
X145180713Y-91035301D01*
X145181299Y-91074518D01*
X145180076Y-91089169D01*
X145173004Y-91127719D01*
X145168947Y-91141851D01*
X145154479Y-91178309D01*
X145147742Y-91191377D01*
X145126461Y-91224279D01*
X145117305Y-91235783D01*
X145089983Y-91263934D01*
X145078758Y-91273429D01*
X145046498Y-91295687D01*
X145033636Y-91302811D01*
X144997634Y-91318357D01*
X144983630Y-91322834D01*
X144943820Y-91331217D01*
X144928092Y-91332885D01*
X144907000Y-91334000D01*
X140589000Y-91334000D01*
X140569398Y-91333037D01*
X140554766Y-91331596D01*
X140516308Y-91323946D01*
X140502239Y-91319678D01*
X140466020Y-91304675D01*
X140453053Y-91297744D01*
X140420453Y-91275962D01*
X140409088Y-91266635D01*
X140381365Y-91238912D01*
X140372038Y-91227547D01*
X140350256Y-91194947D01*
X140343325Y-91181980D01*
X140328322Y-91145761D01*
X140324054Y-91131692D01*
X140316404Y-91093234D01*
X140314963Y-91078602D01*
X140314000Y-91059000D01*
X140314000Y-86868000D01*
X140314963Y-86848398D01*
X140314963Y-86848398D01*
G37*
D22*
X144018000Y-111252000D03*
D23*
X143637000Y-114122200D03*
G04 #@! TD*
D21*
G04 #@! TO.C,D3*
X138430000Y-111191574D03*
D11*
G36*
X140228037Y-114322676D02*
X140226596Y-114337308D01*
X140218946Y-114375766D01*
X140214678Y-114389835D01*
X140199675Y-114426054D01*
X140192744Y-114439021D01*
X140170962Y-114471621D01*
X140161635Y-114482986D01*
X140133912Y-114510709D01*
X140122547Y-114520036D01*
X140089947Y-114541818D01*
X140076980Y-114548749D01*
X140040761Y-114563752D01*
X140026692Y-114568020D01*
X139988234Y-114575670D01*
X139973602Y-114577111D01*
X139934398Y-114577111D01*
X139919766Y-114575670D01*
X139881308Y-114568020D01*
X139867239Y-114563752D01*
X139831020Y-114548749D01*
X139818053Y-114541818D01*
X139786617Y-114520984D01*
X139776049Y-114512443D01*
X139762469Y-114500409D01*
X135444469Y-110309409D01*
X135431066Y-110295057D01*
X135421571Y-110283832D01*
X135399313Y-110251572D01*
X135392189Y-110238710D01*
X135376643Y-110202708D01*
X135372166Y-110188704D01*
X135363947Y-110150382D01*
X135362287Y-110135773D01*
X135361701Y-110096556D01*
X135362924Y-110081905D01*
X135369996Y-110043355D01*
X135374053Y-110029223D01*
X135388521Y-109992765D01*
X135395258Y-109979697D01*
X135416539Y-109946795D01*
X135425695Y-109935291D01*
X135453017Y-109907140D01*
X135464242Y-109897645D01*
X135496502Y-109875387D01*
X135509364Y-109868263D01*
X135545366Y-109852717D01*
X135559370Y-109848240D01*
X135599180Y-109839857D01*
X135614908Y-109838189D01*
X135636000Y-109837074D01*
X139954000Y-109837074D01*
X139973602Y-109838037D01*
X139988234Y-109839478D01*
X140026692Y-109847128D01*
X140040761Y-109851396D01*
X140076980Y-109866399D01*
X140089947Y-109873330D01*
X140122547Y-109895112D01*
X140133912Y-109904439D01*
X140161635Y-109932162D01*
X140170962Y-109943527D01*
X140192744Y-109976127D01*
X140199675Y-109989094D01*
X140214678Y-110025313D01*
X140218946Y-110039382D01*
X140226596Y-110077840D01*
X140228037Y-110092472D01*
X140229000Y-110112074D01*
X140229000Y-114303074D01*
X140228037Y-114322676D01*
X140228037Y-114322676D01*
G37*
D22*
X136525000Y-89919074D03*
D23*
X136906000Y-87048874D03*
G04 #@! TD*
D17*
G04 #@! TO.C,R22*
X149191100Y-108952074D03*
X150491100Y-108952074D03*
G04 #@! TD*
D14*
G04 #@! TO.C,R21*
X129540000Y-98156000D03*
X129540000Y-99456000D03*
G04 #@! TD*
G04 #@! TO.C,R18*
X131826000Y-98156000D03*
X131826000Y-99456000D03*
G04 #@! TD*
G04 #@! TO.C,R11*
X126492000Y-113568000D03*
X126492000Y-112268000D03*
G04 #@! TD*
G04 #@! TO.C,R12*
X152400000Y-89102074D03*
X152400000Y-90402074D03*
G04 #@! TD*
G04 #@! TO.C,R16*
X128016000Y-99456000D03*
X128016000Y-98156000D03*
G04 #@! TD*
G04 #@! TO.C,R15*
X128016000Y-102504000D03*
X128016000Y-101204000D03*
G04 #@! TD*
G04 #@! TO.C,C14*
X129641100Y-89202074D03*
X129641100Y-90502074D03*
G04 #@! TD*
G04 #@! TO.C,C15*
X131041100Y-89202074D03*
X131041100Y-90502074D03*
G04 #@! TD*
G04 #@! TO.C,C13*
X128241100Y-89202074D03*
X128241100Y-90502074D03*
G04 #@! TD*
G04 #@! TO.C,C9*
X126492000Y-99568000D03*
X126492000Y-98268000D03*
G04 #@! TD*
D17*
G04 #@! TO.C,C8*
X130190000Y-113538000D03*
X128890000Y-113538000D03*
G04 #@! TD*
D24*
G04 #@! TO.C,A1*
X121890394Y-88672607D03*
X124391806Y-88231541D03*
X123141100Y-88452074D03*
D11*
G36*
X123738600Y-87598755D02*
X123994419Y-89049574D01*
X122543600Y-89305393D01*
X122287781Y-87854574D01*
X123738600Y-87598755D01*
X123738600Y-87598755D01*
G37*
G04 #@! TD*
D24*
G04 #@! TO.C,A2*
X125620567Y-87002780D03*
X126061633Y-84501368D03*
X125841100Y-85752074D03*
D11*
G36*
X125243600Y-84898755D02*
X126694419Y-85154574D01*
X126438600Y-86605393D01*
X124987781Y-86349574D01*
X125243600Y-84898755D01*
X125243600Y-84898755D01*
G37*
G04 #@! TD*
D25*
G04 #@! TO.C,MK1*
X152941100Y-86352074D03*
G04 #@! TD*
M02*
