%
M48
M72
T01C0.03600
T02C0.04000
%
T01
X60000Y15000
X70000Y15000
X80000Y15000
X90000Y15000
X100000Y15000
X110000Y15000
X120000Y15000
X130000Y15000
X140000Y15000
X150000Y15000
X150000Y195000
X140000Y195000
X130000Y195000
X120000Y195000
X110000Y195000
X100000Y195000
X90000Y195000
X80000Y195000
X70000Y195000
X60000Y195000
T02
X30500Y175000
X29500Y165000
X20500Y165000
X19500Y155000
X20500Y145000
X29500Y145000
X30500Y155000
X19500Y175000
X20500Y185000
X29500Y185000
X131063Y165131
X131037Y156069
X141037Y155069
X151037Y156069
X151063Y165131
X141063Y166131
X170000Y195500
X180000Y194500
X190000Y195500
M30
