G75*
%MOIN*%
%OFA0B0*%
%FSLAX25Y25*%
%IPPOS*%
%LPD*%
%AMOC8*
5,1,8,0,0,1.08239X$1,22.5*
%
%ADD10R,0.20472X0.20472*%
%ADD11C,0.01181*%
%ADD12R,0.04331X0.03937*%
%ADD13R,0.01102X0.02559*%
%ADD14R,0.02559X0.01102*%
%ADD15R,0.03937X0.04331*%
%ADD16R,0.01181X0.03150*%
%ADD17R,0.03150X0.01181*%
%ADD18R,1.14173X0.03937*%
%ADD19R,1.02362X0.55118*%
%ADD20R,0.03150X0.03150*%
%ADD21R,0.02600X0.03000*%
D10*
X0077181Y0036031D03*
D11*
X0076197Y0023631D02*
X0076197Y0023631D01*
X0076197Y0022055D01*
X0076197Y0022055D01*
X0076197Y0023631D01*
X0076197Y0023235D02*
X0076197Y0023235D01*
X0078165Y0023631D02*
X0078165Y0023631D01*
X0078165Y0022055D01*
X0078165Y0022055D01*
X0078165Y0023631D01*
X0078165Y0023235D02*
X0078165Y0023235D01*
X0080134Y0023631D02*
X0080134Y0023631D01*
X0080134Y0022055D01*
X0080134Y0022055D01*
X0080134Y0023631D01*
X0080134Y0023235D02*
X0080134Y0023235D01*
X0082102Y0023631D02*
X0082102Y0023631D01*
X0082102Y0022055D01*
X0082102Y0022055D01*
X0082102Y0023631D01*
X0082102Y0023235D02*
X0082102Y0023235D01*
X0084071Y0023631D02*
X0084071Y0023631D01*
X0084071Y0022055D01*
X0084071Y0022055D01*
X0084071Y0023631D01*
X0084071Y0023235D02*
X0084071Y0023235D01*
X0086039Y0023631D02*
X0086039Y0023631D01*
X0086039Y0022055D01*
X0086039Y0022055D01*
X0086039Y0023631D01*
X0086039Y0023235D02*
X0086039Y0023235D01*
X0088008Y0023631D02*
X0088008Y0023631D01*
X0088008Y0022055D01*
X0088008Y0022055D01*
X0088008Y0023631D01*
X0088008Y0023235D02*
X0088008Y0023235D01*
X0089582Y0025205D02*
X0089582Y0025205D01*
X0091158Y0025205D01*
X0091158Y0025205D01*
X0089582Y0025205D01*
X0089582Y0027173D02*
X0089582Y0027173D01*
X0091158Y0027173D01*
X0091158Y0027173D01*
X0089582Y0027173D01*
X0089582Y0029142D02*
X0089582Y0029142D01*
X0091158Y0029142D01*
X0091158Y0029142D01*
X0089582Y0029142D01*
X0089582Y0031110D02*
X0089582Y0031110D01*
X0091158Y0031110D01*
X0091158Y0031110D01*
X0089582Y0031110D01*
X0089582Y0033079D02*
X0089582Y0033079D01*
X0091158Y0033079D01*
X0091158Y0033079D01*
X0089582Y0033079D01*
X0089582Y0035047D02*
X0089582Y0035047D01*
X0091158Y0035047D01*
X0091158Y0035047D01*
X0089582Y0035047D01*
X0089582Y0037016D02*
X0089582Y0037016D01*
X0091158Y0037016D01*
X0091158Y0037016D01*
X0089582Y0037016D01*
X0089582Y0038984D02*
X0089582Y0038984D01*
X0091158Y0038984D01*
X0091158Y0038984D01*
X0089582Y0038984D01*
X0089582Y0040953D02*
X0089582Y0040953D01*
X0091158Y0040953D01*
X0091158Y0040953D01*
X0089582Y0040953D01*
X0089582Y0042921D02*
X0089582Y0042921D01*
X0091158Y0042921D01*
X0091158Y0042921D01*
X0089582Y0042921D01*
X0089582Y0044890D02*
X0089582Y0044890D01*
X0091158Y0044890D01*
X0091158Y0044890D01*
X0089582Y0044890D01*
X0089582Y0046858D02*
X0089582Y0046858D01*
X0091158Y0046858D01*
X0091158Y0046858D01*
X0089582Y0046858D01*
X0088008Y0048432D02*
X0088008Y0048432D01*
X0088008Y0050008D01*
X0088008Y0050008D01*
X0088008Y0048432D01*
X0088008Y0049612D02*
X0088008Y0049612D01*
X0086039Y0048432D02*
X0086039Y0048432D01*
X0086039Y0050008D01*
X0086039Y0050008D01*
X0086039Y0048432D01*
X0086039Y0049612D02*
X0086039Y0049612D01*
X0084071Y0048432D02*
X0084071Y0048432D01*
X0084071Y0050008D01*
X0084071Y0050008D01*
X0084071Y0048432D01*
X0084071Y0049612D02*
X0084071Y0049612D01*
X0082102Y0048432D02*
X0082102Y0048432D01*
X0082102Y0050008D01*
X0082102Y0050008D01*
X0082102Y0048432D01*
X0082102Y0049612D02*
X0082102Y0049612D01*
X0080134Y0050008D02*
X0080134Y0050008D01*
X0080134Y0048432D01*
X0080134Y0048432D01*
X0080134Y0050008D01*
X0080134Y0049612D02*
X0080134Y0049612D01*
X0078165Y0050008D02*
X0078165Y0050008D01*
X0078165Y0048432D01*
X0078165Y0048432D01*
X0078165Y0050008D01*
X0078165Y0049612D02*
X0078165Y0049612D01*
X0076197Y0050008D02*
X0076197Y0050008D01*
X0076197Y0048432D01*
X0076197Y0048432D01*
X0076197Y0050008D01*
X0076197Y0049612D02*
X0076197Y0049612D01*
X0074228Y0050008D02*
X0074228Y0050008D01*
X0074228Y0048432D01*
X0074228Y0048432D01*
X0074228Y0050008D01*
X0074228Y0049612D02*
X0074228Y0049612D01*
X0072260Y0048432D02*
X0072260Y0048432D01*
X0072260Y0050008D01*
X0072260Y0050008D01*
X0072260Y0048432D01*
X0072260Y0049612D02*
X0072260Y0049612D01*
X0070291Y0048432D02*
X0070291Y0048432D01*
X0070291Y0050008D01*
X0070291Y0050008D01*
X0070291Y0048432D01*
X0070291Y0049612D02*
X0070291Y0049612D01*
X0068323Y0048432D02*
X0068323Y0048432D01*
X0068323Y0050008D01*
X0068323Y0050008D01*
X0068323Y0048432D01*
X0068323Y0049612D02*
X0068323Y0049612D01*
X0066354Y0048432D02*
X0066354Y0048432D01*
X0066354Y0050008D01*
X0066354Y0050008D01*
X0066354Y0048432D01*
X0066354Y0049612D02*
X0066354Y0049612D01*
X0064780Y0046858D02*
X0064780Y0046858D01*
X0063204Y0046858D01*
X0063204Y0046858D01*
X0064780Y0046858D01*
X0064780Y0044890D02*
X0064780Y0044890D01*
X0063204Y0044890D01*
X0063204Y0044890D01*
X0064780Y0044890D01*
X0064780Y0042921D02*
X0064780Y0042921D01*
X0063204Y0042921D01*
X0063204Y0042921D01*
X0064780Y0042921D01*
X0064780Y0040953D02*
X0064780Y0040953D01*
X0063204Y0040953D01*
X0063204Y0040953D01*
X0064780Y0040953D01*
X0064780Y0038984D02*
X0064780Y0038984D01*
X0063204Y0038984D01*
X0063204Y0038984D01*
X0064780Y0038984D01*
X0064780Y0037016D02*
X0064780Y0037016D01*
X0063204Y0037016D01*
X0063204Y0037016D01*
X0064780Y0037016D01*
X0064780Y0035047D02*
X0064780Y0035047D01*
X0063204Y0035047D01*
X0063204Y0035047D01*
X0064780Y0035047D01*
X0064780Y0033079D02*
X0064780Y0033079D01*
X0063204Y0033079D01*
X0063204Y0033079D01*
X0064780Y0033079D01*
X0064780Y0031110D02*
X0064780Y0031110D01*
X0063204Y0031110D01*
X0063204Y0031110D01*
X0064780Y0031110D01*
X0064780Y0029142D02*
X0064780Y0029142D01*
X0063204Y0029142D01*
X0063204Y0029142D01*
X0064780Y0029142D01*
X0064780Y0027173D02*
X0064780Y0027173D01*
X0063204Y0027173D01*
X0063204Y0027173D01*
X0064780Y0027173D01*
X0064780Y0025205D02*
X0064780Y0025205D01*
X0063204Y0025205D01*
X0063204Y0025205D01*
X0064780Y0025205D01*
X0066354Y0023631D02*
X0066354Y0023631D01*
X0066354Y0022055D01*
X0066354Y0022055D01*
X0066354Y0023631D01*
X0066354Y0023235D02*
X0066354Y0023235D01*
X0068323Y0023631D02*
X0068323Y0023631D01*
X0068323Y0022055D01*
X0068323Y0022055D01*
X0068323Y0023631D01*
X0068323Y0023235D02*
X0068323Y0023235D01*
X0070291Y0023631D02*
X0070291Y0023631D01*
X0070291Y0022055D01*
X0070291Y0022055D01*
X0070291Y0023631D01*
X0070291Y0023235D02*
X0070291Y0023235D01*
X0072260Y0023631D02*
X0072260Y0023631D01*
X0072260Y0022055D01*
X0072260Y0022055D01*
X0072260Y0023631D01*
X0072260Y0023235D02*
X0072260Y0023235D01*
X0074228Y0023631D02*
X0074228Y0023631D01*
X0074228Y0022055D01*
X0074228Y0022055D01*
X0074228Y0023631D01*
X0074228Y0023235D02*
X0074228Y0023235D01*
D12*
X0079740Y0012803D03*
X0086433Y0012803D03*
X0065173Y0012803D03*
X0058480Y0012803D03*
X0053362Y0024811D03*
X0046669Y0024811D03*
X0046669Y0033079D03*
X0053362Y0033079D03*
X0039780Y0016346D03*
X0033087Y0016346D03*
X0072063Y0057882D03*
X0078756Y0057882D03*
X0084858Y0057882D03*
X0091551Y0057882D03*
X0109268Y0060047D03*
X0109268Y0053354D03*
X0107693Y0038591D03*
X0101000Y0038591D03*
D13*
X0022850Y0038669D03*
X0020882Y0038669D03*
X0018913Y0038669D03*
X0016945Y0038669D03*
X0016945Y0027882D03*
X0018913Y0027882D03*
X0020882Y0027882D03*
X0022850Y0027882D03*
D14*
X0025291Y0030323D03*
X0025291Y0032291D03*
X0025291Y0034260D03*
X0025291Y0036228D03*
X0014504Y0036228D03*
X0014504Y0034260D03*
X0014504Y0032291D03*
X0014504Y0030323D03*
D15*
X0017535Y0014772D03*
X0017535Y0021465D03*
X0008874Y0023827D03*
X0008874Y0030520D03*
X0016945Y0045480D03*
X0016945Y0052173D03*
X0016945Y0058079D03*
X0016945Y0064772D03*
X0046079Y0050598D03*
X0046079Y0043906D03*
X0039976Y0031701D03*
X0039976Y0025008D03*
X0031906Y0025008D03*
X0031906Y0031701D03*
X0058874Y0052173D03*
X0058874Y0058866D03*
X0098441Y0018118D03*
X0098441Y0011425D03*
X0107102Y0011425D03*
X0107102Y0018118D03*
D16*
X0036433Y0045677D03*
X0034465Y0045677D03*
X0032496Y0045677D03*
X0030528Y0045677D03*
X0028559Y0045677D03*
X0026591Y0045677D03*
X0026591Y0061425D03*
X0028559Y0061425D03*
X0030528Y0061425D03*
X0032496Y0061425D03*
X0034465Y0061425D03*
X0036433Y0061425D03*
D17*
X0039386Y0058472D03*
X0039386Y0056504D03*
X0039386Y0054535D03*
X0039386Y0052567D03*
X0039386Y0050598D03*
X0039386Y0048630D03*
X0023638Y0048630D03*
X0023638Y0050598D03*
X0023638Y0052567D03*
X0023638Y0054535D03*
X0023638Y0056504D03*
X0023638Y0058472D03*
D18*
X0069898Y0070480D03*
X0069898Y0140165D03*
D19*
X0069898Y0105323D03*
D20*
X0038992Y0010835D03*
X0033087Y0010835D03*
D21*
X0070457Y0010400D03*
X0074457Y0010400D03*
X0074457Y0015600D03*
X0070457Y0015600D03*
M02*
